<?xml version="1.0" encoding="UTF-8"?>
<svg viewBox="0 0 640 480" xmlns="http://www.w3.org/2000/svg" xmlns:xlink="http://www.w3.org/1999/xlink">
 <defs>
  <filter id="s" x="-.28184" y="-.20898" width="1.5637" height="1.418">
   <feGaussianBlur stdDeviation="16.522008"/>
  </filter>
  <filter id="w" x="-.11077" y="-.087241" width="1.2215" height="1.1745">
   <feGaussianBlur stdDeviation="1.944367"/>
  </filter>
  <filter id="p">
   <feGaussianBlur stdDeviation="1.014257"/>
  </filter>
  <filter id="u" x="-.31276" y="-.24633" width="1.6255" height="1.4927">
   <feGaussianBlur stdDeviation="5.489977"/>
  </filter>
  <filter id="v" x="-.20199" y="-.15909" width="1.404" height="1.3182">
   <feGaussianBlur stdDeviation="3.54561"/>
  </filter>
  <filter id="q" x="-.21032" y="-.17208" width="1.4206" height="1.3442">
   <feGaussianBlur stdDeviation="1.018027"/>
  </filter>
  <filter id="t" x="-5.1346" y="-6.8462" width="11.269" height="14.692">
   <feGaussianBlur stdDeviation="24.450637"/>
  </filter>
  <filter id="y" x="-.14986" y="-.11803" width="1.2997" height="1.2361">
   <feGaussianBlur stdDeviation="2.630614"/>
  </filter>
  <filter id="x" x="-.1629" y="-.1283" width="1.3258" height="1.2566">
   <feGaussianBlur stdDeviation="2.859363"/>
  </filter>
  <linearGradient id="ac" x1=".12784" x2=".62074" y1=".44565" y2=".4868">
   <stop stop-color="#fff" offset="0"/>
   <stop stop-color="#fff" stop-opacity="0" offset="1"/>
  </linearGradient>
  <linearGradient id="ab" x1=".13762" x2=".89908" y1=".55782" y2=".52381">
   <stop stop-color="#dc0000" offset="0"/>
   <stop stop-color="#fff" offset="1"/>
  </linearGradient>
  <linearGradient id="z" x1=".54213" x2=".5486" y1=".090178" y2=".48384">
   <stop stop-color="#f90" offset="0"/>
   <stop stop-color="#ffc022" offset="1"/>
  </linearGradient>
  <linearGradient id="aa" x1=".51739" x2=".40631" y1=".98322" y2=".33147">
   <stop stop-color="#9ade00" offset="0"/>
   <stop stop-color="#9ade00" stop-opacity="0" offset="1"/>
  </linearGradient>
  <radialGradient id="r" cx="106.24" cy="-215.7" r="25.816" gradientTransform="matrix(-3.0097e-8 -.96464 1.6519 -2.0286e-7 462.55 -108.12)" gradientUnits="userSpaceOnUse">
   <stop stop-color="#fff" offset="0"/>
   <stop stop-color="#fec54e" offset="1"/>
  </radialGradient>
  <radialGradient id="ad" cx="192.38" cy="207.44" r="55.676" gradientTransform="matrix(1.4074 .15494 -.32637 1.4412 -10.674 -122)" gradientUnits="userSpaceOnUse">
   <stop stop-color="#fff" offset="0"/>
   <stop stop-color="#fff" stop-opacity="0" offset="1"/>
  </radialGradient>
 </defs>
 <use x="95.250481" y="82.945465" width="744.09448" height="1052.3622" filter="url(#t)" xlink:href="#use3925"/>
 <path d="m231.8 150.95c19.627 39.427 20.275 104.68 1.447 145.78-18.828 41.099-50.009 42.5-69.662 3.1292-19.653-39.37-20.344-104.62-1.5437-145.77 18.8-41.154 49.98-42.645 69.66-3.3316" fill="url(#ad)" stroke-width="0"/>
 <g transform="matrix(.78778 0 0 .71549 105.22 105.89)">
  <g stroke-width="0">
   <path d="m406.01-70.289c116.02 165.11-30.81 302.23-40.112 443.83-7.6171 115.95-159.96 131.5-237.17 15.132-106.3-160.21-94.182-302.9-17.901-422.56 74.588-117.01 241.64-104.46 295.08-35.169" fill="url(#z)"/>
   <path d="m64.922 235.61c9.6033 48.759 30.391 99.482 65.094 151.78 77.215 116.37 229.57 100.83 237.19-15.125 2.52-38.36 16.931-71.056 34.719-102.44-95.46 70.673-232.15 65.204-321.38-18.219-5.5154-5.1569-10.706-10.486-15.625-16z" fill="url(#aa)" opacity=".517"/>
   <path d="m307.11-121.14c14.142 1.9748 14.601 5.2432 1.0243 7.3002-13.576 2.057-36.047 2.1238-50.189 0.14899s-14.601-5.2432-1.0243-7.3002c13.55-2.053 35.966-2.1241 50.118-0.1589" fill="#804d00" opacity=".517"/>
  </g>
  <path d="m263.81-117.42l29.688-1.2908-1.2908-11.617-6.4539-7.7447-21.943 20.652z" fill="#0e232e" stroke="#000"/>
  <g stroke-width="0">
   <g stroke="#add40b">
    <path d="m260.25 176.21c28.027 36.286 28.936 96.344 2.0299 134.14-26.906 37.798-71.438 39.024-99.466 2.7376-28.027-36.286-28.936-96.344-2.0299-134.14 26.853-37.724 71.278-39.03 99.325-2.9198" fill="#fff" filter="url(#s)" opacity=".273"/>
    <path d="m381.47 145.77c-41.509 53.038-110.21 54.758-153.45 3.8413-43.238-50.916-44.64-135.19-3.1316-188.23 41.509-53.038 110.21-54.758 153.45-3.8413 43.154 50.816 44.647 134.88 3.34 187.96" fill="url(#ab)" filter="url(#s)" opacity=".273"/>
    <g transform="matrix(.46698 0 0 .77594 -127.44 101.36)" fill="#b88100" opacity=".088">
     <path d="m750.68-123.63c1.0325 2.395 1.066 6.359 0.074768 8.8538-0.99127 2.4948-2.6319 2.5757-3.6644 0.18069-1.0326-2.395-1.066-6.359-0.074768-8.8538 0.98926-2.4899 2.626-2.5761 3.6592-0.19271"/>
     <path d="m766.74-123.63c1.0325 2.395 1.066 6.359 0.074768 8.8538-0.99127 2.4948-2.6319 2.5757-3.6644 0.18069-1.0326-2.395-1.066-6.359-0.074768-8.8538 0.98926-2.4899 2.6259-2.5761 3.6592-0.19271"/>
     <path d="m760.31-95.602c1.0325 2.395 1.066 6.359 0.074768 8.8538-0.99121 2.4948-2.6319 2.5757-3.6644 0.18069s-1.066-6.359-0.074768-8.8538c0.98932-2.4899 2.626-2.5761 3.6592-0.19272"/>
     <path d="m777.98-95.602c1.0326 2.395 1.066 6.359 0.074768 8.8538-0.99121 2.4948-2.6318 2.5757-3.6644 0.18069-1.0325-2.395-1.066-6.359-0.074768-8.8538 0.98932-2.4899 2.626-2.5761 3.6592-0.19272"/>
     <path d="m769.95-82.666c1.0326 2.395 1.066 6.359 0.074768 8.8538-0.99121 2.4948-2.6318 2.5757-3.6644 0.18069-1.0325-2.395-1.066-6.359-0.074768-8.8538 0.98932-2.4899 2.626-2.5761 3.6592-0.19271"/>
     <path d="m747.46-82.666c1.0326 2.395 1.066 6.359 0.074829 8.8538-0.99127 2.4948-2.6319 2.5757-3.6644 0.18069-1.0326-2.395-1.066-6.359-0.074829-8.8538 0.98932-2.4899 2.626-2.5761 3.6592-0.19271"/>
     <path d="m741.04-95.602c1.0325 2.395 1.066 6.359 0.074768 8.8538-0.99127 2.4948-2.6319 2.5757-3.6644 0.18069-1.0326-2.395-1.066-6.359-0.074768-8.8538 0.98926-2.4899 2.6259-2.5761 3.6592-0.19272"/>
    </g>
    <g fill="#f60">
     <g transform="matrix(.5 0 0 .5 -149.85 102.77)" opacity=".088">
      <path d="m750.68-123.63c1.0325 2.395 1.066 6.359 0.074768 8.8538-0.99127 2.4948-2.6319 2.5757-3.6644 0.18069-1.0326-2.395-1.066-6.359-0.074768-8.8538 0.98926-2.4899 2.626-2.5761 3.6592-0.19271"/>
      <path d="m766.74-123.63c1.0325 2.395 1.066 6.359 0.074768 8.8538-0.99127 2.4948-2.6319 2.5757-3.6644 0.18069-1.0326-2.395-1.066-6.359-0.074768-8.8538 0.98926-2.4899 2.6259-2.5761 3.6592-0.19271"/>
      <path d="m760.31-95.602c1.0325 2.395 1.066 6.359 0.074768 8.8538-0.99121 2.4948-2.6319 2.5757-3.6644 0.18069s-1.066-6.359-0.074768-8.8538c0.98932-2.4899 2.626-2.5761 3.6592-0.19272"/>
      <path d="m777.98-95.602c1.0326 2.395 1.066 6.359 0.074768 8.8538-0.99121 2.4948-2.6318 2.5757-3.6644 0.18069-1.0325-2.395-1.066-6.359-0.074768-8.8538 0.98932-2.4899 2.626-2.5761 3.6592-0.19272"/>
      <path d="m769.95-82.666c1.0326 2.395 1.066 6.359 0.074768 8.8538-0.99121 2.4948-2.6318 2.5757-3.6644 0.18069-1.0325-2.395-1.066-6.359-0.074768-8.8538 0.98932-2.4899 2.626-2.5761 3.6592-0.19271"/>
      <path d="m747.46-82.666c1.0326 2.395 1.066 6.359 0.074829 8.8538-0.99127 2.4948-2.6319 2.5757-3.6644 0.18069-1.0326-2.395-1.066-6.359-0.074829-8.8538 0.98932-2.4899 2.626-2.5761 3.6592-0.19271"/>
      <path d="m741.04-95.602c1.0325 2.395 1.066 6.359 0.074768 8.8538-0.99127 2.4948-2.6319 2.5757-3.6644 0.18069-1.0326-2.395-1.066-6.359-0.074768-8.8538 0.98926-2.4899 2.6259-2.5761 3.6592-0.19272"/>
     </g>
     <g transform="matrix(.5 0 0 .5 -169.85 102.77)" opacity=".088">
      <path d="m750.68-123.63c1.0325 2.395 1.066 6.359 0.074768 8.8538-0.99127 2.4948-2.6319 2.5757-3.6644 0.18069-1.0326-2.395-1.066-6.359-0.074768-8.8538 0.98926-2.4899 2.626-2.5761 3.6592-0.19271"/>
      <path d="m766.74-123.63c1.0325 2.395 1.066 6.359 0.074768 8.8538-0.99127 2.4948-2.6319 2.5757-3.6644 0.18069-1.0326-2.395-1.066-6.359-0.074768-8.8538 0.98926-2.4899 2.6259-2.5761 3.6592-0.19271"/>
      <path d="m760.31-95.602c1.0325 2.395 1.066 6.359 0.074768 8.8538-0.99121 2.4948-2.6319 2.5757-3.6644 0.18069s-1.066-6.359-0.074768-8.8538c0.98932-2.4899 2.626-2.5761 3.6592-0.19272"/>
      <path d="m777.98-95.602c1.0326 2.395 1.066 6.359 0.074768 8.8538-0.99121 2.4948-2.6318 2.5757-3.6644 0.18069-1.0325-2.395-1.066-6.359-0.074768-8.8538 0.98932-2.4899 2.626-2.5761 3.6592-0.19272"/>
      <path d="m769.95-82.666c1.0326 2.395 1.066 6.359 0.074768 8.8538-0.99121 2.4948-2.6318 2.5757-3.6644 0.18069-1.0325-2.395-1.066-6.359-0.074768-8.8538 0.98932-2.4899 2.626-2.5761 3.6592-0.19271"/>
      <path d="m747.46-82.666c1.0326 2.395 1.066 6.359 0.074829 8.8538-0.99127 2.4948-2.6319 2.5757-3.6644 0.18069-1.0326-2.395-1.066-6.359-0.074829-8.8538 0.98932-2.4899 2.626-2.5761 3.6592-0.19271"/>
      <path d="m741.04-95.602c1.0325 2.395 1.066 6.359 0.074768 8.8538-0.99127 2.4948-2.6319 2.5757-3.6644 0.18069-1.0326-2.395-1.066-6.359-0.074768-8.8538 0.98926-2.4899 2.6259-2.5761 3.6592-0.19272"/>
     </g>
     <g transform="matrix(.46698 0 0 .77594 -154.52 110.68)" opacity=".088">
      <path d="m750.68-123.63c1.0325 2.395 1.066 6.359 0.074768 8.8538-0.99127 2.4948-2.6319 2.5757-3.6644 0.18069-1.0326-2.395-1.066-6.359-0.074768-8.8538 0.98926-2.4899 2.626-2.5761 3.6592-0.19271"/>
      <path d="m766.74-123.63c1.0325 2.395 1.066 6.359 0.074768 8.8538-0.99127 2.4948-2.6319 2.5757-3.6644 0.18069-1.0326-2.395-1.066-6.359-0.074768-8.8538 0.98926-2.4899 2.6259-2.5761 3.6592-0.19271"/>
      <path d="m760.31-95.602c1.0325 2.395 1.066 6.359 0.074768 8.8538-0.99121 2.4948-2.6319 2.5757-3.6644 0.18069s-1.066-6.359-0.074768-8.8538c0.98932-2.4899 2.626-2.5761 3.6592-0.19272"/>
      <path d="m777.98-95.602c1.0326 2.395 1.066 6.359 0.074768 8.8538-0.99121 2.4948-2.6318 2.5757-3.6644 0.18069-1.0325-2.395-1.066-6.359-0.074768-8.8538 0.98932-2.4899 2.626-2.5761 3.6592-0.19272"/>
      <path d="m769.95-82.666c1.0326 2.395 1.066 6.359 0.074768 8.8538-0.99121 2.4948-2.6318 2.5757-3.6644 0.18069-1.0325-2.395-1.066-6.359-0.074768-8.8538 0.98932-2.4899 2.626-2.5761 3.6592-0.19271"/>
      <path d="m747.46-82.666c1.0326 2.395 1.066 6.359 0.074829 8.8538-0.99127 2.4948-2.6319 2.5757-3.6644 0.18069-1.0326-2.395-1.066-6.359-0.074829-8.8538 0.98932-2.4899 2.626-2.5761 3.6592-0.19271"/>
      <path d="m741.04-95.602c1.0325 2.395 1.066 6.359 0.074768 8.8538-0.99127 2.4948-2.6319 2.5757-3.6644 0.18069-1.0326-2.395-1.066-6.359-0.074768-8.8538 0.98926-2.4899 2.6259-2.5761 3.6592-0.19272"/>
     </g>
    </g>
    <g fill="#b88100">
     <g transform="matrix(.5 0 0 .5 -158.85 42.768)" opacity=".088">
      <path d="m750.68-123.63c1.0325 2.395 1.066 6.359 0.074768 8.8538-0.99127 2.4948-2.6319 2.5757-3.6644 0.18069-1.0326-2.395-1.066-6.359-0.074768-8.8538 0.98926-2.4899 2.626-2.5761 3.6592-0.19271"/>
      <path d="m766.74-123.63c1.0325 2.395 1.066 6.359 0.074768 8.8538-0.99127 2.4948-2.6319 2.5757-3.6644 0.18069-1.0326-2.395-1.066-6.359-0.074768-8.8538 0.98926-2.4899 2.6259-2.5761 3.6592-0.19271"/>
      <path d="m760.31-95.602c1.0325 2.395 1.066 6.359 0.074768 8.8538-0.99121 2.4948-2.6319 2.5757-3.6644 0.18069s-1.066-6.359-0.074768-8.8538c0.98932-2.4899 2.626-2.5761 3.6592-0.19272"/>
      <path d="m777.98-95.602c1.0326 2.395 1.066 6.359 0.074768 8.8538-0.99121 2.4948-2.6318 2.5757-3.6644 0.18069-1.0325-2.395-1.066-6.359-0.074768-8.8538 0.98932-2.4899 2.626-2.5761 3.6592-0.19272"/>
      <path d="m769.95-82.666c1.0326 2.395 1.066 6.359 0.074768 8.8538-0.99121 2.4948-2.6318 2.5757-3.6644 0.18069-1.0325-2.395-1.066-6.359-0.074768-8.8538 0.98932-2.4899 2.626-2.5761 3.6592-0.19271"/>
      <path d="m747.46-82.666c1.0326 2.395 1.066 6.359 0.074829 8.8538-0.99127 2.4948-2.6319 2.5757-3.6644 0.18069-1.0326-2.395-1.066-6.359-0.074829-8.8538 0.98932-2.4899 2.626-2.5761 3.6592-0.19271"/>
      <path d="m741.04-95.602c1.0325 2.395 1.066 6.359 0.074768 8.8538-0.99127 2.4948-2.6319 2.5757-3.6644 0.18069-1.0326-2.395-1.066-6.359-0.074768-8.8538 0.98926-2.4899 2.6259-2.5761 3.6592-0.19272"/>
     </g>
     <g transform="matrix(.5 0 0 .5 -128.85 42.768)" opacity=".088">
      <path d="m750.68-123.63c1.0325 2.395 1.066 6.359 0.074768 8.8538-0.99127 2.4948-2.6319 2.5757-3.6644 0.18069-1.0326-2.395-1.066-6.359-0.074768-8.8538 0.98926-2.4899 2.626-2.5761 3.6592-0.19271"/>
      <path d="m766.74-123.63c1.0325 2.395 1.066 6.359 0.074768 8.8538-0.99127 2.4948-2.6319 2.5757-3.6644 0.18069-1.0326-2.395-1.066-6.359-0.074768-8.8538 0.98926-2.4899 2.6259-2.5761 3.6592-0.19271"/>
      <path d="m760.31-95.602c1.0325 2.395 1.066 6.359 0.074768 8.8538-0.99121 2.4948-2.6319 2.5757-3.6644 0.18069s-1.066-6.359-0.074768-8.8538c0.98932-2.4899 2.626-2.5761 3.6592-0.19272"/>
      <path d="m777.98-95.602c1.0326 2.395 1.066 6.359 0.074768 8.8538-0.99121 2.4948-2.6318 2.5757-3.6644 0.18069-1.0325-2.395-1.066-6.359-0.074768-8.8538 0.98932-2.4899 2.626-2.5761 3.6592-0.19272"/>
      <path d="m769.95-82.666c1.0326 2.395 1.066 6.359 0.074768 8.8538-0.99121 2.4948-2.6318 2.5757-3.6644 0.18069-1.0325-2.395-1.066-6.359-0.074768-8.8538 0.98932-2.4899 2.626-2.5761 3.6592-0.19271"/>
      <path d="m747.46-82.666c1.0326 2.395 1.066 6.359 0.074829 8.8538-0.99127 2.4948-2.6319 2.5757-3.6644 0.18069-1.0326-2.395-1.066-6.359-0.074829-8.8538 0.98932-2.4899 2.626-2.5761 3.6592-0.19271"/>
      <path d="m741.04-95.602c1.0325 2.395 1.066 6.359 0.074768 8.8538-0.99127 2.4948-2.6319 2.5757-3.6644 0.18069-1.0326-2.395-1.066-6.359-0.074768-8.8538 0.98926-2.4899 2.6259-2.5761 3.6592-0.19272"/>
     </g>
     <g transform="matrix(.5 0 0 .5 -98.846 42.768)" opacity=".088">
      <path d="m750.68-123.63c1.0325 2.395 1.066 6.359 0.074768 8.8538-0.99127 2.4948-2.6319 2.5757-3.6644 0.18069-1.0326-2.395-1.066-6.359-0.074768-8.8538 0.98926-2.4899 2.626-2.5761 3.6592-0.19271"/>
      <path d="m766.74-123.63c1.0325 2.395 1.066 6.359 0.074768 8.8538-0.99127 2.4948-2.6319 2.5757-3.6644 0.18069-1.0326-2.395-1.066-6.359-0.074768-8.8538 0.98926-2.4899 2.6259-2.5761 3.6592-0.19271"/>
      <path d="m760.31-95.602c1.0325 2.395 1.066 6.359 0.074768 8.8538-0.99121 2.4948-2.6319 2.5757-3.6644 0.18069s-1.066-6.359-0.074768-8.8538c0.98932-2.4899 2.626-2.5761 3.6592-0.19272"/>
      <path d="m777.98-95.602c1.0326 2.395 1.066 6.359 0.074768 8.8538-0.99121 2.4948-2.6318 2.5757-3.6644 0.18069-1.0325-2.395-1.066-6.359-0.074768-8.8538 0.98932-2.4899 2.626-2.5761 3.6592-0.19272"/>
      <path d="m769.95-82.666c1.0326 2.395 1.066 6.359 0.074768 8.8538-0.99121 2.4948-2.6318 2.5757-3.6644 0.18069-1.0325-2.395-1.066-6.359-0.074768-8.8538 0.98932-2.4899 2.626-2.5761 3.6592-0.19271"/>
      <path d="m747.46-82.666c1.0326 2.395 1.066 6.359 0.074829 8.8538-0.99127 2.4948-2.6319 2.5757-3.6644 0.18069-1.0326-2.395-1.066-6.359-0.074829-8.8538 0.98932-2.4899 2.626-2.5761 3.6592-0.19271"/>
      <path d="m741.04-95.602c1.0325 2.395 1.066 6.359 0.074768 8.8538-0.99127 2.4948-2.6319 2.5757-3.6644 0.18069-1.0326-2.395-1.066-6.359-0.074768-8.8538 0.98926-2.4899 2.6259-2.5761 3.6592-0.19272"/>
     </g>
     <g transform="matrix(.5 0 0 .5 -82.711 39.314)" opacity=".088">
      <path d="m750.68-123.63c1.0325 2.395 1.066 6.359 0.074768 8.8538-0.99127 2.4948-2.6319 2.5757-3.6644 0.18069-1.0326-2.395-1.066-6.359-0.074768-8.8538 0.98926-2.4899 2.626-2.5761 3.6592-0.19271"/>
      <path d="m766.74-123.63c1.0325 2.395 1.066 6.359 0.074768 8.8538-0.99127 2.4948-2.6319 2.5757-3.6644 0.18069-1.0326-2.395-1.066-6.359-0.074768-8.8538 0.98926-2.4899 2.6259-2.5761 3.6592-0.19271"/>
      <path d="m760.31-95.602c1.0325 2.395 1.066 6.359 0.074768 8.8538-0.99121 2.4948-2.6319 2.5757-3.6644 0.18069s-1.066-6.359-0.074768-8.8538c0.98932-2.4899 2.626-2.5761 3.6592-0.19272"/>
      <path d="m777.98-95.602c1.0326 2.395 1.066 6.359 0.074768 8.8538-0.99121 2.4948-2.6318 2.5757-3.6644 0.18069-1.0325-2.395-1.066-6.359-0.074768-8.8538 0.98932-2.4899 2.626-2.5761 3.6592-0.19272"/>
      <path d="m769.95-82.666c1.0326 2.395 1.066 6.359 0.074768 8.8538-0.99121 2.4948-2.6318 2.5757-3.6644 0.18069-1.0325-2.395-1.066-6.359-0.074768-8.8538 0.98932-2.4899 2.626-2.5761 3.6592-0.19271"/>
      <path d="m747.46-82.666c1.0326 2.395 1.066 6.359 0.074829 8.8538-0.99127 2.4948-2.6319 2.5757-3.6644 0.18069-1.0326-2.395-1.066-6.359-0.074829-8.8538 0.98932-2.4899 2.626-2.5761 3.6592-0.19271"/>
      <path d="m741.04-95.602c1.0325 2.395 1.066 6.359 0.074768 8.8538-0.99127 2.4948-2.6319 2.5757-3.6644 0.18069-1.0326-2.395-1.066-6.359-0.074768-8.8538 0.98926-2.4899 2.6259-2.5761 3.6592-0.19272"/>
     </g>
    </g>
    <g opacity="0">
     <path d="m178.06 41.108c1.0326 2.395 1.066 6.359 0.074783 8.8538-0.99124 2.4948-2.6319 2.5757-3.6644 0.18069-1.0326-2.395-1.066-6.359-0.074783-8.8538 0.98932-2.4899 2.626-2.5761 3.6592-0.19272"/>
     <path d="m194.12 41.108c1.0326 2.395 1.066 6.359 0.074783 8.8538-0.99124 2.4948-2.6319 2.5757-3.6644 0.18069-1.0326-2.395-1.066-6.359-0.074799-8.8538 0.98933-2.4899 2.626-2.5761 3.6593-0.19272"/>
     <path d="m187.7 69.138c1.0326 2.395 1.066 6.359 0.074799 8.8538-0.99126 2.4948-2.6319 2.5757-3.6644 0.18069-1.0326-2.395-1.066-6.359-0.074783-8.8538 0.98932-2.4899 2.626-2.5761 3.6593-0.19272"/>
     <path d="m205.36 69.138c1.0326 2.395 1.066 6.359 0.074799 8.8538-0.99126 2.4948-2.6319 2.5757-3.6644 0.18069-1.0326-2.395-1.066-6.359-0.074783-8.8538 0.98932-2.4899 2.626-2.5761 3.6593-0.19272"/>
     <path d="m197.33 82.074c1.0326 2.395 1.066 6.359 0.074799 8.8538-0.99126 2.4948-2.6319 2.5757-3.6644 0.18069-1.0326-2.395-1.066-6.359-0.074783-8.8538 0.98932-2.4899 2.626-2.5761 3.6593-0.19272"/>
     <path d="m174.85 82.074c1.0326 2.395 1.066 6.359 0.074799 8.8538-0.99126 2.4948-2.6319 2.5757-3.6644 0.18069-1.0326-2.395-1.066-6.359-0.074783-8.8538 0.98932-2.4899 2.626-2.5761 3.6593-0.19272"/>
     <path d="m168.42 69.138c1.0326 2.395 1.066 6.359 0.074783 8.8538-0.99126 2.4948-2.6319 2.5757-3.6644 0.18069-1.0326-2.395-1.066-6.359-0.074799-8.8538 0.98932-2.4899 2.626-2.5761 3.6593-0.19272"/>
    </g>
    <g fill="#0e232e">
     <g opacity=".02">
      <path d="m309.72 38.243c1.0326 2.395 1.066 6.359 0.074768 8.8538-0.99124 2.4948-2.6319 2.5757-3.6644 0.18069-1.0326-2.395-1.066-6.359-0.074768-8.8538 0.98929-2.4899 2.626-2.5761 3.6592-0.19272"/>
      <path d="m325.78 38.243c1.0326 2.395 1.066 6.359 0.074768 8.8538-0.99124 2.4948-2.6319 2.5757-3.6644 0.18069-1.0326-2.395-1.066-6.359-0.074799-8.8538 0.98932-2.4899 2.626-2.5761 3.6592-0.19272"/>
      <path d="m319.35 66.272c1.0326 2.395 1.066 6.359 0.074799 8.8538-0.99127 2.4948-2.6319 2.5757-3.6645 0.18069s-1.066-6.359-0.074768-8.8538c0.98929-2.4899 2.626-2.5761 3.6592-0.19272"/>
      <path d="m337.02 66.272c1.0326 2.395 1.066 6.359 0.074799 8.8538-0.99124 2.4948-2.6319 2.5757-3.6644 0.18069-1.0326-2.395-1.066-6.359-0.074799-8.8538 0.98932-2.4899 2.626-2.5761 3.6592-0.19272"/>
      <path d="m328.99 79.209c1.0326 2.395 1.066 6.359 0.074799 8.8538-0.99124 2.4948-2.6319 2.5757-3.6644 0.18069-1.0326-2.395-1.066-6.359-0.074799-8.8538 0.98932-2.4899 2.626-2.5761 3.6592-0.19272"/>
      <path d="m306.5 79.209c1.0326 2.395 1.066 6.359 0.074799 8.8538-0.99127 2.4948-2.6319 2.5757-3.6645 0.18069s-1.066-6.359-0.074768-8.8538c0.98929-2.4899 2.626-2.5761 3.6592-0.19272"/>
      <path d="m300.08 66.272c1.0326 2.395 1.066 6.359 0.074768 8.8538-0.99124 2.4948-2.6319 2.5757-3.6644 0.18069-1.0326-2.395-1.066-6.359-0.074799-8.8538 0.98932-2.4899 2.626-2.5761 3.6592-0.19272"/>
     </g>
     <g filter="url(#u)" opacity=".088">
      <path d="m101.92 146.67c1.0326 2.395 1.066 6.359 0.074791 8.8538-0.99125 2.4948-2.6319 2.5757-3.6644 0.18068-1.0326-2.395-1.066-6.359-0.074791-8.8538 0.98929-2.4899 2.626-2.5761 3.6592-0.19272"/>
      <path d="m117.98 146.67c1.0326 2.395 1.066 6.359 0.074791 8.8538-0.99125 2.4948-2.6319 2.5757-3.6644 0.18068-1.0326-2.395-1.066-6.359-0.074791-8.8538 0.98929-2.4899 2.626-2.5761 3.6592-0.19272"/>
      <path d="m111.55 174.7c1.0326 2.395 1.066 6.359 0.074783 8.8538-0.99124 2.4948-2.6319 2.5757-3.6644 0.18068-1.0326-2.395-1.066-6.359-0.074791-8.8538 0.98929-2.4899 2.626-2.5761 3.6592-0.19272"/>
      <path d="m129.22 174.7c1.0326 2.395 1.066 6.359 0.074783 8.8538-0.99124 2.4948-2.6319 2.5757-3.6644 0.18068-1.0326-2.395-1.066-6.359-0.074791-8.8538 0.98929-2.4899 2.626-2.5761 3.6592-0.19272"/>
      <path d="m121.19 187.63c1.0326 2.395 1.066 6.359 0.074791 8.8538-0.99125 2.4948-2.6319 2.5757-3.6644 0.18068-1.0326-2.395-1.066-6.359-0.074791-8.8538 0.98929-2.4899 2.626-2.5761 3.6592-0.19272"/>
      <path d="m98.703 187.63c1.0326 2.395 1.066 6.359 0.074791 8.8538-0.99125 2.4948-2.6319 2.5757-3.6644 0.18068-1.0326-2.395-1.066-6.359-0.074791-8.8538 0.98929-2.4899 2.626-2.5761 3.6592-0.19272"/>
      <path d="m92.278 174.7c1.0326 2.395 1.066 6.359 0.074791 8.8538-0.99125 2.4948-2.6319 2.5757-3.6644 0.18068-1.0326-2.395-1.066-6.359-0.074783-8.8538 0.98928-2.4899 2.626-2.5761 3.6592-0.19272"/>
     </g>
    </g>
    <g fill="#804d00" filter="url(#y)" opacity=".088">
     <path d="m179.43 129.26c1.0326 2.395 1.066 6.359 0.074783 8.8538-0.99124 2.4948-2.6319 2.5757-3.6644 0.18068-1.0326-2.395-1.066-6.359-0.074783-8.8538 0.98929-2.4899 2.626-2.5761 3.6592-0.19272"/>
     <path d="m195.5 129.26c1.0326 2.395 1.066 6.359 0.074783 8.8538-0.99124 2.4948-2.6319 2.5757-3.6644 0.18068-1.0326-2.395-1.066-6.359-0.074799-8.8538 0.98929-2.4899 2.626-2.5761 3.6592-0.19272"/>
     <path d="m189.07 157.29c1.0326 2.395 1.066 6.359 0.074799 8.8538-0.99126 2.4948-2.6319 2.5757-3.6644 0.18068-1.0326-2.395-1.066-6.359-0.074799-8.8538 0.98929-2.4899 2.626-2.5761 3.6592-0.19272"/>
     <path d="m206.74 157.29c1.0326 2.395 1.066 6.359 0.074799 8.8538-0.99126 2.4948-2.6319 2.5757-3.6644 0.18068-1.0326-2.395-1.066-6.359-0.074783-8.8538 0.98929-2.4899 2.626-2.5761 3.6592-0.19272"/>
     <path d="m198.71 170.23c1.0326 2.395 1.066 6.359 0.074799 8.8538-0.99126 2.4948-2.6319 2.5757-3.6644 0.18068-1.0326-2.395-1.066-6.359-0.074799-8.8538 0.98929-2.4899 2.626-2.5761 3.6592-0.19272"/>
     <path d="m176.22 170.23c1.0326 2.395 1.066 6.359 0.074799 8.8538-0.99126 2.4948-2.6319 2.5757-3.6644 0.18068-1.0326-2.395-1.066-6.359-0.074783-8.8538 0.98929-2.4899 2.626-2.5761 3.6592-0.19272"/>
     <path d="m169.8 157.29c1.0326 2.395 1.066 6.359 0.074783 8.8538-0.99124 2.4948-2.6319 2.5757-3.6644 0.18068-1.0326-2.395-1.066-6.359-0.074799-8.8538 0.98929-2.4899 2.626-2.5761 3.6592-0.19272"/>
    </g>
    <g fill="#f60">
     <g transform="matrix(.5 0 0 .5 -158.85 112.77)" opacity=".088">
      <path d="m750.68-123.63c1.0325 2.395 1.066 6.359 0.074768 8.8538-0.99127 2.4948-2.6319 2.5757-3.6644 0.18069-1.0326-2.395-1.066-6.359-0.074768-8.8538 0.98926-2.4899 2.626-2.5761 3.6592-0.19271"/>
      <path d="m766.74-123.63c1.0325 2.395 1.066 6.359 0.074768 8.8538-0.99127 2.4948-2.6319 2.5757-3.6644 0.18069-1.0326-2.395-1.066-6.359-0.074768-8.8538 0.98926-2.4899 2.6259-2.5761 3.6592-0.19271"/>
      <path d="m760.31-95.602c1.0325 2.395 1.066 6.359 0.074768 8.8538-0.99121 2.4948-2.6319 2.5757-3.6644 0.18069s-1.066-6.359-0.074768-8.8538c0.98932-2.4899 2.626-2.5761 3.6592-0.19272"/>
      <path d="m777.98-95.602c1.0326 2.395 1.066 6.359 0.074768 8.8538-0.99121 2.4948-2.6318 2.5757-3.6644 0.18069-1.0325-2.395-1.066-6.359-0.074768-8.8538 0.98932-2.4899 2.626-2.5761 3.6592-0.19272"/>
      <path d="m769.95-82.666c1.0326 2.395 1.066 6.359 0.074768 8.8538-0.99121 2.4948-2.6318 2.5757-3.6644 0.18069-1.0325-2.395-1.066-6.359-0.074768-8.8538 0.98932-2.4899 2.626-2.5761 3.6592-0.19271"/>
      <path d="m747.46-82.666c1.0326 2.395 1.066 6.359 0.074829 8.8538-0.99127 2.4948-2.6319 2.5757-3.6644 0.18069-1.0326-2.395-1.066-6.359-0.074829-8.8538 0.98932-2.4899 2.626-2.5761 3.6592-0.19271"/>
      <path d="m741.04-95.602c1.0325 2.395 1.066 6.359 0.074768 8.8538-0.99127 2.4948-2.6319 2.5757-3.6644 0.18069-1.0326-2.395-1.066-6.359-0.074768-8.8538 0.98926-2.4899 2.6259-2.5761 3.6592-0.19272"/>
     </g>
     <g transform="matrix(.5 0 0 .5 -128.85 112.77)" opacity=".088">
      <path d="m750.68-123.63c1.0325 2.395 1.066 6.359 0.074768 8.8538-0.99127 2.4948-2.6319 2.5757-3.6644 0.18069-1.0326-2.395-1.066-6.359-0.074768-8.8538 0.98926-2.4899 2.626-2.5761 3.6592-0.19271"/>
      <path d="m766.74-123.63c1.0325 2.395 1.066 6.359 0.074768 8.8538-0.99127 2.4948-2.6319 2.5757-3.6644 0.18069-1.0326-2.395-1.066-6.359-0.074768-8.8538 0.98926-2.4899 2.6259-2.5761 3.6592-0.19271"/>
      <path d="m760.31-95.602c1.0325 2.395 1.066 6.359 0.074768 8.8538-0.99121 2.4948-2.6319 2.5757-3.6644 0.18069s-1.066-6.359-0.074768-8.8538c0.98932-2.4899 2.626-2.5761 3.6592-0.19272"/>
      <path d="m777.98-95.602c1.0326 2.395 1.066 6.359 0.074768 8.8538-0.99121 2.4948-2.6318 2.5757-3.6644 0.18069-1.0325-2.395-1.066-6.359-0.074768-8.8538 0.98932-2.4899 2.626-2.5761 3.6592-0.19272"/>
      <path d="m769.95-82.666c1.0326 2.395 1.066 6.359 0.074768 8.8538-0.99121 2.4948-2.6318 2.5757-3.6644 0.18069-1.0325-2.395-1.066-6.359-0.074768-8.8538 0.98932-2.4899 2.626-2.5761 3.6592-0.19271"/>
      <path d="m747.46-82.666c1.0326 2.395 1.066 6.359 0.074829 8.8538-0.99127 2.4948-2.6319 2.5757-3.6644 0.18069-1.0326-2.395-1.066-6.359-0.074829-8.8538 0.98932-2.4899 2.626-2.5761 3.6592-0.19271"/>
      <path d="m741.04-95.602c1.0325 2.395 1.066 6.359 0.074768 8.8538-0.99127 2.4948-2.6319 2.5757-3.6644 0.18069-1.0326-2.395-1.066-6.359-0.074768-8.8538 0.98926-2.4899 2.6259-2.5761 3.6592-0.19272"/>
     </g>
    </g>
    <g fill="#9ade00">
     <g opacity=".088">
      <path d="m258.06 123.72c1.0326 2.395 1.066 6.359 0.074768 8.8537-0.99124 2.4948-2.6319 2.5757-3.6644 0.18071-1.0326-2.395-1.066-6.359-0.074799-8.8538 0.9893-2.4899 2.626-2.5761 3.6592-0.19272"/>
      <path d="m274.12 123.72c1.0326 2.395 1.066 6.359 0.074768 8.8537-0.99124 2.4948-2.6319 2.5757-3.6644 0.18071-1.0326-2.395-1.066-6.359-0.074799-8.8538 0.98932-2.4899 2.626-2.5761 3.6592-0.19272"/>
      <path d="m267.7 151.75c1.0326 2.395 1.066 6.359 0.074799 8.8538-0.99127 2.4948-2.6319 2.5757-3.6645 0.1807s-1.066-6.359-0.074768-8.8538c0.98929-2.4899 2.626-2.5761 3.6592-0.19272"/>
      <path d="m285.36 151.75c1.0326 2.395 1.066 6.359 0.074799 8.8538-0.99124 2.4948-2.6319 2.5757-3.6644 0.1807-1.0326-2.395-1.066-6.359-0.074799-8.8538 0.98932-2.4899 2.626-2.5761 3.6592-0.19272"/>
      <path d="m277.33 164.68c1.0326 2.395 1.066 6.359 0.074799 8.8538-0.99124 2.4948-2.6319 2.5757-3.6644 0.1807-1.0326-2.395-1.066-6.359-0.074799-8.8538 0.98932-2.4899 2.626-2.5761 3.6592-0.19272"/>
      <path d="m254.85 164.68c1.0326 2.395 1.066 6.359 0.074783 8.8538-0.99124 2.4948-2.6319 2.5757-3.6644 0.1807-1.0326-2.395-1.066-6.359-0.074799-8.8538 0.98932-2.4899 2.626-2.5761 3.6592-0.19272"/>
      <path d="m248.42 151.75c1.0326 2.395 1.066 6.359 0.074783 8.8538-0.99124 2.4948-2.6319 2.5757-3.6644 0.1807-1.0326-2.395-1.066-6.359-0.074783-8.8538 0.9893-2.4899 2.626-2.5761 3.6592-0.19272"/>
     </g>
     <g opacity=".088">
      <path d="m298.07 280.91c1.0326 2.395 1.066 6.359 0.074768 8.8538-0.99124 2.4948-2.6319 2.5757-3.6644 0.1807-1.0326-2.395-1.066-6.359-0.074768-8.8538 0.98929-2.4899 2.626-2.5761 3.6592-0.19272"/>
      <path d="m314.13 280.91c1.0326 2.395 1.066 6.359 0.074768 8.8538-0.99124 2.4948-2.6319 2.5757-3.6644 0.1807-1.0326-2.395-1.066-6.359-0.074799-8.8538 0.98932-2.4899 2.626-2.5761 3.6592-0.19272"/>
      <path d="m307.71 308.94c1.0326 2.395 1.066 6.359 0.074799 8.8537-0.99127 2.4948-2.6319 2.5757-3.6644 0.1807-1.0326-2.395-1.066-6.359-0.074799-8.8537 0.98929-2.4899 2.626-2.5761 3.6592-0.19275"/>
      <path d="m325.38 308.94c1.0326 2.395 1.066 6.359 0.074799 8.8537-0.99124 2.4948-2.6319 2.5757-3.6644 0.1807-1.0326-2.395-1.066-6.359-0.074799-8.8537 0.98932-2.4899 2.626-2.5761 3.6592-0.19275"/>
      <path d="m317.35 321.88c1.0326 2.395 1.066 6.359 0.074799 8.8537-0.99124 2.4948-2.6319 2.5757-3.6644 0.1807-1.0326-2.395-1.066-6.359-0.074799-8.8537 0.98932-2.4899 2.626-2.5761 3.6592-0.19275"/>
      <path d="m294.86 321.88c1.0326 2.395 1.066 6.359 0.074799 8.8537-0.99127 2.4948-2.6319 2.5757-3.6644 0.1807-1.0326-2.395-1.066-6.359-0.074799-8.8537 0.98929-2.4899 2.626-2.5761 3.6592-0.19275"/>
      <path d="m288.43 308.94c1.0326 2.395 1.066 6.359 0.074768 8.8537-0.99124 2.4948-2.6319 2.5757-3.6644 0.1807-1.0326-2.395-1.066-6.359-0.074799-8.8537 0.98932-2.4899 2.626-2.5761 3.6592-0.19275"/>
     </g>
    </g>
    <g fill="#0e232e" filter="url(#v)" opacity=".01">
     <path d="m218.06 195.72c1.0326 2.395 1.066 6.359 0.074783 8.8538-0.99124 2.4948-2.6319 2.5757-3.6644 0.18068-1.0326-2.395-1.066-6.359-0.074799-8.8538 0.98933-2.4899 2.626-2.5761 3.6593-0.19272"/>
     <path d="m234.12 195.72c1.0326 2.395 1.066 6.359 0.074799 8.8538-0.99126 2.4948-2.6319 2.5757-3.6644 0.18068-1.0326-2.395-1.066-6.359-0.074799-8.8538 0.98932-2.4899 2.626-2.5761 3.6593-0.19272"/>
     <path d="m227.7 223.75c1.0326 2.395 1.066 6.359 0.074783 8.8538-0.99124 2.4948-2.6319 2.5757-3.6644 0.18068-1.0326-2.395-1.066-6.359-0.074783-8.8538 0.98932-2.4899 2.626-2.5761 3.6592-0.19272"/>
     <path d="m245.36 223.75c1.0326 2.395 1.066 6.359 0.074783 8.8538-0.99124 2.4948-2.6319 2.5757-3.6644 0.18068-1.0326-2.395-1.066-6.359-0.074783-8.8538 0.98932-2.4899 2.626-2.5761 3.6592-0.19272"/>
     <path d="m237.33 236.68c1.0326 2.395 1.066 6.359 0.074799 8.8538-0.99126 2.4948-2.6319 2.5757-3.6644 0.18068-1.0326-2.395-1.066-6.359-0.074783-8.8538 0.98932-2.4899 2.626-2.5761 3.6592-0.1927"/>
     <path d="m214.85 236.68c1.0326 2.395 1.066 6.359 0.074783 8.8538-0.99124 2.4948-2.6319 2.5757-3.6644 0.18068-1.0326-2.395-1.066-6.359-0.074783-8.8538 0.98932-2.4899 2.626-2.5761 3.6592-0.1927"/>
     <path d="m208.42 223.75c1.0326 2.395 1.066 6.359 0.074799 8.8538-0.99126 2.4948-2.6319 2.5757-3.6644 0.18068-1.0326-2.395-1.066-6.359-0.074783-8.8538 0.98932-2.4899 2.626-2.5761 3.6593-0.19272"/>
    </g>
    <g fill="#f60" opacity=".088">
     <path d="m245.24 67.307c1.0326 2.395 1.066 6.359 0.074799 8.8538-0.99126 2.4948-2.6319 2.5757-3.6644 0.18069-1.0326-2.395-1.066-6.359-0.074783-8.8538 0.9893-2.4899 2.626-2.5761 3.6592-0.19272"/>
     <path d="m261.3 67.307c1.0326 2.395 1.066 6.359 0.074799 8.8538-0.99124 2.4948-2.6319 2.5757-3.6644 0.18069-1.0326-2.395-1.066-6.359-0.074799-8.8538 0.98932-2.4899 2.626-2.5761 3.6592-0.19272"/>
     <path d="m254.87 95.336c1.0326 2.395 1.066 6.359 0.074799 8.8538-0.99126 2.4948-2.6319 2.5757-3.6644 0.18069-1.0326-2.395-1.066-6.359-0.074799-8.8538 0.9893-2.4899 2.626-2.5761 3.6592-0.19272"/>
     <path d="m272.54 95.336c1.0326 2.395 1.066 6.359 0.074799 8.8538-0.99124 2.4948-2.6319 2.5757-3.6644 0.18069-1.0326-2.395-1.066-6.359-0.074799-8.8538 0.98932-2.4899 2.626-2.5761 3.6592-0.19272"/>
     <path d="m264.51 108.27c1.0326 2.395 1.066 6.359 0.074799 8.8538-0.99124 2.4948-2.6319 2.5757-3.6644 0.18069-1.0326-2.395-1.066-6.359-0.074799-8.8538 0.98932-2.4899 2.626-2.5761 3.6592-0.19272"/>
     <path d="m242.02 108.27c1.0326 2.395 1.066 6.359 0.074799 8.8538-0.99126 2.4948-2.6319 2.5757-3.6644 0.18069-1.0326-2.395-1.066-6.359-0.074799-8.8538 0.9893-2.4899 2.626-2.5761 3.6592-0.19272"/>
     <path d="m235.6 95.336c1.0326 2.395 1.066 6.359 0.074783 8.8538-0.99124 2.4948-2.6319 2.5757-3.6644 0.18069-1.0326-2.395-1.066-6.359-0.074799-8.8538 0.98932-2.4899 2.626-2.5761 3.6592-0.19272"/>
    </g>
    <g fill="#9ade00">
     <g transform="matrix(.5 0 0 .5 -118.85 112.77)" opacity=".088">
      <path d="m750.68-123.63c1.0325 2.395 1.066 6.359 0.074768 8.8538-0.99127 2.4948-2.6319 2.5757-3.6644 0.18069-1.0326-2.395-1.066-6.359-0.074768-8.8538 0.98926-2.4899 2.626-2.5761 3.6592-0.19271"/>
      <path d="m766.74-123.63c1.0325 2.395 1.066 6.359 0.074768 8.8538-0.99127 2.4948-2.6319 2.5757-3.6644 0.18069-1.0326-2.395-1.066-6.359-0.074768-8.8538 0.98926-2.4899 2.6259-2.5761 3.6592-0.19271"/>
      <path d="m760.31-95.602c1.0325 2.395 1.066 6.359 0.074768 8.8538-0.99121 2.4948-2.6319 2.5757-3.6644 0.18069s-1.066-6.359-0.074768-8.8538c0.98932-2.4899 2.626-2.5761 3.6592-0.19272"/>
      <path d="m777.98-95.602c1.0326 2.395 1.066 6.359 0.074768 8.8538-0.99121 2.4948-2.6318 2.5757-3.6644 0.18069-1.0325-2.395-1.066-6.359-0.074768-8.8538 0.98932-2.4899 2.626-2.5761 3.6592-0.19272"/>
      <path d="m769.95-82.666c1.0326 2.395 1.066 6.359 0.074768 8.8538-0.99121 2.4948-2.6318 2.5757-3.6644 0.18069-1.0325-2.395-1.066-6.359-0.074768-8.8538 0.98932-2.4899 2.626-2.5761 3.6592-0.19271"/>
      <path d="m747.46-82.666c1.0326 2.395 1.066 6.359 0.074829 8.8538-0.99127 2.4948-2.6319 2.5757-3.6644 0.18069-1.0326-2.395-1.066-6.359-0.074829-8.8538 0.98932-2.4899 2.626-2.5761 3.6592-0.19271"/>
      <path d="m741.04-95.602c1.0325 2.395 1.066 6.359 0.074768 8.8538-0.99127 2.4948-2.6319 2.5757-3.6644 0.18069-1.0326-2.395-1.066-6.359-0.074768-8.8538 0.98926-2.4899 2.6259-2.5761 3.6592-0.19272"/>
     </g>
     <g transform="matrix(.5 0 0 .5 -72.711 100.51)" opacity=".088">
      <path d="m750.68-123.63c1.0325 2.395 1.066 6.359 0.074768 8.8538-0.99127 2.4948-2.6319 2.5757-3.6644 0.18069-1.0326-2.395-1.066-6.359-0.074768-8.8538 0.98926-2.4899 2.626-2.5761 3.6592-0.19271"/>
      <path d="m766.74-123.63c1.0325 2.395 1.066 6.359 0.074768 8.8538-0.99127 2.4948-2.6319 2.5757-3.6644 0.18069-1.0326-2.395-1.066-6.359-0.074768-8.8538 0.98926-2.4899 2.6259-2.5761 3.6592-0.19271"/>
      <path d="m760.31-95.602c1.0325 2.395 1.066 6.359 0.074768 8.8538-0.99121 2.4948-2.6319 2.5757-3.6644 0.18069s-1.066-6.359-0.074768-8.8538c0.98932-2.4899 2.626-2.5761 3.6592-0.19272"/>
      <path d="m777.98-95.602c1.0326 2.395 1.066 6.359 0.074768 8.8538-0.99121 2.4948-2.6318 2.5757-3.6644 0.18069-1.0325-2.395-1.066-6.359-0.074768-8.8538 0.98932-2.4899 2.626-2.5761 3.6592-0.19272"/>
      <path d="m769.95-82.666c1.0326 2.395 1.066 6.359 0.074768 8.8538-0.99121 2.4948-2.6318 2.5757-3.6644 0.18069-1.0325-2.395-1.066-6.359-0.074768-8.8538 0.98932-2.4899 2.626-2.5761 3.6592-0.19271"/>
      <path d="m747.46-82.666c1.0326 2.395 1.066 6.359 0.074829 8.8538-0.99127 2.4948-2.6319 2.5757-3.6644 0.18069-1.0326-2.395-1.066-6.359-0.074829-8.8538 0.98932-2.4899 2.626-2.5761 3.6592-0.19271"/>
      <path d="m741.04-95.602c1.0325 2.395 1.066 6.359 0.074768 8.8538-0.99127 2.4948-2.6319 2.5757-3.6644 0.18069-1.0326-2.395-1.066-6.359-0.074768-8.8538 0.98926-2.4899 2.6259-2.5761 3.6592-0.19272"/>
     </g>
    </g>
    <g transform="matrix(.5 0 0 .5 -59.52 68.045)" fill="#b88100" opacity=".088">
     <path d="m750.68-123.63c1.0325 2.395 1.066 6.359 0.074768 8.8538-0.99127 2.4948-2.6319 2.5757-3.6644 0.18069-1.0326-2.395-1.066-6.359-0.074768-8.8538 0.98926-2.4899 2.626-2.5761 3.6592-0.19271"/>
     <path d="m766.74-123.63c1.0325 2.395 1.066 6.359 0.074768 8.8538-0.99127 2.4948-2.6319 2.5757-3.6644 0.18069-1.0326-2.395-1.066-6.359-0.074768-8.8538 0.98926-2.4899 2.6259-2.5761 3.6592-0.19271"/>
     <path d="m760.31-95.602c1.0325 2.395 1.066 6.359 0.074768 8.8538-0.99121 2.4948-2.6319 2.5757-3.6644 0.18069s-1.066-6.359-0.074768-8.8538c0.98932-2.4899 2.626-2.5761 3.6592-0.19272"/>
     <path d="m777.98-95.602c1.0326 2.395 1.066 6.359 0.074768 8.8538-0.99121 2.4948-2.6318 2.5757-3.6644 0.18069-1.0325-2.395-1.066-6.359-0.074768-8.8538 0.98932-2.4899 2.626-2.5761 3.6592-0.19272"/>
     <path d="m769.95-82.666c1.0326 2.395 1.066 6.359 0.074768 8.8538-0.99121 2.4948-2.6318 2.5757-3.6644 0.18069-1.0325-2.395-1.066-6.359-0.074768-8.8538 0.98932-2.4899 2.626-2.5761 3.6592-0.19271"/>
     <path d="m747.46-82.666c1.0326 2.395 1.066 6.359 0.074829 8.8538-0.99127 2.4948-2.6319 2.5757-3.6644 0.18069-1.0326-2.395-1.066-6.359-0.074829-8.8538 0.98932-2.4899 2.626-2.5761 3.6592-0.19271"/>
     <path d="m741.04-95.602c1.0325 2.395 1.066 6.359 0.074768 8.8538-0.99127 2.4948-2.6319 2.5757-3.6644 0.18069-1.0326-2.395-1.066-6.359-0.074768-8.8538 0.98926-2.4899 2.6259-2.5761 3.6592-0.19272"/>
    </g>
    <g fill="#9ade00">
     <g opacity=".088">
      <path d="m321.28 209.29c1.0326 2.395 1.066 6.359 0.074768 8.8538-0.99124 2.4948-2.6319 2.5757-3.6644 0.18068-1.0326-2.395-1.066-6.359-0.074799-8.8538 0.98932-2.4899 2.626-2.5761 3.6592-0.19272"/>
      <path d="m337.34 209.29c1.0326 2.395 1.066 6.359 0.074768 8.8538-0.99124 2.4948-2.6319 2.5757-3.6644 0.18068-1.0326-2.395-1.066-6.359-0.074799-8.8538 0.98932-2.4899 2.626-2.5761 3.6592-0.19272"/>
      <path d="m330.92 237.32c1.0326 2.395 1.066 6.359 0.074799 8.8538-0.99127 2.4948-2.6319 2.5757-3.6645 0.18068s-1.066-6.359-0.074768-8.8538c0.98929-2.4899 2.626-2.5761 3.6592-0.19272"/>
      <path d="m348.58 237.32c1.0326 2.395 1.066 6.359 0.074799 8.8538-0.99124 2.4948-2.6319 2.5757-3.6644 0.18068-1.0326-2.395-1.066-6.359-0.074799-8.8538 0.98932-2.4899 2.626-2.5761 3.6592-0.19272"/>
      <path d="m340.55 250.26c1.0326 2.395 1.066 6.359 0.074799 8.8538-0.99124 2.4948-2.6319 2.5757-3.6644 0.18066-1.0326-2.395-1.066-6.359-0.074799-8.8538 0.98932-2.4899 2.626-2.5761 3.6592-0.19272"/>
      <path d="m318.06 250.26c1.0326 2.395 1.066 6.359 0.074799 8.8538-0.99127 2.4948-2.6319 2.5757-3.6645 0.18066s-1.066-6.359-0.074768-8.8538c0.98929-2.4899 2.626-2.5761 3.6592-0.19272"/>
      <path d="m311.64 237.32c1.0326 2.395 1.066 6.359 0.074799 8.8538-0.99124 2.4948-2.6319 2.5757-3.6644 0.18068-1.0326-2.395-1.066-6.359-0.074799-8.8538 0.98932-2.4899 2.626-2.5761 3.6592-0.19272"/>
     </g>
     <g opacity=".088">
      <path d="m281.28 209.29c1.0326 2.395 1.066 6.359 0.074799 8.8538-0.99124 2.4948-2.6319 2.5757-3.6644 0.18068-1.0326-2.395-1.066-6.359-0.074799-8.8538 0.98932-2.4899 2.626-2.5761 3.6592-0.19272"/>
      <path d="m297.34 209.29c1.0326 2.395 1.066 6.359 0.074799 8.8538-0.99124 2.4948-2.6319 2.5757-3.6644 0.18068-1.0326-2.395-1.066-6.359-0.074799-8.8538 0.98932-2.4899 2.626-2.5761 3.6592-0.19272"/>
      <path d="m290.92 237.32c1.0326 2.395 1.066 6.359 0.074799 8.8538-0.99124 2.4948-2.6319 2.5757-3.6644 0.18068-1.0326-2.395-1.066-6.359-0.074799-8.8538 0.98932-2.4899 2.626-2.5761 3.6592-0.19272"/>
      <path d="m308.58 237.32c1.0326 2.395 1.066 6.359 0.074799 8.8538-0.99127 2.4948-2.6319 2.5757-3.6645 0.18068s-1.066-6.359-0.074768-8.8538c0.98929-2.4899 2.626-2.5761 3.6592-0.19272"/>
      <path d="m300.55 250.26c1.0326 2.395 1.066 6.359 0.074799 8.8538-0.99127 2.4948-2.6319 2.5757-3.6644 0.18066-1.0326-2.395-1.066-6.359-0.074799-8.8538 0.98929-2.4899 2.626-2.5761 3.6592-0.19272"/>
      <path d="m278.06 250.26c1.0326 2.395 1.066 6.359 0.074799 8.8538-0.99124 2.4948-2.6319 2.5757-3.6644 0.18066-1.0326-2.395-1.066-6.359-0.074799-8.8538 0.98932-2.4899 2.626-2.5761 3.6592-0.19272"/>
      <path d="m271.64 237.32c1.0326 2.395 1.066 6.359 0.074799 8.8538-0.99124 2.4948-2.6319 2.5757-3.6644 0.18068-1.0326-2.395-1.066-6.359-0.074799-8.8538 0.98929-2.4899 2.626-2.5761 3.6592-0.19272"/>
     </g>
     <g transform="matrix(.5 0 0 .5 -33.016 101.15)" opacity=".088">
      <path d="m750.68-123.63c1.0325 2.395 1.066 6.359 0.074768 8.8538-0.99127 2.4948-2.6319 2.5757-3.6644 0.18069-1.0326-2.395-1.066-6.359-0.074768-8.8538 0.98926-2.4899 2.626-2.5761 3.6592-0.19271"/>
      <path d="m766.74-123.63c1.0325 2.395 1.066 6.359 0.074768 8.8538-0.99127 2.4948-2.6319 2.5757-3.6644 0.18069-1.0326-2.395-1.066-6.359-0.074768-8.8538 0.98926-2.4899 2.6259-2.5761 3.6592-0.19271"/>
      <path d="m760.31-95.602c1.0325 2.395 1.066 6.359 0.074768 8.8538-0.99121 2.4948-2.6319 2.5757-3.6644 0.18069s-1.066-6.359-0.074768-8.8538c0.98932-2.4899 2.626-2.5761 3.6592-0.19272"/>
      <path d="m777.98-95.602c1.0326 2.395 1.066 6.359 0.074768 8.8538-0.99121 2.4948-2.6318 2.5757-3.6644 0.18069-1.0325-2.395-1.066-6.359-0.074768-8.8538 0.98932-2.4899 2.626-2.5761 3.6592-0.19272"/>
      <path d="m769.95-82.666c1.0326 2.395 1.066 6.359 0.074768 8.8538-0.99121 2.4948-2.6318 2.5757-3.6644 0.18069-1.0325-2.395-1.066-6.359-0.074768-8.8538 0.98932-2.4899 2.626-2.5761 3.6592-0.19271"/>
      <path d="m747.46-82.666c1.0326 2.395 1.066 6.359 0.074829 8.8538-0.99127 2.4948-2.6319 2.5757-3.6644 0.18069-1.0326-2.395-1.066-6.359-0.074829-8.8538 0.98932-2.4899 2.626-2.5761 3.6592-0.19271"/>
      <path d="m741.04-95.602c1.0325 2.395 1.066 6.359 0.074768 8.8538-0.99127 2.4948-2.6319 2.5757-3.6644 0.18069-1.0326-2.395-1.066-6.359-0.074768-8.8538 0.98926-2.4899 2.6259-2.5761 3.6592-0.19272"/>
     </g>
    </g>
    <g transform="matrix(.5 0 0 .5 -100.14 75.023)" fill="#804d00" opacity=".088">
     <path d="m750.68-123.63c1.0325 2.395 1.066 6.359 0.074768 8.8538-0.99127 2.4948-2.6319 2.5757-3.6644 0.18069-1.0326-2.395-1.066-6.359-0.074768-8.8538 0.98926-2.4899 2.626-2.5761 3.6592-0.19271"/>
     <path d="m766.74-123.63c1.0325 2.395 1.066 6.359 0.074768 8.8538-0.99127 2.4948-2.6319 2.5757-3.6644 0.18069-1.0326-2.395-1.066-6.359-0.074768-8.8538 0.98926-2.4899 2.6259-2.5761 3.6592-0.19271"/>
     <path d="m760.31-95.602c1.0325 2.395 1.066 6.359 0.074768 8.8538-0.99121 2.4948-2.6319 2.5757-3.6644 0.18069s-1.066-6.359-0.074768-8.8538c0.98932-2.4899 2.626-2.5761 3.6592-0.19272"/>
     <path d="m777.98-95.602c1.0326 2.395 1.066 6.359 0.074768 8.8538-0.99121 2.4948-2.6318 2.5757-3.6644 0.18069-1.0325-2.395-1.066-6.359-0.074768-8.8538 0.98932-2.4899 2.626-2.5761 3.6592-0.19272"/>
     <path d="m769.95-82.666c1.0326 2.395 1.066 6.359 0.074768 8.8538-0.99121 2.4948-2.6318 2.5757-3.6644 0.18069-1.0325-2.395-1.066-6.359-0.074768-8.8538 0.98932-2.4899 2.626-2.5761 3.6592-0.19271"/>
     <path d="m747.46-82.666c1.0326 2.395 1.066 6.359 0.074829 8.8538-0.99127 2.4948-2.6319 2.5757-3.6644 0.18069-1.0326-2.395-1.066-6.359-0.074829-8.8538 0.98932-2.4899 2.626-2.5761 3.6592-0.19271"/>
     <path d="m741.04-95.602c1.0325 2.395 1.066 6.359 0.074768 8.8538-0.99127 2.4948-2.6319 2.5757-3.6644 0.18069-1.0326-2.395-1.066-6.359-0.074768-8.8538 0.98926-2.4899 2.6259-2.5761 3.6592-0.19272"/>
    </g>
    <g transform="matrix(.5 0 0 .5 -58.527 38.236)" fill="#b88100" opacity=".088">
     <path d="m750.68-123.63c1.0325 2.395 1.066 6.359 0.074768 8.8538-0.99127 2.4948-2.6319 2.5757-3.6644 0.18069-1.0326-2.395-1.066-6.359-0.074768-8.8538 0.98926-2.4899 2.626-2.5761 3.6592-0.19271"/>
     <path d="m766.74-123.63c1.0325 2.395 1.066 6.359 0.074768 8.8538-0.99127 2.4948-2.6319 2.5757-3.6644 0.18069-1.0326-2.395-1.066-6.359-0.074768-8.8538 0.98926-2.4899 2.6259-2.5761 3.6592-0.19271"/>
     <path d="m760.31-95.602c1.0325 2.395 1.066 6.359 0.074768 8.8538-0.99121 2.4948-2.6319 2.5757-3.6644 0.18069s-1.066-6.359-0.074768-8.8538c0.98932-2.4899 2.626-2.5761 3.6592-0.19272"/>
     <path d="m777.98-95.602c1.0326 2.395 1.066 6.359 0.074768 8.8538-0.99121 2.4948-2.6318 2.5757-3.6644 0.18069-1.0325-2.395-1.066-6.359-0.074768-8.8538 0.98932-2.4899 2.626-2.5761 3.6592-0.19272"/>
     <path d="m769.95-82.666c1.0326 2.395 1.066 6.359 0.074768 8.8538-0.99121 2.4948-2.6318 2.5757-3.6644 0.18069-1.0325-2.395-1.066-6.359-0.074768-8.8538 0.98932-2.4899 2.626-2.5761 3.6592-0.19271"/>
     <path d="m747.46-82.666c1.0326 2.395 1.066 6.359 0.074829 8.8538-0.99127 2.4948-2.6319 2.5757-3.6644 0.18069-1.0326-2.395-1.066-6.359-0.074829-8.8538 0.98932-2.4899 2.626-2.5761 3.6592-0.19271"/>
     <path d="m741.04-95.602c1.0325 2.395 1.066 6.359 0.074768 8.8538-0.99127 2.4948-2.6319 2.5757-3.6644 0.18069-1.0326-2.395-1.066-6.359-0.074768-8.8538 0.98926-2.4899 2.6259-2.5761 3.6592-0.19272"/>
    </g>
    <g filter="url(#x)" opacity="0">
     <path d="m264.53 321.83c1.0326 2.395 1.066 6.3589 0.074799 8.8537-0.99124 2.4948-2.6319 2.5757-3.6644 0.1807-1.0326-2.395-1.066-6.359-0.074799-8.8538 0.98932-2.4899 2.626-2.5761 3.6592-0.19272"/>
     <path d="m280.59 321.83c1.0326 2.395 1.066 6.3589 0.074799 8.8537-0.99124 2.4948-2.6319 2.5757-3.6644 0.1807-1.0326-2.395-1.066-6.359-0.074799-8.8538 0.98932-2.4899 2.626-2.5761 3.6592-0.19272"/>
     <path d="m274.16 349.86c1.0326 2.395 1.066 6.359 0.074768 8.8538-0.99124 2.4948-2.6319 2.5756-3.6644 0.1807-1.0326-2.395-1.066-6.359-0.074799-8.8538 0.98932-2.4899 2.626-2.576 3.6592-0.19269"/>
     <path d="m291.83 349.86c1.0326 2.395 1.066 6.359 0.074799 8.8538-0.99127 2.4948-2.6319 2.5756-3.6644 0.1807-1.0326-2.395-1.066-6.359-0.074799-8.8538 0.98929-2.4899 2.626-2.576 3.6592-0.19269"/>
     <path d="m283.8 362.8c1.0326 2.395 1.066 6.3589 0.074799 8.8537-0.99124 2.4948-2.6319 2.5757-3.6644 0.1807-1.0326-2.395-1.066-6.359-0.074799-8.8538 0.98929-2.4899 2.626-2.576 3.6592-0.19269"/>
     <path d="m261.31 362.8c1.0326 2.395 1.066 6.3589 0.074768 8.8537-0.99124 2.4948-2.6319 2.5757-3.6644 0.1807-1.0326-2.395-1.066-6.359-0.074799-8.8538 0.98932-2.4899 2.626-2.576 3.6592-0.19269"/>
     <path d="m254.89 349.86c1.0326 2.395 1.066 6.359 0.074799 8.8538-0.99126 2.4948-2.6319 2.5756-3.6644 0.1807-1.0326-2.395-1.066-6.359-0.074783-8.8538 0.9893-2.4899 2.626-2.576 3.6592-0.19269"/>
    </g>
    <g fill="#804d00" opacity=".044">
     <path d="m264.53 393.83c1.0326 2.395 1.066 6.359 0.074799 8.8538-0.99124 2.4948-2.6319 2.5757-3.6644 0.1807-1.0326-2.395-1.066-6.359-0.074799-8.8538 0.98932-2.4899 2.626-2.5761 3.6592-0.19272"/>
     <path d="m280.59 393.83c1.0326 2.395 1.066 6.359 0.074799 8.8538-0.99124 2.4948-2.6319 2.5757-3.6644 0.1807-1.0326-2.395-1.066-6.359-0.074799-8.8538 0.98932-2.4899 2.626-2.5761 3.6592-0.19272"/>
     <path d="m274.16 421.86c1.0326 2.395 1.066 6.359 0.074768 8.8537-0.99124 2.4948-2.6319 2.5757-3.6644 0.1807-1.0326-2.395-1.066-6.359-0.074799-8.8537 0.98932-2.4899 2.626-2.5761 3.6592-0.19275"/>
     <path d="m291.83 421.86c1.0326 2.395 1.066 6.359 0.074799 8.8537-0.99127 2.4948-2.6319 2.5757-3.6644 0.1807-1.0326-2.395-1.066-6.359-0.074799-8.8537 0.98929-2.4899 2.626-2.5761 3.6592-0.19275"/>
     <path d="m283.8 434.8c1.0326 2.395 1.066 6.359 0.074799 8.8537-0.99124 2.4948-2.6319 2.5757-3.6644 0.1807-1.0326-2.395-1.066-6.359-0.074799-8.8537 0.98929-2.4899 2.626-2.5761 3.6592-0.19275"/>
     <path d="m261.31 434.8c1.0326 2.395 1.066 6.359 0.074768 8.8537-0.99124 2.4948-2.6319 2.5757-3.6644 0.1807-1.0326-2.395-1.066-6.359-0.074799-8.8537 0.98932-2.4899 2.626-2.5761 3.6592-0.19275"/>
     <path d="m254.89 421.86c1.0326 2.395 1.066 6.359 0.074799 8.8537-0.99126 2.4948-2.6319 2.5757-3.6644 0.1807-1.0326-2.395-1.066-6.359-0.074783-8.8537 0.9893-2.4899 2.626-2.5761 3.6592-0.19275"/>
    </g>
    <g fill="#9ade00" opacity=".088">
     <path d="m224.53 393.83c1.0326 2.395 1.066 6.359 0.074783 8.8538-0.99124 2.4948-2.6319 2.5757-3.6644 0.1807-1.0326-2.395-1.066-6.359-0.074799-8.8538 0.98933-2.4899 2.626-2.5761 3.6593-0.19272"/>
     <path d="m240.59 393.83c1.0326 2.395 1.066 6.359 0.074783 8.8538-0.99126 2.4948-2.6319 2.5757-3.6644 0.1807-1.0326-2.395-1.066-6.359-0.074799-8.8538 0.98932-2.4899 2.626-2.5761 3.6593-0.19272"/>
     <path d="m234.16 421.86c1.0326 2.395 1.066 6.359 0.074799 8.8537-0.99126 2.4948-2.6319 2.5757-3.6644 0.1807-1.0326-2.395-1.066-6.359-0.074783-8.8537 0.98932-2.4899 2.626-2.5761 3.6593-0.19275"/>
     <path d="m251.83 421.86c1.0326 2.395 1.066 6.359 0.074783 8.8537-0.99124 2.4948-2.6319 2.5757-3.6644 0.1807-1.0326-2.395-1.066-6.359-0.074783-8.8537 0.98932-2.4899 2.626-2.5761 3.6592-0.19275"/>
     <path d="m243.8 434.8c1.0326 2.395 1.066 6.359 0.074799 8.8537-0.99126 2.4948-2.6319 2.5757-3.6644 0.1807-1.0326-2.395-1.066-6.359-0.074783-8.8537 0.98932-2.4899 2.626-2.5761 3.6593-0.19275"/>
     <path d="m221.31 434.8c1.0326 2.395 1.066 6.359 0.074799 8.8537-0.99126 2.4948-2.6319 2.5757-3.6644 0.1807-1.0326-2.395-1.066-6.359-0.074783-8.8537 0.98932-2.4899 2.626-2.5761 3.6592-0.19275"/>
     <path d="m214.89 421.86c1.0326 2.395 1.066 6.359 0.074799 8.8537-0.99126 2.4948-2.6319 2.5757-3.6644 0.1807-1.0326-2.395-1.066-6.359-0.074799-8.8537 0.98932-2.4899 2.626-2.5761 3.6593-0.19275"/>
    </g>
    <g fill="#f90" filter="url(#w)" opacity=".088">
     <path d="m131.66 237.02c1.0326 2.395 1.066 6.359 0.074783 8.8538-0.99124 2.4948-2.6319 2.5757-3.6644 0.1807-1.0326-2.395-1.066-6.359-0.074791-8.8538 0.98933-2.4899 2.626-2.5761 3.6592-0.1927"/>
     <path d="m147.72 237.02c1.0326 2.395 1.066 6.359 0.074783 8.8538-0.99124 2.4948-2.6319 2.5757-3.6644 0.1807-1.0326-2.395-1.066-6.359-0.074799-8.8538 0.98933-2.4899 2.626-2.5761 3.6593-0.1927"/>
     <path d="m141.3 265.05c1.0326 2.395 1.066 6.359 0.074799 8.8537-0.99126 2.4948-2.6319 2.5757-3.6644 0.1807-1.0326-2.395-1.066-6.359-0.074799-8.8538 0.98932-2.4899 2.626-2.5761 3.6593-0.19269"/>
     <path d="m158.97 265.05c1.0326 2.395 1.066 6.359 0.074799 8.8537-0.99126 2.4948-2.6319 2.5757-3.6644 0.1807-1.0326-2.395-1.066-6.359-0.074783-8.8538 0.98932-2.4899 2.626-2.5761 3.6593-0.19269"/>
     <path d="m150.94 277.99c1.0326 2.395 1.066 6.359 0.074799 8.8538-0.99126 2.4948-2.6319 2.5757-3.6644 0.1807-1.0326-2.395-1.066-6.359-0.074799-8.8538 0.98932-2.4899 2.626-2.5761 3.6593-0.19272"/>
     <path d="m128.45 277.99c1.0326 2.395 1.066 6.359 0.074799 8.8538-0.99125 2.4948-2.6319 2.5757-3.6644 0.1807-1.0326-2.395-1.066-6.359-0.074791-8.8538 0.98933-2.4899 2.626-2.5761 3.6593-0.19272"/>
     <path d="m122.02 265.05c1.0326 2.395 1.066 6.359 0.074791 8.8537-0.99125 2.4948-2.6319 2.5757-3.6644 0.1807-1.0326-2.395-1.066-6.359-0.074791-8.8538 0.98932-2.4899 2.626-2.5761 3.6592-0.19269"/>
    </g>
    <g fill="#ffc022">
     <g opacity=".02">
      <path d="m211.67 277.7c1.0326 2.395 1.066 6.359 0.074799 8.8538-0.99126 2.4948-2.6319 2.5757-3.6644 0.1807-1.0326-2.395-1.066-6.359-0.074783-8.8538 0.98929-2.4899 2.626-2.5761 3.6592-0.19272"/>
      <path d="m227.74 277.7c1.0326 2.395 1.066 6.359 0.074783 8.8538-0.99124 2.4948-2.6319 2.5757-3.6644 0.1807-1.0326-2.395-1.066-6.359-0.074783-8.8538 0.98929-2.4899 2.626-2.5761 3.6592-0.19272"/>
      <path d="m221.31 305.73c1.0326 2.395 1.066 6.359 0.074783 8.8537-0.99124 2.4948-2.6319 2.5757-3.6644 0.1807-1.0326-2.395-1.066-6.359-0.074799-8.8537 0.98929-2.4899 2.626-2.5761 3.6592-0.19275"/>
      <path d="m238.98 305.73c1.0326 2.395 1.066 6.359 0.074799 8.8537-0.99126 2.4948-2.6319 2.5757-3.6644 0.1807-1.0326-2.395-1.066-6.359-0.074799-8.8537 0.98929-2.4899 2.626-2.5761 3.6592-0.19275"/>
      <path d="m230.95 318.67c1.0326 2.395 1.066 6.359 0.074783 8.8538-0.99124 2.4948-2.6319 2.5757-3.6644 0.1807-1.0326-2.395-1.066-6.359-0.074799-8.8538 0.98929-2.4899 2.626-2.5761 3.6592-0.19272"/>
      <path d="m208.46 318.67c1.0326 2.395 1.066 6.359 0.074783 8.8538-0.99124 2.4948-2.6319 2.5757-3.6644 0.1807-1.0326-2.395-1.066-6.359-0.074799-8.8538 0.98929-2.4899 2.626-2.5761 3.6592-0.19272"/>
      <path d="m202.04 305.73c1.0326 2.395 1.066 6.359 0.074783 8.8537-0.99124 2.4948-2.6319 2.5757-3.6644 0.1807-1.0326-2.395-1.066-6.359-0.074783-8.8537 0.98927-2.4899 2.626-2.5761 3.6592-0.19275"/>
     </g>
     <g opacity=".088">
      <path d="m323.31 249.31c1.0326 2.395 1.066 6.359 0.074768 8.8538-0.99124 2.4948-2.6319 2.5757-3.6644 0.18066-1.0326-2.395-1.066-6.3589-0.074799-8.8538 0.98932-2.4899 2.626-2.5761 3.6592-0.19269"/>
      <path d="m339.37 249.31c1.0326 2.395 1.066 6.359 0.074799 8.8538-0.99124 2.4948-2.6319 2.5757-3.6644 0.18066-1.0326-2.395-1.066-6.3589-0.074799-8.8538 0.98932-2.4899 2.626-2.5761 3.6592-0.19269"/>
      <path d="m332.94 277.34c1.0326 2.395 1.066 6.359 0.074768 8.8538-0.99124 2.4948-2.6319 2.5756-3.6644 0.18066-1.0326-2.395-1.066-6.359-0.074768-8.8538 0.98929-2.4899 2.626-2.576 3.6592-0.19269"/>
      <path d="m350.61 277.34c1.0326 2.395 1.066 6.359 0.074799 8.8538-0.99124 2.4948-2.6319 2.5756-3.6644 0.18066-1.0326-2.395-1.066-6.359-0.074799-8.8538 0.98932-2.4899 2.626-2.576 3.6592-0.19269"/>
      <path d="m342.58 290.27c1.0326 2.395 1.066 6.359 0.074799 8.8538-0.99124 2.4948-2.6319 2.5757-3.6644 0.18066-1.0326-2.395-1.066-6.3589-0.074799-8.8538 0.98932-2.4899 2.626-2.576 3.6592-0.19269"/>
      <path d="m320.09 290.27c1.0326 2.395 1.066 6.359 0.074768 8.8538-0.99124 2.4948-2.6319 2.5757-3.6644 0.18066-1.0326-2.395-1.066-6.3589-0.074768-8.8538 0.98929-2.4899 2.626-2.576 3.6592-0.19269"/>
      <path d="m313.67 277.34c1.0326 2.395 1.066 6.359 0.074799 8.8538-0.99124 2.4948-2.6319 2.5756-3.6644 0.18066-1.0326-2.395-1.066-6.359-0.074799-8.8538 0.98932-2.4899 2.626-2.576 3.6592-0.19269"/>
     </g>
    </g>
   </g>
   <g stroke="#c97413">
    <path d="m230.15 40.246c-1.4422-9.2029-0.41714-19.788 3.0354-26.963 4.7565-9.8846 12.318-9.5532 16.884 0.74323 2.0586 4.6419 3.1621 10.517 3.3127 16.475-0.54367-3.5004-1.4546-6.8007-2.7143-9.6414-4.5663-10.296-12.113-10.648-16.87-0.76388-2.621 5.4468-3.842 12.869-3.6483 20.15z" fill="#0e232e" opacity=".132"/>
    <path d="m248.75 18.19c4.5164 6.8211 4.6628 18.111 0.3271 25.216-4.3357 7.1054-11.512 7.3358-16.028 0.51461-4.5164-6.8211-4.6628-18.111-0.32712-25.216 4.3272-7.0914 11.486-7.3369 16.005-0.54887" fill="url(#r)" filter="url(#p)" opacity=".488"/>
    <path d="m235.84 36.046c-1.3355 1.0712-1.3788 2.8441-0.096725 3.9599s3.404 1.152 4.7395 0.080811 1.3788-2.8441 0.096725-3.9599c-1.2796-1.1136-3.3964-1.1522-4.7328-0.086193" fill="#fff" filter="url(#q)" opacity=".595"/>
   </g>
   <g transform="matrix(.93397 0 0 1.5519 -190.91 407.59)" fill="#b88100" opacity=".088" stroke="#add40b">
    <path d="m750.68-123.63c1.0325 2.395 1.066 6.359 0.074768 8.8538-0.99127 2.4948-2.6319 2.5757-3.6644 0.18069-1.0326-2.395-1.066-6.359-0.074768-8.8538 0.98926-2.4899 2.626-2.5761 3.6592-0.19271"/>
    <path d="m766.74-123.63c1.0325 2.395 1.066 6.359 0.074768 8.8538-0.99127 2.4948-2.6319 2.5757-3.6644 0.18069-1.0326-2.395-1.066-6.359-0.074768-8.8538 0.98926-2.4899 2.6259-2.5761 3.6592-0.19271"/>
    <path d="m760.31-95.602c1.0325 2.395 1.066 6.359 0.074768 8.8538-0.99121 2.4948-2.6319 2.5757-3.6644 0.18069s-1.066-6.359-0.074768-8.8538c0.98932-2.4899 2.626-2.5761 3.6592-0.19272"/>
    <path d="m777.98-95.602c1.0326 2.395 1.066 6.359 0.074768 8.8538-0.99121 2.4948-2.6318 2.5757-3.6644 0.18069-1.0325-2.395-1.066-6.359-0.074768-8.8538 0.98932-2.4899 2.626-2.5761 3.6592-0.19272"/>
    <path d="m769.95-82.666c1.0326 2.395 1.066 6.359 0.074768 8.8538-0.99121 2.4948-2.6318 2.5757-3.6644 0.18069-1.0325-2.395-1.066-6.359-0.074768-8.8538 0.98932-2.4899 2.626-2.5761 3.6592-0.19271"/>
    <path d="m747.46-82.666c1.0326 2.395 1.066 6.359 0.074829 8.8538-0.99127 2.4948-2.6319 2.5757-3.6644 0.18069-1.0326-2.395-1.066-6.359-0.074829-8.8538 0.98932-2.4899 2.626-2.5761 3.6592-0.19271"/>
    <path d="m741.04-95.602c1.0325 2.395 1.066 6.359 0.074768 8.8538-0.99127 2.4948-2.6319 2.5757-3.6644 0.18069-1.0326-2.395-1.066-6.359-0.074768-8.8538 0.98926-2.4899 2.6259-2.5761 3.6592-0.19272"/>
   </g>
   <g stroke="#c97413">
    <path d="m290.17 1.9229c-0.88123-6.0074-0.25488-12.917 1.8547-17.601 2.9063-6.4525 7.5266-6.2362 10.317 0.48516 1.2578 3.0301 1.9321 6.8654 2.0241 10.754-0.33218-2.285-0.88876-4.4393-1.6585-6.2937-2.7901-6.7213-7.4014-6.9511-10.308-0.49864-1.6015 3.5555-2.3475 8.4003-2.2292 13.153z" fill="#0e232e" opacity=".132"/>
    <path d="m301.54-12.475c2.7596 4.4527 2.8491 11.822 0.19986 16.46-2.6492 4.6382-7.0339 4.7886-9.7935 0.33593s-2.8491-11.822-0.19986-16.46c2.644-4.6291 7.0181-4.7894 9.7796-0.35829" fill="url(#r)" filter="url(#p)" opacity=".488"/>
    <path d="m293.65-0.8188c-0.81601 0.69924-0.84247 1.8565-0.059113 2.5849 0.78339 0.72837 2.0799 0.75199 2.8959 0.052752 0.81601-0.69924 0.84247-1.8565 0.059113-2.5849-0.78186-0.72694-2.0753-0.75211-2.8918-0.056265" fill="#fff" filter="url(#q)" opacity=".595"/>
    <g fill="#0e232e">
     <path d="m290.12-3.1327c-0.76205 3.5253-0.2204 7.58 1.6039 10.328 2.5133 3.7864 6.5089 3.6595 8.9217-0.2847 1.0878-1.7781 1.6708-4.0288 1.7504-6.311-0.28726 1.3409-0.76858 2.6051-1.4343 3.6932-2.4128 3.9442-6.4006 4.079-8.914 0.29261-1.385-2.0865-2.0301-4.9295-1.9278-7.7186z" opacity=".132"/>
     <path d="m252.74 2.5682c-0.88121-6.0074-0.25488-12.917 1.8547-17.601 2.9063-6.4525 7.5266-6.2362 10.317 0.48516 1.2578 3.0301 1.9321 6.8654 2.0241 10.754-0.33218-2.285-0.88876-4.4393-1.6585-6.2937-2.7901-6.7213-7.4014-6.9511-10.308-0.49864-1.6015 3.5555-2.3475 8.4003-2.2292 13.153z" opacity=".132"/>
    </g>
    <path d="m264.1-11.83c2.7596 4.4527 2.8491 11.822 0.19986 16.46-2.6492 4.6382-7.0339 4.7886-9.7935 0.33593s-2.8491-11.822-0.19988-16.46c2.644-4.6291 7.0181-4.7894 9.7796-0.35829" fill="url(#r)" filter="url(#p)" opacity=".488"/>
    <path d="m256.21-0.1735c-0.81601 0.69924-0.84247 1.8565-0.059113 2.5849 0.78339 0.72837 2.0799 0.75199 2.8959 0.052752 0.81601-0.69924 0.84247-1.8565 0.059082-2.5849-0.78183-0.72694-2.0752-0.75211-2.8918-0.056265" fill="#fff" filter="url(#q)" opacity=".595"/>
   </g>
   <g stroke="#add40b">
    <g transform="matrix(.46698 0 0 .77594 -80.972 313.05)" fill="#b88100" opacity=".088">
     <path d="m750.68-123.63c1.0325 2.395 1.066 6.359 0.074768 8.8538-0.99127 2.4948-2.6319 2.5757-3.6644 0.18069-1.0326-2.395-1.066-6.359-0.074768-8.8538 0.98926-2.4899 2.626-2.5761 3.6592-0.19271"/>
     <path d="m766.74-123.63c1.0325 2.395 1.066 6.359 0.074768 8.8538-0.99127 2.4948-2.6319 2.5757-3.6644 0.18069-1.0326-2.395-1.066-6.359-0.074768-8.8538 0.98926-2.4899 2.6259-2.5761 3.6592-0.19271"/>
     <path d="m760.31-95.602c1.0325 2.395 1.066 6.359 0.074768 8.8538-0.99121 2.4948-2.6319 2.5757-3.6644 0.18069s-1.066-6.359-0.074768-8.8538c0.98932-2.4899 2.626-2.5761 3.6592-0.19272"/>
     <path d="m777.98-95.602c1.0326 2.395 1.066 6.359 0.074768 8.8538-0.99121 2.4948-2.6318 2.5757-3.6644 0.18069-1.0325-2.395-1.066-6.359-0.074768-8.8538 0.98932-2.4899 2.626-2.5761 3.6592-0.19272"/>
     <path d="m769.95-82.666c1.0326 2.395 1.066 6.359 0.074768 8.8538-0.99121 2.4948-2.6318 2.5757-3.6644 0.18069-1.0325-2.395-1.066-6.359-0.074768-8.8538 0.98932-2.4899 2.626-2.5761 3.6592-0.19271"/>
     <path d="m747.46-82.666c1.0326 2.395 1.066 6.359 0.074829 8.8538-0.99127 2.4948-2.6319 2.5757-3.6644 0.18069-1.0326-2.395-1.066-6.359-0.074829-8.8538 0.98932-2.4899 2.626-2.5761 3.6592-0.19271"/>
     <path d="m741.04-95.602c1.0325 2.395 1.066 6.359 0.074768 8.8538-0.99127 2.4948-2.6319 2.5757-3.6644 0.18069-1.0326-2.395-1.066-6.359-0.074768-8.8538 0.98926-2.4899 2.6259-2.5761 3.6592-0.19272"/>
    </g>
    <g fill="#f60">
     <g transform="matrix(.5 0 0 .5 -103.38 314.46)" opacity=".088">
      <path d="m750.68-123.63c1.0325 2.395 1.066 6.359 0.074768 8.8538-0.99127 2.4948-2.6319 2.5757-3.6644 0.18069-1.0326-2.395-1.066-6.359-0.074768-8.8538 0.98926-2.4899 2.626-2.5761 3.6592-0.19271"/>
      <path d="m766.74-123.63c1.0325 2.395 1.066 6.359 0.074768 8.8538-0.99127 2.4948-2.6319 2.5757-3.6644 0.18069-1.0326-2.395-1.066-6.359-0.074768-8.8538 0.98926-2.4899 2.6259-2.5761 3.6592-0.19271"/>
      <path d="m760.31-95.602c1.0325 2.395 1.066 6.359 0.074768 8.8538-0.99121 2.4948-2.6319 2.5757-3.6644 0.18069s-1.066-6.359-0.074768-8.8538c0.98932-2.4899 2.626-2.5761 3.6592-0.19272"/>
      <path d="m777.98-95.602c1.0326 2.395 1.066 6.359 0.074768 8.8538-0.99121 2.4948-2.6318 2.5757-3.6644 0.18069-1.0325-2.395-1.066-6.359-0.074768-8.8538 0.98932-2.4899 2.626-2.5761 3.6592-0.19272"/>
      <path d="m769.95-82.666c1.0326 2.395 1.066 6.359 0.074768 8.8538-0.99121 2.4948-2.6318 2.5757-3.6644 0.18069-1.0325-2.395-1.066-6.359-0.074768-8.8538 0.98932-2.4899 2.626-2.5761 3.6592-0.19271"/>
      <path d="m747.46-82.666c1.0326 2.395 1.066 6.359 0.074829 8.8538-0.99127 2.4948-2.6319 2.5757-3.6644 0.18069-1.0326-2.395-1.066-6.359-0.074829-8.8538 0.98932-2.4899 2.626-2.5761 3.6592-0.19271"/>
      <path d="m741.04-95.602c1.0325 2.395 1.066 6.359 0.074768 8.8538-0.99127 2.4948-2.6319 2.5757-3.6644 0.18069-1.0326-2.395-1.066-6.359-0.074768-8.8538 0.98926-2.4899 2.6259-2.5761 3.6592-0.19272"/>
     </g>
     <g transform="matrix(.5 0 0 .5 -123.38 314.46)" opacity=".088">
      <path d="m750.68-123.63c1.0325 2.395 1.066 6.359 0.074768 8.8538-0.99127 2.4948-2.6319 2.5757-3.6644 0.18069-1.0326-2.395-1.066-6.359-0.074768-8.8538 0.98926-2.4899 2.626-2.5761 3.6592-0.19271"/>
      <path d="m766.74-123.63c1.0325 2.395 1.066 6.359 0.074768 8.8538-0.99127 2.4948-2.6319 2.5757-3.6644 0.18069-1.0326-2.395-1.066-6.359-0.074768-8.8538 0.98926-2.4899 2.6259-2.5761 3.6592-0.19271"/>
      <path d="m760.31-95.602c1.0325 2.395 1.066 6.359 0.074768 8.8538-0.99121 2.4948-2.6319 2.5757-3.6644 0.18069s-1.066-6.359-0.074768-8.8538c0.98932-2.4899 2.626-2.5761 3.6592-0.19272"/>
      <path d="m777.98-95.602c1.0326 2.395 1.066 6.359 0.074768 8.8538-0.99121 2.4948-2.6318 2.5757-3.6644 0.18069-1.0325-2.395-1.066-6.359-0.074768-8.8538 0.98932-2.4899 2.626-2.5761 3.6592-0.19272"/>
      <path d="m769.95-82.666c1.0326 2.395 1.066 6.359 0.074768 8.8538-0.99121 2.4948-2.6318 2.5757-3.6644 0.18069-1.0325-2.395-1.066-6.359-0.074768-8.8538 0.98932-2.4899 2.626-2.5761 3.6592-0.19271"/>
      <path d="m747.46-82.666c1.0326 2.395 1.066 6.359 0.074829 8.8538-0.99127 2.4948-2.6319 2.5757-3.6644 0.18069-1.0326-2.395-1.066-6.359-0.074829-8.8538 0.98932-2.4899 2.626-2.5761 3.6592-0.19271"/>
      <path d="m741.04-95.602c1.0325 2.395 1.066 6.359 0.074768 8.8538-0.99127 2.4948-2.6319 2.5757-3.6644 0.18069-1.0326-2.395-1.066-6.359-0.074768-8.8538 0.98926-2.4899 2.6259-2.5761 3.6592-0.19272"/>
     </g>
     <g transform="matrix(.46698 0 0 .77594 -108.06 322.36)" opacity=".088">
      <path d="m750.68-123.63c1.0325 2.395 1.066 6.359 0.074768 8.8538-0.99127 2.4948-2.6319 2.5757-3.6644 0.18069-1.0326-2.395-1.066-6.359-0.074768-8.8538 0.98926-2.4899 2.626-2.5761 3.6592-0.19271"/>
      <path d="m766.74-123.63c1.0325 2.395 1.066 6.359 0.074768 8.8538-0.99127 2.4948-2.6319 2.5757-3.6644 0.18069-1.0326-2.395-1.066-6.359-0.074768-8.8538 0.98926-2.4899 2.6259-2.5761 3.6592-0.19271"/>
      <path d="m760.31-95.602c1.0325 2.395 1.066 6.359 0.074768 8.8538-0.99121 2.4948-2.6319 2.5757-3.6644 0.18069s-1.066-6.359-0.074768-8.8538c0.98932-2.4899 2.626-2.5761 3.6592-0.19272"/>
      <path d="m777.98-95.602c1.0326 2.395 1.066 6.359 0.074768 8.8538-0.99121 2.4948-2.6318 2.5757-3.6644 0.18069-1.0325-2.395-1.066-6.359-0.074768-8.8538 0.98932-2.4899 2.626-2.5761 3.6592-0.19272"/>
      <path d="m769.95-82.666c1.0326 2.395 1.066 6.359 0.074768 8.8538-0.99121 2.4948-2.6318 2.5757-3.6644 0.18069-1.0325-2.395-1.066-6.359-0.074768-8.8538 0.98932-2.4899 2.626-2.5761 3.6592-0.19271"/>
      <path d="m747.46-82.666c1.0326 2.395 1.066 6.359 0.074829 8.8538-0.99127 2.4948-2.6319 2.5757-3.6644 0.18069-1.0326-2.395-1.066-6.359-0.074829-8.8538 0.98932-2.4899 2.626-2.5761 3.6592-0.19271"/>
      <path d="m741.04-95.602c1.0325 2.395 1.066 6.359 0.074768 8.8538-0.99127 2.4948-2.6319 2.5757-3.6644 0.18069-1.0326-2.395-1.066-6.359-0.074768-8.8538 0.98926-2.4899 2.6259-2.5761 3.6592-0.19272"/>
     </g>
    </g>
    <g fill="#b88100">
     <g transform="matrix(.5 0 0 .5 -95.598 180.88)" opacity=".088">
      <path d="m750.68-123.63c1.0325 2.395 1.066 6.359 0.074768 8.8538-0.99127 2.4948-2.6319 2.5757-3.6644 0.18069-1.0326-2.395-1.066-6.359-0.074768-8.8538 0.98926-2.4899 2.626-2.5761 3.6592-0.19271"/>
      <path d="m766.74-123.63c1.0325 2.395 1.066 6.359 0.074768 8.8538-0.99127 2.4948-2.6319 2.5757-3.6644 0.18069-1.0326-2.395-1.066-6.359-0.074768-8.8538 0.98926-2.4899 2.6259-2.5761 3.6592-0.19271"/>
      <path d="m760.31-95.602c1.0325 2.395 1.066 6.359 0.074768 8.8538-0.99121 2.4948-2.6319 2.5757-3.6644 0.18069s-1.066-6.359-0.074768-8.8538c0.98932-2.4899 2.626-2.5761 3.6592-0.19272"/>
      <path d="m777.98-95.602c1.0326 2.395 1.066 6.359 0.074768 8.8538-0.99121 2.4948-2.6318 2.5757-3.6644 0.18069-1.0325-2.395-1.066-6.359-0.074768-8.8538 0.98932-2.4899 2.626-2.5761 3.6592-0.19272"/>
      <path d="m769.95-82.666c1.0326 2.395 1.066 6.359 0.074768 8.8538-0.99121 2.4948-2.6318 2.5757-3.6644 0.18069-1.0325-2.395-1.066-6.359-0.074768-8.8538 0.98932-2.4899 2.626-2.5761 3.6592-0.19271"/>
      <path d="m747.46-82.666c1.0326 2.395 1.066 6.359 0.074829 8.8538-0.99127 2.4948-2.6319 2.5757-3.6644 0.18069-1.0326-2.395-1.066-6.359-0.074829-8.8538 0.98932-2.4899 2.626-2.5761 3.6592-0.19271"/>
      <path d="m741.04-95.602c1.0325 2.395 1.066 6.359 0.074768 8.8538-0.99127 2.4948-2.6319 2.5757-3.6644 0.18069-1.0326-2.395-1.066-6.359-0.074768-8.8538 0.98926-2.4899 2.6259-2.5761 3.6592-0.19272"/>
     </g>
     <g transform="matrix(.5 0 0 .5 -65.598 180.88)" opacity=".088">
      <path d="m750.68-123.63c1.0325 2.395 1.066 6.359 0.074768 8.8538-0.99127 2.4948-2.6319 2.5757-3.6644 0.18069-1.0326-2.395-1.066-6.359-0.074768-8.8538 0.98926-2.4899 2.626-2.5761 3.6592-0.19271"/>
      <path d="m766.74-123.63c1.0325 2.395 1.066 6.359 0.074768 8.8538-0.99127 2.4948-2.6319 2.5757-3.6644 0.18069-1.0326-2.395-1.066-6.359-0.074768-8.8538 0.98926-2.4899 2.6259-2.5761 3.6592-0.19271"/>
      <path d="m760.31-95.602c1.0325 2.395 1.066 6.359 0.074768 8.8538-0.99121 2.4948-2.6319 2.5757-3.6644 0.18069s-1.066-6.359-0.074768-8.8538c0.98932-2.4899 2.626-2.5761 3.6592-0.19272"/>
      <path d="m777.98-95.602c1.0326 2.395 1.066 6.359 0.074768 8.8538-0.99121 2.4948-2.6318 2.5757-3.6644 0.18069-1.0325-2.395-1.066-6.359-0.074768-8.8538 0.98932-2.4899 2.626-2.5761 3.6592-0.19272"/>
      <path d="m769.95-82.666c1.0326 2.395 1.066 6.359 0.074768 8.8538-0.99121 2.4948-2.6318 2.5757-3.6644 0.18069-1.0325-2.395-1.066-6.359-0.074768-8.8538 0.98932-2.4899 2.626-2.5761 3.6592-0.19271"/>
      <path d="m747.46-82.666c1.0326 2.395 1.066 6.359 0.074829 8.8538-0.99127 2.4948-2.6319 2.5757-3.6644 0.18069-1.0326-2.395-1.066-6.359-0.074829-8.8538 0.98932-2.4899 2.626-2.5761 3.6592-0.19271"/>
      <path d="m741.04-95.602c1.0325 2.395 1.066 6.359 0.074768 8.8538-0.99127 2.4948-2.6319 2.5757-3.6644 0.18069-1.0326-2.395-1.066-6.359-0.074768-8.8538 0.98926-2.4899 2.6259-2.5761 3.6592-0.19272"/>
     </g>
     <g transform="matrix(.5 0 0 .5 -35.598 180.88)" opacity=".088">
      <path d="m750.68-123.63c1.0325 2.395 1.066 6.359 0.074768 8.8538-0.99127 2.4948-2.6319 2.5757-3.6644 0.18069-1.0326-2.395-1.066-6.359-0.074768-8.8538 0.98926-2.4899 2.626-2.5761 3.6592-0.19271"/>
      <path d="m766.74-123.63c1.0325 2.395 1.066 6.359 0.074768 8.8538-0.99127 2.4948-2.6319 2.5757-3.6644 0.18069-1.0326-2.395-1.066-6.359-0.074768-8.8538 0.98926-2.4899 2.6259-2.5761 3.6592-0.19271"/>
      <path d="m760.31-95.602c1.0325 2.395 1.066 6.359 0.074768 8.8538-0.99121 2.4948-2.6319 2.5757-3.6644 0.18069s-1.066-6.359-0.074768-8.8538c0.98932-2.4899 2.626-2.5761 3.6592-0.19272"/>
      <path d="m777.98-95.602c1.0326 2.395 1.066 6.359 0.074768 8.8538-0.99121 2.4948-2.6318 2.5757-3.6644 0.18069-1.0325-2.395-1.066-6.359-0.074768-8.8538 0.98932-2.4899 2.626-2.5761 3.6592-0.19272"/>
      <path d="m769.95-82.666c1.0326 2.395 1.066 6.359 0.074768 8.8538-0.99121 2.4948-2.6318 2.5757-3.6644 0.18069-1.0325-2.395-1.066-6.359-0.074768-8.8538 0.98932-2.4899 2.626-2.5761 3.6592-0.19271"/>
      <path d="m747.46-82.666c1.0326 2.395 1.066 6.359 0.074829 8.8538-0.99127 2.4948-2.6319 2.5757-3.6644 0.18069-1.0326-2.395-1.066-6.359-0.074829-8.8538 0.98932-2.4899 2.626-2.5761 3.6592-0.19271"/>
      <path d="m741.04-95.602c1.0325 2.395 1.066 6.359 0.074768 8.8538-0.99127 2.4948-2.6319 2.5757-3.6644 0.18069-1.0326-2.395-1.066-6.359-0.074768-8.8538 0.98926-2.4899 2.6259-2.5761 3.6592-0.19272"/>
     </g>
     <g transform="matrix(.5 0 0 .5 -19.463 177.43)" opacity=".088">
      <path d="m750.68-123.63c1.0325 2.395 1.066 6.359 0.074768 8.8538-0.99127 2.4948-2.6319 2.5757-3.6644 0.18069-1.0326-2.395-1.066-6.359-0.074768-8.8538 0.98926-2.4899 2.626-2.5761 3.6592-0.19271"/>
      <path d="m766.74-123.63c1.0325 2.395 1.066 6.359 0.074768 8.8538-0.99127 2.4948-2.6319 2.5757-3.6644 0.18069-1.0326-2.395-1.066-6.359-0.074768-8.8538 0.98926-2.4899 2.6259-2.5761 3.6592-0.19271"/>
      <path d="m760.31-95.602c1.0325 2.395 1.066 6.359 0.074768 8.8538-0.99121 2.4948-2.6319 2.5757-3.6644 0.18069s-1.066-6.359-0.074768-8.8538c0.98932-2.4899 2.626-2.5761 3.6592-0.19272"/>
      <path d="m777.98-95.602c1.0326 2.395 1.066 6.359 0.074768 8.8538-0.99121 2.4948-2.6318 2.5757-3.6644 0.18069-1.0325-2.395-1.066-6.359-0.074768-8.8538 0.98932-2.4899 2.626-2.5761 3.6592-0.19272"/>
      <path d="m769.95-82.666c1.0326 2.395 1.066 6.359 0.074768 8.8538-0.99121 2.4948-2.6318 2.5757-3.6644 0.18069-1.0325-2.395-1.066-6.359-0.074768-8.8538 0.98932-2.4899 2.626-2.5761 3.6592-0.19271"/>
      <path d="m747.46-82.666c1.0326 2.395 1.066 6.359 0.074829 8.8538-0.99127 2.4948-2.6319 2.5757-3.6644 0.18069-1.0326-2.395-1.066-6.359-0.074829-8.8538 0.98932-2.4899 2.626-2.5761 3.6592-0.19271"/>
      <path d="m741.04-95.602c1.0325 2.395 1.066 6.359 0.074768 8.8538-0.99127 2.4948-2.6319 2.5757-3.6644 0.18069-1.0326-2.395-1.066-6.359-0.074768-8.8538 0.98926-2.4899 2.6259-2.5761 3.6592-0.19272"/>
     </g>
    </g>
    <g fill="#f60">
     <g transform="matrix(.5 0 0 .5 -112.38 324.46)" opacity=".088">
      <path d="m750.68-123.63c1.0325 2.395 1.066 6.359 0.074768 8.8538-0.99127 2.4948-2.6319 2.5757-3.6644 0.18069-1.0326-2.395-1.066-6.359-0.074768-8.8538 0.98926-2.4899 2.626-2.5761 3.6592-0.19271"/>
      <path d="m766.74-123.63c1.0325 2.395 1.066 6.359 0.074768 8.8538-0.99127 2.4948-2.6319 2.5757-3.6644 0.18069-1.0326-2.395-1.066-6.359-0.074768-8.8538 0.98926-2.4899 2.6259-2.5761 3.6592-0.19271"/>
      <path d="m760.31-95.602c1.0325 2.395 1.066 6.359 0.074768 8.8538-0.99121 2.4948-2.6319 2.5757-3.6644 0.18069s-1.066-6.359-0.074768-8.8538c0.98932-2.4899 2.626-2.5761 3.6592-0.19272"/>
      <path d="m777.98-95.602c1.0326 2.395 1.066 6.359 0.074768 8.8538-0.99121 2.4948-2.6318 2.5757-3.6644 0.18069-1.0325-2.395-1.066-6.359-0.074768-8.8538 0.98932-2.4899 2.626-2.5761 3.6592-0.19272"/>
      <path d="m769.95-82.666c1.0326 2.395 1.066 6.359 0.074768 8.8538-0.99121 2.4948-2.6318 2.5757-3.6644 0.18069-1.0325-2.395-1.066-6.359-0.074768-8.8538 0.98932-2.4899 2.626-2.5761 3.6592-0.19271"/>
      <path d="m747.46-82.666c1.0326 2.395 1.066 6.359 0.074829 8.8538-0.99127 2.4948-2.6319 2.5757-3.6644 0.18069-1.0326-2.395-1.066-6.359-0.074829-8.8538 0.98932-2.4899 2.626-2.5761 3.6592-0.19271"/>
      <path d="m741.04-95.602c1.0325 2.395 1.066 6.359 0.074768 8.8538-0.99127 2.4948-2.6319 2.5757-3.6644 0.18069-1.0326-2.395-1.066-6.359-0.074768-8.8538 0.98926-2.4899 2.6259-2.5761 3.6592-0.19272"/>
     </g>
     <g transform="matrix(.5 0 0 .5 -82.378 324.46)" opacity=".088">
      <path d="m750.68-123.63c1.0325 2.395 1.066 6.359 0.074768 8.8538-0.99127 2.4948-2.6319 2.5757-3.6644 0.18069-1.0326-2.395-1.066-6.359-0.074768-8.8538 0.98926-2.4899 2.626-2.5761 3.6592-0.19271"/>
      <path d="m766.74-123.63c1.0325 2.395 1.066 6.359 0.074768 8.8538-0.99127 2.4948-2.6319 2.5757-3.6644 0.18069-1.0326-2.395-1.066-6.359-0.074768-8.8538 0.98926-2.4899 2.6259-2.5761 3.6592-0.19271"/>
      <path d="m760.31-95.602c1.0325 2.395 1.066 6.359 0.074768 8.8538-0.99121 2.4948-2.6319 2.5757-3.6644 0.18069s-1.066-6.359-0.074768-8.8538c0.98932-2.4899 2.626-2.5761 3.6592-0.19272"/>
      <path d="m777.98-95.602c1.0326 2.395 1.066 6.359 0.074768 8.8538-0.99121 2.4948-2.6318 2.5757-3.6644 0.18069-1.0325-2.395-1.066-6.359-0.074768-8.8538 0.98932-2.4899 2.626-2.5761 3.6592-0.19272"/>
      <path d="m769.95-82.666c1.0326 2.395 1.066 6.359 0.074768 8.8538-0.99121 2.4948-2.6318 2.5757-3.6644 0.18069-1.0325-2.395-1.066-6.359-0.074768-8.8538 0.98932-2.4899 2.626-2.5761 3.6592-0.19271"/>
      <path d="m747.46-82.666c1.0326 2.395 1.066 6.359 0.074829 8.8538-0.99127 2.4948-2.6319 2.5757-3.6644 0.18069-1.0326-2.395-1.066-6.359-0.074829-8.8538 0.98932-2.4899 2.626-2.5761 3.6592-0.19271"/>
      <path d="m741.04-95.602c1.0325 2.395 1.066 6.359 0.074768 8.8538-0.99127 2.4948-2.6319 2.5757-3.6644 0.18069-1.0326-2.395-1.066-6.359-0.074768-8.8538 0.98926-2.4899 2.6259-2.5761 3.6592-0.19272"/>
     </g>
    </g>
    <g fill="#9ade00">
     <g transform="matrix(.5 0 0 .5 -72.378 324.46)" opacity=".088">
      <path d="m750.68-123.63c1.0325 2.395 1.066 6.359 0.074768 8.8538-0.99127 2.4948-2.6319 2.5757-3.6644 0.18069-1.0326-2.395-1.066-6.359-0.074768-8.8538 0.98926-2.4899 2.626-2.5761 3.6592-0.19271"/>
      <path d="m766.74-123.63c1.0325 2.395 1.066 6.359 0.074768 8.8538-0.99127 2.4948-2.6319 2.5757-3.6644 0.18069-1.0326-2.395-1.066-6.359-0.074768-8.8538 0.98926-2.4899 2.6259-2.5761 3.6592-0.19271"/>
      <path d="m760.31-95.602c1.0325 2.395 1.066 6.359 0.074768 8.8538-0.99121 2.4948-2.6319 2.5757-3.6644 0.18069s-1.066-6.359-0.074768-8.8538c0.98932-2.4899 2.626-2.5761 3.6592-0.19272"/>
      <path d="m777.98-95.602c1.0326 2.395 1.066 6.359 0.074768 8.8538-0.99121 2.4948-2.6318 2.5757-3.6644 0.18069-1.0325-2.395-1.066-6.359-0.074768-8.8538 0.98932-2.4899 2.626-2.5761 3.6592-0.19272"/>
      <path d="m769.95-82.666c1.0326 2.395 1.066 6.359 0.074768 8.8538-0.99121 2.4948-2.6318 2.5757-3.6644 0.18069-1.0325-2.395-1.066-6.359-0.074768-8.8538 0.98932-2.4899 2.626-2.5761 3.6592-0.19271"/>
      <path d="m747.46-82.666c1.0326 2.395 1.066 6.359 0.074829 8.8538-0.99127 2.4948-2.6319 2.5757-3.6644 0.18069-1.0326-2.395-1.066-6.359-0.074829-8.8538 0.98932-2.4899 2.626-2.5761 3.6592-0.19271"/>
      <path d="m741.04-95.602c1.0325 2.395 1.066 6.359 0.074768 8.8538-0.99127 2.4948-2.6319 2.5757-3.6644 0.18069-1.0326-2.395-1.066-6.359-0.074768-8.8538 0.98926-2.4899 2.6259-2.5761 3.6592-0.19272"/>
     </g>
     <g transform="matrix(.5 0 0 .5 -26.243 312.19)" opacity=".088">
      <path d="m750.68-123.63c1.0325 2.395 1.066 6.359 0.074768 8.8538-0.99127 2.4948-2.6319 2.5757-3.6644 0.18069-1.0326-2.395-1.066-6.359-0.074768-8.8538 0.98926-2.4899 2.626-2.5761 3.6592-0.19271"/>
      <path d="m766.74-123.63c1.0325 2.395 1.066 6.359 0.074768 8.8538-0.99127 2.4948-2.6319 2.5757-3.6644 0.18069-1.0326-2.395-1.066-6.359-0.074768-8.8538 0.98926-2.4899 2.6259-2.5761 3.6592-0.19271"/>
      <path d="m760.31-95.602c1.0325 2.395 1.066 6.359 0.074768 8.8538-0.99121 2.4948-2.6319 2.5757-3.6644 0.18069s-1.066-6.359-0.074768-8.8538c0.98932-2.4899 2.626-2.5761 3.6592-0.19272"/>
      <path d="m777.98-95.602c1.0326 2.395 1.066 6.359 0.074768 8.8538-0.99121 2.4948-2.6318 2.5757-3.6644 0.18069-1.0325-2.395-1.066-6.359-0.074768-8.8538 0.98932-2.4899 2.626-2.5761 3.6592-0.19272"/>
      <path d="m769.95-82.666c1.0326 2.395 1.066 6.359 0.074768 8.8538-0.99121 2.4948-2.6318 2.5757-3.6644 0.18069-1.0325-2.395-1.066-6.359-0.074768-8.8538 0.98932-2.4899 2.626-2.5761 3.6592-0.19271"/>
      <path d="m747.46-82.666c1.0326 2.395 1.066 6.359 0.074829 8.8538-0.99127 2.4948-2.6319 2.5757-3.6644 0.18069-1.0326-2.395-1.066-6.359-0.074829-8.8538 0.98932-2.4899 2.626-2.5761 3.6592-0.19271"/>
      <path d="m741.04-95.602c1.0325 2.395 1.066 6.359 0.074768 8.8538-0.99127 2.4948-2.6319 2.5757-3.6644 0.18069-1.0326-2.395-1.066-6.359-0.074768-8.8538 0.98926-2.4899 2.6259-2.5761 3.6592-0.19272"/>
     </g>
    </g>
    <g transform="matrix(.5 0 0 .5 -13.052 279.73)" fill="#b88100" opacity=".088">
     <path d="m750.68-123.63c1.0325 2.395 1.066 6.359 0.074768 8.8538-0.99127 2.4948-2.6319 2.5757-3.6644 0.18069-1.0326-2.395-1.066-6.359-0.074768-8.8538 0.98926-2.4899 2.626-2.5761 3.6592-0.19271"/>
     <path d="m766.74-123.63c1.0325 2.395 1.066 6.359 0.074768 8.8538-0.99127 2.4948-2.6319 2.5757-3.6644 0.18069-1.0326-2.395-1.066-6.359-0.074768-8.8538 0.98926-2.4899 2.6259-2.5761 3.6592-0.19271"/>
     <path d="m760.31-95.602c1.0325 2.395 1.066 6.359 0.074768 8.8538-0.99121 2.4948-2.6319 2.5757-3.6644 0.18069s-1.066-6.359-0.074768-8.8538c0.98932-2.4899 2.626-2.5761 3.6592-0.19272"/>
     <path d="m777.98-95.602c1.0326 2.395 1.066 6.359 0.074768 8.8538-0.99121 2.4948-2.6318 2.5757-3.6644 0.18069-1.0325-2.395-1.066-6.359-0.074768-8.8538 0.98932-2.4899 2.626-2.5761 3.6592-0.19272"/>
     <path d="m769.95-82.666c1.0326 2.395 1.066 6.359 0.074768 8.8538-0.99121 2.4948-2.6318 2.5757-3.6644 0.18069-1.0325-2.395-1.066-6.359-0.074768-8.8538 0.98932-2.4899 2.626-2.5761 3.6592-0.19271"/>
     <path d="m747.46-82.666c1.0326 2.395 1.066 6.359 0.074829 8.8538-0.99127 2.4948-2.6319 2.5757-3.6644 0.18069-1.0326-2.395-1.066-6.359-0.074829-8.8538 0.98932-2.4899 2.626-2.5761 3.6592-0.19271"/>
     <path d="m741.04-95.602c1.0325 2.395 1.066 6.359 0.074768 8.8538-0.99127 2.4948-2.6319 2.5757-3.6644 0.18069-1.0326-2.395-1.066-6.359-0.074768-8.8538 0.98926-2.4899 2.6259-2.5761 3.6592-0.19272"/>
    </g>
    <g transform="matrix(.5 0 0 .5 -53.676 286.71)" fill="#804d00" opacity=".088">
     <path d="m750.68-123.63c1.0325 2.395 1.066 6.359 0.074768 8.8538-0.99127 2.4948-2.6319 2.5757-3.6644 0.18069-1.0326-2.395-1.066-6.359-0.074768-8.8538 0.98926-2.4899 2.626-2.5761 3.6592-0.19271"/>
     <path d="m766.74-123.63c1.0325 2.395 1.066 6.359 0.074768 8.8538-0.99127 2.4948-2.6319 2.5757-3.6644 0.18069-1.0326-2.395-1.066-6.359-0.074768-8.8538 0.98926-2.4899 2.6259-2.5761 3.6592-0.19271"/>
     <path d="m760.31-95.602c1.0325 2.395 1.066 6.359 0.074768 8.8538-0.99121 2.4948-2.6319 2.5757-3.6644 0.18069s-1.066-6.359-0.074768-8.8538c0.98932-2.4899 2.626-2.5761 3.6592-0.19272"/>
     <path d="m777.98-95.602c1.0326 2.395 1.066 6.359 0.074768 8.8538-0.99121 2.4948-2.6318 2.5757-3.6644 0.18069-1.0325-2.395-1.066-6.359-0.074768-8.8538 0.98932-2.4899 2.626-2.5761 3.6592-0.19272"/>
     <path d="m769.95-82.666c1.0326 2.395 1.066 6.359 0.074768 8.8538-0.99121 2.4948-2.6318 2.5757-3.6644 0.18069-1.0325-2.395-1.066-6.359-0.074768-8.8538 0.98932-2.4899 2.626-2.5761 3.6592-0.19271"/>
     <path d="m747.46-82.666c1.0326 2.395 1.066 6.359 0.074829 8.8538-0.99127 2.4948-2.6319 2.5757-3.6644 0.18069-1.0326-2.395-1.066-6.359-0.074829-8.8538 0.98932-2.4899 2.626-2.5761 3.6592-0.19271"/>
     <path d="m741.04-95.602c1.0325 2.395 1.066 6.359 0.074768 8.8538-0.99127 2.4948-2.6319 2.5757-3.6644 0.18069-1.0326-2.395-1.066-6.359-0.074768-8.8538 0.98926-2.4899 2.6259-2.5761 3.6592-0.19272"/>
    </g>
    <g transform="matrix(.5 0 0 .5 4.7215 176.35)" fill="#b88100" opacity=".088">
     <path d="m750.68-123.63c1.0325 2.395 1.066 6.359 0.074768 8.8538-0.99127 2.4948-2.6319 2.5757-3.6644 0.18069-1.0326-2.395-1.066-6.359-0.074768-8.8538 0.98926-2.4899 2.626-2.5761 3.6592-0.19271"/>
     <path d="m766.74-123.63c1.0325 2.395 1.066 6.359 0.074768 8.8538-0.99127 2.4948-2.6319 2.5757-3.6644 0.18069-1.0326-2.395-1.066-6.359-0.074768-8.8538 0.98926-2.4899 2.6259-2.5761 3.6592-0.19271"/>
     <path d="m760.31-95.602c1.0325 2.395 1.066 6.359 0.074768 8.8538-0.99121 2.4948-2.6319 2.5757-3.6644 0.18069s-1.066-6.359-0.074768-8.8538c0.98932-2.4899 2.626-2.5761 3.6592-0.19272"/>
     <path d="m777.98-95.602c1.0326 2.395 1.066 6.359 0.074768 8.8538-0.99121 2.4948-2.6318 2.5757-3.6644 0.18069-1.0325-2.395-1.066-6.359-0.074768-8.8538 0.98932-2.4899 2.626-2.5761 3.6592-0.19272"/>
     <path d="m769.95-82.666c1.0326 2.395 1.066 6.359 0.074768 8.8538-0.99121 2.4948-2.6318 2.5757-3.6644 0.18069-1.0325-2.395-1.066-6.359-0.074768-8.8538 0.98932-2.4899 2.626-2.5761 3.6592-0.19271"/>
     <path d="m747.46-82.666c1.0326 2.395 1.066 6.359 0.074829 8.8538-0.99127 2.4948-2.6319 2.5757-3.6644 0.18069-1.0326-2.395-1.066-6.359-0.074829-8.8538 0.98932-2.4899 2.626-2.5761 3.6592-0.19271"/>
     <path d="m741.04-95.602c1.0325 2.395 1.066 6.359 0.074768 8.8538-0.99127 2.4948-2.6319 2.5757-3.6644 0.18069-1.0326-2.395-1.066-6.359-0.074768-8.8538 0.98926-2.4899 2.6259-2.5761 3.6592-0.19272"/>
    </g>
   </g>
   <g stroke="#c97413">
    <path d="m276.62 251.93c-1.4422-9.2028-0.41714-19.788 3.0354-26.963 4.7565-9.8846 12.318-9.5532 16.884 0.74322 2.0586 4.6419 3.162 10.517 3.3127 16.475-0.54367-3.5004-1.4546-6.8007-2.7144-9.6414-4.5663-10.296-12.113-10.648-16.87-0.76387-2.621 5.4468-3.842 12.869-3.6483 20.15z" fill="#0e232e" opacity=".132"/>
    <path d="m293.93 209.23c4.5164 6.8211 4.6628 18.111 0.32712 25.216-4.3357 7.1054-11.512 7.3358-16.028 0.51462-4.5164-6.8211-4.6628-18.111-0.32709-25.216 4.3272-7.0914 11.486-7.3369 16.005-0.54887" fill="url(#r)" filter="url(#p)" opacity=".488"/>
    <path d="m282.31 247.73c-1.3355 1.0712-1.3788 2.8441-0.096741 3.9599s3.404 1.152 4.7395 0.080811 1.3788-2.844 0.09671-3.9598c-1.2795-1.1136-3.3964-1.1522-4.7328-0.086197" fill="#fff" filter="url(#q)" opacity=".595"/>
    <path d="m353.42 140.04c-0.88123-6.0074-0.25488-12.917 1.8547-17.601 2.9063-6.4525 7.5266-6.2362 10.317 0.48515 1.2578 3.0301 1.9321 6.8654 2.0241 10.754-0.33218-2.285-0.88876-4.4393-1.6585-6.2937-2.7901-6.7213-7.4014-6.9511-10.308-0.49864-1.6015 3.5556-2.3475 8.4003-2.2292 13.153z" fill="#0e232e" opacity=".132"/>
    <path d="m364.78 125.64c2.7596 4.4527 2.8491 11.822 0.19986 16.461-2.6492 4.6382-7.0339 4.7886-9.7935 0.33592s-2.8491-11.822-0.19986-16.46c2.644-4.6291 7.0181-4.7894 9.7796-0.35829" fill="url(#r)" filter="url(#p)" opacity=".488"/>
    <path d="m340.12 210.87c-0.81601 0.69923-0.84247 1.8566-0.059082 2.5849 0.78336 0.72838 2.0799 0.752 2.8959 0.05275 0.81601-0.69923 0.84247-1.8565 0.059113-2.5849-0.78183-0.72694-2.0753-0.75211-2.8918-0.056259" fill="#fff" filter="url(#q)" opacity=".595"/>
    <g fill="#0e232e">
     <path d="m336.59 208.56c-0.76208 3.5253-0.22043 7.58 1.6039 10.328 2.5134 3.7864 6.5089 3.6595 8.9217-0.2847 1.0877-1.7781 1.6708-4.0288 1.7504-6.311-0.28726 1.3409-0.76858 2.6051-1.4343 3.6932-2.4128 3.9442-6.4006 4.079-8.914 0.29262-1.385-2.0865-2.0301-4.9295-1.9278-7.7187z" opacity=".132"/>
     <path d="m315.99 140.68c-0.88123-6.0074-0.25491-12.917 1.8546-17.601 2.9063-6.4525 7.5266-6.2362 10.317 0.48516 1.2578 3.0301 1.9321 6.8654 2.0241 10.754-0.33218-2.285-0.88876-4.4393-1.6585-6.2937-2.7901-6.7213-7.4014-6.9511-10.308-0.49864-1.6015 3.5555-2.3475 8.4003-2.2292 13.153z" opacity=".132"/>
    </g>
    <path d="m327.35 126.28c2.7596 4.4527 2.8491 11.822 0.19986 16.46-2.6492 4.6382-7.0339 4.7886-9.7935 0.33592s-2.8491-11.822-0.19986-16.46c2.644-4.6291 7.0181-4.7894 9.7796-0.35829" fill="url(#r)" filter="url(#p)" opacity=".488"/>
    <path d="m302.68 211.51c-0.81601 0.69925-0.84247 1.8566-0.059082 2.5849 0.78336 0.72838 2.0799 0.752 2.8959 0.052765 0.81601-0.69925 0.84247-1.8566 0.059113-2.5849-0.78183-0.72694-2.0753-0.75211-2.8918-0.056274" fill="#fff" filter="url(#q)" opacity=".595"/>
   </g>
  </g>
 </g>
 <path d="m223.28 197.38c-12.781 47.732-38.943 82.205-58.425 76.984-19.482-5.2201-24.902-48.155-12.105-95.883 12.781-47.732 38.943-82.205 58.425-76.985 19.482 5.2201 24.902 48.155 12.105 95.883z" fill="url(#ac)" opacity=".312" stroke-width="0"/>
</svg>
