<?xml version="1.0" encoding="UTF-8"?>
<!DOCTYPE svg  PUBLIC '-//W3C//DTD SVG 1.1//EN'  'http://www.w3.org/Graphics/SVG/1.1/DTD/svg11.dtd'>
<svg enable-background="new 1418.5551 -40.798 779.9894 1637.4327" version="1.1" viewBox="1418.5551 -40.798 779.9894 1637.4327" xml:space="preserve" xmlns="http://www.w3.org/2000/svg">
	<path d="m1792.7 30.778c38.516-23.378 85.596-31.421 129.88-23.956 42.457 6.8874 82.8 27.365 112.65 58.439 5.8011 5.7896 12.018 11.29 16.467 18.27 8.5518 14.029 17.381 28.081 22.985 43.624 12.978 34.044 14.33 72.607 2.5308 107.17-6.6448 20.2-17.565 39.013-32.16 54.499-18.917 19.888-43.231 33.963-68.851 43.382-12.319 4.4606-24.869 8.4128-37.742 10.955-0.0232 8.1355 0.4391 16.317-0.3467 24.43l-0.3121-0.1849c-0.6587-11.394 0.0348-22.8 0.1041-34.194 0.0115-0.5316 0.0577-1.5947 0.0693-2.1263 32.658-6.8181 63.038-24.094 85.319-48.963 25.134-27.492 39.533-64.518 39.14-101.81-14.064-4.2295-28.497-9.4298-39.337-19.738-9.9614-9.6494-17.172-21.645-26.429-31.906-16.225 12.596-31.571 26.371-48.64 37.858-11.695 7.7657-24.245 15.381-38.505 16.86 1.7218-5.778 4.8998-11.741 3.4668-17.912-1.6179-3.9984-6.7141-3.1548-10.077-2.5423-20.304 4.3798-40.62 9.0369-61.259 11.614-4.6456 0.6703-9.3605 0.7165-14.006 0.0347 9.8112-4.7264 17.461-12.631 25.1-20.165 5.9745-6.2518 12.215-12.273 17.716-18.964-16.664 8.3088-33.57 16.202-51.194 22.269-23.494 8.7249-48.004 14.306-71.706 22.407-0.4159 39.106 15.439 77.865 42.734 105.8 19.368 20.154 44.168 34.922 71.047 42.573 0 2.4268 0.0116 4.8536 0.0809 7.2919-0.0232 6.0323-0.1503 12.065-0.0463 18.097-12.769 1.0747-25.539-0.7396-38.297-0.8898-25.92-1.4099-51.933-3.5362-77.299-9.3026-26.833-5.963-52.684-16.34-76.12-30.728-27.804-16.768-52.592-37.985-76.12-60.23 23.736-8.5284 47.449-17.658 69.175-30.612 16.248-9.6262 31.721-22.026 40.643-39.025 9.7649-18.524 11.429-39.764 17.473-59.537 10.839-38.69 37.546-72.168 71.867-92.784z" fill="#C4996C"/>
	<path d="m1948.1 166.53c17.068-11.487 32.415-25.262 48.64-37.858 9.2565 10.262 16.467 22.257 26.429 31.906 10.84 10.308 25.273 15.508 39.337 19.738 0.3928 37.292-14.006 74.317-39.141 101.81-22.28 24.869-52.661 42.145-85.319 48.963-25.285 5.0616-51.737 4.1717-76.628-2.5886-26.879-7.6501-51.679-22.419-71.047-42.573-27.296-27.931-43.15-66.69-42.734-105.8 23.702-8.1008 48.212-13.682 71.706-22.407 17.623-6.067 34.53-13.96 51.194-22.269-5.5006 6.691-11.741 12.712-17.716 18.964-7.6385 7.5346-15.289 15.439-25.1 20.165 4.6456 0.6818 9.3605 0.6356 14.006-0.0347 20.639-2.577 40.955-7.2341 61.259-11.614 3.3628-0.6125 8.4591-1.4561 10.077 2.5423 1.433 6.171-1.745 12.134-3.4668 17.912 14.26-1.479 26.81-9.0945 38.505-16.86m28.336 27.677c-0.7512 6.9914-0.8436 14.85 3.8828 20.581 0.8667 0.2889 2.6001 0.8783 3.4668 1.1672 1.8143-1.1903 3.7211-2.5308 4.5647-4.634 2.9816-7.107 3.097-15.497-0.104-22.558-1.0979-1.9761-2.762-4.4491-5.2927-4.3567-4.2295 1.144-5.778 5.9745-6.5176 9.7996m-140.41 30.728c4.7843-1.1094 8.1355-5.2118 8.7595-10.008 1.5023-7.3497-0.2311-17.508-8.6556-19.668-11.221 5.131-11.371 24.534-0.1039 29.676m80.361-8.7133c3.2357 8.2395 3.5824 17.623-0.1501 25.77-3.2589 5.0962-8.7942 8.0315-13.128 12.088 6.5986-4.0331 12.781-8.7017 19.241-12.954 1.2017-8.5284 1.7333-19.102-5.9631-24.903m-49.264 58.092c8.2511 7.9506 17.138 15.566 27.4 20.801 7.1995 3.8019 16.063 4.2295 23.482 0.7511 10.169-4.6224 19.333-11.14 29.237-16.271-13.209 1.4907-26.175 5.674-39.603 5.05-14.052-0.8782-27.041-6.8296-40.516-10.331z" fill="#FEDDAE"/>
	<path d="m1976.4 194.2c0.7396-3.8251 2.2881-8.6555 6.5177-9.7996 2.5308-0.0925 4.1948 2.3806 5.2927 4.3567 3.201 7.0608 3.0854 15.45 0.104 22.558-0.8436 2.1032-2.7504 3.4437-4.5647 4.634-0.8667-0.2889-2.6001-0.8783-3.4668-1.1672-4.7266-5.7319-4.6342-13.59-3.8829-20.581z" fill="#630"/>
	<path d="m1836 224.93c-11.267-5.1425-11.117-24.545 0.1041-29.676 8.4243 2.161 10.158 12.319 8.6556 19.668-0.6242 4.7958-3.9754 8.8982-8.7597 10.008z" fill="#630"/>
	<path d="m1916.4 216.22c7.6964 5.8012 7.1648 16.375 5.9629 24.903-6.4598 4.2526-12.642 8.9213-19.241 12.954 4.3335-4.0562 9.8689-6.9914 13.128-12.088 3.7328-8.147 3.386-17.531 0.1502-25.77z" fill="#C4996C"/>
	<path d="m1867.1 274.31c13.474 3.5015 26.464 9.4529 40.516 10.331 13.428 0.624 26.394-3.5593 39.603-5.05-9.9036 5.1309-19.068 11.648-29.237 16.271-7.4189 3.4784-16.283 3.0508-23.482-0.7512-10.262-5.2349-19.148-12.85-27.4-20.801z" fill="#E17174"/>
	<path d="m1861.4 328.5c24.892 6.7603 51.344 7.6501 76.628 2.5886-0.0114 0.5316-0.0577 1.5948-0.0693 2.1263-0.3003 0.4622-0.8782 1.3752-1.1787 1.8374-9.0601 4.5993-18.917 7.2919-28.705 9.8573-11.752 3.1317-24.025 4.4029-36.17 3.6748-2.97-0.416-6.4368-0.4391-8.7018-2.6579-1.144-3.2589-1.3983-6.7372-1.7218-10.135-0.0694-2.4383-0.0809-4.8651-0.0809-7.2918z" fill="#FAD490"/>
	<path d="m1936.8 335.05c0.3005-0.4622 0.8783-1.3752 1.1788-1.8374-0.0693 11.394-0.7627 22.8-0.1041 34.194l-1.04-0.6587c-0.6008-10.551-0.1964-21.148-0.0347-31.698z" fill="#FFF3C0"/>
	<path d="m1908.1 344.91c9.788-2.5654 19.645-5.258 28.705-9.8573-0.1617 10.551-0.5662 21.148 0.0348 31.698l1.04 0.6587 0.312 0.1849c9.4877 0.4738 19.461-1.6525 28.497 2.1494-3.5593-0.3235-7.1185-0.4738-10.655-0.6702-15.185 10.736-30.786 22.523-49.483 25.978-17.796 3.2242-34.853-5.6856-48.524-16.225-4.4607-2.9468-7.8236-7.7079-13.116-9.2218 5.1887-2.4268 11.002-2.1032 16.583-2.0685-0.0693-4.5531-0.0115-9.0946-0.0348-13.648-0.104-6.0323 0.0232-12.065 0.0463-18.097 0.3236 3.3975 0.5778 6.8759 1.7218 10.135 2.265 2.2188 5.7319 2.2419 8.7018 2.6579 12.145 0.728 24.418-0.5432 36.171-3.6749z" fill="#FEDDAE"/>
	<path d="m1784.2 381.66c18.455-10.146 40.146-10.539 60.646-12.053 5.2927 1.5138 8.6555 6.2749 13.116 9.2218 13.671 10.539 30.728 19.449 48.524 16.225 18.698-3.4553 34.299-15.242 49.483-25.978 3.5361 0.1965 7.0955 0.3467 10.655 0.6702 15.982 1.849 31.791 5.7087 46.629 11.984 8.5978 3.7788 17.068 8.54 23.297 15.716 2.762 3.6633 4.7032 8.0777 4.6456 12.758 0.4507 43.578-3.7673 87.029-5.4893 130.54-1.6757 36.633-0.6587 73.427 4.3682 109.77-23.02 24.268-45.947 48.616-68.955 72.896-4.4144 4.6571-6.5753 10.874-8.1702 16.964-3.1201-4.0677-6.5176-8.3897-11.579-10.065-9.3719-3.3513-19.611-2.9006-29.352-1.8837-5.3851 1.017-11.591 1.4214-15.67 5.5123 0.5779 4.449 4.2988 7.4421 7.2112 10.516-9.2102 1.2712-18.444 4.1949-25.654 10.262-9.3605 7.4883-14.434 20.165-12.146 32.022 2.1147 12.48 10.273 23.228 20.396 30.52-15.485 0.6703-30.97 1.0632-46.455 0.5663-17.299-1.0054-34.645-1.0516-51.864-3.1202-6.4484-0.936-13.139-0.6934-19.356-2.8659-8.8289-5.8705-10.551-17.45-11.984-27.168-2.1378-21.933-0.3466-43.994 0.416-65.951 4.3567-49.934 5.1078-100.1 5.2813-150.21 0.5662-18.097 0.3004-36.205 0.2542-54.302-0.3003-35.038-0.4391-70.088-0.6471-105.13 0.0461-4.8998-0.3583-9.9151 0.9822-14.676 1.7332-5.7088 6.5175-9.7188 11.417-12.746z" fill="#488537"/>
	<path d="m1750.9 392.16c9.892-6.4714 21.783-9.06 33.362-10.504-4.8998 3.0277-9.6841 7.0377-11.418 12.746-1.3405 4.7611-0.936 9.7765-0.9822 14.676 0.208 35.038 0.3467 70.088 0.6471 105.13-11.741 21.021-23.69 41.949-35.512 62.923-7.0492 12.931-15.335 25.123-22.846 37.788-0.7858-0.4854-1.5717-0.9592-2.3459-1.433-4.218 11.325-11.059 21.425-17.843 31.329-31.109 37.465-62.264 74.895-93.5 112.27-9.4297 9.9615-18.478 20.304-26.464 31.479-4.8651 6.2172-8.9559 13.347-15.474 18.016-3.1895 2.3574-7.4305 1.3058-10.273-1.0285-6.9799-5.4429-11.972-13.001-16.248-20.651-8.3551-15.219-13.914-31.895-16.907-48.963-1.8258-11.302-2.7734-23.17 0.809-34.229 1.0863-3.2819 2.9237-6.3096 5.3967-8.7248 33.582-33.813 67.187-67.603 100.83-101.35 12.411-12.631 25.134-24.973 37.349-37.788 6.61-10.84 12.226-22.292 18.478-33.351 20.801-38.089 41.59-76.189 62.38-114.29 2.7387-5.1775 5.4081-10.817 10.562-14.041z" fill="#A6CD93"/>
	<path d="m2036.6 397.44c5.4545 2.0107 10.978 4.4029 15.266 8.4706 2.7966 2.6117 4.4492 6.1247 6.2634 9.4413 27.18 49.841 54.394 99.683 81.586 149.52-1.1787 1.2249-2.3113 2.473-3.4438 3.7211 5.8589 10.562 12.18 21.321 14.226 33.409 0.9707 10.92-1.2942 22.107-6.3328 31.86-4.969 9.7649-11.013 18.952-17.426 27.816-24.129 29.549-48.386 58.982-72.514 88.52-7.5232 8.8867-14.619 18.132-22.315 26.879-9.4296 10.042-17.842 20.963-26.094 31.976 0.5431-0.0462 1.641-0.1502 2.1841-0.1964-7.1879 3.4321-9.2218 12.411-16.283 16.109-2.8658 2.2188-6.379 0.416-9.1755-0.9245-3.1086-3.7673-6.0438-7.7079-8.4591-11.949-10.724-22.049-14.688-47.472-11.082-71.729 1.5947-6.0901 3.7557-12.307 8.1702-16.964 23.008-24.279 45.936-48.628 68.955-72.896 12.134-12.954 24.337-25.839 36.564-38.713-14.665-23.078-27.376-47.322-40.932-71.058 1.7219-43.509 5.9399-86.96 5.4891-130.54 0.0578-4.68-1.8835-9.0945-4.6454-12.758z" fill="#A6CD93"/>
	<path d="m1464.9 709.44c5.4429-5.5239 11.082-11.498 18.582-14.133 11.128-2.2188 22.373 1.6872 32.346 6.3906-3.5824 11.059-2.6349 22.927-0.809 34.229 2.993 17.068 8.5515 33.744 16.907 48.963-13.821 10.978-32.496 14.838-49.737 11.972-12.723-2.1032-25.204-7.9738-33.594-17.993-7.2457-8.4244-10.655-20.396-7.5231-31.225 4.5646-14.514 13.613-27.122 23.829-38.204z" fill="#FEDFB3"/>
	<path d="m1922 728.42c9.7418-1.0169 19.98-1.4676 29.352 1.8837 5.0615 1.6757 8.4591 5.9976 11.579 10.065-3.6055 24.256 0.3583 49.68 11.082 71.729-4.8419 5.986-10.828 11.232-18.12 13.96-11.741 4.7033-24.857 4.7842-37.072 2.0109-8.0431-2.4268-15.913-5.7896-22.685-10.816-10.123-7.2919-18.282-18.039-20.397-30.52-2.2881-11.857 2.785-24.534 12.146-32.022 7.2109-6.067 16.444-8.9907 25.654-10.262-2.9121-3.0739-6.6333-6.067-7.2112-10.516 4.0795-4.0911 10.285-4.4956 15.67-5.5125z" fill="#FEDFB3"/>
	<path d="m2031.9 777.08c7.6964-8.7478 14.792-17.993 22.315-26.879 1.5251 13.301 2.7388 26.799 1.167 40.157-0.9014 5.0847-1.8835 11.036-6.3789 14.26-3.49 1.6294-7.4768 1.2018-11.198 1.6873-9.9381 0.8898-19.865 1.8027-29.815 2.5539-0.5431 0.0462-1.641 0.1503-2.1841 0.1965 8.251-11.013 16.664-21.934 26.094-31.976z" fill="#488537"/>
	<path d="m1974.1 812.1c2.4153 4.241 5.3505 8.1817 8.4591 11.949-3.9406 10.47-8.4707 21.517-17.612 28.544-5.9977 4.322-13.821 7.1071-21.136 4.6686-13.243-3.6864-21.54-16.548-24.903-29.191 12.215 2.7735 25.331 2.6926 37.072-2.0109 7.2919-2.7271 13.278-7.9736 18.12-13.96z" fill="#E2F0D9"/>
	<path d="m2031.7 881.03c5.0962-5.3273 12.272-7.8235 19.414-8.9098 5.4893 28.393 11.579 56.683 16.791 85.111-3.4553 5.6278-10.967 6.1363-16.907 6.2404-8.401 0.3929-16.56-3.8135-21.586-10.458-11.117-13.937-13.625-33.016-10.077-50.119 3.1663-7.7426 6.1708-15.948 12.365-21.864z" fill="#E2F0D9"/>
	<path d="m1830.6 882.16c6.5986-2.1032 13.532 0.6934 19.102 4.2065 6.3444 3.721 9.9845 10.331 14.561 15.843 1.9183 6.1479 4.3798 12.273 4.6108 18.79 0.3699 8.9791 0.4969 18.316-3.1085 26.741-3.0509 7.0492-6.9799 14.041-13.105 18.871-7.3959 5.8821-18.085 8.54-26.903 4.2988-8.5052-3.0161-14.214-10.597-18.062-18.409-5.6163-11.949-7.3035-25.666-4.2988-38.563 2.1725-6.8989 4.7726-13.81 9.3142-19.541 4.345-5.9861 10.955-9.9267 17.889-12.238z" fill="#E2F0D9"/>
	<path d="m1926.1 931.63c5.6394-9.8227 17.519-16.849 28.948-13.914 8.8405 2.0107 15.497 8.8635 20.165 16.306 10.042 17.299 10.863 39.418 2.7388 57.63-4.2758 8.7596-10.747 17.253-20.223 20.674-3.9291 0.9476-8.0431 0.7974-12.041 0.6125-8.1471-0.3351-14.63-6.3905-19.31-12.55-6.4945-9.3027-10.262-20.616-10.216-31.999-0.1156-6.691-0.0693-13.498 1.8605-19.969 1.5254-6.0901 4.8998-11.452 8.0777-16.791z" fill="#E2F0D9"/>
	<path d="m1750.1 997.43c3.8252-18.143 6.6333-36.471 10.32-54.626 2.1263 10.065 6.587 19.692 6.795 30.127 0.3466 14.353-3.7905 29.341-13.59 40.123-3.0392 2.6926-6.0208 5.5353-7.5923 9.3604v-2.8658c0.6008-7.4768 2.7734-14.746 4.0677-22.118z" fill="#E2F0D9"/>
	<path d="m2043 1028.5c6.1709-2.9121 13.521-2.1841 19.391 1.1556 9.0369 4.3567 15.185 12.931 18.86 22.038 4.969 11.036 4.5298 23.621 2.5886 35.315-3.2473 11.106-8.7827 22.719-19.345 28.52-4.7727 2.9237-10.504 3.0161-15.901 2.7965-9.4991 0.1155-17.346-6.8759-22.13-14.48-10.435-16.652-11.36-38.586-3.4091-56.417 4.7959-7.8925 11.059-15.531 19.946-18.929z" fill="#E2F0D9"/>
	<path d="m1814.4 1046.2c7.1995-9.1523 20.535-11.452 31.167-7.7542 8.7133 2.993 13.89 11.106 18.536 18.524 2.1726 6.5176 4.738 13.081 4.7727 20.061 0.0577 6.7141 0.6703 13.648-1.5023 20.131-2.161 6.3212-3.8367 13.047-8.0662 18.397-4.2874 5.5353-9.9729 10.331-16.722 12.492-6.5641 0.809-13.925 1.3983-19.738-2.369-10.331-5.6971-16.121-16.826-19.206-27.792-2.6117-8.1008-1.9183-16.722-1.4792-25.077 2.2996-9.5452 5.4083-19.264 12.238-26.614z" fill="#E2F0D9"/>
	<path d="m1925.4 1085.9c5.8358-7.3035 14.11-13.359 23.713-13.902 8.0315 0.0693 15.774 4.1371 21.124 10.019 13.232 15.531 16.606 38.158 9.5454 57.145-2.8544 8.9329-8.6094 17.057-16.606 22.049-6.4713 4.0908-14.607 3.8597-21.876 2.6464-6.4714-2.1033-11.891-6.7719-15.67-12.354-6.9106-9.8574-10.146-22.072-9.5453-34.056-0.3468-11.21 3.3743-22.165 9.3142-31.548z" fill="#E2F0D9"/>
	<path d="m1733.3 1081.4c5.385 1.6178 11.105 2.7965 15.739 6.194 4.3682 3.2357 8.1008 7.4305 10.597 12.284 6.5061 13.174 9.5569 28.428 6.3558 42.954-1.4098 10.065-6.1364 19.495-13.035 26.926-5.2003 5.2118-12.238 9.2218-19.842 8.3782-8.6671 0.7743-15.427-5.3966-21.645-10.458 6.9105-28.231 13.81-56.475 20.327-84.799 0.3814-0.3699 1.1211-1.1095 1.5024-1.4792z" fill="#E2F0D9"/>
	<path d="m2024.3 1200.4c4.0907-8.644 11.648-15.901 20.963-18.478 5.9861-0.8667 12.562-0.9938 17.958 2.1494 8.6787 4.4144 14.376 12.954 17.924 21.772 4.5647 11.256 4.8074 23.817 2.6812 35.651-2.4614 8.2972-5.7549 16.687-11.891 23.008-7.3381 7.9622-19.645 11.672-29.849 7.3844-5.6047-1.9531-10.424-5.7435-13.833-10.562-9.9381-13.544-12.423-31.444-9.0251-47.646 1.5022-4.495 3.0969-8.9787 5.0731-13.278z" fill="#E2F0D9"/>
	<path d="m1815.5 1201.1c5.1655-4.9806 11.787-9.3488 19.218-9.3719 6.9915-0.3698 13.648 2.9698 18.813 7.4536 10.944 9.9037 15.589 25.169 15.451 39.603-0.0347 10.794-4.1602 20.963-8.7018 30.578-4.7958 6.1594-10.816 12.134-18.767 13.694-4.5878 0.5431-9.4067 0.832-13.89-0.4739-6.5406-2.6693-12.619-6.9568-16.56-12.885-5.0732-7.3497-7.5-16.121-9.1755-24.788 0.0115-7.0376-0.705-14.306 1.5715-21.09 2.4613-8.2512 5.7317-16.606 12.041-22.72z" fill="#E2F0D9"/>
	<path d="m1925.3 1239.1c7.1995-4.3104 13.509-11.394 22.581-11.36 8.7018-1.225 16.629 3.6517 22.685 9.3951 11.394 13.671 15.312 32.738 11.325 49.969-2.0455 8.274-5.2465 16.583-11.302 22.789-5.0847 5.7896-12.434 10.03-20.35 9.5569-5.9052 0.5778-11.256-2.2651-16.941-3.2357-2.7851-25.689-5.0616-51.436-7.9969-77.114z" fill="#E2F0D9"/>
	<path d="m1717.5 1243.9c4.5183-3.2935 9.811-6.1132 15.566-5.9861 8.5862-0.4391 16.098 4.9344 21.933 10.678 13.971 16.583 15.543 41.255 6.7489 60.623-4.1372 8.8865-11.406 16.733-20.87 19.853-6.5408 0.9246-13.833 1.3521-19.668-2.265-11.73-6.4829-18.212-19.588-20.142-32.438-2.2188-10.585-0.6355-21.506 2.5077-31.721 3.5941-6.9107 7.5001-14.041 13.925-18.744z" fill="#E2F0D9"/>
	<path d="m2126.7 1288.2c-4.5068-13.209-2.3574-27.411-0.728-40.932 4.3799 20.524 8.5979 41.094 12.423 61.721-0.231-0.2888-0.7048-0.8782-0.936-1.1787-4.9345-5.6741-8.5402-12.446-10.759-19.611z" fill="#E3F0DA"/>
	<path d="m2044.6 1337c6.3558-1.248 13.463-1.1787 19.125 2.4152 8.124 4.2759 13.625 12.203 17.08 20.524 4.7495 11.394 5.385 24.256 2.8892 36.286-2.1033 8.7595-5.8359 17.38-12.342 23.794-7.7771 8.124-20.905 11.024-31.12 6.0209-11.695-5.1656-17.912-17.716-20.882-29.526-3.4089-15.82-1.1787-33.409 8.3666-46.779 4.0446-5.9283 10.054-10.504 16.884-12.735z" fill="#E2F0D9"/>
	<path d="m1815.4 1354.5c6.6217-7.084 16.976-10.99 26.556-8.3782 5.9514 1.9645 12.041 5.1655 14.965 11.036-4.1024-2.8312-7.9738-6.2749-12.862-7.6387-9.0369-2.8542-19.877-1.1324-26.787 5.6163-7.1185 6.1594-11.001 15.15-12.954 24.175-3.0393 15.231-1.0516 32.033 7.9968 44.965 4.4722 6.5176 11.718 10.608 19.206 12.689 6.3674 1.6063 12.816-1.0054 18.224-4.218 7.9159-5.0037 13.058-13.463 15.774-22.257 2.8313-9.2449 3.3051-19.148 1.8375-28.671-1.0747-7.3383-4.4376-14.018-7.3035-20.755 5.6973 6.0322 7.2687 14.457 9.0946 22.257 1.5023 6.0785 0.7167 12.365 1.1556 18.548 0.1155 4.241 0.0461 8.4822-0.1387 12.735-0.0463-3.3745-0.3351-6.7142-0.7396-10.031-3.1317 6.1709-4.3914 13.197-8.355 18.964-4.1833 6.2633-10.031 11.822-17.196 14.399-7.2572 1.04-15.508 1.7218-21.91-2.5538-8.251-4.9344-13.971-13.301-16.976-22.303-5.7203-15.52-4.4838-33.27 2.6925-48.096 2.1149-3.8019 4.7612-7.3033 7.7196-10.481z" fill="#C7E2BA"/>
	<path d="m1817.2 1355.2c6.9105-6.7488 17.75-8.4706 26.787-5.6163 4.8882 1.3638 8.7595 4.8075 12.862 7.6387 1.0284 1.2827 2.0916 2.5769 3.1317 3.9059 2.8658 6.7373 6.2288 13.417 7.3035 20.755 1.4677 9.5222 0.9938 19.426-1.8375 28.671-2.7156 8.7941-7.858 17.253-15.774 22.257-5.4082 3.2126-11.857 5.8243-18.224 4.218-7.4883-2.0801-14.734-6.171-19.206-12.689-9.0485-12.931-11.036-29.734-7.9968-44.965 1.9529-9.0256 5.8357-18.016 12.954-24.176z" fill="#E2F0D9"/>
	<linearGradient id="a" x1="1905.2" x2="1905.2" y1="806.31" y2="1504.2" gradientUnits="userSpaceOnUse">
		<stop stop-color="#9DCB87" offset="0"/>
		<stop stop-color="#ADD09D" offset="1"/>
	</linearGradient>
	<path d="m2171 1467.5c-3.9753 1.9645-8.1125 4.0447-12.654 4.0563-8.4822 0.0924-16.826-3.9869-22.245-10.458-6.1711-7.3844-9.6609-16.687-11.464-26.036-1.144-10.481-0.936-21.228 1.9182-31.432 0.4507-1.017 0.9246-2.0223 1.4329-2.993 1.8721-7.916 7.269-14.202 12.885-19.796 2.8196-2.8544 6.6216-4.3451 10.227-5.9398 0.3352 0.6702 0.9939 1.9991 1.3174 2.6694-4.5762-22.858-9.0137-45.797-14.064-68.539-0.2312-0.2889-0.7048-0.8783-0.936-1.1787-4.9343-5.6741-8.54-12.446-10.759-19.611-4.5068-13.209-2.3574-27.411-0.728-40.932-0.9592-6.4713-2.4153-12.885-3.8596-19.264v1e-4c-0.624-4.5183-1.7798-8.9559-2.5654-13.451-10.47-51.274-20.281-102.7-31.017-153.92-1.2813 2.4116-1.7729 4.9449-1.9199 7.5342 0.147-2.5894 0.6387-5.1228 1.9199-7.5343l0.0808-0.208c-6.6448-34.553-13.867-68.99-20.512-103.54l-0.2312 0.3236c-3.4553 5.6279-10.967 6.1363-16.907 6.2404-8.4011 0.3929-16.56-3.8135-21.587-10.458-11.117-13.937-13.625-33.016-10.077-50.119-0.4507-2.1379-0.9476-4.2296-1.4561-6.3212-3.1309 4.8644-3.9487 10.244-4.0709 15.773 0.1221-5.5287 0.9399-10.909 4.0709-15.773 0.5084 2.0916 1.0054 4.1833 1.4561 6.3211 3.1665-7.7426 6.1709-15.947 12.365-21.864 5.0963-5.3275 12.273-7.8235 19.414-8.9098-4.4722-21.934-8.667-43.913-13.278-65.812-9.9382 0.89-19.865 1.8028-29.815 2.554-7.1877 3.4322-9.2217 12.411-16.282 16.109-2.8658 2.2188-6.3789 0.416-9.1755-0.9245-3.9406 10.47-8.4706 21.518-17.612 28.544-5.9977 4.322-13.821 7.1069-21.136 4.6686-13.243-3.6864-21.54-16.548-24.903-29.191-8.0431-2.4267-15.913-5.7896-22.685-10.816-15.485 0.6703-30.97 1.0633-46.456 0.5662-17.3-1.0054-34.645-1.0516-51.864-3.1201-6.4484-0.936-13.139-0.6934-19.356-2.8659-3.1318 29.503-6.7605 58.959-11.36 88.265-0.9476 8.2165-3.201 16.306-3.4552 24.58l0.2311 0.8782c0.8206 1.8721 1.6179 3.7788 2.4153 5.6856 5.4025 0.1387 10.808 0.2109 16.213 0.2037-5.4055 0.0073-10.811-0.065-16.213-0.2037-0.7974-1.9067-1.5947-3.8135-2.4153-5.6856l-0.5084 0.0693c-1.6525 5.5701-2.1031 11.452-3.0161 17.184 2.1263 10.065 6.5868 19.692 6.795 30.127 0.3467 14.353-3.7905 29.341-13.59 40.123-3.0393 2.6925-6.0208 5.5353-7.5923 9.3604v-2.8659l-0.5432 0.0231c-3.1548 17.9-7.8812 35.5-11.221 53.366 1.121-1.3289 2.3113-2.6001 3.5015-3.8712v6e-4c-1.1902 1.271-2.3802 2.5419-3.501 3.8707-1.121 3.2357-1.6873 6.6448-2.4846 9.9845 0.3813-0.3699 1.121-1.1095 1.5023-1.4792 5.3851 1.6178 11.106 2.7965 15.739 6.1941 4.3682 3.2356 8.1008 7.4305 10.597 12.284 6.5061 13.174 9.5569 28.428 6.356 42.954-1.4099 10.065-6.1365 19.495-13.035 26.926-5.2002 5.2118-12.238 9.2217-19.842 8.3782-8.667 0.7742-15.428-5.3967-21.644-10.458-9.3604 37.083-19.079 74.074-28.243 111.2-2e-4 2e-4 -5e-4 4e-4 -6e-4 5e-4 -7.4305 27.492-14.098 55.204-20.928 82.857-2.9005 12.862-6.7141 25.551-8.8519 38.574 1.9183-2.4152 3.201-5.2347 3.7211-8.2625 0 1e-4 1e-4 2e-4 2e-4 4e-4 -0.5201 3.0275-1.8027 5.847-3.7209 8.2621-0.1619 0.3584-0.4971 1.0864-0.6704 1.4562-5.6509 23.517-10.551 47.207-15.809 70.816 4.5299 0.4391 9.0598 0.9476 13.555 1.6871 49.298 4.9229 97.499 17.473 146.8 22.488 23.482 2.5653 47.184 2.9005 70.758 1.3866-0.1619-27.873 0.913-55.723 2.0801-83.55-0.0464-3.3745-0.3352-6.7142-0.7397-10.031-3.1316 6.1709-4.3912 13.197-8.355 18.964-4.1833 6.2633-10.031 11.822-17.195 14.399-7.2572 1.04-15.508 1.7218-21.91-2.5538-8.2511-4.9346-13.971-13.301-16.976-22.303-5.7202-15.52-4.4836-33.27 2.6926-48.097 2.1147-3.802 4.761-7.3033 7.7195-10.481 6.6216-7.084 16.976-10.99 26.556-8.3782 5.9514 1.9645 12.041 5.1655 14.965 11.036 1.0286 1.2827 2.0916 2.577 3.1317 3.906 5.6973 6.0322 7.2687 14.457 9.0946 22.257 1.5023 6.0785 0.7166 12.365 1.1556 18.548 1.0632-4.2064 0.8436-8.5863 1.1095-12.862 2.0338-32.796 4.3335-65.592 7.6731-98.285 0.6935-10.863 2.5656-21.644 2.9122-32.519-0.1415-0.9678-0.2867-1.9342-0.4313-2.8998 0.1445 0.9656 0.2898 1.932 0.4314 2.8998 2.9813-19.876 4.4143-39.949 7.2339-59.849 3.3398-29.456 7.7311-58.798 11.302-88.208 0 0-1e-4 -1e-4 -1e-4 -2e-4 1.8258-9.2332 2.6464-18.628 4.3566-27.873 1.3522 11.117 3.1549 22.176 4.6456 33.282 0.4159-0.6818 1.248-2.0222 1.6757-2.7041-0.5432-3.6517-1.017-7.3151-1.4561-10.978 1.3867 0.0463 2.785 0.104 4.1948 0.1733 2.4961-7.8351 5.2927-15.647 9.8804-22.523 0.936 0.2889 1.8838 0.6008 2.8429 0.9244-0.9591-0.3235-1.9066-0.6355-2.8425-0.9243-4.5878 6.8761-7.3844 14.688-9.8805 22.523-1.4099-0.0693-2.8081-0.1272-4.1948-0.1733 0.4392 3.6632 0.913 7.3265 1.4561 10.978-0.4275 0.6819-1.2596 2.0223-1.6757 2.7042 5.8126 41.082 10.967 82.268 15.809 123.48 7.1995-4.3104 13.509-11.394 22.581-11.36 8.7019-1.225 16.629 3.6516 22.685 9.3951-0.0231-0.913-0.0577-2.7388-0.0809-3.6517-5.8011-5.1194-12.943-8.2279-20.235-10.562l1e-4 -1e-4c7.292 2.3344 14.434 5.4429 20.235 10.562 0.0232 0.913 0.0579 2.7388 0.0809 3.6517 11.394 13.671 15.312 32.738 11.325 49.968-2.0455 8.274-5.2465 16.583-11.302 22.789-5.0847 5.7897-12.434 10.031-20.35 9.557-5.905 0.5778-11.256-2.2651-16.941-3.2358 1.3751 23.031 3.8713 45.993 4.8767 69.059 5.3735-1.849 11.128-3.7789 16.826-2.0455 8.6899 1.6526 14.873 8.5515 19.911 15.323 0 0-1e-4 0-1e-4 1e-4 11.336 17.981 10.978 42.191 0.1619 60.323-4.1602 6.61-10.4 12.111-17.843 14.665-5.027 1.2712-10.273 0.5316-15.393 0.4508 0.1501 9.7417 0.2657 19.472 0.2195 29.225 13.636 0.9012 27.319 1.248 40.99 0.7395 54.545-1.7334 107.59-15.809 161.49-22.916 9.6262-1.4677 19.391-1.9645 28.971-3.802-1.3178-3.1084-1.8493-6.4597-2.4733-9.7301zm-503.85-72.618h-1e-4c2.5049-0.0549 5.0104-0.0796 7.5164-0.0875-2.5061 0.0079-5.0116 0.0326-7.5163 0.0875zm136.18-480.92c2.1726-6.899 4.7727-13.81 9.3142-19.541 4.3452-5.9861 10.955-9.9267 17.889-12.238 6.5984-2.1032 13.532 0.6934 19.102 4.2064 6.3442 3.7211 9.9843 10.331 14.56 15.843 0 1e-4 1e-4 2e-4 1e-4 2e-4 1.9183 6.1479 4.3798 12.273 4.6107 18.79 0.3699 8.9791 0.4968 18.316-3.1086 26.741-3.0508 7.0493-6.98 14.041-13.105 18.871-7.3959 5.882-18.085 8.5399-26.903 4.2988-8.5051-3.0161-14.214-10.597-18.062-18.409-5.616-11.948-7.3032-25.665-4.2993-38.561 2e-4 -6e-4 4e-4 -0.0013 7e-4 -2e-3zm-114.9 360.77c-0.3352-1.9872-0.6471-3.9397-0.9475-5.9039 0-4e-4 2e-4 -7e-4 2e-4 -0.0012 0.3005 1.9647 0.6125 3.9175 0.9476 5.9052-1e-4 -1e-4 -3e-4 -1e-4 -3e-4 -1e-4zm1.2829 120.1c2.5076 0.0037 5.0151-0.0035 7.5227-0.0354h4e-4c-2.5077 0.0318-5.0155 0.039-7.5231 0.0354zm13.058-138.53c2e-4 -1e-4 2e-4 -4e-4 5e-4 -6e-4 0.2656 2.1031 0.5315 4.1948 0.7627 6.3328 3.5939-6.9105 7.4998-14.041 13.925-18.744 4.5183-3.2935 9.811-6.1132 15.566-5.9861 8.5862-0.4392 16.098 4.9344 21.934 10.678h-5e-4c13.971 16.583 15.543 41.255 6.7488 60.623-4.137 8.8866-11.406 16.733-20.87 19.853-6.5408 0.9244-13.833 1.3521-19.669-2.265-11.729-6.4829-18.212-19.588-20.142-32.438-2.2189-10.585-0.6356-21.506 2.5077-31.721-0.2311-2.1378-0.4969-4.2293-0.7627-6.3323zm30.771 128.02c-3.8987 0.0322-7.8208 1.2112-11.194 3.1874-4.1486 1.8142-6.9684 5.6394-10.978 7.5923-1.1759 0.1473-2.3531 0.1943-3.5311 0.1838 1.1779 0.0104 2.355-0.0365 3.5308-0.1838 4.01-1.9529 6.8297-5.7781 10.978-7.5923 3.3737-1.9762 7.2959-3.1551 11.195-3.1874zm33.874 54.392c-0.3928 4.7495 1.0286 10.273-2.2996 14.283-2.0225 13.463-11.198 26.255-24.222 30.994-4.4607 0.6702-9.0485 0.5547-13.521 0.1503-9.2563-2.473-16.722-9.5917-20.662-18.212-10.065-19.461-9.1871-45.496 5.6163-62.345 1.9529-5.7202 7.9852-8.2742 13.035-10.655 8.621-3.097 18.455-0.7048 25.412 5.0731 11.452 10.042 17.334 25.62 16.641 40.712zm4.5412-164.2c-2.8657-10.296-6.5983-20.546-13.197-29.075l2e-4 -2e-4c6.5984 8.5284 10.331 18.779 13.197 29.075 5.8993 0.1097 11.799 0.1501 17.698 0.1357-5.8993 0.0146-11.799-0.0259-17.698-0.1357zm26.903 125.95c-1e-4 -2e-4 -2e-4 -5e-4 -2e-4 -6e-4 0.1965-6.9104-0.3929-13.844 0.1733-20.72-0.5662 6.8759 0.0232 13.81-0.1731 20.72zm0.8438-298.15c-8.7365 0.2888-17.473 0.0231-26.209 0.2079-1.3247-0.0909-2.8596-0.0094-4.3007-0.1667 1.4409 0.1572 2.9756 0.0757 4.3002 0.1667 8.7363-0.1849 17.473 0.0809 26.209-0.208 0.1732-0.4969 0.5199-1.4792 0.6934-1.9646-1.0054-3.0737-1.745-6.2633-1.6294-9.499 0.1964-7.8235-0.3813-15.693 0.7511-23.459 1e-4 2e-4 4e-4 5e-4 4e-4 7e-4 -1.1323 7.7655-0.5547 15.635-0.751 23.458-0.1155 3.2356 0.624 6.4252 1.6294 9.499-0.1734 0.4854-0.5201 1.4677-0.6934 1.9646zm-0.659-188.2v-4e-4c1.0054 1.0169 2.0106 2.0568 3.0391 3.0968 0 1e-4 0 2e-4 -1e-4 2e-4 -1.0285-1.0398-2.0336-2.0799-3.039-3.0966zm3.0973 158.71c-1e-4 -2e-4 -1e-4 -4e-4 -4e-4 -6e-4 2.2997-9.5453 5.4082-19.264 12.238-26.613 7.1995-9.1525 20.535-11.452 31.167-7.7542 8.7133 2.993 13.89 11.106 18.536 18.524-0.4854-2.7272-0.7974-5.4775-1.0515-8.2163 0 1e-4 2e-4 1e-4 2e-4 2e-4 0.2543 2.7386 0.5662 5.4889 1.0518 8.2163 2.1726 6.5176 4.738 13.081 4.7727 20.061 0.0579 6.7141 0.6704 13.648-1.5022 20.131-2.161 6.3212-3.8367 13.047-8.0662 18.397-4.2874 5.5353-9.9729 10.331-16.722 12.492-6.5638 0.809-13.925 1.3983-19.738-2.369-10.331-5.6971-16.121-16.826-19.206-27.792-2.6114-8.1006-1.9181-16.722-1.479-25.077zm4.2177 288.3c-0.2119 0.3815-0.4124 0.7728-0.6213 1.1573 0.209-0.3845 0.4094-0.776 0.6213-1.1575v2e-4zm53.886-91.778c-4.7958 6.1593-10.817 12.134-18.767 13.694-4.5878 0.5431-9.4066 0.832-13.89-0.4739-6.5408-2.6693-12.619-6.9568-16.56-12.885-5.0731-7.3496-7.4999-16.121-9.1755-24.788 1e-4 -1e-4 2e-4 -2e-4 2e-4 -4e-4 0.0116-7.0376-0.7048-14.306 1.5717-21.09 2.4615-8.2511 5.7318-16.606 12.041-22.719 5.1656-4.9806 11.787-9.3488 19.218-9.3719 6.9916-0.3698 13.648 2.9698 18.814 7.4536 10.944 9.9037 15.589 25.169 15.45 39.603-0.0347 10.793-4.1602 20.962-8.7014 30.577-3e-4 2e-4 -5e-4 5e-4 -7e-4 6e-4zm2.3693 4.8535c2.3979 0.26 4.8073 0.4132 7.2211 0.4623-2.4139-0.0491-4.8233-0.2023-7.2211-0.4623zm8.1124-49.171v-1e-4c0.3727 0.2687 1.0314 0.7455 1.547 1.1182-0.5156-0.3728-1.1743-0.8493-1.547-1.1181zm9.5914 21.645v-2e-4c0.208 1.9357 0.468 3.8656 0.7468 5.7954-0.2787-1.9298-0.5387-3.8597-0.7468-5.7952zm-7.3612-315.4c0.0577-6.298 0.705-12.723-1.3175-18.802-1.0862-6.8874-4.0444-13.255-8.4473-18.64v-2e-4c4.4028 5.3852 7.3612 11.753 8.4475 18.64 2.0222 6.0785 1.3752 12.504 1.3174 18.802 5.7621 0.1408 11.524 0.1446 17.286 0.1362-5.762 0.0083-11.524 0.0046-17.286-0.1362zm102.47-2.8658c1.5023 0.7858 2.8429 1.8373 4.2759 2.7966 11.302 0.3351 22.638 0.3582 33.94 0 0.0624-0.5396 0.1133-1.0817 0.1544-1.6262-0.0411 0.5445-0.092 1.0867-0.1544 1.6262-11.302 0.3582-22.638 0.3351-33.94 0-1.433-0.9591-2.7734-2.0107-4.2758-2.7966zm-49.68-4.0793c0-1e-4 0-1e-4 1e-4 -1e-4 0.2773 0.52 0.8204 1.5832 1.0978 2.1032-0.7968 1.3251-1.5757 2.6496-2.3577 3.9753 0.782-1.3257 1.5609-2.6501 2.3575-3.9753-0.2772-0.5199-0.8204-1.5829-1.0977-2.1031zm-2.2535 7.7541c0.1323-0.0216 0.296-0.049 0.4718-0.0785-0.1759 0.0295-0.3396 0.0569-0.4718 0.0785zm-13.648-0.5662c-2.3054-0.0499-4.6108-0.079-6.9163-0.0954 2.3054 0.0164 4.6108 0.0455 6.9164 0.0953 3.0161-0.0116 6.09 0.1733 9.0714-0.4854v1e-4c-2.9814 0.6587-6.0554 0.4738-9.0715 0.4854zm16.467 68.898c-6.4946-9.3027-10.262-20.616-10.216-31.999-0.1155-6.691-0.0693-13.498 1.8606-19.969 1.5254-6.0902 4.8998-11.452 8.0776-16.791-0.1321 0.0216-0.2959 0.049-0.4717 0.0785 0.1758-0.0295 0.3396-0.0569 0.4719-0.0786 5.6394-9.8227 17.519-16.849 28.948-13.914 8.8403 2.0106 15.497 8.8636 20.165 16.306v2e-4c10.042 17.299 10.863 39.418 2.7388 57.63-4.2758 8.7595-10.747 17.253-20.223 20.674-3.929 0.9476-8.043 0.7974-12.042 0.6125-8.147-0.335-14.63-6.3903-19.31-12.55zm53.47 138.73c-2.8544 8.933-8.6094 17.057-16.606 22.049-6.4714 4.0908-14.607 3.8597-21.876 2.6464-6.4714-2.1033-11.891-6.7719-15.67-12.354-6.9104-9.8573-10.146-22.072-9.5452-34.056-0.3467-11.209 3.3744-22.165 9.3142-31.548 0-2e-4 0-4e-4 1e-4 -6e-4 5.8358-7.3033 14.11-13.358 23.713-13.902 8.0315 0.0693 15.774 4.1371 21.124 10.019 0.6819-1.4445 1.3752-2.889 2.0801-4.3104 1e-4 1e-4 2e-4 1e-4 2e-4 1e-4 -0.7048 1.4214-1.3982 2.866-2.0801 4.3104 13.232 15.531 16.606 38.158 9.5455 57.145zm5.4886 273.43c-2.4497-6.2402-3.5709-13.209-8.2162-18.328v-1e-4c4.6455 5.1193 5.7665 12.088 8.2163 18.328h-1e-4zm98.4-16.329s-2e-4 0-2e-4 1e-4c-2.1033 8.7594-5.8359 17.38-12.342 23.794-7.7771 8.124-20.905 11.024-31.12 6.0209-11.695-5.1658-17.912-17.716-20.882-29.526-1.2363-0.5084-2.4729-0.9938-3.686-1.4561v-1e-4c1.2133 0.4623 2.4498 0.9478 3.6863 1.4562-3.4089-15.82-1.1787-33.409 8.3666-46.779 4.0446-5.9282 10.054-10.504 16.883-12.735 6.356-1.248 13.463-1.1788 19.126 2.4152 8.1238 4.2759 13.625 12.203 17.08 20.524 4.7495 11.394 5.385 24.256 2.8891 36.286zm-59.387-195.79c4.0908-8.644 11.649-15.901 20.963-18.478 5.9861-0.8667 12.562-0.9938 17.958 2.1494 8.6787 4.4146 14.376 12.954 17.924 21.772 4.5647 11.256 4.8074 23.817 2.6812 35.65-2.4614 8.2974-5.7549 16.687-11.891 23.008-7.3381 7.9622-19.645 11.672-29.849 7.3844-5.6047-1.9531-10.424-5.7435-13.833-10.562-9.9382-13.544-12.423-31.444-9.0251-47.646 1.5022-4.4953 3.0969-8.979 5.073-13.278zm62.01-116.67c-0.7742 1.121-1.6062 2.1842-2.519 3.2012-3.2476 11.105-8.7827 22.719-19.345 28.52-4.7727 2.9237-10.505 3.0161-15.901 2.7965-9.4993 0.1156-17.346-6.8759-22.13-14.48-10.435-16.652-11.36-38.586-3.4089-56.417-0.4507-0.9939-1.329-2.9816-1.7798-3.9753-3.0623 5.0269-4.6223 10.759-6.194 16.386-1.8258 6.3213-1.2479 12.978-1.2247 19.472-0.0461 8.066 3.9523 15.3 5.8243 22.974-11.383 0.4968-22.789-0.3236-34.16 0.5778l-1e-4 -1e-4c11.371-0.9014 22.777-0.0809 34.16-0.5778-1.8721-7.6733-5.8704-14.908-5.8242-22.974-0.0229-6.4945-0.6008-13.151 1.225-19.472 1.5717-5.6278 3.1317-11.36 6.194-16.387 0.4508 0.9939 1.3291 2.9816 1.7798 3.9753 4.7958-7.8928 11.059-15.531 19.946-18.929 6.1709-2.9122 13.52-2.1842 19.391 1.1555 9.0369 4.3567 15.185 12.931 18.86 22.038 4.969 11.036 4.5298 23.621 2.5886 35.315 0.9128-1.0168 1.7449-2.0801 2.519-3.201 0.3958-1.9038 0.4919-3.8495 0.4731-5.8097 0.0187 1.96-0.0775 3.9058-0.4732 5.8096zm32.977 145.07c0.416 4.0653 1.3391 8.0739 2.2231 12.069-0.8842-3.9954-1.8071-8.0038-2.2231-12.069z" fill="url(#a)"/>
	<path d="m2140.9 1380.8c2.8196-2.8545 6.6216-4.3451 10.227-5.9399 0.3352 0.6703 0.9939 1.9993 1.3174 2.6694l0.312 0.6356c-12.168 1.6987-19.102 12.712-24.742 22.43 1.872-7.916 7.2688-14.202 12.885-19.796z" fill="#BFDCAE"/>
	<path d="m2128 1400.6c5.6394-9.7188 12.573-20.732 24.742-22.43 5.8474 29.815 12.261 59.514 18.27 89.294-3.9753 1.9645-8.1125 4.0446-12.654 4.0562-8.4824 0.0924-16.826-3.9869-22.246-10.458-6.1711-7.3843-9.6609-16.687-11.464-26.036-1.144-10.481-0.936-21.228 1.9182-31.432 0.4505-1.017 0.9244-2.0224 1.433-2.9931z" fill="#E2F0D9"/>
	<path d="m1938.2 1385.2c5.3735-1.849 11.128-3.7789 16.826-2.0454 8.6902 1.6526 14.873 8.5515 19.911 15.323 11.336 17.981 10.978 42.191 0.1617 60.323-4.1602 6.6101-10.4 12.111-17.843 14.665-5.0269 1.2711-10.273 0.5315-15.393 0.4507-0.7278-29.584-1.6409-59.179-3.6631-88.716z" fill="#E2F0D9"/>
	<path d="m1725.4 1392.9c8.6208-3.0972 18.455-0.705 25.412 5.0731 11.452 10.042 17.334 25.62 16.641 40.712-0.3929 4.7496 1.0286 10.273-2.2996 14.283 0.5431-6.6908 2.0916-13.405 1.1094-20.119-1.2711-9.7186-4.114-19.599-10.435-27.296-3.8597-4.5299-8.6324-8.7479-14.607-10.019-10.204-2.9121-21.494 0.4968-28.856 8.0199 1.953-5.7202 7.9852-8.2741 13.035-10.655z" fill="#CAE2BC"/>
	<path d="m1712.4 1403.6c7.3612-7.5231 18.652-10.932 28.856-8.0199 5.9745 1.2711 10.747 5.4891 14.607 10.019 6.3212 7.6964 9.1639 17.577 10.435 27.296 0.9822 6.7141-0.5663 13.428-1.1094 20.119-2.0223 13.463-11.198 26.256-24.222 30.994-4.4606 0.6703-9.0485 0.5547-13.521 0.1503-9.2563-2.473-16.722-9.5917-20.662-18.212-10.065-19.46-9.187-45.496 5.6164-62.345z" fill="#E2F0D9"/>
	<path d="m1616.5 1487.3c10.435-6.2981 22.072-10.447 33.952-13.012 49.298 4.9229 97.499 17.473 146.8 22.488 4.3798 5.385 6.564 12.816 4.0679 19.53-3.7211 9.476-12.712 15.439-21.402 19.969-21.622 10.62-45.959 14.122-69.799 15.289-24.938 0.6935-50.281-1.5833-74.028-9.5684-10.794-3.8252-21.679-8.7365-29.676-17.184-4.7264-4.8998-7.8928-12.076-6.0208-18.894 2.1957-8.3087 9.1409-14.179 16.109-18.617z" fill="#FEDFB3"/>
	<path d="m2144.5 1481c9.6262-1.4677 19.391-1.9645 28.971-3.802 3.675 4.2759 4.4954 10.389 2.7737 15.682-3.2935 10.978-11.383 19.715-19.854 27.088-32.484 27.319-79.968 37.546-119.95 21.76-20.466-8.0315-39.429-20.732-53.424-37.812 54.545-1.7334 107.59-15.809 161.48-22.916z" fill="#FEDFB3"/>
</svg>
