<?xml version="1.0" encoding="UTF-8"?>
<svg viewBox="0 0 473 475" xmlns="http://www.w3.org/2000/svg">
 <g stroke-linecap="round" stroke-linejoin="bevel">
  <path d="m178 42c76.333-25.333 165.67-26.667 238-10l-82 106-135-23-21-73z" stroke-width="0"/>
  <g stroke-width="3">
   <path d="m180.7 69.195c0.29071 32.532-1.7095 68.119-7.071 108.19-7.8435 83.819-0.1701 168.46-28.991 231.93 25.139 13.371 52.182 31.362 79.196 35.356 24.593-9.7067 69.13 10.927 115.97 24.749 25.088 5.3757 51.524 4.01 78.489 0 18.542-1.6508 37.672 1.9902 54.447-15.556-9.428-62.932-10.682-54.513-10.87-134.86 7.3425-36.912 9.8052-221.82-36.506-266.78-18.182 23.847-170.59 111.41-244.66 16.971z" fill="#390017" stroke="#2b0011"/>
   <path d="m181.28 42.812c0.36041 8.9285 1.2167 15.295-0.63855 27.206 68.524 83.85 197.34 27.247 245.53-17.178-4.6006-4.8449-7.1061-10.007-9.4601-19.988-60.063 55.441-170.94 92.972-235.43 9.9601z" fill="#a08" stroke="#2b0022"/>
  </g>
  <path d="m248.04 179.77c6.9557 7.2489 17.91 9.2937 27.498 9.7911 13.404-1.9216 22.685-12.938 34.371-18.753 16.231-9.9687 33.606-18.18 51.648-24.286 3.338-1.3929 10.786-3.1409 4.1205 0.9671-8.7216 4.6284-17.222 9.6547-25.376 15.261-18.509 11.455-37.36 22.47-54.765 35.592-10.223 11.324-27.616 16.189-32.878 31.736-2.6322 6.368-0.39398 18.2 0.25049 21.518-1.5115-12.46-5.1693-24.694-5.4821-37.269 2.9074-10.212 2.0643-21.501-3.5565-30.717-3.0479-3.4293 1.3611-4.9177 4.1683-3.8419z" fill="#240003"/>
 </g>
</svg>
