<?xml version="1.0" encoding="UTF-8"?>
<svg width="340.2" height="480.99" enable-background="new 0 0 340.203 480.99" viewBox="0 0 340.203 480.99" xmlns="http://www.w3.org/2000/svg">
 <defs>
  <linearGradient id="a" x2="0" y1="106.24" y2="50.221" gradientUnits="userSpaceOnUse">
   <stop offset="0"/>
   <stop stop-color="#7f7f7f" offset="1"/>
  </linearGradient>
 </defs>
 <g fill-rule="evenodd">
  <path d="m109.85,275.75c0,21.725 6.438,44.422 4.186,60.835l-1.127,8.209c0,30.261 4.506,60.036-7.565,87.398-1.771,3.861-4.345,10.304-4.345,14.81-.161,9.495-17.383,14.965-20.441,23.819-.967,3.058 0,3.539.965,4.67 6.439,0 13.359-.486 19.959-.486 4.346-1.608 9.817-8.209 8.369-14.165 2.736-2.734 8.69-13.838 10.462-17.54 5.633-14.324 2.735-37.825 5.633-53.117 2.897-12.874 4.99-26.071 5.474-38.788l2.735-12.557c0,.969 2.092-8.363 4.186-14.318 0-15.133 2.896-29.135 3.058-45.553-9.17.97-22.85.97-31.54-3.21z" fill="#fff" stroke="#000" stroke-linecap="round" stroke-linejoin="round" stroke-miterlimit="2.4142" stroke-width=".6724"/>
  <path d="m201.6,260.46c0,2.898.966,4.829 2.735,6.76 0,6.596 7.404,10.299 7.404,15.127 6.438,3.703 15.773,14.166 18.509,20.767 4.668,10.458 21.247,16.091 25.913,26.554 2.737,6.602-.963,17.063-.963,23.66-4.671,4.67-10.143,18.994-11.912,24.627-1.933,4.829-8.209,18.831-9.175,23.66 0,.963-11.428,18.831-14.004,25.591-7.404,18.994-30.419,24.786-29.132,39.756 3.381,2.089 15.773,0 22.372.963 4.185.481 6.76-13.197 7.728-17.06 0-1.931 5.47-3.702 7.403-5.633 9.011-39.592 16.577-28.971 29.454-64.383 7.564-18.99 30.579-47.479 30.579-63.574 .968-1.768.968-4.666 0-6.598-4.507-12.233-24.945-16.096-30.579-29.293-2.734-8.531 1.608-28.488 8.85-33.481-7.9.62-42.83,11.89-65.19,12.54z" fill="#fff" stroke="#000" stroke-linecap="round" stroke-linejoin="round" stroke-miterlimit="2.4142" stroke-width=".6724"/>
  <path d="m213.18,257.88c1.286,5.633 2.574,9.977 5.312,15.932 2.092,5.152 11.425,11.267 15.289,15.133 6.276,6.597 5.313,18.83 8.207,26.23 18.994,14.007 16.257,16.097 13.36,38.148-.804.967-1.931,6.278-2.414,7.564-3.38,9.013-5.472,19.152-9.334,27.843l-11.753,24.628c-.963,2.253-2.253,6.597-3.377,7.887-.643,6.438-1.288,12.07.965,18.831 2.735-12.716 2.093-21.407 14.646-33.155 5.473-5.311 11.748-23.501 14.002-29.938 4.99-14.488 11.912-20.117 18.672-32.996 4.345-8.527 10.621-22.211 11.105-25.268 3.702-16.9-14.485-18.191-23.499-27.363-10.944-11.266-7.726-17.703-5.472-29.293 1.446-7.083 4.506-10.462 7.243-14.001-16.41,2.9-36.37,8.69-52.95,9.82m-94.15,20.6c5.633,12.875 4.022,28.648 2.736,41.523 1.286,8.695 4.184,42.654.804,61.807-2.736,14.811-1.77,30.743-7.243,44.585 1.933-4.829-8.852,15.292-6.76,28.812 1.771,0 9.979-9.499 10.623-11.266 5.956-17.868 3.219-33.964 5.473-52.636 2.093-17.382 5.955-48.604 13.197-65.991-.482-15.287 1.288-30.098 3.381-46.193-7.24.49-10.95,1.13-22.21-.64" fill="#ededed"/>
  <path d="m53.037,91.293c-12.716-10.783-21.891-38.79-51.184-38.949-4.024,4.827.161,22.372 10.141,31.385 3.54,7.564 12.714,4.668 19.152,13.359 3.542,4.022 3.542,13.52 11.268,15.614-.323,5.47 3.54,10.621 10.46,20.118 .484,3.862-.481,9.654 6.117,31.385-1.609,3.7-3.54,2.896-.965,6.276-2.093,3.541 9.173,9.333 9.173,9.333 4.024,4.99 15.774,3.703 20.764-1.125 8.53-8.209 8.69-5.313 7.241-14.485 9.979-12.877 10.624-34.767 17.706-52.149 3.701-3.864 5.955-5.956 7.403-12.393 6.761-4.668 20.118-12.877 21.246-18.833 3.541-18.99 5.311-29.775.965-32.351-6.599-4.023-31.546,22.533-37.984,43.617-3.058,2.898-7.243,5.636-9.014,7.566-4.186,1.447-10.945,2.574-13.841-2.094 0-.963 0-6.276 4.345-8.046-3.541-4.022-15.612-2.576-19.476,0 .967.966 4.668,6.438 4.668,8.209-3.541,3.861-14.485,4.345-18.187.481v-6.913z" fill="#fff" stroke="#000" stroke-linecap="round" stroke-linejoin="round" stroke-miterlimit="2.4142" stroke-width=".6724"/>
  <path d="m105.34,91.132c6.599-21.084 30.741-46.354 37.501-42.329 4.347,2.415 2.576,13.358-.965,32.189-1.127,6.117-14.485,14.163-21.246,18.831-1.448,6.601-3.702,8.532-7.404,12.394-7.081,17.384-7.725,39.274-17.864,52.149 1.448,9.174 1.287,6.278-7.244,14.163 0-3.861-4.827-10.299-8.367-10.299 0-1.449.804-2.896.804-4.345l-1.448-1.449v-1.449c0-.643 2.092-2.735 2.092-3.542-2.092-4.184.645-9.979.645-14.324-1.288-1.447-2.736-2.092-4.186-2.735 0-2.253 0-4.991.806-6.438v-1.452c-.806-1.447-.806-2.896-1.449-4.345 0,0-9.014-7.083-11.267-7.083 .323-4.827-7.404-10.944-11.589-11.907-5.471-3.541-8.53-.806-10.623,4.343-7.886-2.253-8.692-12.232-12.071-16.255-6.438-8.532-15.612-5.633-19.153-13.361-9.981-8.997-14.166-26.542-10.14-31.371 29.293.161 38.467,28.169 51.182,39.113v6.76c3.701,3.862 14.485,3.38 18.187-.322 0-1.931-3.701-7.403-4.827-8.371 4.023-2.412 15.933-4.023 19.474,0-4.185,1.933-4.185,7.085-4.185,8.05 2.897,4.666 9.818,3.861 13.52,2.896 3.059-1.126 10.14-2.415 12.877-5.474 0-2.091-3.22-1.93-3.06-4.024z" fill="#c46b02" stroke="#000" stroke-linecap="round" stroke-linejoin="round" stroke-miterlimit="2.4142" stroke-width=".0672"/>
  <path d="m67.36,179.98c-4.024-2.253-1.609-.484-6.599-4.187 3.863,40.882-2.897,43.778 2.253,50.861 3.38,5.636 7.082,17.224 15.773,19.636 5.472,3.703 19.153,19.639 24.947,26.558 1.771,0 4.506,2.734 3.702,1.931 18.509,9.336 42.49,2.735 61-.968 9.014-2.089 9.014,11.267 12.716,15.133 0,15.129 7.242,32.674 9.012,47.801-.641,5.957-.641,14.166 1.933,18.509 7.403,14.165 20.441,31.064 27.04,46.197 .807,3.861 12.073,26.554 12.877,26.554-1.771,0 5.634,20.925 8.368,23.819 0,8.531-6.919,14.969-6.919,20.606 1.286,4.185 4.343,8.046 10.944,8.368 8.69.963 9.817-3.702 12.552-3.702 6.602-14.165-.159-25.754-8.209-49.896-2.734-6.602-7.402-12.394-10.138-18.994-2.737-8.527-11.105-17.06-14.808-25.591-12.071-28.326-13.843-61.484-20.441-91.9l-.804-23.659c-3.38-3.866-5.473-3.703-1.934-6.601 29.616,0 60.199-15.133 88.848-15.133 0,9.5 7.405,19.962 7.405,29.457 6.437,6.601 8.367,20.762 12.07,30.261 5.47,14.16 8.207,29.293 9.172,45.389l-.965.963c0,.969.965,3.862.965,4.666 1.931,1.936 4.668,4.83 4.668,7.729 2.737,14.164.966,40.559-1.77,53.92-2.898,12.229-3.863,21.725-8.37,33.154-6.117,4.025-13.521,18.027-13.521,24.787 1.45,2.412 10.302,4.665 14.485,5.311 5.798-.804 13.2-3.539 15.614-5.151 .159-2.735-2.253-13.521 0-18.345 .964-4.67 7.4-7.568 8.368-10.463v-1.931l-2.734-2.739c0-36.053-2.898-70.012 4.507-104.29 5.633-23.501-19.317-48.287-12.877-76.618 7.402-32.029 29.615-80.312-13.036-99.306-10.141-3.703-16.577-19.796-26.72-24.625-38.949-17.059-86.11-16.094-123.77.965-20.44,9.497-40.398,28.167-59.873,40.401l.965.963c-1.931-1.77-6.599-17.865-5.633-19.794l-2.897,4.504c.321,3.38.967,4.023.321,6.921-1.772,3.38-19.638,16.74-28.491,8.53z" fill="#fff" stroke="#000" stroke-linecap="round" stroke-linejoin="round" stroke-miterlimit="2.4142" stroke-width=".0672"/>
  <path d="m85.708,89.201c.161-1.288-.964-2.898-.643-4.025 .322-.963 2.092-1.77 2.413-2.896 .484-1.126 0-3.057.322-4.023 .483-1.288 1.933-1.608 2.414-2.737 .483-.965-.321-2.737.162-3.7 .643-1.127 2.252-1.613 2.896-2.576 .482-1.126.482-3.06.966-4.025 .483-1.449 1.932-1.288 2.575-2.415 .644-.963 0-2.735.644-3.703 .483-.963 2.415-1.447 3.058-2.412 .484-.966-.643-2.898 0-3.864 .645-1.126 3.059-1.288 3.541-2.415 .645-.965-.321-3.539.162-4.506 .644-.965 2.735-.643 3.378-1.772 .484-1.125-.643-2.574-.159-3.7 .482-.965 2.735-1.61 3.218-2.737 .645-1.447 1.127-3.055 1.449-4.666 .162-1.61-.805-3.06-.644-4.829 .161-1.61 1.288-3.7 1.127-5.472 0-1.77-1.449-1.449-.645-5.152 .645-3.7-1.609-11.748-5.633-17.222 15.774,2.094 15.611,30.422 6.6,50.379-10.303,22.533-8.854,42.652-13.521,45.709-4.686,7.078-27.221,7.078-13.701-7.241m-14.324,8.532c-1.288-2.737-1.932-4.993-4.345-7.566-.644-1.931.321-4.184-.161-5.954-.644-1.613-2.736-2.898-3.38-4.509-.644-1.447.321-3.055-.483-4.507-.644-1.449-3.219-2.735-4.024-4.023-.644-1.288 0-2.896-.644-4.022-.965-1.129-3.38-2.094-4.345-3.221-.805-1.126-.644-2.735-1.448-3.861-.966-1.129-3.059-1.449-4.025-2.415-.804-1.127-.644-2.415-1.448-3.38-.965-.965-3.219-1.61-4.185-2.576-.965-1.125-.644-3.057-1.608-4.025-.966-1.127-3.22-1.127-4.185-2.253-.805-.963-.644-3.216-1.448-4.504-.966-1.126-3.219-1.126-4.025-2.415-.965-1.288-.804-4.023-1.771-5.311-.804-1.288-2.736-1.449-3.541-2.898-.644-1.126-.161-2.576-.805-3.702-.481-1.127-2.252-1.931-2.736-3.217-.483-1.129.161-1.933-.321-3.221-.323-1.127-1.771-2.896-1.932-4.184-.965-6.117.323-10.785 3.542-15.935-11.108,7.564-11.108,18.026-6.439,29.454 8.852,21.245 30.741,39.433 35.409,62.609l.321,5.797c5.313,6.116 14.647,2.246 18.027-.161" stroke="#000" stroke-linecap="round" stroke-linejoin="round" stroke-miterlimit="2.4142" stroke-width=".0672"/>
  <path d="m112.75,99.341c.965-4.668 8.852-12.232 10.3-17.061 1.771-5.794-.964-20.6 12.233-29.291 1.931-1.129 2.736-3.06 6.438-2.74 4.668,8.532.161,21.086-1.288,31.388-6.438,8.207-18.026,10.46-24.786,18.026l-2.89-.322m-67.44,6.919c-11.75-13.034-13.52-16.416-12.071-31.224-7.404-7.726-18.51-21.888-29.616-21.888 0,.965-.965,2.896-.965,4.829-.644,3.378-.161,16.739 10.784,24.303 16.739,9.013 19.153,11.912 28.167,23.98 .805,0 1.77-.96 3.701,0" fill="url(#a)" stroke="#000" stroke-linecap="round" stroke-linejoin="round" stroke-miterlimit="2.4142" stroke-width=".6724"/>
  <path d="m101.8 130.08c-4.022 0-7.564-2.737-4.829-5.475l7.244-7.884c2.896-3.06 4.989 1.288 4.989 5.631 0 4.19-3.38 7.73-7.41 7.73m-46.511 0c4.025 0 7.727-2.737 4.989-5.475l-7.404-7.884c-2.896-3.06-4.989 1.288-4.989 5.631 0 4.19 3.381 7.73 7.404 7.73" stroke="#000" stroke-linecap="round" stroke-linejoin="round" stroke-miterlimit="2.4142" stroke-width=".6724"/>
  <path d="m73.155,165.49c1.126,5.633 0,9.659-10.463,11.75 7.565,2.898 5.151,5.794 15.129,5.472 5.151-.484 8.692-3.06 10.463-4.346-.645-2.576-3.38-8.852-5.795-8.531 0-1.931 7.081-2.576 8.53-4.991 .966-2.735.161-5.311-1.609-7.08-1.126,4.668-4.666,2.092-9.336,6.599l-3.701-1.447c-.964.01-2.414,2.58-3.218,2.58z" fill="#404040" stroke="#000" stroke-linecap="round" stroke-linejoin="round" stroke-miterlimit="2.4142" stroke-width=".6724"/>
  <path d="m67.36,179.82c6.761,1.61 14.326.968 20.762-1.288-2.092,1.772-6.437,4.187-10.461,4.187-3.058.48-8.53-.49-10.301-2.9m4.828-12.56c.323-1.124 0-4.023-1.125-3.861-2.576.322-4.185-1.931-3.864-3.219-.804-.159-1.448,2.896-.644,4.345 1.288,1.772 2.093.807 3.703.807 .642,0 1.77.48 1.93,1.93m12.072,0c-.482-1.124-.16-4.023.966-3.861 2.575.322 4.345-1.931 3.863-3.219 .805-.159 1.448,2.896.645,4.345-1.288,1.772-2.094.807-3.703.807-.643,0-1.771.48-1.771,1.93m11.751-38.3c.16,8.852-2.094,15.13-7.727,23.176 0,.965.644,3.221.644,3.861 1.449-.641 1.449-4.988 4.024-10.46 3.219-7.083 4.185-5.311 4.829-14.327l-1.77-2.25m8.529.64c.805.806.644,2.253-.805,2.094-.161.481.805,2.253-.161,2.735-3.059,0-6.76-4.668-8.208-7.244-.644-1.288.16-4.023 1.771-4.346 1.931-.322 1.77-2.253.481-4.184 1.449-2.898 6.438-6.921 10.463-7.08 2.253-.325 2.092,3.055 2.092,3.539 .806,1.288 2.415,4.025 8.369,5.313-2.091,2.09-8.369-1.772-11.749-4.348-1.771-1.449-5.311,3.38-8.852,7.244-3.059,3.219-2.415,4.023-.483,5.795 1.603.98 4.175,1.46 7.075.5m-52.147-.16c-.644.967-.483,2.255.804,2.094 .321.481-.643,2.415.161,2.896 3.058,0 6.92-4.668 8.371-7.405 .643-1.126-.323-3.861-1.772-4.184-1.931-.484-1.931-2.253-.643-4.184-1.449-2.898-6.44-6.921-10.303-7.244-2.252-.161-2.091,3.219-2.091,3.703-.805,1.288-2.415,4.025-8.532,5.313 2.254,1.928 8.532-1.772 11.911-4.509 1.771-1.288 5.312,3.541 8.692,7.405 3.058,3.219 2.415,4.023.483,5.795-1.609.96-4.185,1.44-7.081.32m8.852-.97c-.323,9.014 1.932,15.29 7.565,23.34 0,.965-.484,3.055-.484,3.861-1.608-.643-1.608-4.99-4.184-10.621-3.057-6.921-4.024-5.152-4.667-14.165l1.77-2.41"/>
  <path d="m209,450.54c3.7-2.576 5.955-7.405 9.013-11.267-2.092,4.185-5.956,8.209-6.276,12.234-.96-.32-1.77-.64-2.73-.96m98.66,5.63c.163,2.575 5.955.163 7.082.804 .164-2.576 4.185-5.47 5.797-5.311-1.612,3.861-4.99,6.601-2.898,8.69 3.703-.481 3.058-2.894 4.185-4.348 2.575,3.702 4.184,3.063 6.921,2.903-1.449,4.824.483,13.192.483,17.218-12.715,6.76-22.533,5.151-30.261-.481 1.46-7.56 4.84-15.29 8.7-19.47m-70.49,6.92c4.344.322 5.634,4.992 10.138,5.311 4.507.327 7.403-4.502 12.394-5.147 0,4.021-.161,9.658-2.896,13.679-6.921,4.189-7.563,4.025-11.589,3.866-6.921.159-10.14-4.024-11.267-7.728-.48-2.73.65-5.8 3.23-9.98m-30.11-18.02c.486,1.768.486,5.147 2.256,5.792 3.058,1.932 7.726,0 11.75.159-1.29,5.797-3.702,17.223-7.728,16.419-6.278,2.734-15.128,4.665-24.305,1.449-2.09-5.96 9.01-18.19 18.02-23.82m-112.34,12.07c-5.795,4.343-10.785,6.919-15.131,11.906-2.735,3.544-3.54,8.373-.321,8.532 6.921-.159 14.325,0 21.406-.159 5.473-4.025 10.462-11.589 9.175-16.096-2.897.963-8.048.481-10.945,1.449 1.771-3.063.323-3.38 2.094-6.278-2.897,2.576-3.703,2.253-6.438,5.151 .795-2.73-.655-1.93.151-4.5m-14.807,20.92c1.608-7.241 4.345-9.977 7.725-13.679-2.735,4.184-6.116,9.977-4.507,13.679-1.287.32-1.931,0-3.218,0" stroke="#000" stroke-linecap="round" stroke-linejoin="round" stroke-miterlimit="2.4142" stroke-width=".0672"/>
  <path d="m95.688,164.36c0,.968.966,6.923 0,7.725l-7.565,6.763c-3.701,3.216-11.426,4.829-14.001,4.022 1.77,1.931 8.046,15.773 9.979,17.704 0,5.636 2.896-4.023 3.863,29.777 3.701,1.933 7.403,5.794 9.174,9.656 11.267,26.234 47.32.806 64.864,7.245 18.83,6.438 7.241,19.799 22.853,35.89 0,18.026 12.073,37.021 12.073,55.047 .643,3.703-2.737,11.908.805,15.938 1.61,1.607 9.333,6.273 11.75,1.285l-7.405,14.002c13.521,15.937 24.628,31.869 32.674,46.352 6.116,11.107 13.197,31.874 8.368,36.698 0,0 3.702,1.449 11.911-4.507-3.058-17.381-14.646-35.407-20.603-47.155-3.38-6.924-6.114-9.981-9.494-14.007-9.495-24.786-9.659-31.705-12.716-41.199-3.219-21.57-10.785-57.946-9.656-77.1-2.415-9.336-12.073-5.147-11.105-14.646 .965-8.532 8.207-26.235 15.609-29.131 19.476-8.529 52.794-8.529 62.13-34.122 3.703-11.748 5.311-4.507 7.403,1.933 3.541,9.495 19.314,15.128 23.017,24.623 3.702,8.532 3.702,21.891 7.402,30.101 2.737,6.597 12.714,19.153 17.384,23.982 2.576-26.399 20.119-56.173 11.105-85.307-4.509-14.485-17.384-20.441-25.913-24.948-8.693-4.504-6.921-7.403-19.474-20.923-72.912-33.157-131.82-1.61-151.3,13.842-4.668,20.439 29.774,45.548 14.807,47.159-16.577-18.669-45.71-6.601-42.491-5.794-6.599-6.763-11.909-27.04-13.036-34.927-1.751,2.78-1.59,2.78-2.396,4.06z" fill="#c46b02"/>
  <path d="m72.672 182.56c0 18.99-5.473 40.076-2.415 56.814-3.54-3.38-5.151-11.428-7.887-14.324l5.151-45.066c2.576 1.77 3.702 2.25 5.151 2.58z" fill="#c46b02"/>
  <path d="m339.53,325c-1.932-12.074-11.59,7.887-12.553,21.407 4.666,17.862 1.127,72.106-4.99,109.6 1.446,3.063 4.668,3.702 6.599,2.903 .645-1.613.645-2.258 1.771-4.025 .805-1.931 2.09-2.417 2.735-3.221 7.241-5.47 3.538-7.405 1.771-9.172-1.61-17.223-.968-33.805-.968-51.827-1.13-33.96 7.08-52.47 5.63-65.66m-146.47-78.71c8.209-28.808 23.337-23.338 50.218-32.995 17.059-6.117 22.533-14.485 28.325-28.65 2.417-2.251 3.703,3.221 5.152,7.564 2.898-2.896 5.955-15.29 3.38-19.473-16.255-22.533-41.364,3.057-49.734,13.358-16.897,6.115-53.919,18.188-48.285,47.32 1.13,4.98 7.24,11.9 10.94,12.87" fill="#b86502"/>
  <path d="m109.05 271.72 1.125 5.792c9.818 2.734 21.084 7.246 30.742 2.253l1.609-3.216-33.48-4.82z" fill="#fff"/>
  <path d="m99.23,170.16c3.541,9.175 6.92,17.223 11.104,25.109 10.301,1.931 4.667,4.022-4.828,2.896-1.932-7.403-4.829-11.91-6.921-19.312 1.133-3.55-.476-5 .651-8.7z" fill="#b86502"/>
  <path d="m72.351,103.69c10.461,3.38 11.105,29.293 19.957,13.84 3.54-6.438 7.082-6.757 13.682-7.725-.806-1.127-10.623-6.115-10.463-4.504-5.312,5.149-11.749,2.576-15.452-5.313-2.091,3.703-10.461-3.545-7.724,3.703m70.819-36.7c-1.932,4.504-7.887,4.346-8.209,4.83 2.414,1.126 4.508.643 7.564-.484 .17-1.449.65-3.219.65-4.346m.16-13.199c-1.932,5.311-1.61,7.564-7.888,11.589 .322,1.288 7.082-4.345 8.531-6.921 0-.646-.48-3.542-.64-4.668m-8.05-.482c-4.989,3.058-5.956,8.532-7.244,12.875 .806,0 4.186-10.299 11.43-15.935-1.45.646-3.06,1.772-4.19,3.06m-131.66,15.451c2.093,2.735 5.956,4.988 9.497,4.668-2.897-.965-9.014-4.348-9.014-9.013 1.126,1.608 4.829,4.507 6.437,3.703-4.505-2.094-6.115-4.829-6.115-10.462-.161-1.127.322-1.77 1.125-1.288 2.415,1.288 6.44,4.668 8.854,6.438 1.288.965 3.54,3.219 4.828,4.348 .644-.807-10.14-12.716-15.612-13.843-2.252,6.758-.645,11.747 0,15.449m108.32-48.608c2.415-.804 5.151-.161 7.083.32-1.288-1.286-4.668-2.574-6.922-2.735-.32.646-.16,1.934-.16,2.415m-.32,7.887c2.896-.804 5.149-.323 7.082.965-.966-2.415-3.863-3.862-6.116-4.345-.48.967-.64,2.092-.96,3.38m.16,6.921c2.255-.481 4.347,0 5.795.966-1.126-1.772-3.059-2.735-5.311-3.38-.17.965-.17,1.771-.49,2.414m-4.18,5.633c3.382-.322 6.277,1.288 8.211,2.737-.484-2.253-3.22-4.348-5.474-4.991-.97.805-2.26,1.451-2.74,2.254m-3.22,6.279c3.218.32 6.76,2.573 8.37,4.022-.322-2.092-3.22-5.311-5.472-5.956-1.13.162-3.54.646-2.9,1.934m-3.54,5.792c4.023.484 7.725,2.415 9.334,4.507-.482-2.253-3.54-5.311-6.116-6.276-1.12.481-2.73,1.126-3.21,1.769m-3.221,6.438c3.542.325 7.888,2.415 10.302,4.829-.966-2.735-4.668-5.792-7.727-6.599-.96.645-1.766.968-2.571,1.77m-3.057,6.117c4.184.161 8.853,2.898 11.91,4.668-1.771-2.576-6.278-5.633-9.657-6.599-.642.482-1.93,1.127-2.251,1.931m-3.863,6.921c4.989.162 10.462,3.542 14.003,5.956-2.254-3.541-7.564-7.889-11.428-8.371-1.124.646-2.573,1.77-2.573,2.415m-2.736,6.437c5.311-.804 12.23,2.737 15.611,4.991-1.771-3.38-8.691-7.405-13.359-7.405-.961.806-2.088,1.61-2.248,2.414m-2.897,7.083c5.793-.645 12.876,2.253 17.221,4.345-2.093-3.541-10.461-7.241-14.968-6.918-.97.801-2.256,1.768-2.256,2.573m-18.348-1.288c-4.508-.484-10.462,1.61-14.325,4.506 2.896-4.184 7.564-7.564 11.588-8.207 1.126,1.127 2.414,2.415 2.737,3.701m-3.703-9.014c-4.345.323-9.979,2.253-13.52,5.472 1.609-3.7 6.438-6.921 9.819-9.011 1.287,1.288 2.735,2.252 3.701,3.539m-4.829-8.047c-4.024,1.288-9.335,3.221-12.232,6.278 1.126-3.057 5.472-6.76 8.37-9.174 1.287,1.126 3.702,2.414 3.862,2.896m-5.632-7.083c-3.703,1.452-8.371,3.06-11.106,6.44 1.127-3.38 4.507-6.599 7.244-8.691 1.447.643 2.895,1.449 3.862,2.251m-5.634-6.115c-4.025,1.127-7.404,4.025-9.496,6.921 .643-3.864 2.896-6.76 5.634-9.013 1.448.643 2.574,1.45 3.862,2.092m-5.633-6.278c-3.703.807-7.565,2.739-9.014,5.474 .162-3.38 3.381-5.474 5.312-7.405 1.288.643 3.058,1.288 3.702,1.931m-5.795-6.758c-3.219.643-6.277,2.896-8.53,5.149 .644-2.735 3.38-5.633 4.989-7.083 1.288.808 3.219,1.289 3.541,1.934m-5.794-8.048c-3.542.643-5.633,3.219-7.565,4.991 .323-2.898 2.576-5.152 4.668-7.083 1.126.804 2.253,1.447 2.897,2.092m-4.346-6.601c-2.896,0-5.472,2.095-7.404,3.864 .644-2.253 3.059-4.345 5.152-6.117 .803.806 1.447,1.611 2.252,2.253m-2.896-6.115c-2.897.159-5.151,1.288-6.921,2.898 1.126-1.933 3.058-4.025 5.472-5.794 .643.966 1.449,2.092 1.449,2.896" fill="#fff"/>
 </g>
</svg>
