<?xml version="1.0" encoding="UTF-8"?>
<svg viewBox="0 0 228.75 273.75" xmlns="http://www.w3.org/2000/svg">
 <defs>
  <clipPath id="a">
   <path d="m0 0h763v912h-763v-912z"/>
  </clipPath>
 </defs>
 <g transform="matrix(1.25,0,0,-1.25,0,273.75)">
  <g transform="scale(.24)">
   <g clip-path="url(#a)">
    <path d="m258.543,55.832c8.332-4.789 14.375-13.125 16.664-22.5 .836-4.164-23.75-10-41.875-1.875-14.164,6.461.836,27.5-15.625,32.086l-3.332-11.461c-16.668,27.918-13.543,55-33.125,83.961l-51.457,75.625c-9.586,14.375 6.664,28.539 2.914,43.75-84.582-24.375-74.375-90.211-83.957-176.875 4.793-6.668 10.832-48.543-11.043-32.086-16.664,12.5-21.664,26.25-16.664,46.461-4.793-3.75-6.875-9.586-10.418-14.375-1.04297,9.582 3.957,17.914 6.457,26.457 16.25,52.5 20.211,106.457 27.086,160.418 1.039,7.082 13.332,8.332 35.414,26.457 22.293,18.332-9.582,96.25 2.293,134.793-17.082-12.711-26.043-32.5-32.707-51.875-4.793-14.375-18.543-9.168-16.461,4.375 9.168,61.25 28.125,93.957 86.25,121.039 19.793,17.711 56.25,24.793 78.961,25.418 25.832.625 55.832.832 76.664-8.332 85.836-18.125 175.211-8.125 261.875-7.711 1.25,7.711 9.793,12.5 7.711,21.043-4.586,2.918-7.711,6.668-7.711,9.793-20.414-3.336-23.539,22.707-12.082,39.789l7.707,11.668c9.793,13.957-2.707,21.668 2.711,33.75-5.418-.207-10.418,5.207-11.25,13.75-4.168,2.082-6.25,11.043-4.375,13.125-11.043-2.082-12.086,22.707-16.875,29.168 16.457-9.586 26.25,11.039 51.875-23.961l2.707,2.086c-23.957,32.5-63.543,41.457-97.707,58.125-27.711,13.539-29.168,46.664-22.711,72.914 1.668,6.668-3.332-28.125 13.336-48.75 8.332,28.336-18.75,58.125 8.125,84.586-12.918-32.918 13.332-61.875 6.25-95 0-7.086 36.875-20.211 36.875-10l-.418,31.039c-.625,44.586-30,44.586-9.375,110 .832-25.414-1.875-54.164 16.457-74.582 27.293,31.457 12.086,82.293 45.418,111.043 1.668,1.457 2.918,1.664-5-12.086-18.75-32.707-6.668-58.75-22.082-103.539 5.832,2.5 18.539,31.457 18.75,29.375 1.457-20.418-9.168-42.086-23.75-55.836-8.543-22.289.414-49.164 19.375-63.539 2.707,11.039-5,34.582-1.043,31.039 17.5-17.082 3.125-49.789 30.207-60.832 11.668,1.668 26.043,1.043 37.086-1.668 23.957,28.75 18.125,27.086 15.414,55.836-.625,6.039 16.043-11.668 10.625-34.793 12.5,17.5 33.75,23.332 49.586,36.875-17.086,7.918-26.461,12.918-29.168,23.75-10,39.793-40.418,47.707-37.082,48.75 39.164,4.582 33.125-60.418 75.625-43.125 32.082,49.375-44.168,93.332-38.543,94.582 39.168-8.539 56.25-48.75 59.582-85.832 21.461,39.168-33.957,70.832-8.75,110.625 2.711,2.918 13.336-85.832 26.461-48.75 7.914,22.707-10.418,44.793-2.293,67.5 5.418-23.75 16.668-46.875 10.625-72.293 7.082,1.25 8.543,12.918 8.75,20.418 2.918-8.957 3.332-30.625-12.082-36.043-3.336-13.125-7.5-25.832-12.086-38.539-12.914-34.168 7.293-37.086-32.707-55.211-23.543-10.832-52.5-20-61.668-48.75l1.461-.625c17.707,24.168 25.832,11.25 43.332,33.543 0-9.168.207-19.168-5.418-26.875 8.75-10.832 7.086-18.75-5.207-24.375 4.793-7.707 1.043-15.832-5.625-24.793 .207-25.832.832-51.664-6.043-76.664 20.418-82.711-14.375-113.75-51.457-174.168-16.875-27.5-33.75-59.168-66.25-70.207-30.832-48.961-.418-102.086-11.043-154.168-5.832-28.75 11.875-52.707 18.75-78.543 1.461-5.207 13.336-27.082 16.043-30.207 10.625-12.5-17.5-9.375-21.668-8.957 1.875-5-1.25-9.375-6.039-8.75-31.875,2.914-26.043,7.082-37.5,33.539-2.086-12.289-7.293-13.125-7.293-9.375 2.293,47.711 1.875,71.25-18.125,115-19.793,43.543-19.168,92.711-49.582,132.711-56.043-10.625-113.543,1.25-165.418,22.707-8.543-23.332-34.793-33.957-48.543-52.707-42.914-58.336-16.875-67.293 7.293-127.086 15-37.289 39.582-46.875 47.918-71.25" fill="#deb879"/>
    <path d="m258.543,55.832c8.332-4.789 14.375-13.125 16.664-22.5 .836-4.164-23.75-10-41.875-1.875-14.164,6.461.836,27.5-15.625,32.086l-3.332-11.461c-16.668,27.918-13.543,55-33.125,83.961l-51.457,75.625c-9.586,14.375 6.664,28.539 2.914,43.75-84.582-24.375-74.375-90.211-83.957-176.875 4.793-6.668 10.832-48.543-11.043-32.086-16.664,12.5-21.664,26.25-16.664,46.461-4.793-3.75-6.875-9.586-10.418-14.375-1.04297,9.582 3.957,17.914 6.457,26.457 16.25,52.5 20.211,106.457 27.086,160.418 1.039,7.082 13.332,8.332 35.414,26.457 22.293,18.332-9.582,96.25 2.293,134.793-17.082-12.711-26.043-32.5-32.707-51.875-4.793-14.375-18.543-9.168-16.461,4.375 9.168,61.25 28.125,93.957 86.25,121.039 19.793,17.711 56.25,24.793 78.961,25.418 25.832.625 55.832.832 76.664-8.332 85.836-18.125 175.211-8.125 261.875-7.711 1.25,7.711 9.793,12.5 7.711,21.043-4.586,2.918-7.711,6.668-7.711,9.793-20.414-3.336-23.539,22.707-12.082,39.789l7.707,11.668c9.793,13.957-2.707,21.668 2.711,33.75-5.418-.207-10.418,5.207-11.25,13.75-4.168,2.082-6.25,11.043-4.375,13.125-11.043-2.082-12.086,22.707-16.875,29.168 16.457-9.586 26.25,11.039 51.875-23.961l2.707,2.086c-23.957,32.5-63.543,41.457-97.707,58.125-27.711,13.539-29.168,46.664-22.711,72.914 1.668,6.668-3.332-28.125 13.336-48.75 8.332,28.336-18.75,58.125 8.125,84.586-12.918-32.918 13.332-61.875 6.25-95 0-7.086 36.875-20.211 36.875-10l-.418,31.039c-.625,44.586-30,44.586-9.375,110 .832-25.414-1.875-54.164 16.457-74.582 27.293,31.457 12.086,82.293 45.418,111.043 1.668,1.457 2.918,1.664-5-12.086-18.75-32.707-6.668-58.75-22.082-103.539 5.832,2.5 18.539,31.457 18.75,29.375 1.457-20.418-9.168-42.086-23.75-55.836-8.543-22.289.414-49.164 19.375-63.539 2.707,11.039-5,34.582-1.043,31.039 17.5-17.082 3.125-49.789 30.207-60.832 11.668,1.668 26.043,1.043 37.086-1.668 23.957,28.75 18.125,27.086 15.414,55.836-.625,6.039 16.043-11.668 10.625-34.793 12.5,17.5 33.75,23.332 49.586,36.875-17.086,7.918-26.461,12.918-29.168,23.75-10,39.793-40.418,47.707-37.082,48.75 39.164,4.582 33.125-60.418 75.625-43.125 32.082,49.375-44.168,93.332-38.543,94.582 39.168-8.539 56.25-48.75 59.582-85.832 21.461,39.168-33.957,70.832-8.75,110.625 2.711,2.918 13.336-85.832 26.461-48.75 7.914,22.707-10.418,44.793-2.293,67.5 5.418-23.75 16.668-46.875 10.625-72.293 7.082,1.25 8.543,12.918 8.75,20.418 2.918-8.957 3.332-30.625-12.082-36.043-3.336-13.125-7.5-25.832-12.086-38.539-12.914-34.168 7.293-37.086-32.707-55.211-23.543-10.832-52.5-20-61.668-48.75l1.461-.625c17.707,24.168 25.832,11.25 43.332,33.543 0-9.168.207-19.168-5.418-26.875 8.75-10.832 7.086-18.75-5.207-24.375 4.793-7.707 1.043-15.832-5.625-24.793 .207-25.832.832-51.664-6.043-76.664 20.418-82.711-14.375-113.75-51.457-174.168-16.875-27.5-33.75-59.168-66.25-70.207-30.832-48.961-.418-102.086-11.043-154.168-5.832-28.75 11.875-52.707 18.75-78.543 1.461-5.207 13.336-27.082 16.043-30.207 10.625-12.5-17.5-9.375-21.668-8.957 1.875-5-1.25-9.375-6.039-8.75-31.875,2.914-26.043,7.082-37.5,33.539-2.086-12.289-7.293-13.125-7.293-9.375 2.293,47.711 1.875,71.25-18.125,115-19.793,43.543-19.168,92.711-49.582,132.711-56.043-10.625-113.543,1.25-165.418,22.707-8.543-23.332-34.793-33.957-48.543-52.707-42.914-58.336-16.875-67.293 7.293-127.086 15-37.289 39.582-46.875 47.918-71.25z" fill="none" stroke="#1c140c" stroke-width="1.0417"/>
    <path d="m258.54 55.832c1.039-2.707-23.543-7.707-32.086-6.039" fill="none" stroke="#1c140c" stroke-width="1.0417"/>
    <path d="m48.75,78.543c-.832-7.5-30.625-2.5-28.75,8.75" fill="none" stroke="#1c140c" stroke-width="1.0417"/>
    <path d="m53.125 260.42c3.332-10.625 1.043-22.711-4.375-37.086 6.668 20.418 12.707 35.625 26.875 47.5" fill="none" stroke="#1c140c" stroke-width="1.0417"/>
    <path d="m81.457 282.29 5 22.082" fill="none" stroke="#1c140c" stroke-width="1.0417"/>
    <path d="m80.418 382.92c4.164-19.793 11.457-26.461 21.25-34.586l-1.043 21.461 8.332-3.961c-11.457 22.086-9.375 49.793-6.25 69.586l7.711-10.418c0.832 55.418 7.914 70 57.707 96.875" fill="none" stroke="#1c140c" stroke-width="1.0417"/>
    <path d="m118.96 500.21c-28.957-25.832-33.125-60.832-37.082-73.539" fill="none" stroke="#1c140c" stroke-width="1.0417"/>
    <path d="m65 408.54-10.207-8.961 1.664 8.336-9.375-10.418 1.043 14.375-10.418-21.668-0.832 11.668" fill="none" stroke="#1c140c" stroke-width="1.0417"/>
    <path d="m274.58 517.29c11.461-5.211 21.668-18.125 36.043-18.75" fill="none" stroke="#1c140c" stroke-width="1.0417"/>
    <path d="m268.54 497.92c27.289-34.793 8.125-99.375-27.086-122.09 11.25 16.668 20.418 35.418 22.086 55.836-2.711-5.625-8.125-9.375-14.168-10.211 8.125 12.293 12.918 26.461 13.75 41.25l-7.293-3.957c8.961 10.832 13.961 25 12.711 39.168" fill="none" stroke="#1c140c" stroke-width="1.0417"/>
    <path d="m250.83 363.75c-17.289-48.332-69.164-94.375-118.12-108.33" fill="none" stroke="#1c140c" stroke-width="1.0417"/>
    <path d="m149.79 210.62 27.082-45.418" fill="none" stroke="#1c140c" stroke-width="1.0417"/>
    <path d="m168.54 221.04c-2.711 24.375 30.414 30.414 49.164 54.789" fill="none" stroke="#1c140c" stroke-width="1.0417"/>
    <path d="m251.88 306.88-27.707 11.457" fill="none" stroke="#1c140c" stroke-width="1.0417"/>
    <path d="m242.08 344.58c18.75-18.957 46.043-26.039 70.625-32.914l-17.082-2.086c23.957-10.207 50-16.039 76.25-15.625l-6.668-5.414c15-2.711 33.125-3.336 48.125 1.457" fill="none" stroke="#1c140c" stroke-width="1.0417"/>
    <path d="m421.67 336.67c-5.836-19.586-21.043-31.043-4.375-52.5" fill="none" stroke="#1c140c" stroke-width="1.0417"/>
    <path d="m469.17 216.25c-0.625 11.043-1.668 22.5 1.664 33.543-2.914-16.043 2.293-30.211 13.125-41.461" fill="none" stroke="#1c140c" stroke-width="1.0417"/>
    <path d="m503.33 238.33c-2.5-10-0.625-20.625 4.375-29.375" fill="none" stroke="#1c140c" stroke-width="1.0417"/>
    <path d="m490.62 122.08 13.332-54.582" fill="none" stroke="#1c140c" stroke-width="1.0417"/>
    <path d="m497.71 32.082 29.168 12.086" fill="none" stroke="#1c140c" stroke-width="1.0417"/>
    <path d="m528.75 40.625 18.332 7.293" fill="none" stroke="#1c140c" stroke-width="1.0417"/>
    <path d="m535.83 21.043c-0.625 5.832-4.582 15.625-8.957 23.125-6.043 21.039-11.875 38.957-17.918 55.414-13.332 39.168-2.289 63.75-16.664 103.34-13.75 38.125 3.957 73.957-3.75 111.04" fill="none" stroke="#1c140c" stroke-width="1.0417"/>
    <path d="m490.83 285.42c16.043-1.875 29.168 2.914 42.918 7.5" fill="none" stroke="#1c140c" stroke-width="1.0417"/>
    <path d="m497.92 287.92c21.457 6.25 41.664 18.75 54.582 37.082-14.375-9.375-31.043-13.332-45.207-8.332 12.914 0.832 27.707 3.957 36.457 15" fill="none" stroke="#1c140c" stroke-width="1.0417"/>
    <path d="m531.04 333.33c8.539 2.293 19.375-0.625 24.789 9.375" fill="none" stroke="#1c140c" stroke-width="1.0417"/>
    <path d="m544.793,345.418c8.75.625 17.707.414 21.664,7.082l-12.914,2.293c13.332.625 21.664,7.289 25,14.375" fill="none" stroke="#1c140c" stroke-width="1.0417"/>
    <path d="m567.5 371.88c38.125 8.332 26.457 14.375 12.082 15 23.75 8.75 45.211 23.543 61.875 42.5" fill="none" stroke="#1c140c" stroke-width="1.0417"/>
    <path d="m516.04 366.46c-0.625 10.625-4.586 21.461-12.086 29.375" fill="none" stroke="#1c140c" stroke-width="1.0417"/>
    <path d="m531.46 399.58c-11.25 7.086-4.582 23.125-3.332 33.125" fill="none" stroke="#1c140c" stroke-width="1.0417"/>
    <path d="m433.75 409.58c-5 24.586 12.082 43.543 30.418 58.543" fill="none" stroke="#1c140c" stroke-width="1.0417"/>
    <path d="m437.71 491.25c8.125 10 20.836 15.207 33.543 16.668" fill="none" stroke="#1c140c" stroke-width="1.0417"/>
    <path d="m548.957,528.957c.836-11.039 33.75-4.164 39.586-7.289-6.25-2.086-9.586-3.961-12.293-8.75l13.332-.625c-12.289-12.918 4.586-3.75-4.582-16.043-8.75-17.918 6.668-5-8.75-24.375-49.582-62.082-.832-9.375 8.75-5.418 14.793,6.043-11.25-14.375 7.707-2.707 23.125,14.168 46.043,27.293 58.75,73.543" fill="none" stroke="#1c140c" stroke-width="1.0417"/>
    <path d="m656.04 513.33c-11.668-25.832-11.668-58.539-40.418-73.957 20.207 8.332 32.5 26.25 41.668 44.582" fill="none" stroke="#1c140c" stroke-width="1.0417"/>
    <path d="m640.83 593.54c-3.75-14.375-1.664-33.961-18.125-40.836-14.375-6.039-30-13.539-45.832-12.289-3.332-8.336-24.168-15.418-32.707-9.793" fill="none" stroke="#1c140c" stroke-width="1.0417"/>
    <path d="m569.58 548.12c-8.332-5.832-21.039-12.5-33.125-7.707" fill="none" stroke="#1c140c" stroke-width="1.0417"/>
    <path d="m529.38 548.75-8.957 10 14.375 1.043-5.418-11.043" fill="none" stroke="#1c140c" stroke-width="1.0417"/>
    <path d="m521.46 563.12 11.25 10.625 2.086-9.375-13.336-1.25" fill="none" stroke="#1c140c" stroke-width="1.0417"/>
    <path d="m560.83 562.08c1.875 11.668 16.25 13.961 19.375 24.793" fill="none" stroke="#1c140c" stroke-width="1.0417"/>
    <path d="m550.83 583.54c30 33.539 0.418 69.375 75.211 53.957" fill="none" stroke="#1c140c" stroke-width="1.0417"/>
    <path d="m648.332,618.543c-.414,4.582.211,9.164 2.086,13.332-1.875-3.543-5.418-6.25-9.586-6.875 5.211,13.543 5.836,28.957 20.211,37.082" fill="none" stroke="#1c140c" stroke-width="1.0417"/>
    <path d="m657.5 613.96c-5.418-7.082-10.207-11.664-17.082-9.164" fill="none" stroke="#1c140c" stroke-width="1.0417"/>
    <path d="m589.58 607.29c2.086 18.957 18.543 8.539 29.168 10-3.75-11.043-17.5-10.836-26.457-14.375" fill="none" stroke="#1c140c" stroke-width="1.0417"/>
    <path d="m601.04 605.42c-7.086 0-8.75 5.207-8.75 10.207" fill="none" stroke="#1c140c" stroke-width="1.0417"/>
    <path d="m607.71 618.12c3.961-2.5 3.543-7.5 0-10.625" fill="none" stroke="#1c140c" stroke-width="1.0417"/>
    <path d="m548.96 634.79c6.668-12.711 1.043-23.961-4.375-33.125" fill="none" stroke="#1c140c" stroke-width="1.0417"/>
    <path d="m535.21 598.54 6.25 10.414c-4.582 0.211-7.082 5.418-11.664 4.793" fill="none" stroke="#1c140c" stroke-width="1.0417"/>
    <path d="m534.79 625.62c3.75 8.125 8.75 23.543 19.375 32.082" fill="none" stroke="#1c140c" stroke-width="1.0417"/>
    <path d="m544.79 646.88c-5.418 8.543-14.586 18.332-25.625 18.957" fill="none" stroke="#1c140c" stroke-width="1.0417"/>
    <path d="m556.88 659.79c2.918 2.289 6.457 2.914 12.707 3.957" fill="none" stroke="#1c140c" stroke-width="1.0417"/>
    <path d="m606.67 662.08c7.289-1.875 15-2.5 22.289-5" fill="none" stroke="#1c140c" stroke-width="1.0417"/>
    <path d="m632.71 683.12c-5.832-8.125-13.332-13.75-18.957-22.5" fill="none" stroke="#1c140c" stroke-width="1.0417"/>
    <path d="m541.88 692.29-1.457 1.25" fill="none" stroke="#1c140c" stroke-width="1.0417"/>
    <path d="m501.04 716.67v5" fill="none" stroke="#1c140c" stroke-width="1.0417"/>
    <path d="m464.17 728.12v3.543" fill="none" stroke="#1c140c" stroke-width="1.0417"/>
    <path d="m521.04 757.08c3.125 8.336 3.125 21.25 5 26.461" fill="none" stroke="#1c140c" stroke-width="1.0417"/>
    <path d="m735.42 799.58c1.25 5.418 2.082 10.418 3.332 15.625" fill="none" stroke="#1c140c" stroke-width="1.0417"/>
    <path d="m19.793 87.293c-1.668-11.25 28.125-16.25 28.75-8.75 5-6.668 11.039-48.543-10.836-32.086-15 11.25-20.625 23.543-17.914 40.836" fill="#1c140c"/>
    <path d="m19.793 87.293c-1.668-11.25 28.125-16.25 28.75-8.75 5-6.668 11.039-48.543-10.836-32.086-15 11.25-20.625 23.543-17.914 40.836z" fill="none" stroke="#1c140c" stroke-width="1.0417"/>
    <path d="m226.25,49.793c8.75-1.668 33.125,3.332 32.293,6.039 8.332-4.789 14.375-13.125 16.664-22.5 .836-4.164-23.75-10-42.082-1.875-7.5,3.543-6.668,11.25-6.875,18.336" fill="#1c140c"/>
    <path d="m226.25,49.793c8.75-1.668 33.125,3.332 32.293,6.039 8.332-4.789 14.375-13.125 16.664-22.5 .836-4.164-23.75-10-42.082-1.875-7.5,3.543-6.668,11.25-6.875,18.336z" fill="none" stroke="#1c140c" stroke-width="1.0417"/>
    <path d="m497.5,32.082 29.375,12.086c.625-1.043 1.25-2.293 1.875-3.543l18.332,7.293c3.961-7.711 8.75-16.043 10.211-17.918 10.625-12.5-17.5-9.375-21.461-8.957 1.668-5-1.457-9.375-6.039-8.75-25.418,2.289-27.086,5.414-32.293,19.789" fill="#1c140c"/>
    <path d="m497.5,32.082 29.375,12.086c.625-1.043 1.25-2.293 1.875-3.543l18.332,7.293c3.961-7.711 8.75-16.043 10.211-17.918 10.625-12.5-17.5-9.375-21.461-8.957 1.668-5-1.457-9.375-6.039-8.75-25.418,2.289-27.086,5.414-32.293,19.789z" fill="none" stroke="#1c140c" stroke-width="1.0417"/>
    <path d="m592.293,615.625c3.332,4.168 9.375,3.543 15.207,2.707 3.957-2.5 3.543-7.707.207-10.832-2.289-.832-4.582-1.457-6.875-2.082-7.082,0-8.75,5.414-8.539,10.207" fill="#1c140c"/>
    <path d="m592.293,615.625c3.332,4.168 9.375,3.543 15.207,2.707 3.957-2.5 3.543-7.707.207-10.832-2.289-.832-4.582-1.457-6.875-2.082-7.082,0-8.75,5.414-8.539,10.207z" fill="none" stroke="#1c140c" stroke-width="1.0417"/>
    <path d="m534.79 560-5.625-11.25-8.75 10 14.375 1.25" fill="#1c140c"/>
    <path d="m534.79 560-5.625-11.25-8.75 10 14.375 1.25z" fill="none" stroke="#1c140c" stroke-width="1.0417"/>
    <path d="m534.79 564.38-13.336-1.25 11.043 10.625 2.293-9.375" fill="#1c140c"/>
    <path d="m534.79 564.38-13.336-1.25 11.043 10.625 2.293-9.375z" fill="none" stroke="#1c140c" stroke-width="1.0417"/>
    <path d="m535.21 598.54c1.461 5.414 0 9.582-1.039 14.164 2.289-1.457 4.375-3.539 7.289-3.539l-6.25-10.625" fill="#1c140c"/>
    <path d="m535.21 598.54c1.461 5.414 0 9.582-1.039 14.164 2.289-1.457 4.375-3.539 7.289-3.539l-6.25-10.625z" fill="none" stroke="#1c140c" stroke-width="1.0417"/>
    <path d="m528.75 40.625c3.543-6.875 6.457-14.582 7.082-19.582" fill="none" stroke="#1c140c" stroke-width="1.0417"/>
    <path d="m65 408.54c-6.875-10.211-11.875-22.086-15.832-33.961-4.793-14.164-18.543-8.957-16.461 4.586 1.043 7.914 2.5 15.625 4.168 22.707l0.832-11.668 10.418 21.461-1.043-14.375 9.375 10.625-1.664-8.336 10.207 8.961" fill="#fddeb6"/>
    <path d="m65 408.54c-6.875-10.211-11.875-22.086-15.832-33.961-4.793-14.164-18.543-8.957-16.461 4.586 1.043 7.914 2.5 15.625 4.168 22.707l0.832-11.668 10.418 21.461-1.043-14.375 9.375 10.625-1.664-8.336 10.207 8.961z" fill="none" stroke="#221a15" stroke-width="1.0417"/>
    <path d="m224.17 318.12c6.875 8.332 12.914 17.293 17.914 26.457 18.75-18.957 46.043-26.039 70.625-32.914l-17.082-2.086c23.957-10.207 50-16.039 76.25-15.625l-6.668-5.414c15-2.918 33.125-3.336 48.125 1.25 1.043-1.875 2.293-3.75 3.961-5.836-56.043-10.414-113.54 1.461-165.42 22.711l-27.707 11.457" fill="#fddeb6"/>
    <path d="m224.17 318.12c6.875 8.332 12.914 17.293 17.914 26.457 18.75-18.957 46.043-26.039 70.625-32.914l-17.082-2.086c23.957-10.207 50-16.039 76.25-15.625l-6.668-5.414c15-2.918 33.125-3.336 48.125 1.25 1.043-1.875 2.293-3.75 3.961-5.836-56.043-10.414-113.54 1.461-165.42 22.711l-27.707 11.457z" fill="none" stroke="#221a15" stroke-width="1.0417"/>
    <path d="m490.832,285.418 7.086,2.5c21.457,6.25 41.664,18.75 54.582,37.082-14.375-9.375-31.043-13.332-45.207-8.332 12.914.832 27.707,3.957 36.25,15l-12.5,1.457c8.539,2.293 19.375-.418 24.789,9.582l-11.039,2.711c8.75.625 17.707.414 21.664,7.082l-12.914,2.293c13.332.414 21.664,7.082 25,14.375l-11.043,2.707c38.125,8.332 26.457,14.375 12.082,15 23.75,8.543 45.211,23.543 61.875,42.5-10.832-20.832-25.832-41.043-41.457-66.25-16.875-27.5-33.75-59.375-66.25-70.207-13.75-4.586-26.875-9.375-42.918-7.5" fill="#fddeb6"/>
    <path d="m490.832,285.418 7.086,2.5c21.457,6.25 41.664,18.75 54.582,37.082-14.375-9.375-31.043-13.332-45.207-8.332 12.914.832 27.707,3.957 36.25,15l-12.5,1.457c8.539,2.293 19.375-.418 24.789,9.582l-11.039,2.711c8.75.625 17.707.414 21.664,7.082l-12.914,2.293c13.332.414 21.664,7.082 25,14.375l-11.043,2.707c38.125,8.332 26.457,14.375 12.082,15 23.75,8.543 45.211,23.543 61.875,42.5-10.832-20.832-25.832-41.043-41.457-66.25-16.875-27.5-33.75-59.375-66.25-70.207-13.75-4.586-26.875-9.375-42.918-7.5z" fill="none" stroke="#221a15" stroke-width="1.0417"/>
    <path d="m592.707,463.75c-18.957-11.875 7.086,8.75-7.707,2.707-9.582-3.957-58.332-56.664-8.75,5.418 15.418,19.375 0,6.457 8.75,24.375 9.168,12.293-7.707,3.125 4.582,16.043l-13.332.625c2.707,4.789 6.043,6.664 12.293,8.75-5.836,2.914-38.75-3.75-39.586,7.082 9.793-1.457 25,4.582 27.918,11.668 15.832-1.25 31.457,6.25 45.832,12.289 7.918,3.125 11.461,9.375 13.543,16.25 9.793,14.168 9.168,30.418 21.25,45 .207-25.832.832-51.664-6.043-76.875-12.707-46.039-35.625-59.375-58.75-73.332" fill="#fddeb6"/>
    <path d="m592.707,463.75c-18.957-11.875 7.086,8.75-7.707,2.707-9.582-3.957-58.332-56.664-8.75,5.418 15.418,19.375 0,6.457 8.75,24.375 9.168,12.293-7.707,3.125 4.582,16.043l-13.332.625c2.707,4.789 6.043,6.664 12.293,8.75-5.836,2.914-38.75-3.75-39.586,7.082 9.793-1.457 25,4.582 27.918,11.668 15.832-1.25 31.457,6.25 45.832,12.289 7.918,3.125 11.461,9.375 13.543,16.25 9.793,14.168 9.168,30.418 21.25,45 .207-25.832.832-51.664-6.043-76.875-12.707-46.039-35.625-59.375-58.75-73.332z" fill="none" stroke="#221a15" stroke-width="1.0417"/>
    <path d="m556.875,659.793c-23.957,32.5-63.543,41.457-97.707,58.125-27.711,13.539-29.168,46.664-22.711,72.914 1.668,6.668-3.332-28.125 13.336-48.75 8.332,28.336-18.75,58.125 8.125,84.586-12.918-32.918 13.125-61.875 6.25-95 0-7.086 36.875-20.211 36.875-10l-.418,31.039c-.625,44.586-30,44.586-9.375,110 .832-25.414-1.875-54.164 16.457-74.582 27.293,31.457 12.086,82.293 45.418,111.043 1.668,1.457 2.918,1.664-5-12.086-18.75-32.707-6.668-58.75-22.082-103.539 5.832,2.5 18.539,31.457 18.75,29.375 1.457-20.418-9.168-42.086-23.75-55.836-8.543-22.289.414-49.164 19.375-63.539 2.707,11.039-5,34.582-1.043,31.039 17.5-17.082 3.125-49.789 30.207-60.832-6.25-1.043-9.789-1.668-12.707-3.957" fill="#fddeb6"/>
    <path d="m556.875,659.793c-23.957,32.5-63.543,41.457-97.707,58.125-27.711,13.539-29.168,46.664-22.711,72.914 1.668,6.668-3.332-28.125 13.336-48.75 8.332,28.336-18.75,58.125 8.125,84.586-12.918-32.918 13.125-61.875 6.25-95 0-7.086 36.875-20.211 36.875-10l-.418,31.039c-.625,44.586-30,44.586-9.375,110 .832-25.414-1.875-54.164 16.457-74.582 27.293,31.457 12.086,82.293 45.418,111.043 1.668,1.457 2.918,1.664-5-12.086-18.75-32.707-6.668-58.75-22.082-103.539 5.832,2.5 18.539,31.457 18.75,29.375 1.457-20.418-9.168-42.086-23.75-55.836-8.543-22.289.414-49.164 19.375-63.539 2.707,11.039-5,34.582-1.043,31.039 17.5-17.082 3.125-49.789 30.207-60.832-6.25-1.043-9.789-1.668-12.707-3.957z" fill="none" stroke="#221a15" stroke-width="1.0417"/>
    <path d="m606.67 662.08c23.957 28.75 18.125 26.875 15.414 55.836-0.625 6.039 16.043-11.668 10.625-34.793 12.5 17.5 33.75 23.332 49.586 36.875-17.086 7.918-26.461 12.918-29.168 23.75-10 39.793-40.418 47.707-37.082 48.75 39.164 4.582 33.125-60.418 75.625-43.125 32.082 49.375-44.168 93.332-38.543 94.582 39.168-8.539 56.25-48.75 59.582-85.832 21.461 39.168-33.957 70.832-8.75 110.62 2.711 2.918 13.336-85.832 26.461-48.75 7.914 22.707-10.418 44.793-2.293 67.5 5.418-23.75 16.668-46.875 10.625-72.293 7.082 1.25 8.543 12.918 8.75 20.418 2.918-9.168 3.332-30.625-12.082-36.043-3.336-13.125-7.5-25.832-12.086-38.539-12.914-34.168 7.293-37.086-32.707-55.211-23.543-10.832-52.5-20-61.668-48.75-7.289 2.5-15 3.125-22.289 5" fill="#fddeb6"/>
    <path d="m606.67 662.08c23.957 28.75 18.125 26.875 15.414 55.836-0.625 6.039 16.043-11.668 10.625-34.793 12.5 17.5 33.75 23.332 49.586 36.875-17.086 7.918-26.461 12.918-29.168 23.75-10 39.793-40.418 47.707-37.082 48.75 39.164 4.582 33.125-60.418 75.625-43.125 32.082 49.375-44.168 93.332-38.543 94.582 39.168-8.539 56.25-48.75 59.582-85.832 21.461 39.168-33.957 70.832-8.75 110.62 2.711 2.918 13.336-85.832 26.461-48.75 7.914 22.707-10.418 44.793-2.293 67.5 5.418-23.75 16.668-46.875 10.625-72.293 7.082 1.25 8.543 12.918 8.75 20.418 2.918-9.168 3.332-30.625-12.082-36.043-3.336-13.125-7.5-25.832-12.086-38.539-12.914-34.168 7.293-37.086-32.707-55.211-23.543-10.832-52.5-20-61.668-48.75-7.289 2.5-15 3.125-22.289 5z" fill="none" stroke="#221a15" stroke-width="1.0417"/>
    <path d="m541.88 692.29-1.457 1.25" fill="none" stroke="#221a15" stroke-width="1.0417"/>
    <path d="m501.04 716.67v5" fill="none" stroke="#221a15" stroke-width="1.0417"/>
    <path d="m464.17 728.12v3.543" fill="none" stroke="#221a15" stroke-width="1.0417"/>
    <path d="m521.04 757.08c3.125 8.336 3.125 21.25 5 26.461" fill="none" stroke="#221a15" stroke-width="1.0417"/>
    <path d="m738.75 815.21c-1.25-5.207-2.082-10.207-3.332-15.625" fill="none" stroke="#221a15" stroke-width="1.0417"/>
    <path d="m632.71 683.12c-5.832-8.125-13.332-13.957-18.957-22.5" fill="none" stroke="#221a15" stroke-width="1.0417"/>
   </g>
  </g>
 </g>
</svg>
