<?xml version="1.0" encoding="UTF-8"?>
<svg width="363.87" height="431.11" enable-background="new 0 0 363.869 431.109" viewBox="0 0 363.869 431.109" xmlns="http://www.w3.org/2000/svg">
 <path d="m311.08,216.08c.576,5.77.145,8.944-.724,7.067-1.007-2.018.58,19.043 2.311,26.108 1.153,3.896-4.471-6.921-2.021,1.153 2.597,8.078-2.163,1.589-.29,5.628 1.879,4.04-1.873,7.787.58,13.703 2.307,5.77-3.604-1.733-.868,3.459 2.599,5.196-1.297,2.165 0,5.917 1.156,3.751-1.872-1.297-.719,8.223 .864,6.633 4.759,10.96 2.741,9.663-2.022-1.44-1.444.433-.435,3.03 1.011,2.45-2.307-1.009-.432,2.594 1.875,3.752-1.732,6.205 3.893,21.637 1.012,2.887-3.026-.575-.721,3.031 2.454,3.463-.576,1.585 1.588,4.616s1.011,5.048 2.884,7.789c2.166,2.738-.145,3.172 2.742,5.337 2.885,2.161 5.336,3.751 7.935,3.751 2.737,0-2.455,1.873.721,1.585 3.173-.144 2.739,1.153 2.739,1.153s-4.186.288.722,1.157c4.903.721 4.903,2.306 4.617,3.17-.435.865 2.883,0 3.314,1.301 .435,1.441 5.194-.288 8.511,2.018 3.463,2.454 8.654,3.896 10.389,9.088 1.585,5.192 3.893,6.777 3.173,10.82s-2.597,1.153-2.741,4.467c-.144,3.464-2.166,2.887-2.166,2.887s-2.018-.288-3.316,2.021c-1.442,2.306-2.02-.721-3.315,2.594-1.156,3.175-3.319-1.729-4.184.146-.721,1.877-2.455.287-4.184,2.021-1.731,1.585-2.166-.864-4.327,1.153-2.166,2.018-2.309.432-4.616,0-2.163-.576-3.751,1.009-3.751,1.009s-6.347,4.615-13.991.864c-.722-.288 2.162,3.319-1.587,1.157-3.749-2.166.433,2.306-4.184.145-4.472-2.166-3.894,1.585-7.644-2.166-3.896-3.752-.867,1.733-4.328-1.297-3.318-3.031-6.059-5.772-7.07-4.616-1.007,1.152 1.3,4.039-1.007,1.297-2.165-2.594-1.444.864-3.319-1.297-1.873-2.165-3.172-.433-5.48-2.598-2.452-2.306-6.779,0-9.663-5.048-2.887-5.049-2.022,2.887-4.328-3.607-1.587,2.742-1.733,2.887-2.166-1.441-.576-4.472-2.449-2.449-2.449-2.449s-1.011-5.196-3.895-6.493c-2.887-1.44 0-3.03.431-6.062 .29-3.026-1.009,1.014-2.739,1.014s1.588-1.729.578-4.904c-1.444,2.018-2.598,1.873-2.598-2.165s-.721-6.922-2.021-5.48c-1.299,1.585-3.172,2.887-3.172,2.887s3.172-5.485 2.018-6.206 1.154-3.463-.288-5.192c-1.585-1.728-.864,3.752-3.463,3.607-2.45-.288 2.887-4.038 2.31-9.375-.432-5.192-.432,0-2.021,2.306-1.729,2.022.435-6.922-1.585-2.306-2.018,4.759.144-4.904-2.884,2.886-1.443,3.891-.723-9.235-4.904-.292-4.186,8.942-9.522,6.205-12.982,11.397-3.319,5.192-1.154-2.311-4.039,3.751-.578,1.441-1.587,4.183-1.587,4.183s.144.576.144,2.882c.145,2.454.865,3.031 1.875,3.896 .868,1.009 1.3,2.311.724,2.599 1.873,1.297 1.441,3.463 1.585,4.76 2.452,2.886 2.886,6.056 5.048,5.047 .723-.288 2.166,4.04 7.646,6.058 2.308.869 11.685,10.388 10.384,13.852 3.606,4.61 7.214,17.598 1.59,18.75-1.59.433-1.879,1.441-1.59,2.743s-1.586,2.306-3.026,3.745c-1.589,1.59-4.183.438-4.33,2.455-.288,2.017-4.472.288-5.626,1.873-1.153,1.445-2.306-1.585-2.306-1.585s.576,2.021-5.048,3.17c-5.771,1.302-10.243,2.599-10.821,1.302-.432-1.441-3.172.864-4.326-1.302-1.154-2.018-1.585,2.599-6.634,2.887-5.05.433-3.896-3.026-8.943-3.603-5.338-.726-9.954-2.742-8.654-1.014 1.297,1.59-3.751-2.161-3.896-.576-.145,2.887-2.308-3.75-3.319-1.873-.864,1.873-3.316-5.34-4.182-2.453-.721,2.021-1.731-1.729-2.885-2.594-1.299-.87.433,4.467-2.309-.149-2.597-4.472-1.729.149-4.038-3.314-2.163-3.606-3.174-.581-3.895-2.31-.865-1.874-6.779-1.441-8.511-7.066-1.587-5.772-1.298-1.877-3.028-6.061-1.588-4.327-4.04-5.769-5.626-6.777-1.73-1.012-1.876-2.166 1.73-1.445 3.75,1.014-4.761-2.738.434-1.729 5.192,1.009-.434-2.881-2.164-3.606-1.876-.576 5.338.577 1.441-1.729-3.895-2.022-5.48-3.464-1.441-3.175 4.038.432 1.298-1.297-1.3-2.45-2.451-1.157-1.586-2.887.723-2.599 2.308.433-1.011-2.018-3.462-3.029-2.596-.866-.722-5.049-3.75-5.48-.433,6.492-6.059,17.886-11.54,18.895-5.337.868-4.471,3.031-5.77,5.191-1.441,2.166-4.904,5.773-10.53,6.494-5.481.72-6.202,2.018-7.213,3.318-3.315,4.76-9.952,4.183-10.961,6.057-.866,2.161.865-4.039-3.029-.433-3.751,3.463-4.183-1.151-6.491,2.742-2.308,3.747-3.029-.581-5.914,1.297-2.741,1.874-4.472-2.31-5.337-.576-.866,1.873-2.02-.869-2.74,2.306-1.299-2.882-4.616-5.48-5.049-8.074-.288-2.741-1.299,2.449-2.452-1.589s-1.443-.433-2.741-3.17-7.212-9.093-7.645-5.053c-.576,4.039-.432-.289-4.038-4.04-3.751-3.745-6.491-7.641-6.925-5.191-.576,2.31-3.461-3.03-4.038-1.729-.721,1.44-6.203-5.63-7.068-8.224-.866-2.599-1.009-2.886-1.586-.433-.433,2.306-.578-2.597-2.454-5.768-1.873-3.175-2.884-5.053-3.028-3.606-.288,1.585-1.443-6.063-2.452-3.464-1.01,2.594-3.317-6.637-6.059-10.815-6.203-9.381-3.173-15.437-5.48-17.747-2.309-2.449 1.586-7.498-2.021-4.327-.72-6.633 2.164-11.393-1.586-22.214-1.01-3.318-3.028,0-3.028,0s2.451-9.663-.723-6.201c-3.316,3.607.578-6.2 2.597-9.375s2.02-4.903 3.318-10.389c2.451-11.104 6.779-12.401 3.317-12.257-3.606.144 7.211-6.205 2.164-6.057-5.049.14 3.895-2.31 6.346-4.909 2.597-2.737 11.396-6.199 15.002-10.239 1.299-1.585 5.049-2.886 5.049-2.886s0-2.162-1.443-1.874c-1.586.289.29-2.166 2.453-2.166s-1.298-1.874.866-3.751c2.164-1.729-2.021-1.008-2.021-1.008s.577-1.153 1.875-1.441c1.155-.432-3.461-1.008.29-2.166 3.75-1.296 1.442-2.162-.721-1.584s-3.029.144-.866-1.297c7.501-5.192 3.607-4.904 5.915-6.638 2.452-1.585 3.462-6.057.577-4.616-.288-.721 1.01-1.729 2.308-2.883h262.69z" fill="#fff2c7" fill-rule="evenodd" stroke="#000" stroke-linecap="round" stroke-linejoin="round" stroke-miterlimit="2.4142" stroke-width=".216"/>
 <path d="m48.41,216.08c1.01-.72 2.02-1.731 1.876-2.596-.721-2.596 2.884-3.319 2.019-5.482s2.308-3.175 1.731-4.616c-.721-1.297 3.605-3.028 2.307-5.482-1.298-2.596.145-.721 2.453-4.038 2.452-3.46 5.625-10.674 8.943-16.154 3.462-5.626 8.943-14.858 12.693-16.301 3.606-1.587-.578-2.02 2.309-3.175 2.884-1.297 5.769-4.614 2.884-4.327-2.884.434 1.876-1.297 4.616-6.489 2.884-5.194 3.895-9.231 7.069-12.406 3.316-3.319-2.454-.432.864-2.887 6.636-5.045-.143-2.45 3.607-4.901 3.75-2.596-1.587-2.308 3.75-5.192 5.193-2.886-3.461-1.155 3.318-4.474 6.781-3.172 1.153-3.896 5.047-4.471 3.752-.576.146-2.308 3.606-2.308 3.607,0 1.731-1.875 1.731-1.875s6.204-.865 2.02-2.02c-3.029-.865 9.808-.144 2.884-2.45 0-1.587 2.164-.29 4.039-2.31 2.453-2.884 6.204-2.164 6.059-4.037-.143-1.877 6.347-3.03 6.78-6.059 .289-3.028-2.164-2.311-.576-3.463 1.442-1.153.576-3.03-.578-1.875-1.298,1.155-2.163-3.751-2.742-2.02-.72,1.732-2.739-1.585-3.46-4.903-.577-3.319-.434-5.625-1.442-3.893-1.155-1.731-.867-4.906-2.019-2.455-.146-1.873-.146-2.884-.146-2.884s-1.586,2.02-2.019,2.02c-.577,0 1.731-5.626-1.875-8.51-3.461-2.74-.865-4.184-2.596-2.74 .721-2.164-.577-2.743 1.153-4.616 2.02-1.875-3.606-1.299-.145-2.886 3.606-1.441 4.328-3.028 1.875-2.45 0-1.299 2.02-1.587 4.039-1.878s1.875-1.009.434-1.153c-1.587-.144-.579-1.011 2.163-1.153 2.596-.146 4.616-1.01 2.452-1.587 .866-.867 5.626,1.441 3.895-.576s4.04,2.017 3.317.432c-.576-1.587 3.028-.146 3.896.576 .864.577 3.172-.864 4.903.289s1.298-1.297 3.029-.865c1.73.576 4.76-3.896 2.739-3.319-.143-1.009 4.904-3.319 1.588-3.173 0-1.443 4.038-2.019 2.597-3.606-1.587-1.587 3.174-1.587 3.028-3.028-.144-1.443 7.067-3.319 3.029-3.031 2.452-4.472 12.981-4.904 10.53-5.913-2.308-1.01 3.316-1.01 5.48-1.01s.866-2.02 4.328-1.588c3.604.291 5.192-1.008 5.05-2.161-.147-1.299 2.306,1.729 3.46-.723 1.299-2.596 1.155,1.876 5.194-2.017 2.161-2.166 1.873,1.008 6.777-3.897 2.886-2.74-1.009,4.184 4.471-1.873 1.444-1.588-.288,2.308 5.34-1.155 2.739-1.731 4.471,2.452 7.355.432 3.75-2.308 5.191-.721 3.029.288s6.346-2.019 3.75,0 2.308,0 5.338.577c3.028.723-1.152.435 2.74,1.878 3.894,1.585 5.192-1.011 7.787.72 2.455,1.732 3.176.577 4.616-.867 1.587-1.585 4.184-2.018 5.918-5.624 1.728-3.463 3.748-3.607 4.902-3.317s1.298-2.31 4.328-1.443c3.028.865 1.729-2.02 4.616-.144 2.161-1.731 7.064-2.164 9.23,1.009 2.163,3.028 1.873,3.175 3.172,3.461s-.575,1.299 1.588,3.177c1.875,1.873.145,1.009.145,4.037s0,3.46 1.009,3.895c-.865.865-7.212,19.762-1.585,32.312 5.624,12.692 3.46,83.372 11.827,84.671 0,1.299 1.011,3.461 4.038,7.355-.866,1.009-2.307.865 1.153,3.319 3.607,2.596-2.884.432 2.885,6.347-.864,1.297-2.738-1.587.723,4.181 3.315,5.627-4.616-3.462.722,7.502 2.451,4.904 2.306,7.355 2.594,11.539 .288,4.327 1.588,8.511-.288,6.059-2.163-2.308-1.009.72.434,4.616 1.299,3.895 2.886,9.807 3.174,13.126 .433,3.317-2.741-4.906-1.731,0 1.011,4.904 1.299,4.904 0,7.788-1.152,2.74.146,6.782.146,6.782s-1.734-4.33-.866,2.164c0,.577.144,1.009.144,1.297h-262.66z" fill="#fff2c7" fill-rule="evenodd" stroke="#000" stroke-linecap="round" stroke-linejoin="round" stroke-miterlimit="2.4142" stroke-width=".216"/>
 <path d="m49.419 216.08h260.79" fill="none" stroke="#fff2c7" stroke-linecap="round" stroke-linejoin="round" stroke-miterlimit="2.4142" stroke-width="1.944"/>
 <path d="m287.28,17.885s-1.729,3.028-.144,4.328c1.875,1.587.576,4.906.576,8.366 0,6.492 1.73,3.319.576,6.204-.864,2.308-1.009,3.749 0,5.336 .578.867 1.154,1.875 1.299,3.031 0,1.153-.145,2.019 1.155,2.74s5.624,3.028 6.057,7.211c.288,4.328 2.31,1.587 2.887,4.328 .576,3.028 3.751,3.607 3.751,8.799 0,.723 1.152.864 1.729,3.028 .72,3.318 3.175,3.318 1.587,4.327s-1.011,1.878-.289,3.028c.868,1.011.433.867-.578,1.445-1.152.577-1.152,1.153 0,2.596 2.455,2.596-1.585,1.153.433,2.882 .866.723 0,1.011-1.152,2.021-1.009.865-1.874,1.298-.289,2.885 .865.864-4.615,3.172-1.152,3.895 2.306.577 1.009,1.009-.145,2.308-3.03,3.317.865,1.729-1.733,5.336-1.873,2.596-2.45,3.895-.721,3.895 .578,0 1.443-.288.288.865-1.009,1.155-2.882,3.031-.144,2.454 2.454-.579 1.154.433.288,1.585-1.009,1.155-2.162,2.308-.721,4.33 1.442,1.874-1.729,1.15-1.729,5.911 0,1.445.288,2.886-1.011,4.474-1.299,1.731-.864,2.74-.291,4.183 1.158,2.884-2.449-.146-1.44,3.316-2.49-3.31-27.73-109.34-9.12-115.1z" fill="#c9c7a9" fill-rule="evenodd" stroke="#000" stroke-linecap="round" stroke-linejoin="round" stroke-miterlimit="2.4142" stroke-width=".216"/>
 <path d="m185.01,22.212c2.017.579 7.646,4.039 4.039,3.174-3.463-.723-4.76-.867-4.76-.291 .144,1.444 7.067,1.299 5.048,2.455-1.876,1.009-4.904.577-5.048,1.729-.288,1.155 7.5-.72 9.231.867 1.585,1.731-2.887.865-2.887,2.164s6.349-.577 7.214.864c.864,1.587.721,2.596-1.011,2.887s1.154,1.874-.576,2.738c-1.587.723-3.174,2.454.722,1.731 3.894-.577 6.489,2.743 3.317,2.454-3.173-.435-4.184.574-1.588,1.441 2.452.865 4.472,1.443 2.597,1.876s4.327,1.731.578,2.596c-3.751.72-4.472,1.587-2.454,2.307 2.311.723 6.635,3.463 4.039,3.174-2.451-.432-2.884.433-.72,1.299 2.163.865 2.307,2.164-.289,1.874-2.454-.288-1.587,1.731-3.03,2.02-1.297.289 1.731.577 3.463,2.02 1.731,1.587 5.048,2.884 2.163,2.452-2.884-.289-2.739.288-1.01,1.296s2.31,2.164 0,1.155-.289,1.876-2.306,1.299c-2.022-.432-3.175,0-.145,1.441 3.028,1.299 3.748,1.732 3.316,3.029-.435,1.154 4.325,3.462 1.152,2.454s-3.748-.144-3.027,1.155c.72,1.441.432,2.596-1.731,2.738-2.164.146-4.904,2.886-2.452,2.598 2.308-.144 2.452,2.308.144,2.162-2.306-.286-.721,4.906-3.75,3.751s2.886,4.042-.434,2.886c-3.318-1.154-5.623-1.587-3.75,0 2.742,2.308.432,1.731 1.59,3.173 1.297,1.443 2.306,1.443 2.882,3.606 .435,2.164.435,2.884 1.299,1.876 1.011-.867 1.299-1.299 1.154-2.598-.144-1.441-.576-3.028.721-1.441s2.887,1.008 2.021.432c-1.012-.579-1.444-2.308-1.3-3.175 0-.865 1.012-.286 2.742,1.587 1.585,1.875 1.874.435.865-1.009-.865-1.443-1.297-2.02.72-1.155 2.022,1.011 3.464.723 3.464.723s-2.455-1.587-1.156-1.876c1.444-.144 2.741,1.443 3.897,1.153 1.297-.288-.146,4.904.864,4.186s1.587,1.73.433,4.616c-1.154,2.882-1.154,4.328-.433,6.924 .578,2.449-1.875,2.305-1.875,6.779 0,4.328.576,3.028.576,3.028s1.299.144.289,1.731c-1.011,1.731.867.432 0,2.308-.865,1.729 1.876-1.443 1.01,1.729-.864,3.175-.143,3.896 1.153,4.618s1.876,1.587 1.297,4.037c-.433,2.311.724,4.328 1.445,5.339 .577,1.009.288-.432.288-2.596 0-2.31 2.45-2.452 1.586-4.906-.721-2.596-1.441-9.808-2.162-8.943-1.878,2.452.576-3.46-.434-2.164s-.433-2.596-1.011-2.308c-.722.435-.576-1.297.578-2.306 1.299-1.011.721-3.174.721-3.174s1.587,1.009 1.442,3.174c-.288,2.164 1.585,2.306 1.153,3.605-.577,1.155-.288,2.452.432,1.587 .721-.723 1.587,0 1.012,2.163-.434,1.874-.144,4.904.721,5.625 .866.723 3.895,3.03 2.308,3.75-1.441.721 4.184-.578 3.03,1.009-1.152,1.443 4.471.577 2.308,2.455-1.875,1.873-1.587,3.749-1.587,3.749s2.02-3.317 2.886-2.018c.864,1.297-.723,1.729-1.299,2.737 1.731-.286 3.749-2.306 4.325-.286 .291,1.441-4.903,3.172-5.479,4.181-.433,1.299 12.262-3.316 14.857-3.461 2.452-.144-5.191.289-3.893-2.02s2.882,0 4.036-1.731c1.156-1.585-1.299-1.443-1.442-3.317-.145-1.877.72-1.731.72-1.731s-3.173-.865-2.161-2.019c1.009-1.155 2.596-2.164.721-1.876-1.873.435.288-1.299-.864-2.308-1.156-1.009.288-3.173-.289-5.192-.72-2.022-.432-2.599.289-1.876s1.44-1.297-.868-2.31c-2.163-1.009-2.019-3.893-1.154-4.181 .866-.435 1.445-1.011-.145-1.732-1.729-.72-2.306-3.749-1.152-5.047s.144-1.875-1.441-.288c-1.442,1.441-1.442.864-.866-1.443 .433-2.164 2.596-3.895.866-3.463-1.587.433-2.599,3.031-2.454,1.155 .145-1.875 1.734-3.03 2.454-3.751 .865-.576 2.738-2.74 0-1.585-2.599,1.153-1.733.432-1.154-.723 .721-1.155.435-2.164 2.02-2.885 1.729-.576 1.009-2.308 1.009-2.308s4.327-5.192 2.742-6.923c-1.59-1.587 1.873-5.338 2.449-6.347 .723-1.011-2.017,1.009-3.461,2.452-1.442,1.585.436-2.884.436-2.884s-1.587,2.164-3.463,3.172c-1.876.865 1.152-3.463 1.152-3.463s-2.596,1.587-1.297-1.152-1.731.864-3.607,2.74c-1.73,1.875-3.029,1.155-2.308-.433 .723-1.443.288-5.771-.576-4.039-.723,1.875-1.587,3.03-1.73.146-.145-2.742-.865.865-2.455,2.162-1.44,1.155-2.306-3.606-.721-6.488 1.446-2.886-1.297-.147-2.594,1.008-1.3,1.297 1.441-4.615 2.74-6.491 1.152-1.876-2.308.288-3.75,1.875-1.588,1.443.288-2.74 1.73-4.472 1.297-1.587-4.904,4.327-1.587-.433 3.46-4.759-2.452.433 0-2.887 2.596-3.318-2.452.145-3.317,1.299-.866,1.155-.866-2.454 1.441-5.336 2.451-2.887.433-2.454-.576-1.299-1.009,1.153-1.731-.579-.433-2.451 1.441-1.732 3.319-1.588 4.904-3.175 1.729-1.441 5.769-4.904 8.078-5.047s1.729-1.443-.578-.865c-2.452.721-3.749,1.009-3.749,1.009s1.441-2.596 4.039-3.607c2.449-1.008-3.751,0-4.471,1.299-.58,1.299.144-1.875 1.152-2.452 2.02-1.587 10.239-1.155 7.357-.288-2.887.865-3.03,1.441-.866,1.441s2.739.289 1.299,2.167c-1.299,1.873-1.443,5.478.576,3.46s14.135-3.316 13.414-6.491-8.798-6.059-12.262-7.791c-3.606-1.585-3.751-3.751-5.769-3.028s-5.482.432-7.646,2.596-1.585-.433 0-1.874c1.443-1.587 4.472-3.609 5.915-3.751 1.587-.144-1.875-.867-3.752.433-1.875,1.155-5.771,3.318-3.893.576 1.874-2.74 4.473-4.904 2.018-3.316-2.449,1.441-4.76,4.037-4.615,2.45 .288-1.441-4.473,2.598-3.319-.865 1.157-3.316 4.039-6.779 6.638-7.644 2.452-.867 4.04-2.598 4.04-2.598s-1.012.146-2.311-.577-2.161-1.009-3.75-.142c-1.442,1.009-3.46,1.874-4.326.865-.436-.579-4.33,4.903-4.33,2.164 .146-2.164-2.161,3.029-5.769,2.74-1.729,0-3.606,3.751-5.769,2.452-1.299-.865-.576,2.596-3.75,1.155-.866-.288-.433-.432-1.009.72-.433,1.153-2.599,1.443-4.328,1.443-1.13.005-2.28-.718-3.58,1.157z" fill="#f1e6bd" fill-rule="evenodd" stroke="#f6eac0" stroke-linecap="round" stroke-linejoin="round" stroke-miterlimit="2.4142" stroke-width=".432"/>
 <path d="m220.93,145.97c-1.009,2.887 1.011,5.627 2.02,6.924 1.155,1.443 5.914,6.347 8.076,7.355 1.3.579 5.626,1.155 5.773,2.164 .864,3.75 2.594,1.154 2.449.29 0-1.299 1.734-2.308 2.887-3.028 3.318-2.311 2.884-3.896 3.895-6.348 1.009-2.598 2.594-5.194 2.594-7.646-.144-2.452-.576-5.05-6.488-5.625-5.92-.56-19.77,1.9-21.21,5.93z" fill="#778487" fill-rule="evenodd" stroke="#afb49e" stroke-linecap="round" stroke-linejoin="round" stroke-miterlimit="2.4142" stroke-width=".432"/>
 <path d="m238.67,159.39c.433-.432 1.011-.432 2.451-1.008 4.04-1.876 3.319-6.203 5.194-8.367 1.297-1.443 1.297-3.605-.144-5.769-2.455-3.75-20.916-.866-23.225,2.45-1.731,2.599.579,5.771 2.309,6.348 2.307.865 2.886,1.731 5.768,4.474 1.445,1.297 3.896,2.164 5.626,2.306 .291.866.436,1.587.579,3.174 .289,2.452.145,2.74-2.019,3.605-2.597,1.011-5.628.576-7.501,1.731-1.877,1.155-6.493-.144-8.802-1.155-2.019-.718-.431,2.164 1.588,2.455 1.009.288 6.779,1.296 11.542.576 4.612-.576 11.104-2.74 14.999-4.039 3.896-1.155 6.925-5.625 7.503-6.779 .72-1.155-1.014-.864-2.167.145-5.336,4.906-8.655,4.762-10.527,4.906-2.022.288-2.311-.144-2.599-1.443-.28-1.31-.72-3.05-.57-3.62z" fill="#0a0f0f" fill-rule="evenodd" stroke="#3e4f53" stroke-linecap="round" stroke-linejoin="round" stroke-miterlimit="2.4142" stroke-width=".432"/>
 <path d="m231.31,139.63c1.73-.432.866-4.903 2.02-4.903 2.595-.288 3.027,4.039 5.769,4.471 6.637.723 9.23,2.596 8.798,6.491-.288,3.751-3.46,4.184-5.047,3.175-1.732-1.011-3.319.286-2.741,1.873s.577,6.923-3.604,7.5c-4.186.435-5.485-5.192-6.206-7.209-.576-2.164-5.335,2.45-7.79-.579-2.449-2.884-1.152-5.336.435-6.491 1.74-1.44 4.77-3.31 8.37-4.32z" fill="#0a0f0f" fill-rule="evenodd"/>
 <g fill-rule="evenodd">
  <path d="m223.09,144.1c1.732-1.299 4.761-3.317 8.367-4.328 1.731-.432.865-4.759 1.876-4.759 2.449-.288 2.885,3.895 5.48,4.183 6.202.867 9.374,2.596 8.942,6.201-.288,3.75-3.172,4.185-4.903,3.174s-3.463-.288-3.173,1.443c.432,1.875.864,6.779-2.884,7.644-2.166.577-4.04-.72-4.76-3.172-.579-1.587-1.014-3.174-1.446-4.039-.288-1.009-1.44-.721-2.882,0-2.021,1.011-4.038,1.297-5.196-.288-2.03-2.58-1.02-4.89.57-6.04z" fill="#172022"/>
  <path d="m223.09,144.1c1.732-1.153 4.906-3.173 8.512-4.182 1.731-.579.866-4.615 1.875-4.762 2.306-.144 2.741,3.895 5.048,4.183 5.77.723 9.52,2.31 9.087,5.915s-2.739,4.184-4.614,3.029c-1.877-1.009-3.752-.721-3.752,1.155 0,2.02 1.011,6.633-2.018,7.644-2.019,1.011-4.184,0-5.048-2.884-.435-1.731-.866-3.319-1.302-4.327-.432-1.155-1.585-1.009-3.027-.145-2.308,1.585-4.325,1.585-5.339.145-1.74-2.3-1.02-4.46.57-5.76z" fill="#2b383b"/>
  <path d="m223.24,144.24c1.585-1.154 5.047-3.03 8.508-4.183 1.876-.576.867-4.474 1.731-4.618 2.163-.142 2.596,3.751 4.76,4.042 5.192.576 9.663,2.164 9.231,5.624-.577,3.317-2.452,4.037-4.327,3.028-2.021-1.155-4.039-1.443-4.184.577-.288,2.31 1.154,6.638-1.44,7.935-1.734,1.152-4.328.576-5.049-2.885-.432-1.731-.866-3.462-1.299-4.471-.579-1.155-1.731-1.155-3.173-.146-2.598,2.164-4.618,1.878-5.484.435-1.31-2.02-1.02-4.04.72-5.34z" fill="#415053"/>
  <path d="m223.38,144.39c1.444-1.153 5.051-3.029 8.512-4.184 1.875-.718.723-4.327 1.731-4.47 1.873-.146 2.451,3.605 4.327,3.751 4.616.718 9.663,2.164 9.231,5.336-.433,3.316-2.02,4.039-4.039,2.884-2.021-1.155-4.184-1.731-4.616.432-.576,2.455 1.297,6.491-.72,7.932-1.444,1.587-4.472,1.446-5.049-2.596-.288-1.873-.72-3.749-1.299-4.76-.723-1.297-1.876-1.441-3.316-.288-2.886,2.743-4.903,2.166-5.629.867-1-1.58-1-3.6.88-4.9z" fill="#5b6a6d"/>
 </g>
 <path d="m222.51,149c-.574-1.299-.864-3.174 1.014-4.474 1.441-1.153 5.191-3.028 8.511-4.181 1.873-.723.72-4.183 1.585-4.327 1.873-.289 2.451,3.462 4.039,3.604 4.184.723 9.808,1.876 9.375,5.05-.576,3.172-1.731,4.037-3.75,2.884-2.018-1.299-4.616-2.452-5.192-.144-.865,2.74 1.44,6.347.144,8.22-1.44,1.878-4.615,2.02-5.192-2.596-.432-4.472-2.166-7.789-4.76-5.192-3.18,3.33-5.2,2.32-5.78,1.16z" fill="#778487" fill-rule="evenodd"/>
 <path d="m226.7,144.39c-1.875,1.009-4.472,2.307-2.739,3.895 1.297,1.299 3.46-1.588 4.614-2.452 1.585-1.153 3.464-.867 5.625-1.299 2.311-.577 3.896-1.009 6.059-.721 3.173.434 4.904,2.02 5.194,1.585 .721-.865-2.598-3.029-5.194-3.029-2.74,0-8.37-.72-13.56,2.02z" fill="#b5bbbd" fill-rule="evenodd" stroke="#96a0a2" stroke-linecap="round" stroke-linejoin="round" stroke-miterlimit="2.4142" stroke-width=".432"/>
 <path d="m283.1,9.807c-1.297-2.596-2.451-5.769-4.184-5.192-1.729.432-2.018.432-3.172,0-1.154-.577-2.74,0-4.906,1.587-2.161,1.731-5.769,2.163-6.777,3.895-1.009,1.873-.288,2.884-2.311,3.316-2.016.577-2.884,2.596-5.19,1.875-2.453-.576-2.165-1.298-3.605-.144-1.31,1.156-3.33-.144-3.33-.144s-1.3,1.153-.288,1.875 3.316,2.452.144,2.306c-3.173-.142-3.604.867-.723,2.022 2.887,1.153 1.878,2.74 1.878,2.74s-3.752-2.308-4.328-.721c-.722,1.731-1.011,2.452-3.75,1.873-6.204-1.152-7.503,1.011-7.503,1.011s12.55,6.203 15.725,9.808c3.174,3.463 15,10.821 19.184,5.915 4.19-5.191 14-27.117 13.14-32.022z" fill="#eadfb7" fill-rule="evenodd" stroke="#f4e8bf" stroke-linecap="round" stroke-linejoin="round" stroke-miterlimit="2.4142" stroke-width=".432"/>
 <path d="m296.8,134.87c0,3.172 0,1.587-2.738,3.172-2.741,1.446-6.205,3.319-4.186,4.184 2.021.723-6.059,4.186-3.893,3.607 2.161-.435-1.3,2.452-4.039,2.019-4.328-.432-14.857,9.808-18.609,11.251-3.894,1.587-4.612-1.299-1.876-5.769 2.599-4.618 24.236-59.141 13.994-81.787 .144-2.02-2.74-2.742-3.461-5.192-.723-2.599-.146-2.454 3.026-.291 3.174,1.875 6.061,1.731 6.061,1.731s-2.742-1.155-2.742-2.454c0-1.44 1.297.435 3.03.723 1.874.144.433-2.596 2.45-.576s1.878-1.732 4.472.72c2.742,2.308 1.299-1.441.146-3.028-1.01-1.731-2.451-3.607-1.442-3.751s.433-1.585-2.163-4.759c-2.741-3.173-1.156-4.328-2.165-5.195-1.008-.865-.864-2.019-.864-2.019s-2.742-.287-3.751-3.029c-1.009-2.596-1.584-1.875-3.462-1.585-1.874.144-.865-3.75-1.874-5.338-1.012-1.441-2.599-2.164-2.599-2.164s2.311-.577.579-2.308-1.155-2.452.142-2.74 1.011,1.875 3.319-.434c2.451-2.45 1.587-3.316 1.299-5.768-.578-3.175 2.02-3.607 2.451-5.048 .721-2.164-2.739-2.308-.576-3.896 2.306-1.443.864-3.75-1.587-2.884-2.596,1.009-3.749,3.749-4.184.865-.576-2.887-1.587-1.441-3.316-.144-1.587,1.299-3.175,1.299-1.878-.145 1.157-1.443.867-3.749 3.031-3.749 1.875,0 3.175.574 3.606-1.014 .577-1.44 2.018,1.587 3.03,0 1.009-1.44 2.594-.432 3.894.435 1.299.721 4.181.289 3.893,2.308s1.878,3.031 1.878,4.76c0,1.587 1.729,1.587 1.729,1.587-7.35,12.695 7.22,115.98 9.38,117.71z" fill="#c9c7a9" fill-rule="evenodd"/>
 <path d="m253.67,156.07c2.741,1.011 4.904,2.455 8.076-4.759 3.176-7.211 21.062-58.418 15.581-74.573-4.038-12.406 7.355-4.474 10.961-5.192 2.454-.578 5.772-6.205-1.441-18.03-3.751-6.061-5.914-9.234-8.078-10.531-1.153-.576-4.903-9.377-9.808-12.55-2.741-1.875-2.454.867-3.463.433-1.441-.577-3.028-2.452-3.464-1.588-1.585,2.741-6.776-2.305-7.932-2.02-.433.146 3.461,3.751 1.3,4.042s2.308,3.314 3.319,3.314c3.46-.432 5.191,6.494 3.024,5.771-1.439-.433 4.328,8.078 4.184,9.086-.72,5.915 1.444,13.994 2.311,17.313 1.585,5.191-4.616,37.501-7.791,46.444-3.32,8.94-6.78,42.84-6.78,42.84z" fill="#dfd5af" fill-rule="evenodd"/>
 <path d="m224.1,369.12c.433,2.453 0,2.599.576,3.462 .577.578 1.731,2.019 2.452,3.464 .866,2.017 2.308,1.585 3.027,1.297s.577.432 1.588,1.585c1.155,1.302 2.74,3.03 4.763,3.896 2.161.869 3.172,1.445 4.903,3.175s-6.062-3.175-13.127-2.887-9.087,1.59-5.772,3.03c3.463,1.297 1.734,1.297-5.624.721-7.5-.721-9.087.576-7.788,2.598s-.29,2.306-4.04,1.73c-3.75-.721-14.856-2.306-14.135,0s-5.338-1.009-5.05,1.732c.288,2.594-6.635,1.585-7.212-.724-.721-2.306-.288-14.856-1.73-11.105-2.597,7.357-3.029-1.009-3.751-8.366-.288-4.184-2.886,2.306-2.886,2.306s.578-9.083-2.162-5.769c-2.597,3.463-.288-4.04-.577-7.354-.288-3.318-3.029,0-3.029,0s3.318-5.34 4.617-11.108c1.441-5.769-7.069,3.751 0-12.838 7.067-16.445-2.598-5.048-2.598-5.048s3.028-17.166-.433-9.663c-3.316,7.353-1.298-10.529-3.606-6.494s-3.028-1.585-.722-7.642c2.453-6.062 3.318-12.839.289-13.127 3.75-4.764 6.491-13.847 2.452-10.532-4.039,3.463-3.317-.288-.288-5.624s20.915-14.567 17.02-15.144c-3.894-.721-5.625,2.305-5.625,2.305s2.021-8.078 6.49-11.393c4.763-3.318 4.472-9.088 1.733-6.35-2.599,2.599 0-7.79-3.896-4.183-4.037,3.751-1.009-2.882 1.298-6.633s6.059-15.869 10.966-20.485c5.191-4.617-1.014-6.634-3.319-2.595-.72-5.771 6.346-9.087 7.356-14.137 1.154-5.048-3.316-1.297-3.316-1.297s-3.031-7.791-7.791-6.491c-4.472,1.44-5.914,3.749-5.914,3.749s1.442-5.768 4.617-8.655c3.46-3.028-2.311-2.164-2.311-2.164s5.34-4.903 3.607-7.644c-1.587-2.739 17.887-1.442 25.676-1.442 7.646,0 35.917,1.442 45.005-8.653s13.99-14.426 24.377-21.928c10.53-7.355 14.137-8.655 14.137-8.655-.144,1.731-1.154,3.463-2.886,4.907-1.588,1.585-1.297,2.595 0,2.884 1.441.432-3.319,1.297 0,1.875 3.462.721-3.463,1.009-1.009,2.02 2.594,1.009-5.192,1.009-2.454,2.596 2.742,1.443 6.349,4.183 3.607,3.749-4.472-.576.719,2.311-1.297,1.878-2.022-.291 3.75,1.732 5.911,3.317 2.165,1.443 0,.576 1.3,3.174 1.443,2.452.285,2.02-1.731.574-2.02-1.297.576,4.041-1.153,2.887-1.589-1.155 9.376,5.771 9.088,12.115-.433,6.347 1.297,11.83-.721,9.378-2.021-2.308-3.03.433-1.445,3.028 1.733,2.742 2.454,8.511 2.454,8.511s-1.443-2.02-4.76-3.463c-3.319-1.297 1.009,2.02 2.306,6.059 1.445,4.04-1.585.433-3.316,1.443-1.588,1.009 2.308,5.336 2.308,8.365 0,2.887 1.009,7.936 1.009,18.751 0,10.677 6.782,24.236 3.463,21.494-3.463-2.738-4.76.721-1.297,8.078 3.319,7.354 1.873,10.384 1.873,10.384s-4.615-8.073-4.615-2.594c0,5.337 3.318,6.346 2.021,13.703-1.445,7.502.721,0-2.021-1.733-2.74-1.585-2.45,1.013-.721,7.502 1.73,6.35-2.74-.433-1.009,5.336s0,3.463.433,8.078c.288,4.76 5.336,3.031 2.307,7.79-3.027,4.616 0,10.385 2.021,14.423s-1.443,8.079 2.306,9.809c3.75,1.59-5.336,3.031-.721,7.357 4.759,4.328 6.926,0 10.387,2.743 3.316,2.594-1.155,4.034 4.038,5.48 5.051,1.585 10.819,2.599 14.137,3.318 4.185,1.009 6.347,3.026-2.453,2.45-8.654-.721-6.201,3.895-10.96,4.183-4.617.288-6.926,3.03-3.607,3.03s-.288,1.729-6.782,1.297c-6.344-.288-8.798,1.734-7.064,3.752s-5.338,2.021-3.318,3.318c2.019,1.441-5.48-.288-3.752,6.345 1.732,6.782-3.027,1.878-1.729,4.327 1.44,2.311 1.009,4.616 1.009,4.616s-4.472,1.729-3.606,4.616c-1.153-1.73-1.729-2.018-2.453-1.442-1.009.864-1.009-1.585-4.039-1.877-3.028-.283-1.731-1.873-6.059-2.594-4.181-.576-5.336-2.166-6.345-3.751-1.009-1.729-1.731-2.45-2.599-1.441-.72,1.152-1.296-1.441-1.873-2.311-.721.288-1.299,3.031-1.587,1.009-.435-2.018-.435-6.489-2.74-4.899-.867-3.462-2.02-5.34-4.04-6.349-1.873-.864-.576-2.454-.143-3.175 1.009-1.873 1.151-5.192 0-4.04-1.009,1.158-1.73,2.167-2.165,1.879-.29,0 1.877-2.311.435-4.761-.866.865-1.732,2.162-2.021-1.444s-.288-6.634-1.729-6.922c-1.014-.144-1.014.288-1.734.721 1.011-1.585 1.878-2.449.578-3.319-.866-.864 1.156-3.605-.578-5.48-.721-.719-1.152-.431-1.297-.431 0,0-.721.431-.288-.576 .721-1.154 1.009-.87.576-4.184-.288-3.319-1.44-3.031-1.729-2.022-.289,1.157-.146,1.157-.723,1.733-.579.289-.291-1.878-1.012-1.733-.721,0-.864.576-1.297,1.157-.145.288-.576-.725-1.152-.288-.867.721-1.443,1.153-1.589.864-.578-.576-1.009-1.157-2.162-1.009-1.3.145-2.021,2.595-2.887,4.035-.576,1.446-2.018,4.328-6.777,6.493-4.76,2.161-5.05,2.594-6.204,4.039-1.009,1.441-1.297,1.729-1.729,1.009-.288-.576-1.009.145-1.444.865-.432.725-1.152,3.175-2.019,5.048-.288.576-.577,1.444-.721,1.732 .576,2.306-1.009,4.761.576,6.201 .864.721 2.451,2.594 1.153,2.887 .52.4 1.82,1.84 1.96,2.27z" fill="#dfd5af" fill-rule="evenodd" stroke="#efe4bb" stroke-linecap="round" stroke-linejoin="round" stroke-miterlimit="2.4142" stroke-width=".432"/>
 <path d="m249.49,325.85s7.068-7.643 7.068-12.69c.576,6.057-2.453,11.682-2.453,11.682s5.482-5.337 6.492-13.127c1.008-7.646 2.308,6.493 3.318-2.306 1.009-8.655 4.327,4.039 4.76,9.087 .288,5.049 2.451-2.31 1.297-8.799-1.153-6.345 1.587-1.009 2.021,1.729 .577,2.742 1.441-1.298.721-3.463-.721-2.306 2.018,3.463 1.585,7.214 1.299-6.926 1.443-10.961.433-13.991s2.021-1.153 2.886,1.44c.721,2.743 1.729.865.433-3.025-1.153-3.896 3.03,2.737 3.175,6.777 .144,4.039 1.297-6.201 0-9.808-1.155-3.464 2.449-2.167 0-7.07-2.311-4.76 2.739-1.729 4.039,1.445 1.441,3.17 1.585-2.598-.146-4.908-1.588-2.306 2.596.726 4.038,3.463 1.588,2.887 1.732-2.161.147-4.327-1.446-2.161 1.873.725-.147-2.161s-1.73-5.917 0-3.752c1.732,2.162 4.76,7.503 4.04,1.878-.578-5.628-2.452-7.214-3.607-9.235-1.299-2.018.579-1.297 2.021.432 1.587,1.879 2.019-.72.576-2.449-1.297-1.734 1.877.288 2.741,1.873 .865,1.441 0-3.891-3.605-7.064-3.464-3.176-3.464-5.049-2.018-4.904 1.585.139-2.455-2.887-.436-2.166 2.021.576 5.771,2.305 7.067,4.472 1.153,2.31 1.441-1.729-.432-4.761-1.731-3.029-2.164-5.047-.289-3.895 1.874,1.157 5.049,4.184 2.021-1.008s-2.885-6.058.721-4.473c3.46,1.729-.867-2.454-3.749-3.462-2.886-1.009-6.781-3.751-6.493-6.056 .144-2.311 3.463-.726 3.463-.726s-5.192-4.76-2.309-4.467c2.741.288 4.328,1.441 4.328,1.441s.72-2.599-1.875-3.174c-2.453-.577 2.019-2.883-2.886-2.162-4.762.721-5.193-1.589-6.778.576-1.731,1.874.864,4.184.864,4.184s-3.607-.432-4.904-1.734c-1.442-1.441-1.151.721 1.009,2.743 2.166,2.018.433,3.174-1.297,2.162-1.587-1.009-1.875-.432.288,1.301s-.288,3.175-.288,3.175-2.163.432-.576,2.882c1.44,2.598.864,2.742-1.733,1.586-2.449-1.298-3.317,1.012-3.317,1.012s1.012,2.162-2.307,1.153c1.44,1.446 3.751,2.161 3.751,2.161s-2.887,3.176-5.915,1.879c.723,2.017 3.895,2.305 3.895,2.305s-3.172,1.59-5.338,1.59c-2.162,0 .288,1.873 2.742,2.305 2.306.289-3.896.145-5.48,2.311-1.445,2.307 2.738-1.152 4.182,1.586-2.74.721-4.327,1.445-4.903,4.039-.724,2.449.144,6.061-1.156,5.048-1.151-1.009-2.448-.433-3.316,1.301s-1.875-.148-1.875-.148 .288,6.062-.721,3.175c-1.155-2.882-2.02,5.336-2.308,2.454-.146-2.886-1.155,6.488-2.308,2.306-1.155-4.184.144,3.319-2.022,7.069-2.161,3.607-1.873,7.358-1.873,7.358s-1.443-4.184-1.443,2.018c0,6.205-1.875,5.336-1.875,5.336s.145,3.607-3.028,4.904-2.164,7.069-2.164,7.069 1.585-5.336 1.153,1.441c-.433,6.926 2.166-2.162 2.166,1.733 0,3.891-.867,12.978-3.031,15.144s.289,5.048-.72,8.222c1.009-1.297 1.729-2.594 2.017-3.605 .435-.865 1.59-2.599 2.455-2.599 1.152,0 1.585,3.03 2.018,3.03 .29.145.866-2.737 1.877-2.737 .576,0 .576.864.72.864 .145.145.721-1.873 1.441-1.873 .579,0 .145,2.449.579,2.737 .433.145 1.009-1.729 1.299-2.598 .145-.865.721-1.153.864,0 .289,1.59.721,3.606-.72,6.492-1.302,2.738-2.455,3.896-1.878,4.184 .435.433 1.443.145 1.878-1.009 .432-1.157.576-2.597 1.297-2.597s1.299,1.007 1.152,2.16c0,1.733-.864,2.887-.144,3.319 .578.432.29,2.31-1.729,5.773 .864-.726 2.308-1.879 2.739-2.455 .58-.721 1.3-.288 1.588.433 .865,2.166.433,6.781.865,7.79 .433.72.721,1.297 2.165-.577-1.013-1.732-.866-3.75-.146-4.907 .579-1.297-1.299-2.594.579-6.346 1.873-3.894 1.009-10.095 1.009-10.095s-1.3,5.623-1.732,2.594c-.435-2.882.145-2.882.145-2.882s-1.876,5.335-2.308,1.729 .144-5.336.144-5.336-2.454,4.616-2.309-.721c.145-5.485-2.019,5.913-3.172-1.009-.144-1.157-.866,2.018-1.299-.864-.435-2.887-1.012-3.319-1.012-3.319s.85.02 1.29-.7z" fill="#bcb99e" fill-rule="evenodd"/>
 <path d="m214.44,301.04c-.578-7.357-1.011-15.58 0-12.55s2.45-10.965 2.45-7.354c0,3.746 2.019.716 1.3-5.773-.724-6.349 3.027-9.374 3.027-9.374s.723,1.729.288-6.346c-.288-8.078 3.031-7.79 3.464-3.751 .288,4.034-10.097-31.882-5.48-24.523 4.76,7.357 5.48,2.742 5.48-4.04s.72-13.992 5.335-10.816c2.742,2.161-6.488-15.435-7.355-9.955-1.009,5.771-2.452,2.454-3.028-2.308-.721-4.759-2.021,2.022-3.463-1.297-1.297-3.462 4.76-1.731 4.039-5.771-.576-4.039 2.743,2.743 6.058,4.33 3.462,1.729 2.021,2.017.29-2.598-1.587-4.759 2.451,1.011 4.76,2.598 2.451,1.729-1.3-2.021-1.3-4.33s3.751,1.443 5.771,1.443 6.635-10.819 6.635-10.819 4.04,3.031 8.367,4.616c4.473,1.732 6.779,2.452 7.5,0 .724-2.308 3.752-.288 3.316,2.452-.288,2.596 2.742.291 2.022-3.75-.579-4.038 4.039-4.328 4.039-2.018s3.316,3.316 3.316-.579c0-4.183 5.482-1.153 2.164,3.895-3.463,5.048-4.472,9.089-8.079,12.838-3.751,3.751 1.009-8.655-3.463-.721-1.729,3.028-5.047,5.769-4.037-1.011 1.009-6.635-1.587,3.461-4.329,6.492s0,4.327-2.018,7.212c-2.02,3.031 3.319,3.607 1.297,7.358s.435,5.047 2.022.72c1.729-4.471 4.472,4.039 3.462,6.057-1.156,2.021-6.493,12.405-3.03,7.79 3.316-4.759 3.316,0 1.586,3.031-1.586,2.882-4.616,10.672-2.018,7.065 2.737-3.75-3.031,5.913-5.627,8.943-2.74,3.031-.435,3.463 3.028,1.445 3.319-2.021 4.039-5.34 4.039-5.34s-.72,5.34-3.028,8.366c-2.452,3.03-.723,6.345.286,5.048s4.039-5.768 4.039-5.768 1.734,3.03-1.297,7.064c-3.028,4.044 4.328-2.018 4.328-2.018s7.067-6.057 3.606,1.302c-3.319,7.498-23.657,67.506-24.956,70.103-1.009,2.018-2.885,5.044-6.633,6.058-3.752,1.152-12.406,4.034-12.55-5.917 0-9.952-3.752-12.113-4.904-16.44-1.154-4.472-1.587-9.524-2.311-5.48-.864,4.035-2.018-.437-1.009-3.896 1.009-3.318 1.732-4.184 1.154-9.523-.72-5.33 1.3-5.04 1.45-2.15z" fill="#c9bda6" fill-rule="evenodd"/>
 <path d="m269.68,113.09c1.875,3.172 1.442-3.751 1.73-6.347 .288-1.874 2.021-3.029.721-8.511 3.897,3.751.291-3.46.291-5.191 .145-2.596 3.028,4.759 1.873-5.481 2.167,2.308 3.03-2.163 1.733-4.903 1.297.286.434-1.443-.578-5.192 1.012-.867-2.308-9.522-2.308-9.522 1.729,1.587 2.308,1.876 2.02,3.029-.146,1.297-.146,2.019 2.596,2.596 2.597.435 2.885,1.875 3.173,2.884s-4.902-.142-1.3,1.013c3.463,1.15.724,2.449 4.039,3.749 3.175,1.443-3.604-.288.433,2.452 4.906,3.174-.288,2.02 1.012,3.46 1.442,1.588 2.596,3.751.146,3.03-2.31-.576.142,1.153 1.874,4.472 1.73,3.172-2.599-1.297-.433,1.875 3.03,4.472-2.599,0-.145,4.04 1.009,1.875-1.155,1.153-.288,4.327 1.729,5.48-1.442.286-.867,2.596 1.588,5.048-1.441,2.308-.433,4.903 1.012,2.743-1.299.721-.866,3.175 .433,2.596 1.157,6.633.146,6.923-1.01.432 1.012,3.893-.434,1.873-1.585-2.019-1.297-.288-1.585,2.311-.145,2.74-1.875-.867-1.875,2.017 0,2.886-2.597,1.443-3.029,3.895-.288,2.596-.723,7.935-1.731,4.471-1.01-3.606-1.01.289-1.73,2.596-1.441,5.05-1.153-.864-2.741,4.472-.866,3.174-1.73,0-3.027,4.039-1.155,3.896-2.167.867-3.319,3.319-1.153,2.307-2.596,4.471-3.75,5.48-1.009,1.011 1.154.864 3.174-.867 2.306-1.585 4.327-.286 4.327-2.163 0-1.874 2.164-1.585 3.604-1.874 1.588-.144-1.587-.576 1.012-2.02 2.739-1.299 2.451-2.886 0-1.587-2.311,1.299-.433-.865 1.585-2.018 2.021-1.155-1.873-1.155.288-2.886 2.165-1.731.146-1.299 2.021-3.028 1.873-1.731 2.594-2.455 2.594-4.183s.579-1.299 2.022-1.155c1.297.146 2.449,1.155 4.472-.432 2.017-1.443 4.327-2.599 2.307-.577-1.875,2.02-.146,2.308 1.3,1.155 1.297-1.155 3.461-2.887 3.461-2.022s-.146,2.308-1.731,2.596c-1.44.435.721,2.454-1.876,3.75-2.74,1.443-4.325,3.319-2.884,3.173 1.297-.142 2.02.579-.864,1.731-2.887,1.155-2.887,2.886-1.877,2.596 1.009-.433.866.434-1.299,1.443-2.307,1.011-2.451,2.454-3.606,3.751s-4.039,1.153-6.2,3.463c-2.164,2.45-2.887,1.873-4.904,2.164-2.022.433-5.338,3.751-2.599,3.029 2.599-.577 3.175-.144 1.588.864-1.443,1.011-5.195,4.04-2.885,3.463 2.45-.723-.433,2.164-2.599,3.172-2.16,1.011 1.59,2.452-1.728,2.452s-.29,2.022-4.328,2.164-3.319.723-2.021,1.587c1.3.867 1.444,1.008-1.875,1.443-3.319.576 0,1.153-3.03,2.451-3.026,1.155-.577.723 2.021,1.588 2.452.864 3.893,2.164-.578,2.164-4.327,0-2.597.576-1.3,1.731 1.3,1.153-2.449.574-.144,2.737 2.31,2.164 1.301,2.887-.145,2.599-1.585-.144 2.742,2.02 1.012,2.02-1.876,0 2.308,3.46 1.154,4.327-1.154.72 2.162,4.472-.432,2.884-4.328-2.884.72,2.596-1.879,1.731-4.326-1.299 1.879,3.893-2.595,3.028-1.731-.288-.143,1.155-2.308,2.308-2.165.865 2.165.432-.578,2.452-2.596,2.019 2.886.432-.575,3.028-3.607,2.455.287,1.011-.576,2.599-.867,1.729-1.444,3.173.721,2.597 2.163-.436-2.455,3.458-.145,3.895 2.162.433 3.172,2.018.433,2.018s.576,1.153-.576,1.877c-1.3.577-2.455,4.904-1.444,4.471 1.012-.292.724-.144.724,2.306 0,2.599 2.018,2.599.288,5.336-1.734,2.598.576,3.751-1.876,6.494-2.308,2.882-5.339,11.104-6.491,10.816s4.184-8.079 3.607-10.816c-.436-2.599 1.729-5.192.576-7.935-1.154-2.599-2.742-1.009-4.904.721-2.166,1.729 0-.721 2.162-4.76 2.166-4.039 2.887-6.782.72-4.903-2.161,1.729-.432-1.153.723-3.607 1.155-2.455-.578-3.463-1.587-3.175s3.896-4.324.433-2.738c-3.604,1.729 9.521-12.693 2.599-8.656-6.927,4.183 7.211-9.375 1.152-6.347s4.472-6.201 2.163-7.5c-2.163-1.443.579-6.491-4.472-2.596-5.047,3.895-1.73-1.011.579-3.463 2.45-2.596 2.74-3.895-.144-1.731-2.743,2.166-2.166,1.299-.288-1.443 1.873-2.884 1.152-4.469-.29-3.461-1.588,1.009-.436-2.164-4.616-.288s-3.317-2.452-7.212-.72c-3.896,1.873.433-3.175-3.463-.579-3.896,2.452.433-2.596-12.26,8.079-2.163,1.587 4.326-5.915-4.762,1.587 3.319-4.471 6.494-7.79 4.039-7.07-2.597.865-7.935,4.906-5.912,2.599 2.018-2.452-2.022-1.587-5.771.865-3.604,2.307 8.22-8.509-.288-3.896-8.366,4.472 5.914-4.181-1.443-1.585-7.503,2.74 3.318-2.886-4.904-.291-8.223,2.455-4.039-2.019-6.923-1.153-2.742.865-5.771,1.444-3.896-.144 1.875-1.731 1.875-2.595-1.153-2.595s-5.337-1.876-4.761-2.596c.576-.579-3.896-2.596-5.625-3.463-1.876-.865 10.529,2.74 13.847,3.896s7.358.432 9.52,1.155 5.05.142 7.069-.435c2.018-.72 7.644-1.731 5.48-.432-2.163,1.443 2.452.867 4.616,0 2.165-.867 2.887,1.443 5.914,0 4.183-1.875 8.365-2.884 8.365-2.884s.432,1.585 2.454,1.441c2.018,0 1.009,1.299 1.009,1.299s.144.432 1.73,0c1.587-.435 3.028-.576 2.452.576s.432.577 1.297,0c.867-.432 1.59,1.588 2.599.435 1.009-1.299 3.027-1.878 2.161-.435-.721,1.299 1.878.289 2.742-1.152 1.009-1.443 4.616.288 3.752-.579 0-.144 1.585-1.731 1.585-1.731s.433,2.02.866,1.011c.576-.865.576-1.876 1.299-1.587 .721.432 3.605,0 3.605,0s-2.309-.723 0-1.296c2.163-.577 2.739-.723 3.46-1.732s-2.018,0 0-1.009 2.743-.432 3.607-1.587-2.018-.723-.433-1.299c3.606-1.154.433-1.873 1.297-3.46 1.158-1.587-.432-1.587-.288-2.596 .146-1.011-.864-1.446-1.729-2.311-.865-1.008 4.326,2.596 4.326-4.759 0-3.463 1.729.579 1.729-5.192 0-2.163 1.878.577 1.445-4.039-.578-5.191 1.874-1.011 1.874-3.175-.145-2.737-1.153-2.306-1.298-5.048-.144-2.017 1.153.721 1.153-1.299-.145-2.882-1.153-9.52.576-7.932 2.887,2.887 1.009-4.183 1.876-6.203 .9-1.59 3.2,1.01 2.48-4.47z" fill="#a79f81" fill-rule="evenodd"/>
 <path d="m239.39,138.04c3.175.146 6.349-3.46 5.771-5.915-.721-2.596-.866-7.644-.145-10.24 .577-2.74-.722-6.345-1.875-7.644s-1.729-4.762-.288-6.779c1.587-2.019 1.587,2.308 2.163,3.316 1.731,3.607 3.461,5.194 2.596,6.635-.864,1.587.576,3.463.145,5.915-.288,2.452 3.607,5.482 4.039,2.02 .576-3.463 2.02-5.915.288-9.375-2.017-3.607 0-5.194-2.451-7.935-2.309-2.74 1.299-1.875 1.299-4.183 0-2.452 2.02-.576 1.585-4.184-.433-3.749 1.154-4.039 1.875-6.203 .579-2.306.291-1.874-2.596-1.441-2.742.576-8.222.576-10.095-2.596-1.879-3.318-2.167-2.742-3.464-1.876-1.44.721.145-1.442-2.164.289-2.451,1.731.146-2.596 1.3-4.906s-1.154-1.153.145-4.469c1.44-3.463 5.19-7.356 4.902-5.915-.287,1.297 3.031-.29 4.904-1.155 1.876-.865 3.319-.432 4.04.722s2.887,1.441 3.751-.144c.864-1.443 7.212,0 4.759-5.624-2.31-5.773-4.326-5.629-6.059-4.906-1.587.72 1.876-2.887-1.731-1.731-3.751,1.155-.576-1.732-2.884-2.02 4.615-2.596 2.596-1.585 2.164-3.462-.577-1.874-1.443-1.441-4.616-3.605-.433-.288 3.03-2.164-1.443-2.164-4.615,0 2.164-3.028-1.588-2.307-3.604.578-3.895-1.585-2.448-2.599 1.297-1.009-.147-2.45-1.878-1.297-1.729,1.155-2.162-2.74-4.328-1.009-2.306,1.731-2.306,0-.576-1.875s2.311-1.443 4.616-1.732c2.166-.144 3.03-.288 3.175-1.731 .143-1.585 2.884-2.74.143-2.74s-2.163-2.596-3.895.433c-.288-2.306-1.876-2.596-2.452-1.297-.723,1.297.867-2.886-2.596-3.463-3.463-.72-2.887-3.605-4.904-3.751-2.021-.142 1.297-2.163 2.162-1.152 1.878,2.02 4.475,1.443 5.483,2.884 1.01,1.299 7.644,1.155 8.798,2.596 .867,1.587 3.316,1.443 4.037,3.028 .579,1.731 5.917.578 5.917,2.742 .288,3.318 6.633,3.172 7.5,5.192 .864,2.021 7.212.576 8.654,2.886 1.588,2.308 4.616-.865 5.48.576 .723,1.587 2.308,3.318 3.463,3.46s-1.731.145.577,2.022c2.163,1.873-.288,1.297 2.308,4.325 2.451,3.03 4.472,4.76 2.887,5.336-1.734.435.432,1.446 1.297,3.319 .864,1.732 2.166,3.463-1.153,1.011-3.319-2.598-6.206-5.626-5.915-3.895 .289,1.587-5.771-3.172-4.037-1.011s2.738,4.185.143,2.887c-2.452-1.443-3.461-2.596-3.028-.723 .576,1.875-2.164-1.587-2.452.435-.435,2.308.432,5.48 2.74,7.5 .576.576-.721,3.606.288,7.79 1.585,5.915-1.729.433-.144,7.212 .72,3.895-3.031,1.009-1.297,5.192 .864,2.163-3.031-1.588-.868,6.059 .579,2.163-2.596-2.452-1.299,5.771 .579,3.316-1.873-2.599-1.008,4.613 .288,3.03-2.599,2.454-2.599,4.327-.145,3.751-2.594,3.319-1.874,8.367 .721,5.482-3.317-.574-2.307,6.491 .432,4.183 0,11.107-1.299,9.952-1.154-1.15 1.154,7.502-.578,5.05-1.728-2.596 1.441,5.483-.431,4.184-1.73-1.299.576,4.615-.721,3.605-1.444-1.153 0,5.194-2.599,5.629-2.597.576-2.161,4.759-4.616,6.923-3.03,2.884-4.76,2.451-4.615,3.316 .144.721-2.308,0-2.596.867-.288,1.008-1.011-.146-2.165.432s-1.587.144-2.451,0c-.723-.146-1.587-2.886-1.299-2.886 1.011,0 .864-1.875 1.731-1.155 .723.723 2.885-.288 3.751-1.441 .864-1.155 3.893-1.587 3.748-3.46-.144-1.878 1.879-2.164 1.444-4.328-.579-2.31 1.731-2.164 1.442-4.474-.144-2.306-.288-4.037-.864-4.759s-1.878-3.028-2.887-2.596c-1.152.291.145,1.009-1.009,1.299-.288,0-.144.142-1.73-.577-1.587-.579-2.884-.867-4.904-1.011-1.731-.144-2.308-1.299-2.308-1.299s.75.6 2.05.45z" fill="#cdc8a7" fill-rule="evenodd"/>
 <path d="m169.29,97.508c-.576,2.019-2.451,1.731-2.018-.721 .288-2.596-1.876-.288-1.154-2.596 .866-2.164-2.163-1.155-1.01-3.751 1.298-2.74 1.298-4.472-.577-3.319-1.876,1.155 2.741-3.028 1.01-2.884-1.73.289-.721-2.164 1.153-3.316 1.876-1.155 1.73-2.886.578-2.742-1.298.291 0-2.018.865-3.028 1.011-.721 1.875-3.319.433-2.596-1.586.72-1.154-.867 1.299-2.74 2.452-1.876 4.038-3.751 2.163-3.461-1.732.286 1.587-2.454 2.596-3.319 1.01-1.155 1.443-2.02 1.443-3.174s1.587-2.018 3.028-2.596c1.587-.721 3.028-1.009 2.163-1.876-.864-.864 1.009-.72 2.166-1.587 1.009-.719 3.314-2.306 1.729-1.873-1.44.288-.721-1.876-1.44-3.463-.723-1.443.576,3.031-1.011,1.153-1.444-1.873 0,2.02-2.165.435-2.451-1.731 1.153,2.308.577,2.308s-3.028-.865-3.605-.144c-.722.721 1.875,3.028.145,3.028-1.875,0-3.174-.576-3.03.721 .144,1.155 1.155,2.019-.721,2.452-1.875.291-5.049,2.022-3.461,2.308 1.441.291-2.742.291-3.462,2.598-.578,2.164.288,2.308-1.876,3.031-1.876.574.578.574-1.298,2.162-1.876,1.443-3.606,3.896-1.009,3.316 2.739-.432-2.453,3.03-.29,2.598 2.165-.579-1.73,3.317-2.596,5.192-.865,1.875 1.73-.288 0,2.163-1.589,2.452 1.587,1.299-1.01,4.184-2.453,2.885.145,2.308 1.01,1.587 .865-.866.433,1.588-.289,3.175-.721,1.441-1.3,4.325-.288,4.181s-.577,3.174.145,5.048c.721,1.878-2.165-.289-2.165-1.874 0-1.443-1.298-2.164-1.009,1.585 .144,3.607 2.018,11.54 3.174,13.705 3.172,6.201-2.598,11.972-2.742,17.02 0,2.02.577,4.906.577,3.175 0-1.587 1.009,2.596 1.009,5.192 0,2.74 1.3-2.886 1.444-.289 .145,3.029 1.731,6.057 1.586,3.461-.144-2.45 1.444.288 1.444,5.482 0,1.297 1.729-4.183 1.729-.144s1.587,7.932 1.587,5.625c0-2.164 1.298,4.183 1.731,2.596 .575-1.729 2.74-1.009 2.597,1.155-.146,2.164 2.163-.289 2.451,2.452 .288,2.884.722,4.183 2.02,2.308 1.299-2.02 1.731.144 1.587,1.731-.288,1.731 1.01,4.472 1.73,2.887 .865-1.446 2.308-.579 2.597,2.018 .288,2.742 2.74,1.01 4.615,1.155 1.875.288-1.875,3.46.721,2.596 2.742-.867 4.328-.867 2.454.432-1.878,1.443 1.874,1.009 4.181.723s9.522-3.318 7.359-1.443c-2.165,1.729-1.012,1.876 2.884.577s7.067-.721 5.626.432c-1.587,1.155-.29,1.299 3.029.288 3.174-1.008 1.297,2.02 4.326.433 3.029-1.441 5.915-1.585 6.203-2.45s-.723.864-3.319-.867c-1.009-.72-2.596-1.587-2.019-3.028 .432-1.299 2.742-.146 4.327.286 2.599.867 5.337,1.732 7.646,0 2.162-1.585-2.019,1.299-7.646-1.297-5.769-2.596-5.192-3.749-6.201-2.308-1.01,1.299-3.175-.864-3.751-2.884-.433-2.019-1.875-4.618-3.895-5.915s-1.009-4.327-2.164-5.48c-1.154-1.155-2.308-4.184-3.028-3.897-.576.29-1.011-5.046-1.587-3.605-.723,1.587-.432-8.367-1.731-5.192-1.297,3.172-.865-.145-.577-3.175 .433-3.028-.288-6.923-1.297-5.046-1.01,1.874-.866-.146-.722-2.886 .144-2.596-1.299-1.155-1.444-3.607-.143-2.596-1.008-3.463-.287-4.613 .576-1.155-2.597-.867-.721-3.61 1.875-2.884-2.164-.576.145-3.028 2.308-2.596.721-2.452 2.02-4.76 1.442-2.308.722-2.164 1.154-4.615 .576-2.308.864-4.184-.433-2.741-1.444,1.587.143-2.596-2.886-4.474-3.03-1.873.721-1.873-2.311-3.604-3.025-1.876-2.882-3.46-4.903-2.596s-2.738.72-3.749-.723c-1.011-1.297-.723,2.31-3.029,1.155-2.452-.865-1.73.867-3.317,2.596-1.732,1.731-3.318,1.155-3.75,3.031-.578,1.874-1.876,4.325-2.164,2.74-.29-1.752-.87-.455-1.3.844z" fill="#eae3bc" fill-rule="evenodd" stroke="#f2e9c0" stroke-linecap="round" stroke-linejoin="round" stroke-miterlimit="2.4142" stroke-width=".432"/>
 <path d="m158.04,43.417c3.462-1.876 3.173-2.308 5.479-3.463s5.481-4.615 8.367-5.047c2.884-.577-1.588.864-2.598,3.46-.72,2.742 3.031-1.009 1.3,2.02-1.876,3.03-4.184,5.771-2.165,5.194 2.021-.432-3.028,2.164-2.596,4.471 .577,2.164-2.885,1.585-2.885,3.317s-5.915,3.606-7.356,9.666c-.288,1.297-5.337,3.751-2.74,3.751 2.74,0-1.153,2.449-1.441,3.893-.29,1.585 1.73.289 1.441,2.164-.144,1.875 2.885-2.164 1.442.432-1.586,2.452-5.048,5.771-5.481,7.935-.289,2.308 1.874-.867 2.886-1.731 1.01-.867-.578,2.163-1.153,3.606-.434,1.585 1.153.286 1.729-.579 .434-.865.288.579-.721,2.743-1.009,2.307 2.019-.579 1.587,1.153-.578,1.587-1.587,5.338-.721,5.626 .865.288.865,3.172.865,4.903 0,1.587 1.298,1.009 1.298-1.154s1.009,2.163 1.153,3.03c.145.864.721,8.223-2.308,14.569-3.03,6.491-5.48,12.404-5.48,18.174s-1.298.721-1.298-2.307-1.156,3.028-.434,6.923c.576,3.75 1.586,1.153 1.731,5.336 .575,7.211 2.45-2.74 2.885,2.164 .577,4.904 2.739,8.367 5.048,9.808 2.45,1.299 3.174.146 4.327,3.175 1.73,5.191 1.586-.865 2.451,1.731 .865,2.452 3.031,4.037 2.741,2.163-.433-1.875 1.876-.432 2.596,2.02 .866,2.308 2.886,3.604 2.886,2.308s1.876-1.587 2.164,1.155c.432,2.738 1.875,4.901 2.451,2.882 .435-2.018 2.021,0 3.174,1.154 1.154,1.299 4.472.723 4.904,2.164 .29,1.587 1.587,1.731 2.308,1.443 .721-.435 8.079,1.731 1.012,2.017-6.926.291-8.8-.576-11.686-1.729-2.884-1.155 2.597-1.299-2.308-2.164-4.905-.867-2.163-2.164-6.347-1.588-4.328.721-2.596-1.443-.864-1.875 1.729-.576 1.729-2.164-2.885-2.596-4.475-.432-5.338-2.884-2.31-1.873s-2.741-3.463-6.058-4.762c-3.318-1.153-4.04-2.452-1.73-2.452s.144-2.164-3.751-2.885c-3.751-.722-1.154-1.008-.577-2.021 .433-1.009-5.77-6.633-2.886-5.48 2.886,1.155 1.156-1.875-1.298-4.327-2.596-2.308 1.298-5.768-3.028-8.511-4.327-2.596 2.309-2.018-1.586-4.614-3.895-2.454 3.317,2.018 0-4.183-1.01-1.731 4.903-3.751-.145-5.626-2.596-1.011-.722-1.587.433-3.46 .866-1.731 1.443-4.906-.722-3.03-2.164,2.019 1.587-4.616 0-3.463-1.732,1.155-1.009-2.45.866-5.336 1.731-2.884 6.06-8.942 3.317-7.067-2.74,1.729-1.01-1.011-.288-3.75 .576-2.741.434-3.607-1.73-1.153 .288-1.299-.865-2.596-.865-2.596s1.73-1.588.865-2.598c-.865-1.153-.865-.577-1.443-.288-.433.288-.722,0-1.587-1.588-.867-1.441-2.453-4.327-2.307-6.777 .143-2.454.288-4.906-.865-3.895-1.01,1.008 1.874-4.616-1.01-4.616-2.886,0 .431-2.596-1.587-3.751-2.02-1.155-1.875-3.319-2.307-5.915-.434-2.452 1.44-.289 2.163-2.596 .722-2.452 3.318.576 5.338-1.875 2.163-2.596 4.615-3.607 6.345-2.74 1.588.865 4.472-.867 4.328.721-.144,1.443 1.875-.577 2.019.576 .146,1.299 1.588-1.731 4.905-3.028 3.174-1.155 6.058-2.308 4.616-3.318-1.298-1.009-2.308.434-3.606-.433-1.442-.864-2.308,0-3.317-.286 .864-1.013 1.298-1.155 1.73-.867 .31.288 2.32-.579 3.34-2.453z" fill="#dfd5af" fill-rule="evenodd" stroke="#efe4bb" stroke-linecap="round" stroke-linejoin="round" stroke-miterlimit="2.4142" stroke-width=".432"/>
 <path d="m187.46,54.813c-2.308.866-8.51,7.355-6.635,7.067 1.731-.144-.145,2.596-1.731,3.46-1.441.867-2.163,4.042-2.163,4.042s3.75-3.607 5.626-3.319c2.02.144-2.453,3.319-4.761,5.625-4.039,3.895 3.173,1.011-.865,4.474-2.597,2.018-4.039,4.904-4.327,6.491-.434,1.441 2.019-2.164 4.039-3.607 2.019-1.299 3.173-.435 1.298.864s-3.462,3.896-5.192,6.926c-1.442,2.45-2.454,6.057-.578,3.316 2.164-2.596 4.328-5.626 3.752-3.75-.435,1.731 1.73.288 2.884-2.452s3.46-3.893 4.906-3.461c1.297.287 6.2,2.164 3.748,3.173-2.596,1.008 2.309.432 3.605,1.587 1.299,1.297 3.607,0 1.299-2.452-2.163-2.454 3.463-5.626-.433-3.896-3.748,1.732 3.751-3.462.724-2.74-5.05.865-6.638.721-4.904-1.011 1.585-1.587 6.344-3.751 7.498-4.183 1.154-.289-3.461-1.009-6.201.432-2.742,1.299 1.441-1.874 3.316-2.596 2.164-.72 1.155-1.875-1.441-.865-3.172,1.297-2.596.289-1.011-1.011 1.011-.721 3.752-3.028 2.164-3.028-1.443,0-3.173.576-1.875-.865 1.442-1.587 3.463-4.474 0-2.742-1.298.723-1.441-.721-.865-1.875 .721-1.153.433-3.604 2.161-4.901 1.589-1.299.146-1.878-1.873.286-2.04,2.309-4.93,4.759-2.19,1.011z" fill="#fffae4" fill-rule="evenodd" stroke="#fff5d5" stroke-linecap="round" stroke-linejoin="round" stroke-miterlimit="2.4142" stroke-width=".432"/>
 <path d="m232.47,69.668c-1.733,1.445-2.166,1.155-1.445-1.297 .579-2.596-.865-2.884-3.026-.433 .145-3.031.433-3.031 1.441-5.626 1.009-2.74.144-2.884-1.009-1.297-1.155,1.729-1.587,4.472-1.587.721s2.308-6.348.72-5.048c-1.442,1.297-2.739,3.461-2.739,3.461s-.721-2.306.433-4.904c1.154-2.74 0-3.175-.721-1.729-.576,1.584-2.454,4.037-2.164,1.584 .288-2.596 2.597-5.482 3.604-6.202 .867-.865-.288-5.048-1.008-2.885-.865,2.02-2.741,3.751-2.741,3.751s0-3.174 2.885-5.626c2.886-2.596 5.191-3.028 4.615-2.164-.433.867-3.316,1.875-3.316,2.74s3.604.291 2.02,2.021c-1.587,1.873 0,2.306-.867,3.893-.864,1.731 1.731-2.452 4.04-4.039 2.451-1.441 1.011.865-.145,3.028-1.155,2.311.145,3.031.145,3.031s.578-1.297 2.163-2.164c1.729-.867-1.152,1.875-1.009,3.463 .288,1.731 2.594-2.02 4.761-2.743 2.163-.72.864.865.144,1.732-.721.72 0,1.297.576,1.011 .433-.146.865.286-.576,1.44-1.3,1.155-1.442,3.173-1.442,3.173s1.875-1.874 2.739-1.874c.723,0-.864,1.874-1.152,2.884-.145,1.009 1.729,0 1.729,0s-.576,1.732 3.607.867c4.183-.867-.576,1.009-1.873,1.873-1.446.867-1.012,3.028.144,2.31 1.153-.722 4.327-1.155 2.45-.146-1.729,1.011-1.297,1.877.723,1.731 2.019-.144-.29,1.876 2.884,1.731s-1.153,1.587-3.028,2.452c-1.875.722-4.618,2.596-3.319.577 1.156-1.876.291-1.876-1.299-.721-1.44,1.153-3.313,1.441-3.313,1.441s-.868-.575.72-1.873c1.441-1.299-2.598,0-2.887,1.008-.26,1.012 1.18-3.602-1.84-1.152z" fill="#fffae4" fill-rule="evenodd" stroke="#fff5d5" stroke-linecap="round" stroke-linejoin="round" stroke-miterlimit="2.4142" stroke-width=".432"/>
 <path d="m199,96.643c.721,1.443.865,4.184-.288,6.924-1.152,2.596-.721,3.463.145,2.452 .864-1.009 2.452,0 .864,2.308-1.729,2.452-1.873,4.472-1.873,4.472s3.173-4.616 2.74-1.299c-.579,3.462-2.597,3.895-2.02,5.338 .432,1.299 1.731-.433 3.175-1.729 1.297-1.299 3.46-1.155 2.306.142-1.153,1.443-.865,2.022-.865,2.022s3.175-1.59 1.731.286c-1.587,1.876-4.327,4.616-4.759,7.07-.291,2.596 1.442,1.009 1.008,4.037-.288,3.028.723,8.51 1.155,5.624 .576-2.882 2.161-3.172 2.161-3.172s-1.152,3.463-.432,6.204c.72,2.598 1.587,2.598.866,4.471-.721,1.875 1.152,4.759 1.152,4.759s.291-5.336 1.156-3.028-.145,3.895 1.009,5.915 2.454,3.895 2.166,2.884c-.146-1.011-1.3-5.913 0-6.059 1.439-.288.576,6.636 1.728,8.511 1.153,1.876 3.319,3.461 2.743,2.164-.723-1.153-.866-4.904-.145-3.605 .577,1.153.721,5.048 2.162,5.769 1.3.865-.433-2.308.864-1.731 1.154.432 4.328-1.441 5.918.288 1.729,1.731 3.172,1.731 1.873.291-1.297-1.299-5.049-3.319-4.904-5.482 .288-2.164-1.152-1.009-.721-2.741 .288-1.587-2.166-3.175-1.012-4.616 1.156-1.587 2.885-3.46 3.174-4.615s-1.153-4.183-1.009-3.174-1.441,3.606-1.153,1.443c.145-2.02-.576-4.183-.866-2.596-.286,1.441-1.154,2.019-.721,4.183 .575,2.164 1.155,5.48-1.012,4.037-2.161-1.587-3.172-3.029-3.315-4.902-.145-1.877-1.877,4.181-1.877.286s-.431-6.633-.431-6.633-.721,1.15-1.442,3.029c-.723,1.873-.723,5.336-1.013,3.318s-2.737-2.455-1.585-4.906c1.011-2.308.433-3.319 0-2.455-.576.723.433-1.729 1.153-2.738 .578-1.009.432-4.039-.143-2.308-.723,1.585-3.897,1.299-3.03-.146 .723-1.585 1.443-3.172.291-2.452-1.158.867-1.878-.576-.58-2.884 1.444-2.163 3.029-6.347 1.877-6.056-1.156.432-1.297-.146-.865-.579 .577-.576 1.585-4.759.433-4.039-1.155.576-1.732.288-.433-1.153 1.441-1.588 1.729-2.74 1.729-2.74s-1.152,0-2.741,1.152c-1.442,1.153.289-1.299 1.012-2.739 .865-1.299 1.297-4.472.433-4.616s-.433,1.443-1.444,1.875c-.866.287-.72-2.596.721-3.606 1.588-1.009.436-2.596.436-2.596s-2.022,3.028-1.876,1.297c.142-1.731.576-3.604.576-3.604s-1.731,3.749-2.02,2.452c-.288-1.443-1.44,2.308-1.875,1.009-.32-1.423-1.91,1.175-2.34-.989z" fill="#fffae4" fill-rule="evenodd" stroke="#fff5d5" stroke-linecap="round" stroke-linejoin="round" stroke-miterlimit="2.4142" stroke-width=".432"/>
 <path d="m241.12,80.488c-1.299,2.018.291,2.018-.864,3.173-1.154,1.155.433,1.297-.145,2.164-.722.865-.578,2.308.721,1.876 1.444-.579 1.732,2.307 5.051,2.451 3.461.289 6.345-.576 8.077-4.327 1.875-3.751 1.442-4.76 1.298-6.203-.288-1.587 1.009-2.308.721-3.896-.144-1.585-1.152-.865-1.588,0-.576.867-2.884-1.009-6.203,0-3.46,1.011-4.614,2.452-5.047,3.607-.59,1.009-1.16,1.732-2.03,1.155z" fill="#0a0e0f" fill-rule="evenodd" stroke="#8a8883" stroke-linecap="round" stroke-linejoin="round" stroke-miterlimit="2.4142" stroke-width=".432"/>
 <path d="m244.29 86.401c4.905 1.875 8.222-4.181 6.925-5.913" fill="none" stroke="#0a0e0f" stroke-linecap="round" stroke-linejoin="round" stroke-miterlimit="2.4142" stroke-width="6.984"/>
 <path d="m244.29 86.401c4.905 1.731 8.222-4.328 6.925-5.913" fill="none" stroke="#232d2c" stroke-linecap="round" stroke-linejoin="round" stroke-miterlimit="2.4142" stroke-width="5.904"/>
 <path d="m244.29 86.401c4.905 1.731 8.222-4.328 6.925-5.913" fill="none" stroke="#414b43" stroke-linecap="round" stroke-linejoin="round" stroke-miterlimit="2.4142" stroke-width="4.896"/>
 <path d="m244.44 86.401c4.76 1.587 8.076-4.328 6.779-5.913" fill="none" stroke="#61604e" stroke-linecap="round" stroke-linejoin="round" stroke-miterlimit="2.4142" stroke-width="3.816"/>
 <path d="m244.44 86.401c4.76 1.587 8.076-4.328 6.779-6.059" fill="none" stroke="#837050" stroke-linecap="round" stroke-linejoin="round" stroke-miterlimit="2.4142" stroke-width="2.808"/>
 <path d="m244.44 86.545c4.76 1.299 8.076-4.472 6.779-6.203" fill="none" stroke="#a67748" stroke-linecap="round" stroke-linejoin="round" stroke-miterlimit="2.4142" stroke-width="1.8"/>
 <path d="m178.38,97.22c-1.153.576-1.875,2.451-.577,2.451 1.298.144 2.74,0 3.605,1.732 1.012,1.875 3.03,4.471 6.204,4.471 3.027.144 1.298-.144 2.451-.577 4.184-1.443 4.472-3.606 5.048-3.46 .723,0 2.598-.435.723-2.455-1.154-1.155-.29-2.452-2.163-3.751-1.732-1.297-2.021-1.873-3.031-1.587-.864.146-.864-1.008-2.161-1.008-1.156,0-2.311-.721-2.887-.289-.576.289-2.02-.288-2.596.433-.576.579-1.444,1.155-2.309,1.443-1,.296-2.29,1.593-2.29,2.604z" fill="#0a0e0f" fill-rule="evenodd" stroke="#8a8883" stroke-linecap="round" stroke-linejoin="round" stroke-miterlimit="2.4142" stroke-width=".432"/>
 <path d="m192.51,99.383c-2.599,4.618-9.088,2.308-9.233.144" fill="none" stroke="#0a0e0f" stroke-linecap="round" stroke-linejoin="round" stroke-miterlimit="2.4142" stroke-width="6.984"/>
 <path d="m192.51,99.383c-2.599,4.618-9.088,2.308-9.233.144" fill="none" stroke="#232d2c" stroke-linecap="round" stroke-linejoin="round" stroke-miterlimit="2.4142" stroke-width="5.904"/>
 <path d="m192.37 99.527c-2.452 4.474-8.941 2.164-9.087 0" fill="none" stroke="#414b43" stroke-linecap="round" stroke-linejoin="round" stroke-miterlimit="2.4142" stroke-width="4.896"/>
 <path d="m192.37 99.527c-2.452 4.328-8.941 2.164-9.087 0" fill="none" stroke="#61604e" stroke-linecap="round" stroke-linejoin="round" stroke-miterlimit="2.4142" stroke-width="3.816"/>
 <path d="m192.37 99.527c-2.596 4.328-8.941 2.164-9.087 0" fill="none" stroke="#837050" stroke-linecap="round" stroke-linejoin="round" stroke-miterlimit="2.4142" stroke-width="2.808"/>
 <path d="m192.37 99.527c-2.596 4.328-8.941 2.02-9.087 0" fill="none" stroke="#a67748" stroke-linecap="round" stroke-linejoin="round" stroke-miterlimit="2.4142" stroke-width="1.8"/>
 <path d="m183.13,96.931c.145,0-.432-1.154.433-1.875 1.011-.721 2.596-.721 2.596.434 0,1.153-2.16,1.874-3.03,1.441z" fill="#a8b3af" fill-rule="evenodd" stroke="#465556" stroke-linecap="round" stroke-linejoin="round" stroke-miterlimit="2.4142" stroke-width=".432"/>
 <path d="m244.44,83.371c-1.011.579-1.587-.574-1.154-1.585 .719-1.587 2.165-2.307 2.598-1.01 .42,1.298-.3,1.876-1.45,2.595z" fill="#a8b3af" fill-rule="evenodd" stroke="#465556" stroke-linecap="round" stroke-linejoin="round" stroke-miterlimit="2.4142" stroke-width=".432"/>
 <path d="m185.3,95.777c-1.009.146-1.297-.577-.433-1.009 1.44-.433 1.87.576.43,1.009z" fill="#e6edef" fill-rule="evenodd"/>
 <path d="m245.59,81.497c-.865.723-1.441.144-.865-.576 .87-1.155 1.74-.433.87.576z" fill="#e6edef" fill-rule="evenodd"/>
 <path d="m188.47,109.48c-.436-.286-4.04,1.444-2.454,1.155 1.733-.288 1.008,1.299-1.298,1.443-2.454.144-5.626-3.463-5.626-2.308 0,1.297.722,2.884-1.586.864-2.453-2.164-2.742-4.184-2.886-3.172-.144.865-1.442-.723-1.154-2.019 .146-1.299-.72-2.741-1.298-1.009-.432,1.585.722,4.901 1.731,5.045 1.01.147-.288,1.878 1.01,2.599 2.452,1.299 4.183.288 3.895,1.152-.288,1.011.288,1.155 1.587.723 1.009-.577 1.729.432 3.319-.144 1.44-.579 2.017.576 3.748-.579 1.588-1.297 3.173-1.009 4.184-.144 1.012.723.721-1.153-.435-1.587-1.152-.432.435-.432 1.587-1.873 1.156-1.299 1.299-3.319 0-1.732-1.29,1.44-3.17,2.88-4.32,1.58z" fill="#d8cea9" fill-rule="evenodd"/>
 <path d="m189.62,117.85c-2.309,3.173 1.873,1.732 1.441,3.463-.288,1.731-2.306,3.319.723,4.906 1.443.718-2.02,2.164.435,3.893 1.585,1.009 1.297,3.317-.146,2.74-1.299-.432.288,1.876 1.443,3.029 1.009,1.298 4.183,4.618 1.729,3.895-3.461-1.008.866,1.732 2.453,3.463 1.441,1.587.145,2.019-1.875.432-2.02-1.443-2.02.865-3.604-1.153-1.445-2.02-2.166-1.878-3.607-4.76-1.59-2.742-2.598-3.751-3.751-3.607s-4.328-1.443-2.742-1.587c2.742-.144 1.011-1.443-.433-3.172-1.297-1.731-1.586-5.338-3.028-2.164-.721,1.441-1.153-1.155-1.153-2.596 0-1.299-.433-2.596-.865-2.022-.577.723-.721,0-.721-2.162s.721-2.598-.29-4.327-.433-1.731 1.876-.435c2.163,1.443 3.461,3.463 3.749,1.875 .288-1.441 3.319-.432 4.904-.576 3.03-.14 5.05-1.59 3.46.87z" fill="#fff2c7" fill-rule="evenodd"/>
 <path d="m181.4,108.47c-2.019-1.009-3.173-2.308-2.884-1.155 .144,1.155-1.01,1.011-2.02-1.153s-1.299-.288-1.876-2.452c-.721-2.307-1.73-4.183-.288-3.604 1.298.721 2.309.577 3.029,1.874 .577,1.299 1.442-.142 2.74,2.164 1.298,2.454 2.598,3.03 4.328,3.75 1.73.57 0,2.16-3.03.57z" fill="#fff2c7" fill-rule="evenodd"/>
 <path d="m254.83,92.316c.288-2.164 1.729-2.884 2.449-3.03 .723-.142-.144-3.172.578-3.605 .721-.288 1.009-.579.577-1.875s.722-2.02.432-3.896c-.141-1.875.868-.144 1.011,1.011 0,1.299-.288,1.731.866,2.017 1.151.433-.145.867.431,2.311 .433,1.441-1.009,1.587.146,2.452 1.154,1.009 2.019,1.299.866,1.585s-.866.722-1.012,1.445c-.143.718-2.308,1.008-2.448,2.738-.291,1.443-.724,1.731-.868.291-.29-1.299-.722-2.455-1.73-.723-1.009,1.587-2.309,1.731-2.309,1.731s.71-1.155 1-2.452z" fill="#c3c0a4" fill-rule="evenodd"/>
 <path d="m254.39,92.46c-1.73,1.585-6.923,3.172-6.059,2.452 .867-.577-.288-.867-1.297-.577-.864.289-1.731.721-1.875.142-.145-.574-.866-.718-1.731-.433-.864.146-2.161-.432-2.597-1.152-.432-1.011-1.011-.145-.144,1.152 1.012,1.155 1.3,2.454 2.452,2.164 1.153-.144 1.299.722 2.31.722 1.009-.144 2.594.577 2.594.577s-.145-1.009 2.311-1.153c2.449-.146 3.027-1.155 3.027-1.155s1.16-1.73 1.01-2.739z" fill="#f1e6bd" fill-rule="evenodd" stroke="#f6eac0" stroke-linecap="round" stroke-linejoin="round" stroke-miterlimit="2.4142" stroke-width=".432"/>
 <path d="m177.65,96.065c.144-1.441.721-2.596 1.153-3.172 .577-.577-1.01.288 0-.721s1.73-1.587 3.896-1.441c2.451,0 1.154-1.155 3.027-.435 2.022.72 3.752,2.308 3.896,2.74 .145.291-.864-.721-2.451-.865-1.732-.291-4.04-.577-4.76.288-.724,1.009-1.3,1.585-2.454,1.731-1.16.145-2.32,1.875-2.32,1.875z" fill="#fff2c7" fill-rule="evenodd"/>
 <path d="m241.27,79.478c.864-2.452 3.172-3.317 2.018-3.173-1.297,0-.145-1.155 1.73-1.731 1.731-.723 5.339-1.875 4.037-1.155-1.297.579-.576,1.011 1.014.433s3.458,1.299 3.458,1.299-3.026-.721-5.769,0c-2.596.723-4.327,2.164-5.049,3.319s-1.44,1.008-1.44,1.008z" fill="#fff2c7" fill-rule="evenodd"/>
 <path d="m239.24,77.026c-.576,1.153-1.873,3.03-.576,2.02 1.299-1.153 1.875-1.443 1.442-.435-.432,1.155-.578,1.445-.432,2.022 .142.576 1.588-2.164 2.309-3.319 .719-1.299-.577-.288.144-1.441 .721-1.155 2.884-1.875 4.903-2.455 2.018-.432 3.607-.72 3.031-.432-.579.432 0,.432 1.297.432 1.152-.144 1.008-.144-.145-.72-1.152-.721-1.587-1.299-2.742-1.011-1.153.29-3.316,1.299-5.191,1.731-2,.291-3.16,2.309-4.03,3.608z" fill="#c3c0a4" fill-rule="evenodd"/>
 <path d="m180.39,90.584c.433-.721 2.164-1.153 2.164-1.585-.144-.435 0-.435 1.731-.29 1.585.29 3.027-1.009 3.896.144 1.009,1.154 3.893,2.451 3.46,3.318-.288.865.579,1.587.579,1.587s-1.3-.291-2.311-1.587c-.864-1.155-4.327-2.886-5.336-2.455-2.01,1.015-2.45-.284-4.18.868z" fill="#c3c0a4" fill-rule="evenodd"/>
 <path d="m227.56,145.97c-.864.867-2.595,2.74-3.172,1.875-.864-1.299 2.02-2.454 3.172-2.886 1.3-.42 1.16.16 0,1.02z" fill="#e2e7e9" fill-rule="evenodd" stroke="#cbd2d3" stroke-linecap="round" stroke-linejoin="round" stroke-miterlimit="2.4142" stroke-width=".432"/>
 <path d="m133.95,62.745c-1.441,1.299 3.03.29 2.309,1.731-.722,1.587 1.586.29.145,2.163-1.588,1.876-1.298,2.743.576,1.732 1.731-1.009-.144,1.011 1.443.864 1.586-.144-.288,1.011 1.01,1.155s.577,1.155 0,1.874 1.01,0 1.298,1.154c.288,1.155 1.442-.144 1.01,1.587-.577,1.876.433,2.596.433,4.76 0,1.875.144,1.443 1.009.867 .722-.577 0-1.444 1.154-2.308s.144-1.443.723-2.02c.576-.432.288-2.164-.867-1.587-1.01.721-1.442,0 0-1.731 1.443-1.587 2.309-2.74 1.586-3.028-1.298-.577 2.021-1.155 1.3-2.02-.865-.72 1.009-.72.721-2.164-.433-1.299 1.154-1.731.288-2.74-.865-1.155-3.174-3.463-3.315-2.31 0,1.299-.435.579-1.732.435-1.442-.144-2.741-.72-2.885.289 0,1.154-1.298,0-3.317.144-2.3.144-2.58.72-2.87,1.153z" fill="#9c9578" fill-rule="evenodd"/>
 <path d="m265.21,14.136c1.297-.146 2.598-1.01 3.318-2.166 .721-1.153 2.596-2.164 2.74-1.009s1.3,1.875 1.3,1.875 1.297-2.164 1.729-1.152c.577.864 3.606-1.587 4.327.286 .576,1.878.145,3.318-.864,3.751-.865.579 1.009.146.864,2.02-.288,1.731 0,3.172-1.009,3.028-.864-.288-1.442,1.443-.433,1.588 1.009,0-2.019,1.587-1.152,2.886 .721,1.297-.146,3.029-.725,4.037s.29,1.588.29,1.588c-.144,0-1.875-.865-1.875-2.308 0-1.731-1.44-1.441-.721-3.031s-.144-1.153-1.009,0c-1.011,1.155-1.733.146-1.733.146s.866-1.443.576-2.02-1.585.289-2.737.144c-1.155,0 1.297-1.154 1.729-2.163 .433-1.155-.864,0-3.605.721-2.739.576-1.587-1.153-.722-2.308s-.433-.867-2.018.432c-1.446,1.299-.288,0-1.011-1.153-.579-1.011-2.885-2.884-1.3-3.028 1.57-.146 3.87-1.011 4.02-2.164z" fill="#9c9578" fill-rule="evenodd"/>
 <path d="m209.53,159.96s-3.604-2.45-4.903-4.472c-1.443-2.02-5.771-5.913-5.627-3.172 .145,2.598-3.027-5.194-3.316-.432-.146,2.018-4.76-6.493-4.474-.865 .435,5.48-1.873-2.31-1.152,1.732s-.433,3.313-1.585.718c-1.156-2.74-1.878-5.625-2.887-3.028-1.009,2.452.144-3.605-1.297-1.009-1.587,2.452 1.729-5.771-.576-5.915s2.017-4.184-2.743-5.915c-4.903-1.731-4.759-2.884-5.914-6.492-1.153-3.75-2.307-5.912-2.451-3.893-.288,2.02-2.02-3.319-1.586-5.05 .575-1.729-2.021,2.742-1.444-.288 .434-3.172-1.875-2.308-1.587-3.604 .433-1.299.722-4.619-.576-4.472-1.441.144-1.875.286-1.01-1.588 .866-1.875.288-4.183-.72-1.443-1.01,2.598-1.876-2.74-1.876-2.74s-1.588,1.876-1.155-1.875c.289-3.749-.433-4.325-.865-3.028s-1.298,6.059-.144,7.067c1.155,1.009 1.731,4.327 1.298,5.915-.289,1.441-.289,4.183.288,6.201 .433,2.019 1.444-4.472 1.299,0-.144,4.615.865,5.915.865,5.915s1.01-5.048 1.154-2.74c.144,2.452 2.451,3.028 1.153,5.048s.866.435 1.875,3.031c1.011,2.74 3.606,6.779 3.463,4.759s.721-2.163 1.298-.291c.432,1.731 2.597,1.731 2.597.867 0-.721.865-1.876 1.875.864 1.01,2.887 2.739-.286 2.596,2.743s0,5.769.721,8.511c.867,2.596 2.31.433 2.454,3.46s2.018,2.596 2.018,2.596 0-4.76 1.3-.144c1.299,4.762 4.183,3.175 3.604,1.875-.72-1.297.435-3.893 1.158-2.164 .576,1.731 2.306,1.731 4.181,1.731s5.05,1.153 5.626,3.318c.721,2.164 5.77,3.028 7.067,4.328 1.444,1.441 1.877,4.469 3.604,5.48s.145-.579-.143-2.598c-.434-2.018 1.877,2.598 5.194,1.587-2.885-1.873-4.328-4.037-4.907-5.769-.433-1.731-1.297-1.155-.863.577-1.45-2.32-1.74-3.34-2.9-5.36z" fill="#dfd5af" fill-rule="evenodd"/>
 <path d="m175.78,341.71c-2.021,3.175-5.337,8.079-3.896,7.215 1.586-.869 5.481-4.904 5.481-4.904s-3.606,6.922-5.481,9.088c-1.875,2.306 5.193-3.319 6.347-5.918 1.154-2.449-.576,3.463-2.597,6.206-2.019,2.882-6.924,9.807-5.048,8.51 1.731-1.445 4.615-4.472 5.914-6.349 1.154-2.161-1.443,3.751 2.308,0 3.46-3.891 7.355-9.52 3.896-2.449-3.463,7.064-1.732,6.2 0,3.458 1.442-2.306-.145,3.462 2.163-1.009 2.451-4.615 6.633-10.24 5.769-7.642-.864,2.737.145,2.737 1.59-.726 1.585-3.314 3.46-3.751 2.738-2.161-.576,1.729 1.011.721 2.021-2.599 1.009-3.462 3.174-6.632 3.605-10.096 .288-3.607 1.299-1.585 1.875-4.903 .721-3.318 2.452-2.167 1.441,1.008-1.009,3.176 1.154,0 1.878-3.029 .576-3.026 1.153-.146 1.153-.146s.72-2.736.144-5.335c-.576-2.45.145-14.136 1.009-10.673 .866,3.314 1.152,1.729 1.152-1.152 0-2.887-3.894-4.908-3.458-7.646 .285-2.598-.579-1.59-1.302,1.585-1.009,3.175-2.882,7.646-2.449,3.319s-.288-3.319-1.011-.433c-.721,2.882-1.732,6.2-3.029,7.358-1.297,1.152.865-5.629-1.587-1.014-2.309,4.472 0-3.751-1.73-.145-1.877,3.464-2.45,3.607-2.309.289 .291-3.314-.433-4.184-2.163-.145-1.586,4.039-7.936,11.542-8.944,14.716-1.153,3.314.288,1.441 2.599-1.156 2.306-2.45.288,1.439-2.599,5.052-6.05,7.5 4.19-3.03-5.47,11.82z" fill="#c7c29a" fill-rule="evenodd"/>
 <path d="m168.57,296.86c2.741-3.175 7.934-5.913 9.664-8.511 1.875-2.45 3.316-2.162 1.587.576-1.875,2.598 1.874-1.009 3.75-4.76 1.875-3.607.29,3.463 4.471-2.311 4.187-5.768 3.461-6.489 3.461-6.489s-5.479,5.192-2.305,0c3.172-4.903 5.769-12.405 4.039-10.095-6.638,9.52-.867-2.311-.867-2.311s-6.491,9.375-10.387,13.271c-3.749,3.896-.144-2.306-2.884,1.014-2.884,3.458-4.472,6.633-2.308,5.191 2.164-1.297 1.154.433-2.164,3.463s-6.203,6.633-3.316,4.467c2.74-2.161.433.581-2.163,3.896-2.46,3.45-4.19,6.62-.58,2.59z" fill="#bcb99e" fill-rule="evenodd"/>
 <path d="m197.85,200.64c2.452-1.587 4.472-1.155 2.161,1.299-2.306,2.306-5.479,8.511-2.882,6.201 2.738-2.308.576,2.596-1.154,4.327-1.587,1.587-1.443,1.875-4.04,3.896-2.596,2.161-4.038,4.04-1.875,2.738 2.166-1.441 1.009,1.446-2.163,3.319-3.174,1.877-5.916,2.598-6.925,4.76-1.153,2.166.145,2.454-4.183,5.336-4.471,2.886-9.953,8.222-4.76,5.052 5.337-3.174 6.059-2.742 4.184-.144-1.731,2.593 2.596-.293 4.183-3.031 1.297-2.743 2.164-2.598 4.76-4.472 2.741-2.166 4.472-3.606 5.771-5.768 1.3-2.166 0,3.026 2.021,1.153 2.018-1.877-1.446,5.048.576,3.175 2.018-1.878 3.606-4.621 3.316-1.878-.576,5.48-3.75,9.52-2.163,8.655 1.442-.864 5.335-7.07 8.078-11.104 2.595-4.039 3.315-8.08 1.297-4.764-2.018,3.462-2.306,1.302-1.009-1.297 1.44-2.597 3.175-3.75 2.307-5.625-.72-1.874 3.462-7.5 1.444-5.915-2.022,1.731-2.164.432-1.588-1.732 .724-2.305-1.009-3.892.579-7.209 1.441-3.174 2.594-.723 5.192-3.462 2.451-2.74 6.776-4.76 5.047-2.164-1.73,2.452-1.009,4.471.577,1.153 1.731-3.316 3.606-.865 5.48-2.738 1.878-1.731 6.061-7.214 4.617-6.205-1.299,1.011-6.059,2.742-4.906,1.011 .867-1.731-1.152-.144-2.739,1.299-1.732,1.585-5.48,3.896-4.904,2.018 .578-2.164-1.012-1.441-3.46,1.299-2.599,2.596-6.206,5.338-6.206,3.316s.578-1.441-1.585.144c-2.163,1.731-5.192,1.443-2.308-1.585 2.74-3.028 1.875-4.76-1.3-2.452-3.172,2.452-4.472,1.297-4.472,1.297s5.483-4.184.146-2.02c-5.337,1.878-2.885-2.018-4.328-1.585-1.585.289 1.731-3.174-.144-3.03-2.018.146-3.174,1.587-4.472,4.039-1.153,2.455-1.586,3.896.288,2.455 2.166-1.299 4.327.142 2.887,1.441 2.451-1.441 4.902-.723 2.884.865-2.02,1.443-2.02,3.172.867,1.731 2.884-1.299 3.75.722 2.594,1.875-1.152,1.153-1.442,1.153.435.577 1.85-.73 4.88-.44 1.85,3.74z" fill="#bcb99e" fill-rule="evenodd"/>
 <path d="m239.1,339.41c-1.874,3.603-4.184,5.192-6.346,6.058-2.021,1.008-4.327,1.878-5.771,3.895-1.299,1.874-1.875,3.026-2.308,2.018s-1.008.145-1.44.726c-.291.576-1.59,3.603-1.734,4.179-.144.433-.576,1.301-.576,1.301-.721-2.742-3.029-4.903-1.875-4.903s.29-.869-.864-3.03c-1.156-2.167-2.741-5.192-.868-3.896 1.878,1.297-1.585-2.743-.864-6.058 .864-3.317-4.328-11.685-1.009-9.667 2.451,1.59 1.873-1.441 1.153-4.615-.577-3.17-.721-10.24.864-9.088 1.733,1.157.576-2.306-1.729-3.751-2.454-1.297-1.587-11.104.145-7.065 1.585,4.039.432-2.31.144-5.912-.288-3.463.288-4.472 1.153-2.454 .288-3.031-1.153-10.24 1.155-8.223s.145-1.297.145-4.328c0-3.174.431-7.785 2.019-5.768 1.731,2.017.145-2.018 1.443-5.048 1.152-3.031 0-4.765 1.732-4.765 1.873,0 1.152-1.585 1.873-3.458 .866-1.878-.288,4.472.866,2.593 1.152-1.729-.29,1.446.433,3.752 1.009,2.311 3.172,6.205 2.019,6.349-1.299.145.289,5.77.289,5.77s-2.452-2.743-2.452-.289c0,2.306 0,8.078-1.011,6.35-.864-1.733-1.297-.581-1.152,2.161 .288,2.738-.145,10.24-.864,8.078-.58-2.165-1.444-2.021-1.444,1.586 0,3.463 1.3,4.327.433,7.357-.433,1.873-2.02-3.463-2.02,1.729 0,4.904 1.152,2.742 1.299,6.061 .143,3.171-.723,5.77-.723,5.77s2.022-2.022 2.311-4.473c.433-2.598.864,1.874.433,3.752-.58,1.729 2.017-1.014 2.161-3.896 .145-2.887 2.021.576 2.453-2.742 .577-3.319 3.464-1.297 5.769-4.904 1.731-2.598 6.06-5.191 4.04-1.873 3.607-2.021 5.335-1.59 6.347-4.62s4.037-5.044 3.604-3.603c-.576,1.585-1.009,2.594-1.009,2.594s3.031-1.441 3.463-4.903c.577-3.607 1.729-5.48 1.729-3.175 0,4.62 3.319-9.083 3.175-6.057s.145-8.799-1.152-6.057c-1.3,2.594-1.014,5.624-1.014,5.624s-2.45-5.336 0-8.654c2.311-3.319 4.329-3.319 5.05-5.769 .724-2.311 1.011,5.048 3.316-1.009 2.311-6.062 4.039-5.341 4.039-5.341s-3.604,6.35-3.315,11.397-1.444-5.336-2.453,6.057c-.863,11.397-2.598,11.829-2.598,11.829s-1.008-6.345-2.306,1.009c-1.443,7.358 2.596,2.742.577,7.07s-3.031-5.773-4.04,2.017c-1.009,7.646 1.009,8.079-.288,10.821-1.44,2.594-1.009,5.913-2.742,7.931-1.729,2.165-.288,1.012-.145,2.597 .145,1.446 1.012,3.176.724,4.328-.145,1.009 1.154-.288 1.154-.288s.145.864-.578,3.03c-.576,2.018-1.588,3.895-1.443,1.729 .144-2.306.288-3.319-.577-2.594-.432.433-1.152,3.17-1.297,2.161-.144-1.152-.144-1.729-.72-1.008-.579.576-1.443,3.463-1.731,3.463-.436.143-.723-3.607-1.732-4.04-1.12-.46-2.28,2.14-3.29,4.16z" fill="#7d7761" fill-rule="evenodd"/>
 <path d="m118.37,342c-3.462-.576-8.799-2.594-9.953-1.009-1.009,1.729-3.461-.288-4.327,1.875-.866,2.165-5.627,2.741-8.511,5.623-2.885,2.887 1.01,3.612-1.875,3.612s.865.864-2.452,1.873c-3.173,1.009-12.694,10.384-12.837,13.414s-3.751,2.018-4.761,7.79-1.154-1.297-.144-4.183 2.74-3.751.433-3.03c-2.164.72 3.461-4.04.865-4.184-2.452-.288 5.625-1.729 2.885-3.031-2.597-1.44 3.605-1.44 0-1.873s.288-.433 3.317-2.742c3.029-2.161 5.914-4.76 2.74-4.615-3.172.148.866-1.585 3.173-2.45 2.453-.72-2.74-.72 1.01-2.021 3.751-1.153 2.885-2.306.577-2.162-2.452.145-.865-.144 2.596-1.729 3.606-1.446 2.884-1.302-.865-1.877-3.606-.721-3.029,2.16-6.202-1.154-3.173-3.174-4.185-.288-8.223-3.174-4.038-2.742-4.615-3.463-.144-3.031 4.472.581.577-.432-2.163-1.585s.576-4.903.144-6.925c-.577-2.018-1.154,5.916-2.164.288-1.01-5.48-2.884,3.174-3.029-3.17-.144-6.35-3.894,2.16-2.596-4.185 1.443-6.349 1.01-4.183-.866-8.223-2.162-4.038-.288,2.599-.576-2.886-.288-5.625-2.452,2.598-2.164-1.729s-.72-4.327-2.452-.864c-1.588,3.603-3.03-5.48-1.588-9.231 1.298-3.607-.577-3.463-1.73-1.733-1.154,1.59-1.299-2.738.721-4.472 2.02-1.585-2.596-.864.865-3.314 3.318-2.599-2.74-3.463-1.298-3.463 1.587,0 1.442-.725-.144-2.454-1.443-1.729-1.009-2.454-.577-7.065 .288-4.615-1.586-2.021-1.153-5.34 .287-3.459-.723-6.489-.723-6.489s3.029,2.738 3.895,5.769c.722,3.03-.433-4.327 1.876.721 2.452,5.052 1.154,6.493 7.357,9.951 6.202,3.318-2.741,1.445 5.192,5.772 7.934,4.472 1.01,2.887 4.905,5.769 3.894,2.887-5.915-2.161-1.731,2.742 4.182,4.761 8.511,11.394 12.261,11.542 3.751.14 3.751,5.191 8.655,6.057 4.759.864 6.203-.145 9.375-.433 3.173-.433-2.596-.864.145-1.733 2.741-.864-2.019-5.048 0-3.751 2.019,1.445 5.337-1.009 2.885-2.162s4.327-1.44 3.605-3.174c-.865-1.729-4.327-4.328-2.306-8.367 2.018-4.184 2.018-6.776.432-4.327-1.731,2.599.721-2.737-1.587-1.44s1.875-1.153 3.03-4.616c1.153-3.318-2.308-1.446-.288-4.615s-2.309.432.144-4.184c2.453-4.76-2.885-.865.721-5.048 3.461-4.327 2.164-5.048.145-2.599-2.02,2.599-.577-3.031 4.473-7.065 5.047-4.039 6.058-4.039 7.355-7.79 1.443-3.607-1.73,5.048.578,1.585 2.308-3.314 2.019.433.288,3.751-1.586,3.318-3.318,8.512-1.586,6.35 1.586-2.166 2.884-1.014 0,2.018s-1.587,2.598 1.009.864c2.453-1.729 4.328-1.44 1.01,2.599-3.317,4.183-7.934,6.345-4.904,5.479 3.029-.864 4.471-1.009 2.02,1.153-2.596,2.166-1.443,2.599.144,1.297 1.442-1.153 2.885.725.289,2.165-2.453,1.586-2.741,3.464-.433,2.455s2.884,0 .288,1.585c-2.453,1.733-1.155,3.03 1.298.864 2.596-2.161 1.443,2.455-1.153,4.615-2.453,2.167-6.06,3.896-3.895,4.04 1.875.144 4.471-.145 5.336-1.297 .865-1.297.865,2.737-2.019,4.327-2.885,1.44-3.029,3.319-.578,2.306 2.596-1.009 3.606-1.585 3.606-2.018s.145,2.599-2.596,3.896c-2.596,1.297-2.596,2.161-.577,2.018 1.875-.145 3.318-1.153 3.318-1.153s-1.443,2.599-3.461,4.184c-2.308,1.44-.434,1.873 2.307,2.018 2.597.148 4.184,1.013 1.732,1.297-2.597.437-4.328,2.166-1.587,2.887 2.596.725-2.308,1.733.29,2.453 2.739,1.009-1.299,4.761 1.874,8.079 3.173,3.17 3.318,4.759 1.299,3.751-1.875-1.013-3.173.145-.578,2.018 2.452,1.877 4.039,3.606.866,2.31-3.318-1.156-1.731.721.144,1.441s2.454,1.44 1.01,2.886c-1.586,1.298 1.154,6.058-2.452,2.595-3.462-3.319 2.74,6.78 5.625,7.07s-.144,3.745 3.75,3.605c3.751-.148-3.75,3.314 1.155,2.594 4.904-.576-3.319,2.167 1.442,4.616s4.759,6.493 1.731,4.616c-3.03-2.162.865,3.605 3.172,5.047 2.309,1.59-1.441,2.742 2.309,5.341 3.894,2.45-2.309,3.896.722,6.776 3.03,2.743.722,3.896.722,3.896s-1.586-2.161-4.617-3.174 1.156-8.943-4.038-8.079-4.04,8.659-7.501,10.965c-3.606,2.306-9.375-.144-7.357-.288 2.309-.145.433-3.031 2.309-3.031s-.866-3.462.287-4.038c1.155-.721 1.731-2.161-1.874-2.882-3.463-.726-7.069-.145-6.348-1.157s-3.173-4.761-.144-3.603c3.029,1.297 3.895,2.594 6.058,2.017 2.165-.432 3.463-.288 5.049,0 1.444.289-4.615-4.039-1.586-3.175s-1.155-2.161-.29-2.306c.866-.288.146-1.589-2.019-1.877-2.164-.288 6.347-.432-2.02-2.449-8.366-1.729-3.317-3.463-1.731-3.607 1.731-.144-2.596-.576-1.153-2.166 1.586-1.729 2.884-3.17-.865-3.458-3.58-.22-7.47-2.67-1.99-2.24z" fill="#dfd5af" fill-rule="evenodd" stroke="#efe4bb" stroke-linecap="round" stroke-linejoin="round" stroke-miterlimit="2.4142" stroke-width=".432"/>
 <path d="m124.14,128.52c-3.317.291-7.357,5.483-9.808,8.8-2.308,3.316 2.02-.721 4.039,0s-2.307,3.316-5.049,8.366c-2.596,5.048-1.298,4.039-.289,4.039s2.742,1.732-.721,5.769c-3.317,4.04-2.308,9.377.433,5.339 4.905-7.358-4.039,10.818 1.587,6.779s-3.606,11.106.288,6.347c4.183-4.759-3.318,14.567 1.154,8.799 4.327-5.771.29,4.327 0,6.347-.433,2.018 3.605-3.462 3.605,1.299 0,8.22 7.647-13.993 7.069-3.319-.433,9.375 1.01,17.164 2.741,7.788s.288,17.454 3.318,8.367 3.462-1.297 3.462,4.76 5.048,14.28 4.326,5.626 2.741-3.029 3.75-.291c.865,2.596-1.73,9.232-2.451,13.271-.577,4.039 4.039-3.318 1.442,3.751-2.741,7.07-3.461,13.126-.722,7.353 2.596-5.625-3.461,13.852 0,8.803 3.318-5.052-1.298,12.402 1.298,8.651 2.742-3.603 3.751-9.375 4.329-5.913 .72,3.319-2.309,5.913-1.875,10.389 .288,4.328 1.875-1.733 4.613-5.34 2.742-3.752 1.3,3.318 2.454,6.061 1.009,2.594 1.298-5.769 2.307-9.52 1.01-3.607 2.308-1.008 2.308,1.729 0,2.594 2.453,1.009 3.03-5.048 .722-6.062 5.77-17.166 2.451-12.118-3.461,5.048 4.905-14.135 8.079-16.445 3.028-2.45 1.874-7.355-1.442-3.604-3.318,3.604-4.04,5.914-4.04,5.914s-.288-8.654 2.021-12.695c2.45-4.037-.577-4.328-3.606-1.009s-3.462,1.443-1.011-5.048c2.309-6.347 1.011-6.923-1.729-3.895-2.741,2.886-4.327,3.895-3.462-2.452 1.01-6.347-.577-8.079 2.451-12.115s0-4.76-3.316,0c-3.462,4.76-4.472,4.037-3.751-.723 .721-4.616 3.316-9.375 3.316-9.375s-6.059,3.317-7.067,7.067-2.308.721-1.298-4.759c1.009-5.339 0-6.06-1.298-2.308-1.442,3.751-3.03,5.338-2.453-1.009 .723-6.349.723-9.378-1.586-5.338-2.452,4.039-2.741,7.067-2.741,7.067s-.72-6.779.722-10.816c1.298-4.042 0-7.07-2.452-2.598-2.308,4.327-3.318,4.039-3.03-1.153 .434-4.907 2.741-8.943 1.442-8.655-1.442.286-3.03,4.327-3.03,4.327s-1.441-3.318 0-7.07c1.299-3.605.289-7.065-1.729-4.327s-3.03,7.646-3.03,7.646-1.443-7.789 0-11.397c1.298-3.316 2.02-8.364-1.01-4.325s-3.461,7.067-3.461,7.067-1.298-8.367 1.443-11.395c2.31-2.78 1.3-3.79-2.02-3.5z" fill="#fffae4" fill-rule="evenodd" stroke="#fff5d5" stroke-linecap="round" stroke-linejoin="round" stroke-miterlimit="2.4142" stroke-width=".432"/>
 <path d="m77.98,179.3c-4.038,4.76-8.078,17.884-8.078,22.646 0,4.614 5.77-6.637 2.452,5.625-2.452,8.8-2.02,10.961-1.443,13.704 .722,2.737 5.481-12.695 4.184,0-1.442,12.838.577,17.454 2.597,9.375s3.317-.576 1.298,8.079c-2.02,8.799 2.74,16.153 3.461,6.777 .576-9.375 3.029,1.012 3.317,5.34 .289,4.323 3.75,8.799 3.75,8.799s-1.009-11.83 1.587-11.83c2.741,0 0,8.079 2.019,11.543 2.021,3.313 2.453-4.761 4.039,2.881 1.732,7.791 3.462,8.511 3.462,8.511s-1.441-10.095-.433-13.126 2.02,5.769 3.751,7.07-.288-11.398 1.298-14.141c1.73-2.738 4.327,9.957 5.481.582 .576-5.629-3.751-10.101-3.463-13.996 .29-4.04-3.316-7.065-3.604-1.009-.433,6.061-1.443,8.367-1.443,8.367s-3.318-8.799-1.298-16.589c2.018-7.642-2.02-6.633-3.318-2.306-1.442,4.472-1.442,8.511-1.442,8.511s-2.308-7.79-2.02-11.829c.432-4.04-1.875-4.328-2.597-1.441-.721,3.169-2.74-3.896-1.442-7.213 1.442-3.319-3.607,3.317-2.596-2.308s-4.905.576-4.473-5.626c1.011-12.55-4.182,1.587-2.018-13.559 1.731-10.819-3.029-4.04-4.327,1.731-1.015-6.49.283-10.53 1.293-14.56z" fill="#fffae4" fill-rule="evenodd" stroke="#fff5d5" stroke-linecap="round" stroke-linejoin="round" stroke-miterlimit="2.4142" stroke-width=".432"/>
 <path d="m26.918,257.91c-2.741,0-7.067,3.751-8.077,7.07s3.606-2.022 1.01,5.479c-2.741,7.358-4.039,11.974-1.731,17.454 1.154,2.449-.145-4.039 2.02-6.777 3.751-4.62-.288,6.057 1.01,12.113 1.73-4.327 3.461-4.76 2.742,2.311-.723,7.064 2.596-1.302 3.028,10.816 .288,12.117 3.029,9.087 3.029,9.087s.288-13.127 2.308-1.009 3.316,1.009 4.327,11.108c1.153,10.097 4.76,2.45 4.472,10.097-.289,7.785 3.028,11.393 3.028,11.393s-.432-8.078 1.298-9.375 .288,2.599 3.029,6.781c2.741,4.034.722-9.087 3.03.288s5.336,9.808 5.336,9.808-2.307-11.83 0-6.777c2.453,5.044 5.482,5.625 7.068,7.065 1.731,1.297-2.307-3.03-3.03-7.79-.576-4.616 1.732-4.616 3.462-2.306 1.587,2.306 1.587-1.014-3.462-5.772-5.047-4.616-6.346-7.354-5.912-11.682 .287-4.471-2.742-.433-2.454,4.039-1.731-6.782-1.731-18.899-3.317-15.58-1.73,3.463-2.019,7.07-2.019,7.07s-2.019-7.358-1.01-12.406-2.02-1.009-2.452,2.31c-.288,3.459-1.586-8.078-.288-10.389 1.442-2.306.72-5.336-1.01-2.306-1.587,3.026-3.029-1.733-1.01-7.069s1.298-6.777-1.009-4.472c-2.308,2.454-3.318,5.192-3.318,5.192s0-7.214 2.019-10.097c2.021-3.03 7.068-8.798 3.03-7.069-4.039,1.59-5.481,3.607-5.481,3.607s2.74-6.633 4.76-8.079c2.02-1.297 2.308-4.039-1.298-2.017 1.01-4.328 1.298-6.057 2.596-7.358 1.442-1.44-3.029-.433-4.905,3.03 .578-5.336 1.875-8.078 3.319-9.087 1.298-1.009-5.049,1.585-6.347,3.751-1.443,1.873-.722-3.463 1.587-5.769s-5.049,1.009-6.347,5.048c.286-3.01 4.036-9.35-3.031-1.71z" fill="#fffae4" fill-rule="evenodd" stroke="#fff5d5" stroke-linecap="round" stroke-linejoin="round" stroke-miterlimit="2.4142" stroke-width=".432"/>
 <path d="m6.146,288.92c.865-3.603 2.452-11.104 3.317-12.406 .866-1.585.578,3.607-.288,4.904-.721,1.302.576,3.318-.577,4.476-1.01,1.297-2.019,4.76-.578,3.17 1.298-1.585 2.021-2.017 1.587,1.297-.289,3.319.578,5.773 1.01,6.062 .433.145.866-4.616.866.288-.144,4.903 1.442,2.742 1.154,5.192s3.03,4.327 4.472,5.624c1.443,1.157 2.596,1.157 1.731,3.03-.722,1.734-.434,4.04-.434,4.04s1.009-3.175 1.009.432c0,3.463-.721,5.769.866,7.358 1.442,1.729-.144,3.026-1.155,4.471-.72,1.153-.287,3.314.146,3.747 .866.581 2.452-4.759 3.462-1.441s-.288,7.07 1.73,8.224c2.021,1.012-.288-2.162 1.731-.577 2.164,1.729.29,5.912 1.732,7.214 1.442,1.441 3.605,3.458 3.172,5.913-.432,2.449 4.472,9.807 5.049,6.492 .721-3.317 1.875-3.61 2.452.141s.289,11.397 1.155,10.101c1.009-1.446 1.152-4.472 2.164-.581 .864,3.751 7.645,6.35 7.645,4.184-.146-2.018 1.009-1.874 2.164,1.157 1.009,3.029-.146,6.2 1.586,6.92 1.874.577-.866-4.76 2.596-.288 4.471,5.63 2.74,12.119 4.903,12.694 2.021.434 1.298-.721 1.587-2.594 .289-1.877 1.732,1.585 1.875,4.76 0,3.175.866,3.891.866,3.891s1.154-2.449 1.009-.14c0,2.45 1.298,0 1.298,2.883 0,1.733 1.443,1.585 1.298,2.742 0,1.152-1.153,3.026-.288,4.759 .866,1.585.866,3.752 1.731,3.319 1.01-.293 2.308-2.887 2.164-1.59 0,1.297.721,1.445.721,1.445s-.721,0-1.01.721c-.433,1.153-1.731-.721-2.308,1.441-1.299-2.594-4.183-4.761-4.616-6.926-.433-2.306-1.009-1.152-1.298-.864-.434.433-1.009-.721-1.586-2.738-.578-1.878-2.02-2.454-3.895-4.615-2.02-2.311-5.625-5.337-6.779-4.761s-2.884-2.454-4.616-4.327c-1.731-1.877-16.3-16.877-19.474-22.357-3.317-5.341-15.289-23.371-16.299-28.851-1.153-5.625-1.298-8.512-2.019-9.52-.577-.865.432-12.262-1.73-17.742-2.162-5.45-3.606-11.8-1.298-20.74z" fill="#eadfb7" fill-rule="evenodd" stroke="#f6eac0" stroke-linecap="round" stroke-linejoin="round" stroke-miterlimit="2.4142" stroke-width=".432"/>
 <path d="m6.146,288.49c-1.01,3.606-5.336,10.384-5.336,12.838 2.307-1.873 3.461-1.297 2.307,4.328 2.02-1.157 3.317,2.594 4.329,9.808 .72,6.057-.866,9.807-.289,13.847 1.298-1.153 1.875-.721 1.298,1.297-.866,3.318 1.587,3.03 1.731,6.782 .144,2.309.144,7.357 2.884,12.262 1.154,2.161 2.742,3.751 5.483,10.815 .288,1.157 1.153,3.463 1.73,2.166 .432-1.152 1.298-.144 1.731,1.729 .287.721.577,1.729.577,1.729s.288-.865.865-.14 2.884,4.039 3.462,6.632c.72,2.451.865,3.319 1.154,3.319 0,0 .144-2.018.721-2.018 .721.141 1.009,2.594 2.019,4.179 1.011,1.446 5.049,7.215 5.915,6.206 1.009-1.302 3.461,3.895 4.039,1.729 .433-2.018 2.453.288 4.328,2.165 1.875,2.019 4.614,4.467 6.346,8.367 .144.576-.144-2.599 1.298-2.599 1.009-.144 2.885.721 5.913,4.904 1.011,1.297 1.443,2.599 2.164,2.599 .723-.145 1.01.432 1.443,1.873 .433,1.585 1.01,2.161 1.586,1.297 .578-.721-1.009-.433-1.154-4.039-.144-3.459-5.192-1.586-6.347-9.232-.288-2.306-1.154-2.306-1.154-.433 0,1.879-2.02-.288-2.884-2.016-.865-1.878-1.299-1.297-1.009-.146 .144,1.154-.578,1.73-2.308-.288-1.731-2.165-6.058-7.357-7.645-14.135s-1.586-.149-1.154,1.44c.289,1.441-1.009.577-1.587-1.732-.432-2.306-.288,1.732-1.73-.721-1.586-2.306-4.039-7.065-5.193-6.921-1.298.288-2.741-6.206-2.596-9.521 .145-3.462-1.443,4.184-2.741.288-1.152-3.895-2.308-7.069-2.45-4.471-.146,2.45-2.166-1.157-4.474-8.223-2.019-7.069-.864,7.646-3.461-1.877-.577-1.875-.577-5.48-1.299-6.489-.865-.865-1.73,4.614-2.596-.288-.865-4.904-.143-7.359-1.298-8.367-1.154-1.009-1.01-2.167-.432-9.231 .432-7.07-1.154-4.472-1.875-9.52-.866-5.053-3.173-4.039-1.732-8.511 1.298-4.615-1.153-1.585-.143-5.336 1.007-3.9-.724-.73-.436-6.35z" fill="#bcb99e" fill-rule="evenodd"/>
 <path d="m325.5,355.13c-3.605-.145-4.038.72-1.587,1.44 2.308.58.288.725-3.318.433-3.461-.288-4.471,1.589-6.348,2.741-1.873,1.153-1.152,1.302-3.605,1.153-2.306-.145-4.328.725-2.163,1.157 2.163.576-2.308,1.152-4.614.433-2.455-.865-2.743.72-1.444,1.009 1.444.432-1.587.864-3.316,0-1.733-.721.721,2.161-2.742,1.44-3.318-.721-6.491-1.585-7.064-4.039-.436-2.45-2.599.293-2.166-4.183 .576-4.611 1.152-1.585 1.587.147 .288,1.729 1.152-.147 2.02-.868 .721-.576-.72,3.029 3.318,2.741s-.146-2.741.145-4.614c.288-1.734 1.729,2.449 3.893,1.729s3.028,2.31 4.76,1.013c1.588-1.301 1.012-2.741.288-3.895-.721-1.157 2.021.721.867-1.878-1.155-2.449.433-1.009.145-2.737-.288-1.879 1.297,0 2.596,2.305 1.154,2.311 1.3-.72 2.597,1.297s3.029,1.446 1.154-.576c-1.875-2.306-1.154-5.048-.578-3.896 .578,1.158 1.587,2.599 2.31,3.031 .864.576-.579-3.319.576-2.454 1.152.869 1.585,3.03 2.885,3.175 1.442.144 1.299,1.585 2.451.869 1.009-.726 2.452.576 3.463.283 1.009-.283 1.009-.433.145-1.44-.721-.865 1.873.864 3.028,1.44 1.01.581 1.154-.576 1.73.433s2.453.869 3.896.869c2.741,0 3.175,1.297 4.328,1.297 1.152.145-1.299.864-2.887.145-1.441-.577-1.585.576-3.464,0-2.05-.42-1.76.15-2.92.01z" fill="#bcb99e" fill-rule="evenodd"/>
 <path d="m183.13,386.86c-1.588-2.738 1.876.145 3.173-.721 2.31-1.44 5.917,1.014 5.338-1.009-.721-2.021-.721-2.742.721-1.729 1.73,1.009 2.74.72 1.3-.87-1.588-1.729-1.441-3.025-.578-2.161 .866.864 2.019.721 2.163.576 .288,0-1.154-.576-1.154-1.729 0-1.302 1.588.72 2.165-.145 .576-.869-3.749-4.476-.288-2.454 1.154.721 2.163.432 2.739-.145s1.444-.864-.433-1.729c-1.875-.725-1.585-2.167-.864-1.879 .576.29 2.306,1.59 3.894,1.014s-.145-1.156-1.3-1.59c-1.152-.575 2.743,0 2.166-1.151-.432-1.153 1.153-.721 1.874.144 .72,1.008 2.019,0 1.733,1.296-.436,1.154 3.458,0 3.172-2.16-.288-2.166-1.587-1.734-1.442-4.039 .144-2.167 2.308,3.891 1.729.139-.574-3.746-.864-6.345-.142-6.345 .721.144 1.009,3.175 2.739,3.175 1.154,0-1.151-2.599-1.009-5.625 .146-2.886 1.441,1.297 2.306,1.009 1.156-.144-1.728-9.23.868-6.199 2.739,3.025.722-1.014 1.442-3.896 .576-2.743-.144-4.04-.721-5.197-.434-1.153.433,4.477-1.732,1.59-1.873-2.743-1.585-5.337-.866-3.75 .721,1.297 1.877,2.886 1.3.431-.579-2.448.433-2.741 1.011-1.009 .721,1.729 1.729,2.455 1.297,1.009-.576-1.728-.144-4.614.433-5.335 1.152,2.453-1.009,4.904 1.73,9.663-1.442-1.009-1.875-.865-.29,2.311 1.59,3.17 2.455,4.184 1.734,4.184s-1.154-.582.576,2.594c.576,1.152 1.153,2.741 1.009,5.19 0,1.879.433,3.176 1.443,4.04 1.155,1.014 2.164,3.03.867,2.599-1.3-.288 1.729.288 1.873,3.314 0,1.157 0,1.733.145,1.878 .288.431 1.009,1.732 2.453,3.895 1.009,1.729 1.729,1.44 2.306,1.44 .721-.144-.288,1.59-3.172.721-2.884-.864.288,2.022-3.896-.145-4.04-2.017-6.636-3.17-4.759-1.152 1.875,1.873.864,1.44-3.174,1.009-4.184-.288-4.614.864-2.887,1.59 1.732.864 1.3,1.297-.719,1.009-2.167-.433-.146,1.44-3.031,1.44-3.029.145-4.182-.432-3.029.721 1.156,1.014-1.298,1.59-3.027,1.878-1.731.145 0,1.585-2.743,1.729-2.739,0-1.44,1.877-5.047,1.877s-4.472.288-3.605,1.297c.721,1.152.286,1.01-1.875.144-2.15-.87-3.45,1.29-5.91-2.75z" fill="#bcb99e" fill-rule="evenodd"/>
 <path d="m154.14,401.87c2.308,1.729 1.154,5.912 5.338,8.218 3.606,1.878 4.037,1.157 5.337,3.031 .433.72 1.442-1.586 3.604,1.878 2.021,3.025 1.732-.288 3.174,1.873s2.021,3.896 2.021,2.311 1.298-1.014 2.164.719c2.163,4.328.721-2.741 3.75,1.875 3.174,4.902.865-1.297 3.605,2.598 2.596,3.313.29,0 2.74.864 1.587.721 2.887,1.585 2.599.864-.436-.576-.145-1.009 1.729-.432 5.626,1.585 9.23,1.008 11.396,3.175 2.45,2.737 6.489,2.594 8.942.144 2.306-2.311 1.875-1.733 2.594-.869 .868.726 1.012.869 2.455.726 3.175-.577.432,1.729 5.192.72 4.76-1.152 12.55-1.878 12.261-5.048 .577.433 1.297,3.17 2.306,1.729 1.011-1.297 5.194.144 5.482-1.729s2.741-.721 4.906-2.741 2.738-2.45 2.449-3.464c-.144-1.008-.288-2.161 1.732-2.737 2.163-.576 3.462-2.599 2.74-7.07-.865-4.471-2.306-8.799-4.04-11.248-.288,1.152.579,3.606 1.446,5.048 .72,1.297 3.315,9.52-.579,11.969-.435.293-2.74-1.729-2.02-2.449 .72-.865-1.153-1.009-.577-2.167 .433-1.152-1.875-1.009-1.008-2.306 1.008-1.152-3.176-1.297-2.167-2.021 1.012-.576-.719-.576-1.872-1.153-1.155-.721-2.599-1.152-.724.577 1.732,1.877 2.596,1.444 2.596,2.741 .146,1.297.288,1.729.724,2.311 .576.576-.866,2.018.288,3.025 1.011,1.009-.576,2.167-.288,3.752 .433,1.585-1.154,2.018-2.884,2.311-1.734.139-3.031,0-3.896,1.007-.864.866-2.166,1.297-1.442-1.007 .578-2.167-1.588-.87-1.877-4.761-.288-3.896-4.615-5.192-3.172-5.192 1.443-.148-.146-2.166-1.876-2.454-1.731-.433-3.318-1.013-3.606-2.021s-.864-.144-.864,1.157 .864,2.449 1.729,2.449c.722.145-1.297,1.585.578,2.311 2.02.864.721,2.738 1.587,3.319 .864.571 1.297,1.297 1.297,2.306 0,.864 1.3,3.025 0,2.017-1.153-.864-.433,2.887-1.153,3.464-2.451,1.873-6.635,2.597-8.222.719-1.441-1.872-2.163,2.311-3.607-.575-1.297-2.737-2.161-5.48-3.604-6.057-1.588-.433-2.739-2.454-2.019-3.463 .719-.865-2.599-.865-3.175-3.031-.577-2.018-2.018.869-1.874,1.878 .145,1.153-.291,2.743 1.153,3.175s.288,2.018 1.154,2.882c.721.865.721,4.183-.578,5.049-1.297.864-2.452.864-3.607-1.585-1.44-2.455-1.585,4.614-3.46-.288-2.021-5.049-4.184-4.04-4.616-1.879-.576,2.311-2.884,2.311-4.615-1.008-1.731-3.464-3.028-3.896-3.173-1.297 0,2.594 1.586,3.025-2.166,1.152-3.748-2.018-4.76-5.048-7.644-5.336-3.174-.433-6.347-1.009-7.355-3.176-1.156-2.017-.289,2.311-2.454-.144-2.163-2.45-4.759-3.75-5.337-5.336-.721-1.729-.575,5.336-2.308,1.586-1.874-3.752-2.163.436-3.316-1.009-1.155-1.585-4.327-3.314-4.327-5.769-.146-2.455-3.463-5.192-7.067-5.918 .287.726 4.47,2.742 6.058,6.638 .6,1.74 1.03,2.75 1.46,3.19z" fill="#c7c29a" fill-rule="evenodd"/>
 <path d="m200.01,427.83c1.878.283 3.175.432 4.186,1.009s3.173.144 1.873-.145c-1.299-.144-.573-.433 1.156-1.014 1.73-.432 3.175-3.746 3.175-2.017s1.297-1.153 1.297-3.318c-.146-2.018-.288-4.616-1.154-5.048s-.722-1.009-.143-1.441c.721-.433-.146-1.445-.579-.721s-2.02,0-1.011-.293c1.011-.432 1.011-1.44.29-1.147-.723.283-.433-.87-1.011-1.158-.721-.288-.433-2.594 0-1.585 .721,1.729 2.165,1.153 2.311,1.873 .288.87.721,1.009.288,1.441-.434.293 1.584.293 1.584,1.445s2.454,2.594 2.887,5.192c.288,2.598.145,4.039 1.297,3.895s2.021,2.306 2.311.865 .721-1.586 1.44-.145c.865,1.585 2.306,3.031 3.607,1.729 1.441-1.297-.144,2.021 1.873.288 2.164-1.873 1.875,1.157 4.183-1.585s2.021-2.738 1.588-3.895c-.435-1.009-.579-2.163.288-1.873s.145-.29-.288-1.158c-.435-.864-.867-2.306.145-2.018 1.154.289.578-.864-.145-1.152-.723-.433-.867-2.161-.144-1.878 .723.433.576-.721-.436-1.153-.864-.432-1.152-2.449-2.306-2.742-1.299-.433-1.73-1.873-.864-2.161 .721-.145-1.011-1.441.143-.865 1.01.433 2.884,2.162 2.307,2.311-.576.283 2.022,2.018 2.743,4.328 .721,2.161 1.729,4.899 2.449,5.48 .433.576.868,1.585 0,1.585-.864-.145-1.009,1.009.723,1.439 1.732.578 3.173,2.022 1.732,2.022-1.297,0 1.297,1.297 1.297,1.297-1.441.145-3.029,0-3.607.721s-1.441.432-2.45-1.729c-.144,1.297-.576,2.454-4.039,3.319-7.067,1.585-10.529,2.594-11.397,1.44-1.152-1.44-2.882.577-4.327-1.157-1.153-1.297-1.009-.716-1.584-.14-.721.577-3.175,4.04-7.646,2.594-2.32-.71-1.6-1.72-4.05-2.73z" fill="#7d7761" fill-rule="evenodd"/>
 <path d="m241.56,423.5c1.297-2.021 2.738-1.302 3.028-2.741 .288-1.009-.29-1.297.288-1.734 .432-.432-.145-2.737.432-3.025 .723-.433.723-2.306.289-2.743-.433-.433-1.153-1.44-.433-2.161 .578-.721.866-.865.144-1.297-.72-.149-.864-1.446-1.01-2.311 0-.864-.578-1.297-.578-1.297s2.022.721 1.588,1.44c-.576,1.302 1.155,1.441.867,2.167-.433.721 1.009,1.585.576,2.306-.288.72-.288,1.729.721,2.021 .864.284 1.297.716 1.152,1.009-.288.288 3.175-.432 3.751-1.733-.576,1.44-1.585,2.021-3.027,2.31-1.156.289-1.3,1.586-1.156,2.306 .289.721.145,1.158-.864,2.311-1.152,1.009-2.163,2.31-3.75,2.594s-2.02.57-2.02.57z" fill="#7d7761" fill-rule="evenodd"/>
 <path d="m303.72,395.08c1.009.289 4.328-1.44 5.913-.576 1.442,1.009-.721-1.585 2.598-.432 3.461,1.152.864-3.319 3.894-1.297 3.172,1.729 9.376,1.009 9.376-1.589 0-2.594-1.877-5.049.288-4.761 2.162.433-1.732-3.606-.866-3.318 1.011.293 1.156-.865-.576-1.441-1.587-.576-2.163-1.729-4.184-1.729s-1.875-4.615-.433-3.751c1.3.864 4.184-.288 6.203,1.441s3.461,3.03 5.336,3.318c1.877.145 3.752,4.184 2.886,4.328-1.154.144 2.307,1.729 1.154,3.319s2.742,2.594 3.175,1.585c.576-1.009 4.471,1.009 4.471-.722 .145-1.872 3.461-3.462 1.441-5.191-2.02-1.59-.145-3.607-2.596-4.039s1.73-1.586-1.875-2.311c-3.752-.865.288-2.738-1.441-3.895-1.734-1.009-1.157-2.738 3.46-1.442 4.472,1.302 4.616,2.451 6.636,4.184 1.875,1.729 3.315,3.464 2.308,3.031-1.155-.438 1.588.721 1.876,2.161 .432,1.585 0,4.328 1.009,3.463 .864-.864.864-2.161 2.021-3.175 1.296-1.009 0-2.306 0-4.327s-1.012-4.183-3.03-5.049c-1.876-1.007-.868-2.16-1.732-3.605-.866-1.585-2.596-2.594-3.748-3.026-1.299-.433 3.46-.148 5.48.864 2.306,1.153 5.048.577 4.326,1.729-.719,1.009 3.173,4.759 2.885,5.769-.288,1.156 2.164,4.327 2.884-.141 1.156,1.441 1.009,6.346-.864,6.777-2.739.721-.433,5.049-3.175,5.049-2.16,0-3.025.869-3.604,1.877-1.154,2.019-1.875-.145-2.884,2.019-.867,1.872-1.009,1.872-2.599.719-1.44-1.297-1.729-.288-2.018.29-.866,1.156-2.31,0-4.184,1.732-1.587,1.441-1.587-1.009-4.326,1.297-2.887,2.311-3.751-2.166-7.936.576-3.463,2.311-8.222,4.04-14.566.865-.578-.288-.145.288.288,1.302 .576.864.288,1.152-1.156.288-1.154-.577-2.307-1.153-2.307.144 0,.865-.865.433-1.876,0-1.152-.432-2.307-1.013-3.894-.721-1.72.44-2.3,0-4.03-1.59z" fill="#c7c29a" fill-rule="evenodd"/>
 <path d="m316.85,396.53s-1.442-1.446-1.442-2.311c.144-.721 2.451,1.297 3.172,1.585 .576.293 2.742.145 3.319.726 .432.433 5.19.144 5.335-1.014 .721-3.026 2.599-2.594 2.452-3.751-.288-1.153.29-2.306-1.008-3.603-1.589-1.589 1.442-1.301 0-2.453-1.444-1.297-2.596-2.45-1.589-2.45s-.144-1.157-1.007-1.302c-.866-.144-1.444-2.306-2.455-2.599-1.152-.139-2.449-1.44-.576-1.152 2.31.437 3.462,2.887 4.471,2.742 .433-.144 1.297.577 2.164,1.729 .867,1.014 2.308,2.742.579,2.311-1.587-.433 0,1.152.864,1.585s1.875,2.311 1.009,2.741c-1.009.288.288,2.45 1.154,2.162 .724-.287 2.165,0 2.885.576 .721.437 2.452,1.302 2.743.437 .144-.869 1.297-.725 2.449-.291 1.155.291 2.454.147 2.598-1.299 .288-1.44 2.452-.288 2.309-2.016-.147-1.729 1.011-1.154.433-3.175s2.163-1.009.288-2.743c-1.877-1.729-2.885-2.161-2.021-2.306 .721,0 .864-1.152 0-1.585s-2.308-1.014-1.585-1.157c.576-.433-.145-.721-1.011-.865-.864,0 .288-1.297-.723-1.873-1.009-.432-.288-.721 1.157,0 1.152.576 2.882,2.45 3.173,3.17 .288,1.302 2.308,2.022 2.596,2.887 .288,1.009 2.018,2.167 1.442,3.607-.866,2.162 1.154,1.585 1.154,2.743 0,1.297 2.019.716 2.451-.149 .433-1.009 2.599-1.297 2.599-2.306 0-.864 1.151-1.729 2.018-2.742 1.299-1.441-1.009-1.297-.146-2.306 .866-1.157.434-1.009-.143-1.734-.578-.864-.145-1.873-1.009-2.594-.866-.864-.146-1.297.143-1.44 .288-.149-.143-.149-.863-.433-.579-.147-.433-1.732-1.878-2.165-1.297-.288-1.153-1.009-.576-1.152 .432-.145.288-1.158-.577-1.302-.864,0-.288-.577.865-.433s1.587,1.009 1.009,1.59 1.732.864 1.878,1.872c0,1.154 2.018,1.154 1.872,2.599-.287,1.441-.575,1.153.146,2.018 .722.721.431,2.887 1.298,2.887 .723-.145 1.299.433 1.587-.869 .433-1.153 1.586-1.874 1.586-3.171 .432,1.586.144,4.761-.865,5.48-1.152.721-1.585.289-1.729,2.167-.288,2.161-.723,3.025-2.022,2.882-1.441-.145-2.738.576-3.46,1.877-1.155,2.161-1.876.141-2.74,1.73-.724,1.151-.864,2.597-2.311,1.728-1.152-1.009-2.017-1.585-2.449-.576-.435,1.154-1.154.869-2.166,1.009-2.162.293-2.018,2.022-3.749,1.445-1.299-.432-1.73,0-2.307.433-.721.433-1.586,1.585-2.743,1.009-1.297-.721-3.029-1.441-5.048-.288-1.874,1.009-4.04,3.03-9.087,2.887-2.741-.145-4.184-1.009-5.192-1.441-.84-.34-.99-.19-.7.39z" fill="#7d7761" fill-rule="evenodd"/>
 <path d="m126.88,386.57c-4.327,1.156-4.039,2.311-4.759,4.183-1.155,2.454-4.184,6.35-11.685,7.503-3.461.576-5.192,1.152-6.635,3.313-1.298,2.167-5.048,3.896-7.788,4.62-2.597.576-2.741,1.297-2.741,1.297s0-1.585-1.01-1.585c-1.586.144-3.317,3.314-5.625,2.594-1.875-.721-2.308.288-2.885,1.009-.576.869-1.298,2.599-3.029,1.733-1.586-1.009-2.452-.432-3.028,0-.434.288-1.876,1.009-4.04-.864 0,0 2.02.721 2.74-.145 .721-1.013-1.586-.581-2.451-2.021-1.01-1.297 2.018,1.009 4.471.576 2.307-.433-.289-1.153 2.019-1.297 2.309,0-1.442-2.598 1.875-2.453 3.461.147 2.884-.721 1.01-1.297-1.876-.577.721-.721 2.163-1.441 2.02-.864.288-3.607 1.586-2.742 1.443.72 1.01-1.297 2.452,0 1.587,1.301 2.02.869 3.174,0 1.01-1.009 2.02.144 2.454-1.729 .576-1.729 1.874.433 1.729-1.729-.144-2.31 1.298-2.31-1.01-3.751-2.308-1.59-.432-2.311-2.884-2.453-2.308-.146-2.453-2.599-4.183-2.887-1.876-.145-1.876-1.441 2.451-1.153 4.616.288 8.222-.288 9.954,1.302 1.587,1.584 3.894.575 4.759,2.593 .722,2.018 1.444.576 2.597-.288 1.153-1.009 4.904-1.297 3.606-4.327-1.442-2.887 1.587-2.599-.434-4.039s.865-2.166-3.461-2.599-2.741-2.018-5.48-2.594-1.156-1.301 1.586-1.734c2.741-.283 8.221-1.873 9.519-.576 1.156,1.59 2.742.576 3.752,2.022 2.308,2.737 3.317-.288 4.039,1.44 .866,1.874 2.596-.72 4.472-.144 2.165.576 2.165-.721 1.298-1.441-1.01-.72 1.443-1.302 2.596-.576 1.154.721-2.452-3.029.288-2.165s2.165-.721 1.298-2.018c-1.009-1.302 3.319-.437-.142-3.03-3.607-2.455 2.019-.721 2.019-.721 2.019,0 4.327-1.734 1.297-2.743s2.454-1.585-.288-3.751c-2.739-1.873 2.453-1.873-2.739-4.327-4.905-2.305 2.739-2.737-2.309-2.737s1.444-2.311-2.596-2.599c-4.039-.433 2.308-.721-2.164-2.311-4.327-1.729 4.76-1.009 2.741-4.467-2.019-3.319-3.029-2.599-7.645-3.031-4.76-.288 1.01-1.007-6.058-3.605-7.069-2.738-5.771-7.066-3.461-5.769 2.45,1.297-7.647-5.342-3.607-4.328s2.308-2.022-3.028-4.038c-5.483-2.018-10.098-5.049-11.107-6.782s6.058,1.445 11.107,3.318c5.047,2.022 2.307-2.306 6.636,1.446 4.326,3.603 6.489,3.603 2.45-1.446s0-.432 1.587.145c1.732.721 4.039.288 1.874-2.018-2.162-2.454-3.317-3.463-1.009-2.454s4.616,1.157 2.741-.433c-1.874-1.729 3.606.145.577-1.873-2.884-2.022-4.759-3.463-8.511-2.311-3.75.865.291-3.03 3.029-3.03s-2.307-1.729-4.038-3.458 1.299-1.734 3.029-.726 3.03-.283 2.308-2.594c-.576-2.449 2.451-8.078-.576-6.493-3.03,1.733-1.011-3.891-2.454-2.018-1.298,2.018 0-3.318 2.742-6.061 2.739-2.594 3.606-2.594 3.029,1.733-.721,4.327 2.741.288 2.019,4.039s3.318,2.306 0,7.065-1.01,6.35 1.732,5.341c2.596-1.014 2.308,2.449.576,3.17-1.586.581 0,2.599 2.02,5.629s5.049,7.065 2.02,5.336c-3.03-1.585 2.307,3.752-1.01,3.031-3.318-.576 4.039,7.785 3.317,9.519-.576,1.586-6.347-6.062-5.337-2.742s5.337,6.35 5.337,8.367 5.771,5.047 6.202,7.79c.289,2.737-1.298,3.03 1.444,4.472 2.741,1.585 4.039,3.463.577,2.161-3.607-1.44 0,1.734 1.874,3.607 2.164,1.877 3.463,4.759.866,2.886-2.452-1.877-.433,1.009-.288,2.306 .145,1.445 3.029,1.733 1.731,2.742-1.443,1.009 5.481,2.887 5.336,4.328-.143,1.585-3.028,3.319-1.442,4.904 1.442,1.439 3.03,2.741.724,1.732-2.165-1.014-2.454-.868-3.03-3.462-.577-2.599-2.597-2.887-2.597-2.887s-1.009,6.925-4.47,12.262c-3.49,5.19-4.79,6.34-7.82,6.77z" fill="#c7c29a" fill-rule="evenodd"/>
 <path d="m96.444,389.17c-1.156-.434-3.607-2.166-1.444-1.442s1.875-.575 3.319.141c1.44.726 1.874,2.022 2.739,1.589 1.01-.287-1.01.434 1.01.722 1.875.288 2.162.431 2.02,1.151-.145.866.431,1.014 2.019,2.166 1.299,1.009 1.875,3.175 1.587,4.04-.288.864 1.153,1.009 1.153,1.009s-3.173.576-4.328,2.161c-1.153,1.59-2.451,2.887-4.327,3.751 1.441-1.729 4.616-4.903 3.173-5.912s-1.732,1.585-2.741-.721c-1.154-2.166-1.441-4.328-.433-4.184 .865,0 1.153-1.59-.434-1.878-1.586-.433 0-2.018-1.152-1.872-1.294-.01-2.16-.73-2.16-.73z" fill="#7d7761" fill-rule="evenodd"/>
 <path d="m122.84,389.03s.145-1.732-1.443-2.165-2.452,1.156-3.318-.433c-.864-1.585-.432-4.472-1.298-4.615-1.009-.288-1.152-2.455-2.596-2.594s-1.009-.726-1.875-1.59c-.72-.865-2.308-1.153-2.308-1.153s2.453-.864 3.175.288c1.153,1.729 4.615,1.297 4.903,3.175 .289,1.874 2.165.433 2.596,1.874 .434,1.59 1.876.72 2.597,1.878 .577,1.297 1.298,3.314 2.165,1.873 .721-1.441 1.153,0 1.587.145 .576.144 2.884-.289 4.472-2.45 1.441-2.166 2.308-5.053 3.173-5.485 1.009-.721.433-2.741 1.44-3.025 .866-.289-1.586-1.733-2.451-1.445-.865.145-1.875-1.152-1.442,0 .288,1.156-1.587.58-2.019-.288-.434-.864-2.021-1.585-.866-2.161 1.009-.433-.145-1.59-.289-2.887 0-1.297-.432-2.162-1.731-2.311-1.298-.283-3.75-.864-4.615-.864-1.01,0-1.299-1.441-1.299-1.441s1.875.721 3.75.433 3.318.288 4.327,1.44c1.01,1.014 1.731,2.166 2.309,1.158 .721-1.009 1.875-.87 2.451-.145 .722.721 1.732,1.297 1.443,3.463 0,.865 3.317-2.021 3.317-2.021s-.288,3.894-1.729,7.354c-1.587,3.317-4.761,10.388-10.098,11.541-3.59.85-4.02,1.86-4.31,2.44z" fill="#7d7761" fill-rule="evenodd"/>
 <path d="m130.34,346.04s-2.164-4.328-5.047-5.191c-2.886-.864-5.916.143-6.492-1.154-.433-1.297-2.451-3.75-4.183-4.326s3.318,0 5.626.721c2.453.864 3.173-.145 1.442-1.441-1.73-1.445-2.741-5.197-1.73-4.328 1.009.721 2.307,1.874 2.596,1.874s-2.453-2.599-2.596-3.896c0-1.441-2.308-3.462-2.454-4.471-.143-1.009 2.021,1.009 2.886,1.585 1.009.433 3.75,1.589 1.586-.576-3.895-3.459.722-1.009-2.163-3.459-1.875-1.59-2.884-3.896-.866-2.742s2.452-.433 1.443-1.586c-1.155-1.156-1.011-2.453.433-1.877s.288-1.441-.577-2.018c-1.01-.726 2.163.721 3.173,2.306 .865,1.589-1.155.576-.145,1.873 .865,1.302.865,3.463 0,2.742-1.01-.72-1.01,1.734-.144,3.176 .865,1.439 5.625,9.374 2.308,6.199-4.328-3.75-3.463-.864-2.453.869 1.153,1.874 4.183,4.616 4.471,6.778 .145,2.309 6.203,4.902 6.059,9.086-.145,2.599-1.154,1.734-.866,3.464-1.45-1.28-1.89-2.44-2.32-3.59z" fill="#7d7761" fill-rule="evenodd"/>
 <path d="m236.07,156.07c0-.718-.145-2.738-.578-3.749-.576-1.011 0-2.02 0-2.02s.866,1.875 1.014,3.318c.141,1.441.288,2.45.288,2.45s-.14,1.59-.72,0z" fill="#3e4f53" fill-rule="evenodd" stroke="#5a696d" stroke-linecap="round" stroke-linejoin="round" stroke-miterlimit="2.4142" stroke-width=".432"/>
 <path d="m226.26,151.17c1.444-.435 2.597-2.308 3.174-3.175s1.44.289 1.152,1.587 .433,2.885.579,3.175c.15.28-3.6-1.59-4.9-1.59z" fill="#0a0f0f" fill-rule="evenodd"/>
 <path d="m240.11,151.6c-.432-.867-.29-2.308-.866-3.031s0-2.452 1.155-1.297c1.3,1.009 2.885,1.731 2.885,1.731s-2.74.87-3.17,2.6z" fill="#0a0f0f" fill-rule="evenodd"/>
 <path d="m219.92,168.62s.576,1.009 3.752,1.15c3.172,0 5.623.867 11.68-.574 5.051-1.299 1.59-1.443-.72-.723-2.594.723-4.473.865-8.366.865-4.32,0-6.34-.72-6.34-.72z" fill="#3a4d52" fill-rule="evenodd"/>
 <path d="m48.987,216.66 .866-.724" fill="none" stroke="#fff2c7" stroke-linecap="round" stroke-linejoin="round" stroke-miterlimit="2.4142" stroke-width="1.944"/>
</svg>
