<?xml version="1.0" encoding="UTF-8"?>
<svg width="225.78mm" height="230.88mm" version="1.1" viewBox="0 0 799.99998 818.06178" xmlns="http://www.w3.org/2000/svg">
 <g transform="translate(-174.76 301.8)">
  <g transform="matrix(2.0639 0 0 2.0639 -6695.6 -186.4)">
   <path d="m3715.5 63.598c0.9516-1.3246 0.2826-4.8918-1.0629-5.517 0 0-5.2857-3.83-8.2187-5.2188-1.8893-0.89451-2.7977-1.0646-5.9552-1.9647-2.7249-0.77681-6.052-0.59796-8.25-0.6875-3.3353-0.13587-6.9432 0.81361-9.6456 1.7704-4.9882 1.7662-10.118 4.6167-12.514 7.5268l9.597 0.0152 1.4844 0.64065c7.203 5.1857 13.996 0.4274 23.39 4.0472 2.25 0.81798 2.4384 2.7355 2.8404 3.7856 0 0 0.5084-1.2095 0.6646-2.2547 0.1713-1.147-0.1499-2.9304-0.8835-3.8285-0.7965-0.97489-1.9634-2.1596-1.9634-2.1596s4.5753-0.0988 6.6753 0.98166c1.5089 0.77627 2.4542 4.2212 2.4542 4.2212z" fill="#f6f1e7"/>
   <path d="m3675.2 55.379c-2.6823 1.4521-3.8961 2.4337-5.2919 4.1287l9.597 0.0152 1.4844 0.64065c7.203 5.1857 13.996 0.4274 23.39 4.0472 2.25 0.81798 2.4384 2.7355 2.8404 3.7856 0 0 0.5084-1.2095 0.6646-2.2547 0.1713-1.147-0.1499-2.9304-0.8835-3.8285-0.7964-0.97489-1.9634-2.1596-1.9634-2.1596s4.5753-0.0988 6.6753 0.98166c1.5089 0.77627 2.4542 4.2212 2.4542 4.2212l1.387-1.358c0.9516-1.3246 0.2826-4.8918-1.0629-5.517 0 0-5.2857-3.83-8.2187-5.2188l-1.8692-0.65277s4.0411 2.5231 2.8236 2.9777c-1.058 0.39504-4.6784-0.77414-7.2243-0.82949-4.2088-0.0915-7.3629 0.86426-8.8388 1.6765-0.8222 0.45249 0.094 0.99014 1.9773 1.609 1.4888 0.48929 3.8264 1.0293 4.6826 1.6182 0.9884 0.67972-1.712 0.14807-4.7247-0.19745-2.2305-0.25581-4.6322-0.18865-5.8349-0.6062-1.6693-0.57952-4.5685-1.8813-6.2406-2.4529-0.8451-0.28893-1.4727-0.17335-2.4395-0.2605 2.823-2.4498 9.4573-3.9468 15.007-5.715l-9.9169 1.5151z" fill="#e9d6be"/>
   <path transform="translate(1802.7 -114.59)" d="m1894.7 170.37c-1.2692 0.0111-2.7397 0.43411-2.8106 1.1309-0.213 2.0845 6.2163 1.3766 7.7578 2.6641 1.0286 0.85898 1.1016 1.832 1.1016 1.832s-5.0927-0.55151-7.4824-0.8457c-3.4776-0.42807-7.34 0.40112-10.728-0.49024-1.8651-0.49061-3.176-1.6473-5.0372-2.1523-2.5439-0.69025-8.4609 0.0156-8.4609 0.0156-1.2806 0.90949-1.1203 0.61509-1.9102 1.5742h0.2579l-0.5411 0.5-1.5878 1.0156-4.4141 2.2949-1.0586 0.61719-0.9707 1.1699 1.9414-0.28711 1.5234-0.9707 1.5879-0.92774 3.1993-1.7422 1.6113-0.94921 0.8594-0.7168 7.1894 0.0117 1.4844 0.64062c7.203 5.1857 13.996 0.42705 23.391 4.0469 2.25 0.81798 2.4378 2.735 2.8399 3.7852 0 0 0.5078-1.2087 0.664-2.2539 0.1713-1.147-0.1492-2.93-0.8828-3.8281-0.7964-0.97489-1.9629-2.1602-1.9629-2.1602s4.5738-0.1 6.6738 0.98046c1.5089 0.77627 2.4551 4.2227 2.4551 4.2227l0.3008-4.0977s-1.3037-1.5912-2.1816-2.0801c-3.2946-1.8348-4.15-0.8791-7.8907-1.3574-1.0892-0.13927-3.6401-1.3658-6.3906-1.6211-0.1685-0.0156-0.346-0.0231-0.5273-0.0215z" fill="#dfbb90" fill-rule="evenodd"/>
   <path d="m3663.3 63.082c-1.2466 0.46412-2.7961 0.92066-4.0665 1.4247-2.8517 1.1312-6.3906 3.2613-9.1263 4.6496-0.7681 0.38982-1.5223 0.7971-2.2632 1.2266-0.1301 0.07539-0.2648 0.14236-0.3941 0.21874-0.013 7e-3 -0.021 0.02115-0.034 0.02857-0.8519 0.50438-1.6937 1.0464-2.5117 1.5826-0.019 0.01249-0.046 0.01353-0.065 0.02603-0.81 0.53201-1.5794 1.0826-2.3585 1.6264-0.3019 0.21072-0.5992 0.4062-0.8968 0.61675-0.4895 0.34646-0.9861 0.69883-1.4643 1.0408-0.047 0.03387-0.088 0.08066-0.1347 0.11444-0.7174 0.51323-1.4344 1.0003-2.1278 1.4885-0.054 0.03786-0.1123 0.07424-0.1659 0.11191-0.683 0.47945-1.365 0.96508-2.0268 1.4026-0.061 0.04001-0.1365 0.06975-0.197 0.10937-0.6487 0.42526-1.2853 0.82436-1.9156 1.1922-0.075 0.04377-0.156 0.09519-0.2307 0.13798-0.266 0.15229-0.5251 0.29778-0.7881 0.43748-0.08 0.04228-0.1513 0.09692-0.2307 0.13798-0.26 0.13448-0.5259 0.25457-0.783 0.37519-0.087 0.0407-0.1756 0.09642-0.2619 0.13544 0 0-0.2613-0.12362-0.4234-0.19124l-8.0772-0.53231-2.0962 19.582 6.3266 6.6291c0.1065-3e-3 0.2083-2e-3 0.314-6e-3l17.47-11.62c0.4225-0.75622 0.8737-1.5605 1.3865-2.3954 0.3243-0.5279 0.6608-1.0758 1.0428-1.6395 0.2158-0.31863 0.4682-0.6462 0.7066-0.97712 0.5837-0.8084 1.2461-1.6772 1.996-2.5652 0.01-0.01071 0.025-0.01796 0.034-0.02857 0.3162-0.37366 0.6509-0.75232 1.0021-1.1412 0.2296-0.25411 0.4769-0.52686 0.7226-0.7877 0.034-0.03587 0.07-0.08103 0.1035-0.11698 0.4906-0.51766 1.0105-1.0202 1.5698-1.5653 0.1922-0.10532 0.3756-0.24071 0.5624-0.36179 0.03-0.01956 0.069-0.0347 0.099-0.05469 0.1736-0.11537 0.3305-0.23908 0.5002-0.36686 2.613-2.0105 4.6243-5.508 7.858-8.3272l0.946-11.618z" fill="#f6f1e7"/>
   <path d="m3662.9 67.941c-0.049 0.03623-7.2084 5.3281-10.312 7.6571-3.2375 2.4296-5.4147 5.1881-7.9826 8.3171-2.4 2.9243-4.312 6.5323-6.7556 9.4203-1.869 2.2089-4.0629 4.4947-6.8308 5.3382-2.2865 0.69685-9.7848-1.8941-9.7848-1.8941l-0.4532 3.2552 4.0124 4.2459 13.711-2.4265 3.7132-7.097 10.292-12.801 7.79-8.6463 2.248-1.0397 0.3526-4.3294z" fill="#e9d6be"/>
   <path d="m3663.3 63.082c-1.2466 0.46412-2.7961 0.92066-4.0665 1.4247-2.8517 1.1312-6.3906 3.2613-9.1263 4.6496-0.4582 0.23257-0.9256 0.45571-1.3741 0.7033-1.3274 0.73335-2.6125 1.532-3.8597 2.3507-0.012 8e-3 -0.022 0.02062-0.034 0.02857-0.8233 0.54107-1.6319 1.0995-2.4233 1.6525-0.024 0.01644-0.044 0.04077-0.067 0.05722-0.778 0.54433-1.5467 1.0953-2.2962 1.6315-0.024 0.01694-0.044 0.04038-0.067 0.05722-0.7478 0.535-1.5045 1.0357-2.2263 1.5431-0.024 0.01664-0.044 0.04068-0.067 0.05722-0.7198 0.50532-1.429 0.99897-2.1253 1.4573-0.03 0.0199-0.068 0.03487-0.098 0.05469-0.7283 0.4774-1.441 0.92641-2.1463 1.3302-0.3077 0.17617-0.6166 0.36158-0.9203 0.52078-0.033 0.01745-0.065 0.03743-0.098 0.05469-0.3086 0.15994-0.608 0.28705-0.9127 0.42734-0.046 0.02107-0.087 0.06277-0.1322 0.08325 0 0-1.3899-0.62728-2.1296-0.80048-0.2375-0.05566-0.4917-0.09412-0.7736-0.1257-1.4419 0.38512-2.7386 0.18111-3.9212 0.02558-0.931 0.07435-1.6762 0.17705-1.6762 0.17705l-0.3447 3.076c0.073 0.23846 0.1857 0.43745 0.393 0.565 1.4058 0.86498 4.913-0.06539 7.032-0.4934 2.2684-0.67834 4.443-1.9408 6.6735-3.4071 4.461-2.9327 9.1437-6.772 14.375-9.4269 2.8303-1.4364 6.4097-3.5263 9.0252-4.5638 1.0997-0.43623 2.1651-0.86787 3.239-1.2726l0.1496-1.8377zm-0.5859 7.1949c-0.4012 0.25794-0.8077 0.52506-1.1948 0.81196-4.9012 3.632-8.5192 8.2888-11.335 9.8312-0.1353 0.07617-0.2877 0.17287-0.3991 0.28103-5.1447 5.0149-7.3509 9.2272-9.0961 12.365s-4.2901 4.6214-7.4846 6.8213c-1.3812 0.9512-2.6656 0.21511-4.8205 0.67348-1.1416 0.24283-6.5144-1.1773-7.7049-1.2545l-0.015 0.18688 6.2929 6.6577c0.4171-0.01 0.8227-0.0275 1.2274-0.0568 0.02-1e-3 0.042 6e-3 0.062 5e-3 1.4722-0.20848 4.0577-0.66013 6.4229-1.4836 2.9535-1.2313 5.4299-3.1819 7.5254-5.7833 1.3789-1.9609 2.3801-4.1245 3.9632-6.7005 0.1749-0.28443 0.3838-0.59923 0.5744-0.89383 0.2212-0.34147 0.4371-0.71721 0.6831-1.0731 0.032-0.04682 0.073-0.10102 0.1061-0.14813 0.4216-0.60393 0.8961-1.2124 1.4056-1.8608 0.3318-0.42216 0.6702-0.85196 1.046-1.2944 0.1255-0.14777 0.281-0.28665 0.4118-0.43677 0.3779-0.43358 0.7813-0.89022 1.2069-1.344 0.5435-0.57962 1.1129-1.1562 1.7432-1.7706 0.1922-0.10532 0.3756-0.24071 0.5624-0.36179 0.03-0.01956 0.069-0.0347 0.099-0.05469 0.1736-0.11537 0.3305-0.23908 0.5002-0.36686 2.613-2.0105 4.6243-5.508 7.858-8.3272l0.3601-4.4229z" fill="#dfbb90"/>
   <path d="m3662.5 70.413 1.1194-0.73875 4.2982-3.1565 3.3132-2.0596 2.0371-1.388 0.9851-0.44773 4.8354-2.0819 1.2985-0.42534-1.2761 1.388-3.7609 2.9998-6.1787 4.7012-5.8652 4.7683-0.985 0.71636-0.2463-2.6192z" fill="#dfbb90" fill-rule="evenodd"/>
   <path d="m3669.9 68.701 11.016-8.5376c7.203 5.1857 13.996 0.4274 23.39 4.0472 2.25 0.81798 2.4384 2.7355 2.8404 3.7856 0 0 0.5084-1.2095 0.6646-2.2547 0.1713-1.147-0.1499-2.9304-0.8835-3.8285-0.7965-0.97489-1.9634-2.1596-1.9634-2.1596s4.5753-0.0988 6.6753 0.98166c1.5089 0.77627 2.4542 4.2212 2.4542 4.2212l1.387-1.358c0.9516-1.3246 0.2826-4.8918-1.0629-5.517 0 0-5.2857-3.83-8.2187-5.2188-1.8893-0.89451-2.7977-1.0646-5.9552-1.9647-2.7249-0.77681-6.052-0.59796-8.25-0.6875-3.3353-0.13587-6.9432 0.81361-9.6456 1.7704-4.9882 1.7662-10.118 4.6167-12.514 7.5268l-6.6117 3.5727c-1.2466 0.46412-2.7783 0.9289-4.0488 1.4329-2.8516 1.1312-6.408 3.2507-9.1437 4.6391-7.332 3.721-13.389 9.5353-18.84 11.999 0 0-1.3848-0.60267-2.1245-0.77586-2.1272-0.49814-6.3882 0.05913-6.3882 0.05913l-2.1107 19.676 6.1949 6.5624c9.2696-0.16784 15.505-5.1799 19.325-14.049 1.5372-2.4998 3.629-5.382 7.1627-8.8266 3.2229-1.7652 5.3304-5.8609 9.0261-9.0828z" fill="none" stroke="#6b3814" stroke-width="1px"/>
   <path d="m3705.9 59.672c-0.5597-0.5025-0.7748-0.85737-1.5787-1.2547-1.5612-0.77176-3.4836-1.2917-5.1562-1.5938-0.5503-0.0994-1.1247-0.10329-1.6875-0.0937v-5e-5c-1.6886 0.0286-3.2188 0.40625-3.2188 0.40625s2.7262 0.32769 4.7188 0.6875c1.6073 0.29026 3.4482 0.79473 4.875 1.5 0.6757 0.33402 0.8413 0.66913 1.4283 1.1856z" color="#000000" fill="#6b3814" style="block-progression:tb;text-decoration-line:none;text-indent:0;text-transform:none"/>
   <g transform="translate(3277.7 -120.89)">
    <path d="m282.64 399.86c0.86253 8.2926 15.435 7.4736 15.794-4.5891l-1.3101-10.037z" fill="#834515" stroke="#6b3814" stroke-width="1px"/>
    <path transform="translate(.80922 -.53948)" d="m295.71 388.96-10.863 10.98c0.28687 1.0013 0.78694 1.7548 1.5977 2.2441 1.0233 0.61762 2.471 0.87332 3.9492 0.60938 2.9387-0.52472 5.8932-2.8045 6.082-7.9863l-0.76563-5.8477z" fill="#8b4b16"/>
    <path d="m358.02 101.1c-2.6337-14.733 6.6824-20.294 9.7258-34.478 1.1589 2.722 1.5903 6.926 1.863 9.9193 1.2048 13.227-3.6584 20.616-4.8632 25.843-2.5171 2.3247-6.4766 2.061-6.7255-1.284z" fill="#cc8b3e" stroke="#6b3814" stroke-width="1px"/>
    <path d="m364.23 101.23c1.4887-5.6842 5.7547-12.348 4.625-24.75-0.10965-1.2038-0.29847-2.6107-0.5-4-1.6483 4.4986-2.8502 7.6597-4.5215 11.175-2.3251 4.8903-3.6163 9.67-2.1679 16.983z" fill="#dfbb90"/>
    <path d="m368.31 76.316c-0.9697 2.5546-1.9002 5.1523-3.0312 7.5312-2.286 4.808-3.5961 9.9864-1.7441 16.716 2.2694-5.9015 5.8582-12.359 4.7753-24.247z" fill="#e9d6be"/>
    <path d="m364.24 227.65c3.6683-9.4995 5.1956-19.007 5.9182-28.499 2.07-27.19-4.5463-53.281-0.76959-57.254 0.63915-0.67234 1.7633-1.1223 3.7098-1.108 6.2095 0.0456 17.993 2.9764 19.549-0.95874 0.77197-0.0512 1.8494-0.35752 2.4584-2.3791 1.9534 1.5589 2.216-0.70696 2.3733-1.5089 0.41291-2.7019 0.94767-7.6387-0.14048-10.213-0.83813-1.9832-2.6706-2.9047-4.4656-4.0935-5.1578-3.4161-15.552-9.0758-15.552-9.0758 0.88739-0.7213 1.7092-1.5842 1.3906-2.9866-0.43276-2.1045-13.77-8.4831-22.574-8.5059-2.6198-7e-3 -4.8326 0.58692-6.1832 2.3832-5.1964-10.88-14.199-23.997-21.56-29.198 4.9316 14.068-1.4967 29.178 12.555 42.251-4.6201 10.639-6.5537 21.279-7.1852 31.918-7.9033 9.8795-12.648 18.036-16.399 25.651s-5.1186 13.864-10.143 20.913c-5.2235 7.3287-13.96 14.282-19.801 21.042s-9.5205 14.723-14.289 22.436c-5.4563 8.8248-10.434 15.024-15.829 22.193-8.3084 11.04-16.49 21.606-21.407 30.888-5.7434 10.842-9.1045 20.448-9.9235 28.737-0.99651 10.085-1.5079 17.208 0.6665 33.796 1.9429 14.822 12.724 38.692 9.7838 50.353-2.482 9.8421-13.359 15.84-29.218 19.354-39.922 8.8459-111 9.0687-153.74 9.8858-3.1784 0.6306-2.1624 4.1077 2.3601 4.9742 32.957 4.6189 106.09 8.0576 154.58 5.5939 21.879-1.1118 39.237-4.9461 53.204-16.834 6.6407-5.6522 12.514-13.141 17.74-23.061 10.207-7.3446 11.839-9.1842 14.86-14.373-0.29898 30.782-13.632 37.866-11.198 46.472 1.2867 4.5508 5.0143 6.4694 12.265 7.4238 3.0546 0.40206 12.265-1.4312 12.265-1.4312 16.407 0.34537 35.007 1.6576 52.51 0.47724 5.868-0.39573 14.646-2.409 17.604-1.7713 3.2065 0.69138 9.5215 3.2048 14.546 4.4341 5.998 1.4675 12.106 2.1789 18.234 2.605 4.5036 0.83364 6.699 6.9616 10.93 8.2339 0.31489 1.5454 0.954 4.5968 2.6796 4.4203 0 0 0.25637-6.2388-1.4404-9.935-0.95745-2.0857-3.5339-3.4161-5.0104-5.2808-2.1643-2.7333-3.2618-4.9207-6.3482-6.2591-2.3386-1.0141-6.0669-0.85353-6.0669-0.85353s-2.4563-1.9213-3.6384-1.9561c-10.361-0.30526-8.4577-3.3478-19.129-5.6198-4.6824-0.64437-4.4272 0.36539-7.9732 0.4234-23.778 0.38912-55.259-0.68029-61.326-9.7238-2.7797-4.1434-1.5242-12.2 1.0652-22 4.6416-17.567 14.391-40.141 15.834-58.86 0.70069-9.09 0.12833-17.246-2.9199-23.781 0 0 6.401-11.433 9.4106-21.096 3.836-12.316 6.6277-26.957 11.031-39.082 3.9094-10.764 11.212-20.109 14.707-29.16z" fill="#cc8b3e"/>
    <path d="m358.83 116.98 11.832 1.2112s0.67104-5.4787-4.798-5.916c-4.7353-0.37866-7.1672 4.6583-7.1672 4.6583z" fill="#d4a061"/>
    <path d="m366.11 113.08c-2.8694-0.28963-5.4106 1.8434-6.7948 3.1716-0.22802 0.23761-0.96021 0.74774-0.84627 1.0517 0.12314 0.32848 1.4881 0.25617 1.8439 0.26201 0.41983 1.3e-4 0.61537 0.087 0.6875 0.125 0.0721 0.038 0.10338 0.061 0.21875 0.25 0.0101 0.0107 0.0205 0.0211 0.0312 0.0312 1.0282 1.5023 2.3692 2.3751 3.8125 2.5625 1.3537 0.17574 2.7138-0.27114 3.9062-1.0938 0.36893-0.014 1.4651 0.47911 1.8862 0.0749 0.58363-0.61982-0.27049-1.1904-0.29249-1.5437-0.0154-0.24727-0.12218-0.44562-0.21875-0.65625 0 0-0.0864-0.24692-0.0937-0.28125-0.0458-0.21465-0.18261-0.84492-0.6875-1.7188-0.58565-1.0136-1.7244-2.0225-3.4528-2.2352z" fill="#bf8035"/>
    <path d="m377.44 112.87s-10.602-3.5329-14.71-1.8771c-5.5083 2.2204-7.2775 5.0946-7.1557 7.6081 0.0717 1.4796 2.9888-0.33552 4.4398 0.19304 1.974 0.71905 2.9873 2.1678 5.0189 2.7025 2.7216 0.71632 5.5098-0.74949 8.3005-0.38608 5.5084 0.71731 9.8645 5.168 15.057 7.1423 1.5036 0.57173 3.3697 0.35519 4.6328 1.3512 1.2221 0.96366 1.9529 2.5405 2.3164 4.0537 0.31601 1.3154-0.19304 4.0537-0.19304 4.0537l-2.405 2.4776-0.96555 0.96556-4.5864 0.72416-15.69-1.2069c-13.584 3.1543-22.861 3.0625-25.225-4.0956-0.94811-2.2786-4.7502 10.356-5.2552 14.524-0.84111 6.9408-5.2538 12.963-7.6023 19.549-2.5572 7.1707-5.5747 14.254-7.0592 21.721-1.8056 9.0819-0.81415 16.348-4.777 24.717-5.2597 11.107-11.895 15.274-17.734 26.088-3.7613 6.9662-6.7768 18.866-9.649 26.243-4.3366 11.139-11.578 17.12-12.786 29.012-0.83891 8.2621 3.6809 17.268 7.2909 24.747 4.8714 10.092 9.6616 10.507 11.589 28.298 0.8949 8.2582-1.5104 17.547-2.0923 25.833-0.32911 4.6858-1.9898 12.672-1.9898 12.672-3.0212 5.1888-4.6527 7.0284-14.86 14.373-5.2262 9.92-11.1 17.408-17.74 23.061-13.967 11.888-31.325 15.722-53.204 16.834-48.484 2.4637-121.62-0.97498-154.58-5.5939-4.5225-0.86648-5.5385-4.3436-2.3601-4.9742 42.734-0.81716 113.81-1.0399 153.74-9.8858 15.859-3.5141 26.736-9.5115 29.218-19.354 2.9406-11.661-7.8409-35.531-9.7838-50.353-2.1744-16.588-1.663-23.711-0.6665-33.796 0.819-8.2885 4.18-17.895 9.9235-28.737 4.9167-9.2813 13.098-19.848 21.407-30.888 5.3952-7.1691 10.373-13.368 15.829-22.193 4.7688-7.7129 8.4487-15.676 14.289-22.436s14.577-13.714 19.801-21.042c5.0246-7.0496 6.3919-13.299 10.143-20.913s8.4956-15.771 16.399-25.651c0.63155-10.639 2.5651-21.279 7.1852-31.918 4.4223 0.25885 2.7135-3.6554 1.8955-4.5697-2.626-2.847-5.7591-7.3909-6.7132-9.8824-1.7946-4.6863-1.6952-9.7332-2.9559-14.59-1.1076-4.2674-4.895-13.38-4.895-13.38 7.1415 9.1869 14.283 16.815 21.425 31.841 0 0 3.387-0.76751 5.0952-0.6506 9.3651 0.64097 17.439 7.0666 23.83 5.2166z" fill="#bf8035"/>
    <path d="m348.5 106.3c-4.3139-9.0418-11.057-18.378-15.88-25.589 0 0 2.8184 10.428 5.7693 15.245 1.3712 2.2384 6.1622 15.456 9.3207 14.945 1.4938-0.24169 0.79011-4.6014 0.79011-4.6014z" fill="#a4621b"/>
    <path d="m336.94 150.97c-5.2403 7.1747-12.013 19.432-14.94 25.373-3.4759 7.0558-4.956 13.79-10.562 21.656-5.9118 8.2943-14.81 15.254-20.125 21.406-5.2278 6.0511-8.7994 13.724-13.781 21.781-5.6245 9.0969-10.754 15.498-16.094 22.594-8.3342 11.074-16.402 21.566-20.969 30.188-5.5453 10.468-8.6231 19.519-9.3438 26.812-0.99039 10.023-1.5107 16.332 0.625 32.625 0.85771 6.5432 3.9775 16.214 6.5938 25.656s5.1038 18.53 3.0625 26.625c-1.617 6.4122-6.0394 11.503-11.812 15.156s-12.958 6.1626-21.25 8c-26.799 5.938-65.921 7.8999-101.94 8.875 33.799 1.9475 73.46 2.9142 103.75 1.375 21.414-1.0881 37.317-4.7502 50.094-15.625 6.0714-5.1676 11.551-12.078 16.531-21.531 0.36547-0.70023 0.8938-1.3148 1.5312-1.7812 9.4701-6.8143 10.503-7.8551 12.969-12.031 0.18963-0.96729 6.238-5.7808 6.4932-9.4141-22.143 11.412-35.782 4.5931-37.091-9.8091-12.864-24.94-14.231-46.284 2.5287-71.496 4.2177-6.3449 7.7896-7.4756 11.635-12.012s8.8883-13.237 10.582-17.588c1.0095-2.593 1.2371-6.1413 1.5-10.281s5.0278-8.9676 7.5594-13.656c3.7158-6.8819 7.6464-16.873 12.282-21.239 10.079-9.491 12.352-20.383 14.511-31.256 1.6221-8.1701 6.9966-17.411 9.4828-24.383 1.625-4.5566 4.6263-12.525 6.1757-16.022z" fill="#b2742b"/>
    <path d="m340.95 116.51c-4.6201 10.639-6.5537 21.279-7.1852 31.918-7.9033 9.8795-12.648 18.036-16.399 25.651s-5.1186 13.864-10.143 20.913c-5.2235 7.3287-13.96 14.282-19.801 21.042s-9.5205 14.723-14.289 22.436c-5.4563 8.8248-10.434 15.024-15.829 22.193-8.3084 11.04-16.49 21.606-21.407 30.888-5.7434 10.842-9.1045 20.448-9.9235 28.737-0.99651 10.085-1.5079 17.208 0.6665 33.796 1.9429 14.822 12.724 38.692 9.7838 50.353-2.482 9.8421-13.359 15.84-29.218 19.354-39.922 8.8459-111 9.0687-153.74 9.8858-3.1784 0.6306-2.1624 4.1077 2.3601 4.9742 32.957 4.6189 106.09 8.0576 154.58 5.5939 21.879-1.1118 39.237-4.9461 53.204-16.834 6.6407-5.6522 12.514-13.141 17.74-23.061 10.207-7.3446 11.839-9.1842 14.86-14.373l0.91895-10.124s-8.7812 9.5662-14.673 11.616c-3.272 1.1384-6.0798 0.61665-9.4516 1.4126-2.661 0.62817-5.5758 1.8403-8.2782 2.2556-5.0997 0.78377-6.9336-2.0718-10.602-5.6998-5.1455-5.0886-5.4716-13.048-6.7251-20.175-2.188-12.441-7.2706-24.674-6.7251-37.294 0.53806-12.446 2.945-22.724 8.1567-34.039 9.0802-19.715 26.018-34.896 36.682-53.801 3.8532-6.8308 5.2189-15.019 9.7819-21.398 6.039-8.4416 13.734-13.79 19.243-22.586 4.3105-6.8826 4.0528-15.805 7.3364-23.232 4.0985-9.2708 12.777-20.6 15.227-26.927 1.9145-4.9448 1.4435-8.9617 1.9901-14.236 0.60632-5.8504 3.1802-18.45 3.1802-18.45z" fill="#a4621b"/>
    <path d="m235.62 389.46c1.2378 5.8242 1.7857 11.079 0.80388 14.972-2.482 9.8421-13.359 15.84-29.218 19.354-39.922 8.8459-111 9.0687-153.74 9.8858-3.1784 0.6306-2.1624 4.1077 2.3601 4.9742 32.957 4.6189 106.09 8.0576 154.58 5.5939 21.879-1.1118 39.237-4.9461 53.204-16.834 5.2448-4.4641 10.011-10.074 14.358-17.122l2.9024-14.546s-1.8651-0.0317-3.6811 0.7744c-3.8508 1.7093-9.5354 5.1307-11.184 6.1719-4.8245 3.0464-6.8211 1.5815-10.059 1.0242-1.9419-0.33424-7.4045-5.2367-7.9204-7.896-2.1274-10.966-6.577-17.237-7.0639-16.02z" fill="#9f5d1a"/>
    <path d="m256.2 421.15c-12.505 10.643-28.068 14.261-49.375 15.344-17.196 0.87379-74.368 2.1381-107.88 1.2391-8.4946-0.2279-25.173-0.18403-21.945-1.4554 1.3574-0.53456 13.531-0.0149 21.954-0.23549 34.624-0.9067 92.342-2.7942 108.13-6.292 8.3752-1.8558 18.591-4.3921 24.54-8.1562s10.892-9.8439 12.595-16.597c2.1718-8.6122-0.18312-16.279-2.8099-25.76s-5.6995-19.124-6.5312-25.469c-2.1268-16.225-1.6452-22.366-0.65625-32.375 0.69816-7.0655 3.75-15.993 9.25-26.375 4.4873-8.4706 12.989-19.952 21.33-31.034 5.3272-7.0787 8.0644-13.011 13.727-22.17 5.0305-8.1362 7.3238-16.135 12.412-22.024 5.1953-6.0134 12.922-12.985 18.991-21.5 5.7395-8.0526 6.4459-15.204 9.8588-22.131 3.6098-7.3276 8.0444-14.954 15.656-24.469 0.81218-1.019 1.1401-2.4524 1.2155-3.7532 0.60091-10.123 1.0087-21.107 5.2695-30.919l-0.90464-1.0798c-4.6201 10.639-6.6354 21.851-7.2669 32.49-7.9033 9.8795-12.648 18.036-16.399 25.651s-5.1186 13.864-10.143 20.913c-5.2235 7.3287-13.96 14.282-19.801 21.042s-9.5205 14.723-14.289 22.436c-5.4563 8.8248-10.434 15.024-15.829 22.193-8.3084 11.04-16.49 21.606-21.407 30.888-5.7434 10.842-9.1045 20.448-9.9235 28.737-0.99651 10.085-1.5079 17.208 0.6665 33.796 1.9429 14.822 12.724 38.692 9.7838 50.353-2.482 9.8421-13.359 15.84-29.218 19.354-39.922 8.8459-111 9.0687-153.74 9.8858-3.1784 0.6306-2.1624 4.1077 2.3601 4.9742 32.957 4.6189 106.09 8.0576 154.58 5.5939 21.879-1.1118 39.237-4.9461 53.204-16.834 6.6407-5.6522 12.514-13.141 17.74-23.061 10.207-7.3446 11.839-9.1842 15.014-14.719 0 0 3.1166-10.054 1.6719-10.959-0.61569-0.38577-1.4834 1.7717-2.1573 2.7089-1.2522 1.7414-3.4954 5.4024-3.4954 5.4024-5.9814 8.2598-10.975 6.5452-16.841 13.404-8.0736 9.4396-13.396 15.907-19.337 20.964z" fill="#955318"/>
    <path d="m390.41 432.72c-1.48-0.60605-3.3477-1.2165-6-1.7812-4.6824-0.64437-4.4228 0.34824-7.9688 0.40625-23.778 0.38912-55.245-0.67525-61.312-9.7188-2.7797-4.1434-1.527-12.2 1.0625-22 4.6416-17.567 14.37-40.125 15.812-58.844 0.70069-9.09 0.14199-17.246-2.9062-23.781 0 0 6.3966-11.431 9.4062-21.094 3.836-12.316 6.6278-26.969 11.031-39.094 3.9094-10.764 11.224-20.105 14.719-29.156 3.6683-9.4995 5.1837-19.008 5.9062-28.5 1.807-23.736-2.9792-46.641-1.7188-54.719-1.8347-0.041-3.671 0.77122-4.875 2.1562 0 0-2.1263 2.4459-4.4688 5.625s-6.6159 6.8128-7.9538 11.312c-1.5826 5.3225-2.9122 9.2877-3.709 11.968-1.4547 4.8935-6.8981 9.5598-8.6652 18-1.8318 8.7498-0.51587 16.038-1.0625 22.469-0.40119 4.72-0.89647 11.05-3.2649 15.875-3.0855 6.2858-4.6674 10.342-8 15.5-3.6574 5.6609-8.6984 11.551-12.219 19.219-2.751 5.9922-3.5092 11.397-5.1562 13.969-2.289 3.574-6.8251 6.9916-9.875 13.75-3.1312 6.9387-0.56736 16.849 1.0621 22.531 1.2967 4.5212 3.703 7.7043 5.5 10.031s2.9739 3.8506 3.7188 6.0312c2.0025 5.8627 2.4186 12.775 1.875 19.594-1.2106 15.186-6.7396 27.55-9.1445 46.523-0.95646 7.5458-3.1086 17.067 0.5 26.688 1.5543 4.1437 1.7541 6.6314 5.6673 8.4734 3.3165 1.5611 12.54 0.84606 15.693 0.99595 9.6953 1.6944 2.7691 1.2074 11.015 4.9112 2.8793 0.0804 4.2753 0.45216 7.1753 0.48369 2.1973-0.4324 4.2928 0.49079 5.29 0.43359 5.0822-0.29152 10.751-0.32217 17.71-0.80176 1.871-0.23247 3.8158-0.50188 5.7188-0.78125 3.6061-0.75613 3.3729-2.137 6.5688-1.9528 4.1925 0.24163 7.3296 2.1176 9.4662 2.3509 1.7811 0.19447 2.6206 0.92927 4.2952 1.5664 1.6217 0.61704 4.7073 0.85148 6.3827 1.3028 1.5518 0.41803 3.2506-0.47833 4.8196-0.13026 1.7061 0.3785 2.9948 1.9174 4.6893 2.3447 1.39 0.35045 2.8704 7e-3 4.2986 0.13026 1.5294 0.132 3.1208 0.11457 4.5591 0.6513 2.1778 0.81271 3.998 2.3883 5.8617 3.7775 0.96287 0.71771 2.7354 2.3447 2.7354 2.3447l-0.65129-2.2144-5.0801-4.4288-3.6473-4.9498-3.3867-1.4329h-4.6893l-3.2565-2.2144-5.8617-0.26052z" fill="#dfbb90"/>
    <path d="m387.56 431.72c-0.91853-0.27052-1.954-0.52528-3.1562-0.78125-4.6824-0.64437-4.4228 0.34824-7.9688 0.40625-23.778 0.38912-55.245-0.67525-61.312-9.7188-2.7797-4.1434-1.527-12.2 1.0625-22 4.6416-17.567 14.37-40.125 15.812-58.844 0.70069-9.09 0.14199-17.246-2.9062-23.781 0 0 6.3966-11.431 9.4062-21.094 3.836-12.316 6.6278-26.969 11.031-39.094 3.9094-10.764 11.224-20.105 14.719-29.156 3.6683-9.4995 5.1837-19.008 5.9062-28.5 1.6215-21.299-2.3499-40.345-2.2176-50.192-0.0729-2e-3 -0.14586-2e-3 -0.21875 0v-5e-5c-0.84758 0.0691-1.6621 0.4821-2.2188 1.125 0 0-2.0492 2.3346-4.3125 5.4062s-4.8116 6.7248-5.9062 10.406c-1.3957 4.6938-0.98614 7.6643-1.9699 10.973-1.6768 5.6406-5.6976 9.6542-7.2812 17.219-1.6884 8.0646-0.4125 15.213-1 22.125-0.45128 5.3093-2.661 11.854-5.1562 16.938-3.0311 6.175-4.6683 10.414-8.1562 15.812-3.7992 5.8804-8.7703 11.673-12.062 18.844-2.4599 5.3582-3.1645 10.91-5.3438 14.312-2.6286 4.1042-7.606 7.4492-10.294 13.406-2.6505 5.8735-1.6868 12.382-0.15625 17.719 1.1355 3.9592 3.2202 6.7265 5 9.0312s3.2314 4.1672 4.1562 6.875c2.1883 6.4068 3.2341 13.726 2.6692 20.812-1.2877 16.153-8.765 31.298-11.059 49.398-0.9738 7.6825-2.8985 16.69 0.3125 25.25 1.2784 3.4082 0.88595 5.2338 4.0061 7.0039 3.3314 1.8899 7.5736 1.3634 10.647 1.5095s5.3518-0.0778 7.3995 0.64131c0.63306 0.22232 1.5544 0.86436 2.75 1.7188s3.1757 2.3914 5.3505 2.8193c5.0359 0.99069 9.0442-1.0287 11.812-1.1875 6.4252-0.36855 13.618 1.1124 21.312-0.0312 4.0872-0.60745 5.4651-0.78609 9.1856-1.4865 4.4477-0.83733 7.7662 0.41053 9.4658 0.80444 1.528 0.35414 2.3857 0.27221 3.9078 0.65129 2.1037 0.52395 4.0421 2.6456 6.1222 3.2565 2.1663 0.63625 3.9612-0.39376 6.1222 0.26052 1.6482 0.49903 2.6452 2.3842 4.2986 2.8657 1.9598 0.57069 4.0948 0.10636 6.1222-0.13026 1.235-0.14413 3.6473-0.78156 3.6473-0.78156l-2.0841-2.4749-3.3868-1.4329h-4.2986l-3.2565-2.2144-5.8617-0.26052z" fill="#e9d6be"/>
    <path d="m311.65 441.04s-11.442-0.68234-15.197-1.5417c-4.8331-1.1061-6.1277-2.1378-7.0478-4.6251-1.1311-3.0576 2.686-8.3021 3.5239-11.453 3.9482-14.845 3.5239-19.382 3.5239-19.382l-10.352 27.31v6.3871l5.7264 3.7442 8.3693 1.1012z" fill="#b2742b"/>
    <path d="m296.21 389.97c-0.29898 30.782-13.632 37.866-11.198 46.472 1.2867 4.5508 5.0143 6.4694 12.265 7.4238 3.0546 0.40206 12.265-1.4312 12.265-1.4312 16.407 0.34537 35.007 1.6576 52.51 0.47724 5.868-0.39573 14.646-2.409 17.604-1.7713 3.2065 0.69138 9.5215 3.2048 14.546 4.4341 4.7676 1.1665 9.6046 1.8552 14.421 2.1844l5.082 0.72103 7.9665 7.3292 1.8323 0.87631 1.1153 3.5053 1.8323 1.1153-0.95599-7.4089s-1.0828-0.74091-1.8323-0.79665c-0.66417-0.0494-1.912 0.39832-1.912 0.39832s-3.7961-4.1092-6.2936-5.1782c-0.96033-0.41109-3.1112-0.37657-3.1112-0.37657-6.1231-1.5594-12.868-2.8811-18.607-4.2851-4.6456-1.1366-9.4683-2.8221-13.394-3.6684-2.7846-0.60041-4.5394-0.35547-7.8832 0.11913-3.3439 0.47465-8.4128 1.098-11.094 1.2788-17.194 1.1595-35.247-0.38575-52.116-1.0619 0 0-2.5902 0.11859-5.1875 0.51549s-5.8839 0.41445-6.375 0.34983c-3.4195-0.45009-5.7588-1.1517-7.1562-1.9688s-2.3004-1.4832-2.7553-3.092c-0.36897-1.3049-0.99315-2.5177-0.19827-4.565s1.8975-5.4485 3.4842-8.9065c3.1735-6.916 6.7704-16.993 6.9062-32.844 0.0119-1.3836 1.0621-11.44-0.27247-11.069z" fill="#955318"/>
    <path d="m341.77 238.37c0.43066-0.91104 12.681 3.2926 13.663 0.76453-12.064-7.7679-5.197-22.038-4.6906-27.997 0.63252-7.4416-2.4196-9.6898-0.88918-17 1.3817-6.5998 4.996-7.4691 6.9173-13.932 1.1895-4.0015 1.1168-8.5222 2.3066-12.524 1.6534-5.5605 7.5343-11.12 7.5343-11.12 0.49945 10.723 3.0296 23.464 1.5736 42.589-0.5912 7.7658-3.4464 20.108-6.823 22.267-1.4835 0.94865 2.8156 3.9556 2.1486 5.683-2.2372 5.7934-6.7556 11.294-10.743 17.326l-6.677-2.5907zm9.5498 8.3165c-1.6738 2.7101-3.1786 5.5422-4.2767 8.5659-4.4035 12.125-7.1952 27.7-11.031 40.016-1.8926 6.0763-5.3578 13.821-9.7569 17.046l2.8373 4.6729c3.0482 6.5356 3.6206 14.691 2.9199 23.781-1.4429 18.719-11.193 41.293-15.834 58.86-2.5895 9.8003-3.845 17.857-1.0652 22 6.0672 9.0435 37.548 10.113 61.326 9.7238 3.546-0.058 3.2908-1.0678 7.9732-0.4234 0 0 0.0299 1.2137-3.7464 1.8888-3.2957 0.58919-10.24 0.61835-12.915 1.016-6.9337 1.0305-14.031-0.40143-21.03 0-3.6799 0.21108-7.3686 1.9759-10.985 1.2644-2.6925-0.52968-4.6232-2.1712-7.2123-3.0804-5.4936-1.9293-12.885 0.17305-17.949-2.7-2.4135-1.3692-2.2989-2.0892-3.2735-4.6873-2.773-7.3929-0.40891-17.039 0.58398-24.872 2.1721-17.136 9.728-32.336 11.101-49.554 0.58834-7.3802 0.18296-15.094-2.21-22.1-2.2464-6.5768-7.2121-9.0777-9.1281-15.758-1.4216-4.9569-2.1211-10.77 0-15.47 2.29-5.0745 6.4456-8.2842 9.4482-12.972 2.7654-4.3178 3.4341-8.4789 5.5734-13.139 3.041-6.624 8.1506-12.933 12.106-19.055 2.5428-3.9357 4.1534-7.2893 5.8966-11.001 0 0 1.6349 1.6909 2.4076 2.209 2.6331 1.7658 8.2418 3.7685 8.2418 3.7685z" fill="#f6f1e7"/>
    <path d="m304.04 429.7s1.8454 2.8983 3.2657 3.7556c1.6276 0.98243 3.6633 1.0871 5.5517 1.3063 3.298 0.38277 6.6545-0.30725 9.9604 0 1.7645 0.16399 5.2251 0.97971 5.2251 0.97971l2.4493 1.7961s-4.2019-0.78187-6.5314-0.97971c-3.9082-0.33192-7.8625 0.95964-11.757 0.48985-2.1377-0.2579-4.51-0.4681-6.2048-1.7961-3.3864-2.6535-1.9594-5.5517-1.9594-5.5517z" fill="#b2742b"/>
    <path d="m297.05 383.13c-1.3346-0.36525-2.887 4.0492-3.5859 5.2434-2.9437 5.0302-3.8661 6.0831-14 13.375-0.39 0.28722-0.71331 0.66441-0.9375 1.0938-5.0745 9.632-12.021 16.285-18.31 21.638-13.232 11.262-27.611 14.494-49.203 15.592-36.29 1.844-93.376 1.0004-132.08-1.8351-8.0026-0.58629-24.015-0.87447-22.6-2.4623 0.80294-0.90058 14.122-0.48786 22.159-0.77696 40.295-1.4494 97.94-1.5663 128.6-8.3608 8.1536-1.8067 15.146-4.2518 20.625-7.7188s10.3-7.8587 11.773-13.701c1.823-7.2289-0.46394-16.246-3.0625-25.625s-5.755-19.031-6.6562-25.906c-2.1505-16.405-1.6177-23.047-0.625-33.094 0.75825-7.6737 3.9415-16.92 9.5625-27.531 4.7008-8.8738 12.832-19.439 21.156-30.5 5.361-7.1236 10.409-13.413 15.969-22.406 4.9004-7.9257 7.8839-16.643 13.346-22.965 5.5162-6.3848 13.543-12.899 19.192-20.824 5.384-7.5538 6.8563-14.105 10.438-21.375 3.6802-7.4704 8.2432-15.335 16-25.031 0.40808-0.51428 0.6519-1.157 0.6875-1.8125 0.11624-8.5468 1.1659-21.387 5.5237-31.508-5.3683 10.241-6.6363 21.147-7.2678 31.786-7.9033 9.8795-12.648 18.036-16.399 25.651s-5.1186 13.864-10.143 20.913c-5.2235 7.3287-13.96 14.282-19.801 21.042s-9.5205 14.723-14.289 22.436c-5.4563 8.8248-10.434 15.024-15.829 22.193-8.3084 11.04-16.49 21.606-21.407 30.888-5.7434 10.842-9.1045 20.448-9.9235 28.737-0.99651 10.085-1.5079 17.208 0.6665 33.796 1.9429 14.822 12.724 38.692 9.7838 50.353-2.482 9.8421-13.359 15.84-29.218 19.354-39.922 8.8459-111 9.0687-153.74 9.8858-3.1784 0.6306-2.1624 4.1077 2.3601 4.9742 32.957 4.6189 106.09 8.0576 154.58 5.5939 21.879-1.1118 39.237-4.9461 53.204-16.834 6.6407-5.6522 12.514-13.141 17.74-23.061 10.207-7.3446 12.013-8.602 15.06-13.708 0.50411 0.60179 1.3406-6.7034 0.64714-7.5083z" fill="#854715"/>
    <path d="m349.76 104.34c7.3206-2.3927 20.942 1.9634 28.593 5.0579-3.5369-2.8827-10.804-5.8044-15.589-7.2315-4.9555-1.4779-11.268-1.2216-13.003 2.1736z" fill="#d4a061"/>
    <path d="m387.37 137.06s-0.32329 0.28778-1.1427 0.44264c-1.216 0.22982-3.6444 1.7075-4.8695 1.8826-3.9239 0.56062-8.7418-1.9127-11.881 0.1861-0.88913 0.59448-1.4678 1.7056-1.6324 2.7624-0.11562 0.7424 0.50226 2.1974 0.50226 2.1974s0.36951-1.8244 0.94174-2.5113c0.54673-0.6563 1.3432-1.3126 2.1974-1.3184 5.1986-0.0355 15.947 1.3812 15.947 1.3812l3.7042-0.69061 1.37-1.5887 1.3584-0.21449 1.4299-2.1448 1.4299 0.57196 0.64345-1.2869 0.42897-9.7948-1.5014 2.1448s-0.7537 1.1563-1.3584 1.2154c-0.7444 0.0728-1.9304-1.1439-1.9304-1.1439l-2.2878-0.50046-1.4299 0.28598-0.92944-0.92943s-0.87269 0.58304-0.35747 1.4299c1.2934 2.1259 3.0371 0.33702 4.6472 2.0734 1.4573 1.5716 1.7412 4.5281 0.64345 6.22-0.68652 1.0581-2.6453 0.78644-2.6453 0.78644z" fill="#a4621b"/>
    <path d="m392.55 140.09-1.5537-2.0199-2.2529-1.1653-2.0976 0.38844s-1.2657 0.79669-1.2737 1.6621c-5e-3 0.59048 0.54996 1.1542 1.0876 1.3984 0.82656 0.37542 1.4799 0.41984 2.3613 0.20237 0.60758-0.14988 2.0221-0.73215 2.0221-0.73215l0.92997 1.1206z" fill="#7d4114"/>
    <path d="m364.24 227.65c3.6683-9.4995 5.1956-19.007 5.9182-28.499 2.07-27.19-4.5463-53.281-0.76959-57.254 0.63915-0.67234 1.7633-1.1223 3.7098-1.108 6.2095 0.0456 17.993 2.9764 19.549-0.95874 0.77197-0.0512 1.8494-0.35752 2.4584-2.3791 1.9534 1.5589 2.216-0.70696 2.3733-1.5089 0.41291-2.7019 0.94767-7.6387-0.14048-10.213-0.83813-1.9832-2.6706-2.9047-4.4656-4.0935-5.1578-3.4161-15.552-9.0758-15.552-9.0758 0.88739-0.7213 1.7092-1.5842 1.3906-2.9866-0.43276-2.1045-13.77-8.4831-22.574-8.5059-2.6198-7e-3 -4.8326 0.58692-6.1832 2.3832-5.1964-10.88-14.199-23.997-21.56-29.198 4.9316 14.068-1.4967 29.178 12.555 42.251-4.6201 10.639-6.5537 21.279-7.1852 31.918-7.9033 9.8795-12.648 18.036-16.399 25.651s-5.1186 13.864-10.143 20.913c-5.2235 7.3287-13.96 14.282-19.801 21.042s-9.5205 14.723-14.289 22.436c-5.4563 8.8248-10.434 15.024-15.829 22.193-8.3084 11.04-16.49 21.606-21.407 30.888-5.7434 10.842-9.1045 20.448-9.9235 28.737-0.99651 10.085-1.5079 17.208 0.6665 33.796 1.9429 14.822 12.724 38.692 9.7838 50.353-2.482 9.8421-13.359 15.84-29.218 19.354-39.922 8.8459-111 9.0687-153.74 9.8858-3.1784 0.6306-2.1624 4.1077 2.3601 4.9742 32.957 4.6189 106.09 8.0576 154.58 5.5939 21.879-1.1118 39.237-4.9461 53.204-16.834 6.6407-5.6522 12.514-13.141 17.74-23.061 9.7219-6.9955 11.415-8.5604 14.188-13.218 0.1384-0.23247 0.59062-1.095 0.67189-1.1546-0.29898 30.782-13.632 37.866-11.198 46.472 1.2867 4.5508 5.0143 6.4694 12.265 7.4238 3.0546 0.40206 12.265-1.4312 12.265-1.4312 16.407 0.34537 35.007 1.6576 52.51 0.47724 5.868-0.39573 14.646-2.409 17.604-1.7713 3.2065 0.69138 9.5215 3.2048 14.546 4.4341 5.998 1.4675 12.106 2.1789 18.234 2.605 4.5036 0.83364 6.699 6.9616 10.93 8.2339 0.31489 1.5454 0.954 4.5968 2.6796 4.4203 0 0 0.25637-6.2388-1.4404-9.935-0.95745-2.0857-3.5339-3.4161-5.0104-5.2808-2.1643-2.7333-3.2618-4.9207-6.3482-6.2591-2.3386-1.0141-6.0669-0.85353-6.0669-0.85353s-2.4563-1.9213-3.6384-1.9561c-10.361-0.30526-8.4577-3.3478-19.129-5.6198-4.6824-0.64437-4.4272 0.36539-7.9732 0.4234-23.778 0.38912-55.259-0.68029-61.326-9.7238-2.7797-4.1434-1.5242-12.2 1.0652-22 4.6416-17.567 14.391-40.141 15.834-58.86 0.70069-9.09 0.12833-17.246-2.9199-23.781 0 0 6.401-11.433 9.4106-21.096 3.836-12.316 6.6277-26.957 11.031-39.082 3.9094-10.764 11.212-20.109 14.707-29.16z" fill="none" stroke="#6b3814" stroke-width="1px"/>
    <path d="m334.55 87.676s2.16 5.9758 3.6572 8.5031c2.5086 4.2342 6.7738 6.7454 8.9602 11.155 0.4466 0.90063 0.67673 1.922 0.73145 2.9258 0.21115 3.8732-2.9258 3.7487-2.9258 3.7487s-0.19583-1.9733-2.1943-3.8401c-6.3937-5.9723-7.7589-14.943-8.2288-22.492z" fill="#854715"/>
    <path d="m368.69 118.58c-2.204 1.6508-4.9036 1.5699-6.7383-1.1108-0.30965-0.50733-0.65469-0.77684-1.6558-0.77716 1.3646-1.3094 3.372-3.1164 5.75-2.8764 2.7855 0.34286 3.4069 3.642 3.4069 3.642 0.52497 0.92417-0.0236 1.0905-0.76277 1.1224z" fill="#743c1e"/>
    <path d="m365.7 113.58c-1.6785 0-3.0356 1.3548-3.0356 3.0399s1.3571 3.0399 3.0356 3.0399 3.0356-1.3548 3.0356-3.0399-1.3571-3.0399-3.0356-3.0399z" fill="#4e250e"/>
    <path d="m365.7 114.24c-1.3193 0-2.3851 1.0686-2.3851 2.3818s1.0657 2.3818 2.3851 2.3818 2.3851-1.0686 2.3851-2.3818-1.0657-2.3818-2.3851-2.3818z" fill="#381805"/>
    <path d="m390.79 138.45-2.2345 0.75534-1.731-0.15737-0.40914-0.75533 1.1015-0.94417 1.9198 0.0315z" fill="#472209"/>
    <path d="m330.53 77.562c3.0171 5.7516 4.0898 13.33 6.8438 18.125 2.3276 4.0528 6.0587 7.287 8.6562 10.938 2.2683 3.1879 1.5312 5.7812 1.5312 5.7812s1.8421-2.776-0.71875-6.375c-2.6916-3.7827-6.4596-6.9397-8.5938-10.844-3.347-6.1227-4.4302-14.956-7.7188-17.625zm34.625 35.844c-2.1604 0.21443-3.9233 1.847-5.125 3 0 0-0.43242 0.35054-0.3675 0.59969 0.084 0.32256 0.64875 0.0878 0.64875 0.0878 0.46466 1.5e-4 0.70545 0.0675 0.875 0.15625 0.16955 0.0887 0.30069 0.21334 0.4375 0.4375 0.96795 1.4142 2.1995 2.1795 3.5 2.3438s2.6453-0.25072 3.8125-1.125c0.31622-0.0208 1.0685 0.21955 1.1384-0.1349 0.21058-1.0673-0.47084-2.4284-0.9196-3.2088-0.5371-0.93408-1.5189-1.9663-3.0625-2.1562-0.32499-0.0328-0.62887-0.0306-0.9375 0zm0.15625 0.8125c0.22556-0.0186 0.4537-0.0236 0.6875 0 1.2419 0.15287 1.9713 0.94666 2.4375 1.75s0.625 1.5625 0.625 1.5625v0.0625l0.0312 0.0625c0.11392 0.20055 0.1522 0.35165 0.15625 0.40625-0.0283 0.0137-0.23592 0.11093-0.5625 0.125h-0.125l-0.125 0.0625c-1.0368 0.77656-2.1286 1.1337-3.1875 1s-2.102-0.73358-2.9688-2c-0.17284-0.28317-0.3881-0.54578-0.71875-0.71875-0.0906-0.0474-0.24076-0.0298-0.34375-0.0625 1.1385-1.0341 2.5148-2.1197 4.0938-2.25zm32.094 12.031c-0.48007 0.33898-0.88195 0.80588-1.1562 1.2812-0.93318 1.6172-0.53125 3.5625-0.53125 3.5625s0.15635-1.5137 1.9688-2.2812c0.098-0.0415 0.20416-0.1366 0.3125-0.1875zm-7.9375 0.78125c-0.11958 0.0106-0.22817 0.0296-0.34375 0.0625-0.52223 0.14888-1.0704 0.67621-1.0938 1.2188-0.0204 0.47468 0.41994 0.94149 0.84375 1.1562 0.59239 0.30019 1.6297-0.0659 2.2812 0.0625 2.8237 0.55654 3.1875 2.3438 3.1875 2.3438s-0.17106-2.938-2.375-4.0938c-0.74507-0.39071-1.663-0.824-2.5-0.75zm5.4375 5.4375c0.0472 1.562 0.12732 3.8462-0.40625 5.375l0.9375 0.34375c0.55266-1.3881 0.25451-4.7081-0.53125-5.7188zm-6.5312 4.1562c-0.71323-0.0171-1.404 0.18031-1.9688 0.625-0.24187 0.19046-0.39409 0.42569-0.5 0.71875s-0.16425 0.65687 0.0312 1c0.23381 0.41029 0.63796 0.66789 1.0625 0.78125s0.88563 0.10943 1.375 0.0625c0.58509-0.0561 1.2268-0.26038 1.75-0.46875 0.39785-0.15844 0.55368-0.24867 0.6875-0.3125 0.0916 0.11994 0.11383 0.15008 0.21875 0.28125 0.22538 0.28176 0.49635 0.54998 0.875 0.75s0.87379 0.3066 1.4062 0.21875l-0.1875-1c-0.34683 0.0572-0.55221 0.0106-0.75-0.0937-0.19779-0.10448-0.37885-0.27041-0.5625-0.5-0.35134-0.43923-0.67301-1.0853-1.3438-1.4062v-0.0312c-9e-3 -5e-3 -0.0224 5e-3 -0.0312 0-0.0115-7e-3 -0.0197-0.0246-0.0312-0.0312-0.63087-0.36874-1.3405-0.57715-2.0312-0.59375zm0 1c0.51779 0.0146 1.0909 0.19552 1.5938 0.5h0.0312l0.0312 0.0312c0.0163 7e-3 0.0451 0.083 0.0625 0.0937-0.14177 0.0633-0.14556 0.0773-0.34375 0.15625-0.48465 0.19301-1.092 0.40139-1.4688 0.4375-0.42636 0.0409-0.7935 0.0322-1.0312-0.0312-0.23775-0.0635-0.34147-0.17524-0.4375-0.34375 5e-3 9e-3 -0.01-0.0429 0.0312-0.15625 0.0409-0.1133 0.12747-0.23398 0.1875-0.28125 0.35299-0.27797 0.82596-0.42081 1.3438-0.40625z" color="#000000" fill="#6b3814" style="block-progression:tb;text-decoration-line:none;text-indent:0;text-transform:none"/>
    <path d="m397.22 126.88c-0.26498 0.25506-0.51673 0.51655-0.6875 0.8125-0.40216 0.69692-0.53461 1.4654-0.5625 2.0938 0.32216-0.46201 0.79154-0.94153 1.5938-1.2812 2e-3 -7.2e-4 0.0522-0.0237 0.0625-0.0312 0.40072-0.36428 0.46858-1.6887-0.40625-1.5938zm-7.7188 0.625c-0.0946 8e-3 -0.16399 0.038-0.25 0.0625-0.15921 0.0454-0.35312 0.1563-0.5 0.3125s-0.24502 0.35321-0.25 0.46875c-3e-3 0.0814 0.045 0.20315 0.15625 0.34375 0.11124 0.1406 0.2914 0.26971 0.4375 0.34375 0.12392 0.0628 0.4449 0.099 0.84375 0.0625s0.85337-0.12173 1.3125-0.0312c0.81246 0.16013 1.441 0.41733 1.9375 0.71875-0.31601-0.60488-0.73642-1.1949-1.4375-1.5625-0.73062-0.38314-1.6089-0.77543-2.25-0.71875z" color="#000000" fill="#472209" style="block-progression:tb;text-decoration-line:none;text-indent:0;text-transform:none"/>
    <path d="m365.7 115.34c-0.75103 0-1.301 0.56012-1.301 1.2849s0.54992 1.2849 1.301 1.2849c0.75104 0 1.301-0.56012 1.301-1.2849s-0.54992-1.2849-1.301-1.2849z" fill="#1a1a1a"/>
    <circle transform="matrix(1.1057 0 0 1.1057 -39.046 -13.019)" cx="367.1" cy="117.57" r=".7235" fill="#fff"/>
    <path d="m352.51 244.06c3.2912 1.0836 7.2339 2.5066 12.654 6.2683 2.6165 3.1541 7.8527 4.7381 11.974 8.5135 4.327 3.9638 6.7468 10.093 6.7468 10.093-2.1064 7.4237 2.0789 13.109 0.8203 23.098 0.19206 3.2144 1.0201 3.0648 1.9913 5.5298 0.3096 1.4175-0.78795 7.4412-1.1495 9.0615 1.4289-0.41563 2.8579-0.78627 4.2868-3.3486 1.5143 0.60587 2.9235-1.1543 3.2074-2.6106 1.4953 0.28696 2.592-1.3779 2.6075-2.5066v-8.6509s1.2236-2.7662 1.3394-6.0474c0.0999-2.8317-0.86358-6.047-1.32-8.199-1.8137-8.5517-5.7339-15.422-10.445-22.786-1.6531-2.5843-4.4106-5.6724-6.2941-8.094-4.97-6.3898-11.697-11.18-15.202-15.987-7.2412 2.8871-12.047 9.9803-11.217 15.665z" fill="#f6f1e7"/>
    <path d="m384.76 266.29-7.9744-11.107-9.968-5.9808-14.525-7.6896-7.6896-2.2784-3.1328-7.6896 3.9872-7.4048s-0.26474 5.0078 0.8544 7.12c1.3547 2.5568 4.0262 4.2814 6.5504 5.696 3.3002 1.8495 7.2101 3.0418 10.538 4.8416 3.5604 1.9257 6.682 3.5495 9.6832 6.2656 2.8868 2.6125 9.4895 8.7035 9.4895 8.7035s4.8535 6.1382 5.5935 9.2275c0.60837 2.5399-0.95887 5.1841-0.82023 7.7921 0.1039 1.9545 0.46895 3.9384 1.2303 5.7416 0.67108 1.5892 1.7586 2.9874 2.8708 4.3062 2.3391 2.7738 4.5112-2.2556 4.5112-2.2556l-1.4354 16.61-6.7668 5.9466v-6.9719l-1.8455-3.0758-0.41011-10.253-1.0253-8.2022 0.82022-7.382z" fill="#e9d6be"/>
    <path d="m388.37 296.91c0.0283 0.0919 0.0492 0.18603 0.0625 0.28125 0.18196 0.83309 0.13346 1.459 0.0625 2.3125-0.071 0.85345-0.19876 1.8136-0.34375 2.7812-0.0228 0.15231-0.0389 0.22355-0.0625 0.375 0.0724-0.12081 0.11017-0.11132 0.1875-0.25 0.4161-0.75117 1.416-1.1173 2.2188-0.8125 0.0164 7e-3 -0.0964 0.0866 0.15625-0.15625 0.25261-0.24283 0.53123-0.80431 0.59375-1.125 0.17514-0.93504 1.1919-1.6229 2.125-1.4375 0.0346 7e-3 0.0145 0.0362 0.1875-0.15625 0.16559-0.18415 0.27152-0.54372 0.28125-0.5625v-8.6562c-2e-3 -0.25734 0.0515-0.51501 0.1563-0.75005 0 0 1.0863-2.4763 1.1875-5.3438 0.0834-2.3648-0.79144-5.4718-1.2812-7.7812-1.7451-8.2282-5.5379-14.87-10.219-22.188-1.5162-2.3703-4.2389-5.4634-6.1875-7.9688-3.6018-4.6306-8.2721-8.491-12-12.312-1.8639-1.9108-3.4962-3.8083-4.5938-5.9062-1.3732-3.3335-1.5073-7.3964 1.9825-7.6496 0.503 1.7528-0.11982 4.0021 1.4033 6.2772l-0.64812 2.406c3.4805 4.8453 10.275 9.6609 15.284 16.101 1.8835 2.4216 4.6409 5.5097 6.2941 8.094 4.7107 7.3642 8.6309 14.234 10.445 22.786 0.4564 2.1519 1.4199 5.3672 1.32 8.199-0.1158 3.2812-1.3394 6.0474-1.3394 6.0474v8.6509c-0.0154 1.1287-1.1121 2.7936-2.6075 2.5066-0.28388 1.4562-1.6931 3.2164-3.2074 2.6106-1.4289 2.5624-2.8579 2.933-4.2868 3.3486 0.36155-1.6203 1.4591-7.644 1.1495-9.0615-0.97122-2.4649-1.7992-2.3154-1.9913-5.5298 1.2586-9.9889-2.9267-15.674-0.8203-23.098 0 0-2.4198-6.1296-6.7468-10.093-4.1213-3.7754-9.3575-5.3594-11.974-8.5135-11.463-7.9562-16.319-5.4502-22.378-11.4-3.0946-3.0387-5.1644-10.029-5.1644-10.029l5.5859-7.7993c0.22792 0.67627-0.21334 6.9066 0.26861 8.0433 0.86001 2.0284 0.36151 3.4078 1.5581 4.5828 2.7675 2.7175 4.7144 4.9528 8.127 6.0692s7.9793 2.484 13.882 6.5805c0.12739 0.0888 0.24325 0.19412 0.34375 0.3125 2.05 2.4712 7.3143 5.1493 11.812 9.27 4.7628 4.363 7.2188 10.781 7.2188 10.781 0.14599 0.3648 0.16832 0.77784 0.0625 1.1562-0.93408 3.2921-1.3582 7.7382-0.7294 11.319 0.61505 3.5028 1.3399 7.597 0.75 12.719h0.0312c0.087 1.4557 0.21622 1.8225 0.46875 2.3125l1.6163-1.6506 0.22627-5.6567-0.67881-5.091s1.8656 1.8513 2.2627 3.0546c0.72095 2.1845 0.4373 4.6427 0 6.9012-0.34826 1.7986-2.0514 5.0988-2.0514 5.0988z" fill="#dfbb90"/>
    <path d="m355.13 244.98c2.7466 1.0335 5.9742 2.5387 10.028 5.3524 2.6165 3.1541 7.8527 4.7381 11.974 8.5135 4.327 3.9638 6.7468 10.093 6.7468 10.093-2.1064 7.4237 2.0789 13.109 0.8203 23.098 0.19206 3.2144 1.0201 3.0648 1.9913 5.5298 0.3096 1.4175-0.78795 7.4412-1.1495 9.0615 1.4289-0.41563 2.8579-0.78627 4.2868-3.3486 1.5143 0.60587 2.9235-1.1543 3.2074-2.6106 1.4953 0.28696 2.592-1.3779 2.6075-2.5066v-8.6509s1.2236-2.7662 1.3394-6.0474c0.0999-2.8317-0.86358-6.047-1.32-8.199-1.8137-8.5517-5.7339-15.422-10.445-22.786-1.6531-2.5843-4.4106-5.6724-6.2941-8.094-5.048-6.4901-11.909-11.33-15.364-16.213" fill="none" stroke="#6b3814" stroke-width="1px"/>
    <path d="m298.49 415.66s-0.13843 4.7278-0.65314 7.0213c-0.55801 2.4864-2.7589 4.6405-2.6126 7.1846 0.0838 1.4581 1.0322 2.7904 1.9594 3.9188 1.3547 1.6487 5.8783 3.429 5.8783 3.429s-5.1641 0.77276-7.0213-0.16329c-1.5824-0.79758-2.9499-2.2673-3.5923-3.9188-0.71034-1.8261-0.51972-2.846 0-4.7353 0.70563-2.565 2.8901-6.1125 4.0821-8.4908 0.76543-1.5271 1.9594-4.2454 1.9594-4.2454z" fill="#b2742b"/>
    <path d="m361.53 220.72c-1.0891 2.6806-0.11903 5.2854 1.625 7.75 0.37494 0.52985 0.77618 1.0665 1.2188 1.5938l0.84375-0.59375c-0.45813-0.5383-0.87259-1.0604-1.25-1.5938-1.6552-2.3391-2.4859-4.5886-2.4375-7.1562zm-23.906 8.1562s0.0528 1.9389 0.96875 4.0938c0.91596 2.1549 2.1994 4.6979 3.8438 6.3125 4.0101 3.9377 7.5643 4.2874 12.531 6.1562 0.45542 0.17136 0.92364 0.36053 1.4062 0.5625l0.3125-0.96875c-0.4678-0.19394-0.93321-0.36502-1.375-0.53125-5.0728-1.9087-8.3653-2.1844-12.188-5.9375-1.4503-1.4241-2.7324-3.8689-3.625-5.9688s-1.875-3.7188-1.875-3.7188zm50.406 53.125s0.33969 2.7293 0.46875 4.75c0.1041 1.63 0.0609 3.5394-0.28125 5.0938-0.31255 1.4199-1.3296 2.5041-1.75 4.2188-0.14154 0.5773-0.19622 1.3085-0.21875 1.9375l1 0.0312c0.0215-0.59939 0.0829-1.3234 0.1875-1.75 0.34768-1.4182 1.3691-2.4884 1.75-4.2188 0.37439-1.7008 0.42084-3.6787 0.3125-5.375-0.14258-2.2323-1.4688-4.6874-1.4688-4.6874zm3.6875 7.75c-0.11755 3.9944-0.92847 5.1516-1.625 7.7188-0.18537 0.68323-0.27915 1.5951-0.375 2.5312-0.0958 0.93615-0.2057 1.892-0.34375 2.5625-0.0695 0.33777-0.24115 0.94756-0.375 1.125l0.8125 0.59375c0.38739-0.51354 0.49061-1.1509 0.5625-1.5 0.15724-0.76363 0.24842-1.7565 0.34375-2.6875 0.0953-0.93104 0.19718-1.8348 0.34375-2.375 0.66413-2.4477 1.5541-3.9091 0.65625-7.9688zm2.125 1.7812s-0.4171 1.9973-0.5 2.875c-0.12299 1.303-0.59044 2.6464-0.78125 4.0938-0.12259 0.92956-0.1875 2.6562-0.1875 2.6562l1 0.0625s0.0799-1.7775 0.1875-2.5938c0.17265-1.3096 0.39292-2.9094 0.53125-4.375 0.10053-1.0649-0.25-2.7188-0.25-2.7188zm-74.062 15.094c-0.10725 0.0125-0.17505 0.043-0.1875 0.0937-0.0337 0.13731 0.26671 0.46482 1.125 1.0625 2.3317 1.6247 4.2359 3.5188 5.75 5.6562 1.5141 2.1375 2.6382 4.5185 3.4688 7.125l0.46875-0.15625 0.5-0.125c-0.85745-2.6909-2.0469-5.1965-3.625-7.4375s-3.6362-4.5882-5.7812-5.7188c-0.70702-0.37266-1.397-0.53734-1.7188-0.5zm-21.219 108s-0.50017 3.6574-1.1875 5.5625c-0.60336 1.6724-1.5056 3.0027-2.3125 4.4062s-1.5407 2.8798-1.75 4.8125c-0.1936 1.7879 0.21955 3.4857 1.0625 4.8125 0.84298 1.3268 3.388 2.5694 5.4375 2.3125-1.6887-0.71423-3.9093-1.7665-4.5938-2.8438s-1.0824-2.5297-0.90625-4.1562c0.18858-1.7415 0.83995-3.072 1.625-4.4375s1.7241-2.7585 2.375-4.5625c0.77141-2.1382 0.25-5.9062 0.25-5.9062zm5.4062 14.219s-0.4969 0.93994 0.0937 2.0625c0.59078 1.1226 1.6381 2.4464 3.9062 3.3438 5.0035 1.9797 11.212 0.57449 16.188 1.2188 1.8659 0.24164 3.6394 0.68374 5.6875 1.4375-1.163-1.6472-3.8299-2.1851-5.5625-2.4062-5.247-0.66979-11.389 0.62455-15.969-1.1875-2.0673-0.81788-2.8859-1.9457-3.375-2.875s-0.96875-1.5938-0.96875-1.5938z" color="#000000" fill="#6b3814" style="block-progression:tb;text-decoration-line:none;text-indent:0;text-transform:none"/>
    <path d="m341.4 115.36s0.92347 0.28479 1.2083 0c0.47465-0.47465 0-2.0138 0-2.0138s-4.933-6.0197-6.6334-9.8477c-1.3147-2.9596-2.1659-7.3106-2.543-10.527-0.67095-5.7232-2.3455-10.645-2.3455-10.645 0.6578 7.7179 0.60397 13.753 2.3638 19.994 1.3772 4.8841 3.7297 9.3529 7.9498 13.04z" fill="#e9d6be"/>
    <path d="m393.84 126.51c-1.7404-0.46601-2.9685-1.3712-5.8663-0.84514l-11.689-6.2786c-2.3643-1.5742-4.5345-3.1762-4.4304-5.103-0.2334-0.65786 1.0745-2.0638 3.4128-0.49422l14.248 7.887c3.1856 1.7203 3.977 3.291 4.3252 4.834z" fill="#d4a061"/>
    <path d="m373.53 124.18c2.2809 2.8029-1.1412 7.6736-3.7534 10.171-3.46 3.3073-8.2409 4.2171-12.955 3.3902-3.9119-0.68617-7.3795-2.3441-9.0809-5.9328-1.747-3.685-1.9838-8.7127-0.72646-12.592 0.75242-2.3214 2.5108-4.3502 4.601-4.4799 2.9003-0.17994-2.5391 5.0888-0.48431 7.1436 1.3698 1.3698 3.9321-0.46881 5.8118 0 2.0847 0.51995 3.606 2.507 5.6907 3.027 1.958 0.48835 4.0415 0.15009 6.0539 0 1.6279-0.12141 3.8128-1.9926 4.8431-0.72647z" fill="#cc8b3e"/>
    <path d="m365.44 75.778c-2.0315 4.8765-5.2616 9.4872-6.4354 14.853-0.34228 1.5648-0.69946 3.6314-0.71744 5.5951-0.018 1.9637 0.33734 4.2431 0.33734 4.2431l1.6766 0.10864s-0.49854-2.1489-0.48084-4.0861 0.21133-3.8706 0.51603-5.2636c1.117-5.1066 4.0628-9.9984 6.01-15.076 1.2123-3.1612 1.4852-6.3354 1.4852-6.3354s-1.7565 4.4362-2.3914 5.9604z" color="#000000" fill="#a4621b" style="block-progression:tb;text-decoration-line:none;text-indent:0;text-transform:none"/>
   </g>
   <path d="m3662.4 65.303s2.0542-1.1856 3.0888-1.7651c1.2004-0.67227 2.4244-1.3022 3.6184-1.9857 0.8472-0.48495 1.7317-0.91799 2.5152-1.5003 0.9275-0.68932 1.5952-1.7015 2.5593-2.3387 0.917-0.60613 2.0036-0.90502 3.0006-1.3679 0.8116-0.37682 2.427-1.1473 2.427-1.1473l4.2361 1.3679s-7.4949 2.7356-10.988 4.6333c-2.14 1.1628-4.0327 2.7321-6.0453 4.1038-2.2385 1.5256-6.7072 4.5891-6.7072 4.5891z" fill="#f6f1e7" fill-rule="evenodd"/>
   <path d="m3662.6 68.216 1.6547-1.2797 2.7138-1.7871 2.2063-1.5885 2.1181-1.4782 2.6696-1.5003 1.9857-0.97078 3.5301-1.3679 1.8974-0.81634 1.3238-0.19857 0.4413 0.8384-3.2212 2.1898-6.6631 2.951-5.5599 3.508-4.9201 3.5301-1.6327 0.61777z" fill="#e9d6be" fill-rule="evenodd"/>
  </g>
 </g>
</svg>
