<svg width="138.4900390625px" height="69.21497802734375px" xmlns="http://www.w3.org/2000/svg" viewBox="180.75498046875 40.392510986328126 138.4900390625 69.21497802734375" style="background: none;" preserveAspectRatio="xMidYMid"><defs><filter id="editing-extrude-glow"><feFlood flood-color="#1d3f72" result="flood-1"></feFlood><feMorphology operator="erode" radius="1" in="SourceAlpha" result="erode"></feMorphology><feComposite operator="in" in="flood-1" in2="erode" result="comp1"></feComposite><feConvolveMatrix order="4,4" divisor="1" in="comp1" result="convolve" kernelMatrix="0 0 0 0 0 0 0 0 1 1 1 1 0 0 0 0"></feConvolveMatrix><feOffset dx="-4" dy="0" in="convolve" result="extrude"></feOffset><feComposite operator="in" in="flood-1" in2="extrude" result="comp-extrude"></feComposite><feFlood flood-color="#1c2d47" result="flood-2"></feFlood><feComposite operator="in" in="flood-2" in2="SourceAlpha" result="comp2"></feComposite><feMorphology operator="dilate" radius="1" in="comp2" result="dilate"></feMorphology><feOffset dx="-6" dy="0" in="dilate" result="offset"></feOffset><feGaussianBlur in="offset" stdDeviation="5.8" result="blur"></feGaussianBlur><feComponentTransfer in="blur" result="shadow"><feFuncA type="linear" slope="0.8" intercept="-0.2"></feFuncA></feComponentTransfer><feMerge><feMergeNode in="shadow"></feMergeNode><feMergeNode in="comp-extrude"></feMergeNode><feMergeNode in="SourceGraphic"></feMergeNode></feMerge></filter></defs><g filter="url(#editing-extrude-glow)"><g transform="translate(206.44999766349792, 85.23937511444092)"><path d="M16.38-10.96L16.38-10.96L16.38-10.96Q17.04-10.75 17.58-10.37L17.58-10.37L17.58-10.37Q18.12-9.99 18.50-9.40L18.50-9.40L18.50-9.40Q18.88-8.80 19.09-8.00L19.09-8.00L19.09-8.00Q19.29-7.19 19.29-6.15L19.29-6.15L19.29-5.10L19.29-5.10Q19.29 0 14.19 0L14.19 0L2.70 0L2.70-21.01L13.59-21.01L13.59-21.01Q18.69-21.01 18.69-15.89L18.69-15.89L18.69-15.51L18.69-15.51Q18.69-13.74 18.13-12.62L18.13-12.62L18.13-12.62Q17.56-11.50 16.38-10.96ZM14.11-9.16L5.64-9.16L5.64-2.94L14.11-2.94L14.11-2.94Q15.29-2.94 15.82-3.50L15.82-3.50L15.82-3.50Q16.35-4.06 16.35-5.24L16.35-5.24L16.35-6.87L16.35-6.87Q16.35-8.07 15.82-8.61L15.82-8.61L15.82-8.61Q15.29-9.16 14.11-9.16L14.11-9.16ZM13.51-18.06L5.64-18.06L5.64-12.08L13.71-12.08L13.71-12.08Q14.79-12.13 15.27-12.68L15.27-12.68L15.27-12.68Q15.75-13.23 15.75-14.37L15.75-14.37L15.75-15.75L15.75-15.75Q15.75-16.95 15.22-17.50L15.22-17.50L15.22-17.50Q14.69-18.06 13.51-18.06L13.51-18.06ZM30.09-21.01L33.09-21.01L41.19 0L38.19 0L36.33-4.83L26.85-4.83L24.99 0L21.99 0L30.09-21.01ZM31.60-17.09L27.99-7.84L35.17-7.84L31.60-17.09ZM61.39-15.89L61.39-13.51L61.39-13.51Q61.39-9.11 57.64-8.50L57.64-8.50L61.60 0L58.27 0L54.38-8.39L47.80-8.39L47.80 0L44.79 0L44.79-21.01L56.29-21.01L56.29-21.01Q61.39-21.01 61.39-15.89L61.39-15.89ZM47.80-18.00L47.80-11.40L56.13-11.40L56.13-11.40Q57.33-11.40 57.86-11.92L57.86-11.92L57.86-11.92Q58.39-12.45 58.39-13.65L58.39-13.65L58.39-15.75L58.39-15.75Q58.39-16.95 57.86-17.48L57.86-17.48L57.86-17.48Q57.33-18.00 56.13-18.00L56.13-18.00L47.80-18.00ZM84.40-18.00L84.40-3.00L84.40-3.00Q84.40-2.39 84.17-1.84L84.17-1.84L84.17-1.84Q83.94-1.29 83.53-0.88L83.53-0.88L83.53-0.88Q83.12-0.47 82.57-0.23L82.57-0.23L82.57-0.23Q82.02 0 81.40 0L81.40 0L69.40 0L69.40 0Q68.79 0 68.24-0.23L68.24-0.23L68.24-0.23Q67.69-0.47 67.28-0.88L67.28-0.88L67.28-0.88Q66.87-1.29 66.64-1.84L66.64-1.84L66.64-1.84Q66.40-2.39 66.40-3.00L66.40-3.00L66.40-18.00L66.40-18.00Q66.40-18.62 66.64-19.17L66.64-19.17L66.64-19.17Q66.87-19.72 67.28-20.12L67.28-20.12L67.28-20.12Q67.69-20.52 68.24-20.76L68.24-20.76L68.24-20.76Q68.79-21.01 69.40-21.01L69.40-21.01L81.40-21.01L81.40-21.01Q82.02-21.01 82.57-20.76L82.57-20.76L82.57-20.76Q83.12-20.52 83.53-20.12L83.53-20.12L83.53-20.12Q83.94-19.72 84.17-19.17L84.17-19.17L84.17-19.17Q84.40-18.62 84.40-18.00L84.40-18.00ZM81.40-18.00L69.40-18.00L69.40-3.00L81.40-3.00L81.40-18.00Z" fill="#ecf9fd"></path></g></g><style>text {
  font-size: 64px;
  font-family: Arial Black;
  dominant-baseline: central;
  text-anchor: middle;
}</style></svg>