<?xml version="1.0" encoding="UTF-8"?>
<!DOCTYPE svg  PUBLIC '-//W3C//DTD SVG 1.1//EN'  'http://www.w3.org/Graphics/SVG/1.1/DTD/svg11.dtd'>
<svg enable-background="new 0 0 63.35 55.6" version="1.1" viewBox="0 0 63.35 55.6" xml:space="preserve" xmlns="http://www.w3.org/2000/svg" xmlns:xlink="http://www.w3.org/1999/xlink">
<symbol id="g" viewBox="0 -30.417 30.81 30.425">
		<path d="m23.95-19.3c-0.8 1.3-1.5 2.316-2.1 3.05l-0.55 0.7c-1.966 2.433-4.167 4.45-6.6 6.05-2.633 1.5-4.55 2.6-5.75 3.3-0.5 0.3-2.417 1.133-5.75 2.5-2.1 0.867-3.167 1.7-3.2 2.5l0.1 0.3c0.033 0.3 0.167 0.533 0.4 0.7 0.267 0.167 0.683 0.233 1.25 0.2l0.1-0.05 1.3-0.2 3.45-0.95c1.8-0.466 4.017-1.617 6.65-3.45s5.133-3.983 7.5-6.45c2.433-2.6 4.75-5.983 6.95-10.15 0.908-1.733 1.649-3.284 2.225-4.65l-0.325 0.85c0.733-1.6 1.133-3.034 1.2-4.3 0.067-0.8-0.183-1.15-0.75-1.05-0.6 0.066-1.117 0.65-1.55 1.75-0.533 1.367-1 2.5-1.4 3.4-0.7 1.567-1.75 3.55-3.15 5.95z" clip-rule="evenodd" fill="#E4FF9E" fill-rule="evenodd"/>
</symbol>
<symbol id="h" viewBox="0 -26.764 34.35 26.764">
		<path d="m25.1-21.25c-1.3 2.5-2.367 4.333-3.2 5.5-1.566 2.133-2.833 3.7-3.8 4.7-1.033 1.1-2.533 2.433-4.5 4-1.167 0.933-3.383 2.05-6.65 3.35-3.233 1.267-5.55 2.5-6.95 3.7 0.233-0.1 0.45-0.133 0.65-0.1 0.5-0.1 1.617-0.583 3.35-1.45 0.333-0.167 2.067-0.767 5.2-1.8 2.2-0.7 4.583-2.05 7.15-4.05 3.633-2.8 6.55-6.517 8.75-11.15l0.6-1.25c0.466-0.967 0.8-1.767 1-2.4l0.05-0.3c0.967-2.067 1.683-3.033 2.15-2.9 0.3 0.1 0.883 0.5 1.75 1.2 0.467 0.167 1.217 0.117 2.25-0.15 0.6-0.167 1.083 0.25 1.45 1.25-0.3-1.6-1.267-2.717-2.9-3.35-1.6-0.566-2.817-0.367-3.65 0.6-0.633 0.767-1.533 2.3-2.7 4.6z" clip-rule="evenodd" fill-rule="evenodd"/>
</symbol>
<symbol id="i" viewBox="-0.003 -31.632 31.928 31.632">
		<path d="m9.15-2.35c2.1-1.1 3.95-2.233 5.55-3.4 4.4-3.367 8.283-7.517 11.65-12.45 2.333-3.466 4.083-7.083 5.25-10.85 0.1-0.5 0.2-0.967 0.3-1.4 0.033-0.2 0.033-0.4 0-0.6-0.133-0.534-0.45-0.7-0.95-0.5-0.534 0.233-0.983 0.833-1.35 1.8l-0.65 1.8 0.55-1.35c-1.5 4.4-3.367 8.2-5.6 11.4-3.633 5.367-8.367 9.733-14.2 13.1-1.933 1.133-4.067 1.883-6.4 2.25-1.733 0.3-2.8 0.767-3.2 1.4-0.267 0.4-0.017 0.717 0.75 0.95 0.567 0.133 1.233 0.2 2 0.2 1.667-0.267 3.767-1.05 6.3-2.35z" clip-rule="evenodd" fill="#E4FF9E" fill-rule="evenodd"/>
</symbol>
<symbol id="j" viewBox="-0.001 -31.95 33.851 31.956">
		<path d="m31.3-23.95c-2.2 4.167-4.517 7.55-6.95 10.15-2.367 2.466-4.867 4.617-7.5 6.45s-4.85 2.983-6.65 3.45c-2.7 0.733-4.217 1.117-4.55 1.15-1.333 0.167-2.017-0.2-2.05-1.1-0.033-0.833 1.017-1.683 3.15-2.55 3.467-1.434 5.4-2.267 5.8-2.5 1.2-0.7 3.117-1.8 5.75-3.3 2.434-1.6 4.633-3.617 6.6-6.05 1.934-2.4 3.717-5.333 5.35-8.8 0.833-1.733 1.467-3.233 1.9-4.5-0.633 1.733-1.566 3.7-2.8 5.9-2.4 4.433-4.983 7.867-7.75 10.3-2.067 1.8-4.65 3.55-7.75 5.25-2.6 1.434-4.633 2.367-6.1 2.8-2 0.566-3.15 0.883-3.45 0.95-1.133 0.2-1.933 0-2.4-0.6-0.433-0.567-0.233-1.183 0.6-1.85 0.8-0.6 2.3-1.4 4.5-2.4 1.433-0.667 3.267-1.3 5.5-1.9 2.133-0.8 4.483-2.3 7.05-4.5 1.567-1.333 3.15-3.117 4.75-5.35 1.167-1.6 2.15-3.15 2.95-4.65 1-1.833 1.533-3.283 1.6-4.35-0.467 1.5-1.267 3.233-2.4 5.2-2.2 3.967-4.85 7.167-7.95 9.6-2.567 2-4.95 3.35-7.15 4.05-3.033 0.967-4.767 1.567-5.2 1.8-0.933 0.5-2.017 1-3.25 1.5-0.067 0.033-0.2 0.05-0.4 0.05s-0.35 0.033-0.45 0.1c-1.4 1.3-2.083 2.683-2.05 4.15 0.033 1.3 0.583 2.483 1.65 3.55 1.067 1 2.3 1.633 3.7 1.9 0.467 0.1 1.1 0.066 1.9-0.1-0.8 0-1.467-0.067-2-0.2-0.8-0.2-1.067-0.517-0.8-0.95 0.4-0.633 1.466-1.1 3.2-1.4 2.333-0.367 4.467-1.117 6.4-2.25 5.833-3.367 10.567-7.733 14.2-13.1 2.233-3.2 4.1-7 5.6-11.4-0.6 1.567-1.45 3.4-2.55 5.5z" clip-rule="evenodd" fill="#E9FF57" fill-rule="evenodd"/>
</symbol>
<linearGradient id="f" x1="-49.921" x2="-3.5547" y1="1.5435" y2="1.5435" gradientTransform="matrix(-1.1134 -1.0324 1.0324 -1.1134 .0991 .0507)" gradientUnits="userSpaceOnUse">
	<stop stop-color="#3A7524" offset="0"/>
	<stop stop-color="#3D7624" offset=".3725"/>
	<stop stop-color="#457A23" offset=".6039"/>
	<stop stop-color="#548021" offset=".7961"/>
	<stop stop-color="#68881F" offset=".9686"/>
	<stop stop-color="#6D8A1E" offset="1"/>
</linearGradient>
<path d="m18.625 2.859c3.897 1.873 7.364 3.922 10.401 6.149 6.681 5.112 12.578 11.414 17.69 18.905 3.847 5.669 6.705 11.818 8.578 18.448 1.013 3.543 0.052 6.2-2.884 7.972-2.886 1.772-5.163 1.695-6.833-0.229-0.962-1.164-2.329-3.491-4.101-6.983-1.974-3.797-3.593-6.58-4.858-8.352-2.379-3.239-4.302-5.618-5.77-7.137-1.569-1.67-3.847-3.695-6.833-6.074-1.873-1.519-5.416-3.29-10.629-5.314-4.859-1.872-8.25-3.72-10.174-5.542-3.188-2.986-3.973-6.099-2.353-9.338 1.468-2.885 3.923-4.631 7.364-5.239 2.228-0.353 5.695 0.557 10.402 2.734z" clip-rule="evenodd" fill="url(#f)" fill-rule="evenodd"/>
<use transform="matrix(1.5184 0 0 -1.5184 .1001 .0498)" x="-0.001" y="-31.95" width="33.851" height="31.956" enable-background="new" opacity=".2813" xlink:href="#j"/>
<use transform="matrix(1.5184 0 0 -1.5184 6.7002 .25)" x="-0.003" y="-31.632" width="31.928" height="31.632" enable-background="new" opacity=".2188" xlink:href="#i"/>
<use transform="matrix(1.5184 0 0 -1.5184 3.3501 14.85)" y="-26.764" width="34.35" height="26.764" enable-background="new" opacity=".1992" xlink:href="#h"/>
<use transform="matrix(1.5184 0 0 -1.5184 5.5498 4.1499)" y="-30.417" width="30.81" height="30.425" enable-background="new" opacity=".1406" xlink:href="#g"/>
<path d="m4.807 5.744c0 0.81-0.278 1.721-0.835 2.733-0.557 0.961-1.037 1.493-1.442 1.594s-0.785 0.025-1.139-0.228c-0.456-0.405-0.683-1.113-0.683-2.126 0-1.062 0.279-2.024 0.835-2.885 0.505-0.708 1.037-1.138 1.594-1.29 0.456-0.101 0.861 0.076 1.215 0.531 0.303 0.456 0.455 1.013 0.455 1.671z" clip-rule="evenodd" fill="#A6CF4F" fill-rule="evenodd"/>
<path d="m16.575 9.919l0.303 0.304c0.304 0.253 0.608 0.354 0.911 0.303l0.835-0.076c-0.102 0.658-0.456 0.911-1.063 0.759-0.354-0.102-0.632-0.354-0.835-0.759l-0.151-0.531z" clip-rule="evenodd" fill="#336315" fill-rule="evenodd"/>
<path d="m28.343 15.386l0.152 0.532c0.151 0.405 0.405 0.632 0.759 0.683 0.607 0.102 1.012-0.025 1.214-0.38-0.05 0.659-0.329 1.038-0.834 1.139-0.304 0.051-0.608-0.025-0.911-0.228-0.254-0.152-0.405-0.379-0.456-0.684l0.076-1.062z" clip-rule="evenodd" fill="#336315" fill-rule="evenodd"/>
<path d="m36.314 23.661c0.058 0.222 0.208 0.374 0.455 0.456 0.507 0.253 0.861 0.278 1.063 0.076-0.254 0.557-0.633 0.734-1.139 0.532-0.305-0.102-0.431-0.405-0.38-0.911v-0.153z" clip-rule="evenodd" fill="#336315" fill-rule="evenodd"/>
<path d="m28.039 22.446c0.202 0.81-0.025 1.164-0.683 1.063-0.354-0.051-0.633-0.177-0.835-0.38l-0.152-0.228 0.759 0.076c0.506 1e-3 0.81-0.176 0.911-0.531z" clip-rule="evenodd" fill="#336315" fill-rule="evenodd"/>
<path d="m14.525 15.614l0.152 0.228c0.101 0.102 0.278 0.177 0.531 0.228l0.835-0.076c0.152 0.506-0.05 0.709-0.607 0.607-0.354-0.051-0.607-0.228-0.759-0.532l-0.152-0.455z" clip-rule="evenodd" fill="#336315" fill-rule="evenodd"/>
<path d="m34.948 29.204l0.075 0.455c0.102 0.253 0.253 0.404 0.455 0.455 0.354 0.102 0.634 0.102 0.836 0 0 0.506-0.304 0.658-0.911 0.456-0.354-0.102-0.531-0.354-0.531-0.76l0.076-0.606z" clip-rule="evenodd" fill="#336315" fill-rule="evenodd"/>
<path d="m39.124 31.253l-0.077 0.304c-0.05 0.203 0.051 0.38 0.305 0.532 0.294 0.21 0.496 0.286 0.607 0.228-0.37 0.336-0.699 0.336-0.987 0-0.202-0.203-0.254-0.431-0.152-0.684l0.304-0.38z" clip-rule="evenodd" fill="#336315" fill-rule="evenodd"/>
<path d="m30.468 10.603l0.532 0.455 0.607 0.152c0.05 0.253-0.127 0.303-0.532 0.152-0.202-0.051-0.379-0.203-0.531-0.456l-0.076-0.303z" clip-rule="evenodd" fill="#336315" fill-rule="evenodd"/>
<path d="m44.894 34.669l0.075 0.38c0.102 0.202 0.254 0.329 0.456 0.38 0.354 0.051 0.582 0.051 0.683 0 0.052 0.456-0.177 0.607-0.683 0.456-0.354-0.102-0.557-0.329-0.607-0.684l0.076-0.532z" clip-rule="evenodd" fill="#336315" fill-rule="evenodd"/>
<path d="m43.527 41.807v0.228c0 0.151 0.126 0.329 0.379 0.531 0.405 0.304 0.684 0.354 0.835 0.151-0.253 0.404-0.607 0.432-1.063 0.077-0.304-0.203-0.405-0.431-0.304-0.684l0.153-0.303z" clip-rule="evenodd" fill="#336315" fill-rule="evenodd"/>
<path d="m46.64 49.93v0.228c0.05 0.151 0.127 0.254 0.228 0.305 0.254 0.05 0.455-0.051 0.607-0.305 0.102 0.456-0.075 0.659-0.531 0.608-0.304-0.052-0.43-0.203-0.38-0.457l0.076-0.379z" clip-rule="evenodd" fill="#336315" fill-rule="evenodd"/>
<path d="m52.485 44.235c0 0.152 0.076 0.304 0.229 0.456 0.252 0.202 0.506 0.202 0.759 0-0.052 0.354-0.304 0.431-0.759 0.228-0.304-0.101-0.405-0.279-0.304-0.531l0.075-0.153z" clip-rule="evenodd" fill="#336315" fill-rule="evenodd"/>
<path d="m44.514 27.609v0.304c0.051 0.202 0.152 0.354 0.304 0.455 0.253 0.152 0.531 0.254 0.835 0.304-0.557 0.102-0.937 0.076-1.139-0.076-0.152-0.101-0.202-0.303-0.152-0.607l0.152-0.38z" clip-rule="evenodd" fill="#336315" fill-rule="evenodd"/>
<path d="m48.081 41.807c-0.05 0.151 0 0.329 0.153 0.531 0.304 0.354 0.581 0.481 0.835 0.379-0.254 0.354-0.557 0.404-0.911 0.152-0.203-0.203-0.278-0.456-0.228-0.759l0.151-0.303z" clip-rule="evenodd" fill="#336315" fill-rule="evenodd"/>
<path d="m40.338 38.922c-0.102-0.152-0.151-0.33-0.151-0.532l0.076-0.304 0.303 0.456c0.352 0.25 0.58 0.327 0.684 0.228-0.306 0.302-0.608 0.353-0.912 0.152z" clip-rule="evenodd" fill="#336315" fill-rule="evenodd"/>
<path d="m17.79 20.776l0.607 0.38c0.354 0.102 0.633 0.102 0.835 0-0.102 0.253-0.354 0.354-0.759 0.304-0.253-0.05-0.43-0.177-0.532-0.379l-0.151-0.305z" clip-rule="evenodd" fill="#336315" fill-rule="evenodd"/>
<path d="m21.282 9.464v0.228c0 0.152 0.151 0.278 0.455 0.379 0.456 0.203 0.759 0.228 0.912 0.076-0.405 0.607-0.836 0.709-1.291 0.304-0.304-0.253-0.405-0.481-0.304-0.684l0.228-0.303z" clip-rule="evenodd" fill="#336315" fill-rule="evenodd"/>
<path d="m11.488 1.644l0.076 0.228c0.102 0.151 0.279 0.253 0.531 0.303l0.836-0.075c0.05 0.354-0.203 0.48-0.759 0.38-0.354-0.05-0.582-0.203-0.684-0.456v-0.38z" clip-rule="evenodd" fill="#336315" fill-rule="evenodd"/>
<path d="m10.274 15.538c0.151 0.151 0.328 0.228 0.531 0.228 0.354 0 0.532-0.152 0.532-0.456 0.102 0.608-0.076 0.835-0.532 0.684-0.253-0.051-0.43-0.203-0.531-0.456z" clip-rule="evenodd" fill="#336315" fill-rule="evenodd"/>
<path d="m30.089 15.234c0.455 0.81 0.379 1.114-0.228 0.911-0.659-0.253-0.987-0.557-0.987-0.911-0.051-0.253 0.126-0.354 0.531-0.304 0.304 0.051 0.532 0.152 0.684 0.304z" clip-rule="evenodd" fill="#70A837" fill-rule="evenodd"/>
<path d="m12.931 1.568c0.253 0.354 0.101 0.405-0.456 0.152-0.506-0.253-0.709-0.405-0.607-0.456 0.354-0.151 0.709-0.05 1.063 0.304z" clip-rule="evenodd" fill="#91BA4E" fill-rule="evenodd"/>
<path d="m18.397 9.692c0.102 0.405-0.126 0.506-0.683 0.303-0.253-0.05-0.481-0.151-0.684-0.303-0.202-0.203-0.253-0.379-0.152-0.532 0.152-0.152 0.405-0.177 0.759-0.076 0.406 0.102 0.659 0.304 0.76 0.608z" clip-rule="evenodd" fill="#91BA4E" fill-rule="evenodd"/>
<path d="m22.497 9.54c0.304 0.405 0.203 0.506-0.304 0.304-0.506-0.253-0.733-0.456-0.683-0.608 0.051-0.151 0.177-0.202 0.38-0.151 0.202 0.101 0.404 0.252 0.607 0.455z" clip-rule="evenodd" fill="#91BA4E" fill-rule="evenodd"/>
<path d="m15.968 15.31c0.303 0.304 0.177 0.456-0.379 0.456-0.506 0-0.811-0.102-0.911-0.304-0.102-0.202 0.05-0.329 0.455-0.379s0.683 0.024 0.835 0.227z" clip-rule="evenodd" fill="#70A837" fill-rule="evenodd"/>
<path d="m11.033 14.475c0.607 0.405 0.43 0.709-0.532 0.911l-0.304-0.304c-0.152-0.101-0.101-0.253 0.152-0.455 0.253-0.203 0.482-0.254 0.684-0.152z" clip-rule="evenodd" fill="#70A837" fill-rule="evenodd"/>
<path d="m18.853 20.7c0.658 0.405 0.405 0.456-0.759 0.152-0.152-0.102-0.102-0.177 0.152-0.229 0.253-0.049 0.455-0.024 0.607 0.077z" clip-rule="evenodd" fill="#70A837" fill-rule="evenodd"/>
<path d="m27.887 22.219c-0.354 0.456-0.683 0.632-0.987 0.532-0.354-0.152-0.405-0.329-0.152-0.532 0.202-0.152 0.481-0.228 0.835-0.228 0.304 0 0.405 0.076 0.304 0.228z" clip-rule="evenodd" fill="#70A837" fill-rule="evenodd"/>
<path d="m30.696 10.451c0.152-0.05 0.329-0.025 0.531 0.076 0.202 0.152 0.329 0.329 0.38 0.531 0.102 0.203-0.202 0-0.911-0.607z" clip-rule="evenodd" fill="#70A837" fill-rule="evenodd"/>
<path d="m37.833 23.661c-0.304 0.202-0.607 0.202-0.911 0-0.304-0.203-0.405-0.405-0.304-0.607 0.102-0.203 0.405-0.203 0.911 0 0.506 0.202 0.607 0.404 0.304 0.607z" clip-rule="evenodd" fill="#699E33" fill-rule="evenodd"/>
<path d="m36.314 29.204c0.253 0.354 0.178 0.53-0.228 0.53-0.354 0-0.658-0.126-0.911-0.38-0.202-0.252-0.102-0.404 0.303-0.455 0.407-0.049 0.684 0.051 0.836 0.305z" clip-rule="evenodd" fill="#699E33" fill-rule="evenodd"/>
<path d="m39.959 31.633c0.202 0.405 0.126 0.48-0.229 0.229-0.354-0.203-0.531-0.431-0.531-0.684 0-0.203 0.102-0.228 0.304-0.076 0.203 0.1 0.354 0.278 0.456 0.531z" clip-rule="evenodd" fill="#699E33" fill-rule="evenodd"/>
<path d="m45.577 27.836c0.253 0.355 0.228 0.481-0.076 0.379-0.354-0.05-0.582-0.227-0.684-0.531-0.151-0.253-0.076-0.329 0.228-0.228 0.253 0.103 0.431 0.229 0.532 0.38z" clip-rule="evenodd" fill="#699E33" fill-rule="evenodd"/>
<path d="m45.957 34.594c0.354 0.354 0.354 0.531 0 0.531s-0.608-0.126-0.76-0.379c-0.152-0.254-0.102-0.38 0.151-0.38 0.304 0 0.507 0.075 0.609 0.228z" clip-rule="evenodd" fill="#699E33" fill-rule="evenodd"/>
<path d="m41.325 38.01c0.202 0.305 0.127 0.431-0.228 0.38-0.354-0.102-0.607-0.253-0.76-0.455-0.05-0.202 0.076-0.304 0.38-0.304 0.304 0.05 0.508 0.177 0.608 0.379z" clip-rule="evenodd" fill="#699E33" fill-rule="evenodd"/>
<path d="m44.666 41.882c0.202 0.456 0.126 0.633-0.228 0.531-0.305-0.151-0.557-0.379-0.76-0.683-0.151-0.253-0.051-0.354 0.304-0.304 0.304 0.052 0.532 0.203 0.684 0.456z" clip-rule="evenodd" fill="#699E33" fill-rule="evenodd"/>
<path d="m49.069 41.807c0.203 0.354 0.229 0.557 0.075 0.606-0.201 0.102-0.404 0-0.606-0.303-0.203-0.254-0.203-0.405 0-0.456 0.252-0.1 0.43-0.05 0.531 0.153z" clip-rule="evenodd" fill="#699E33" fill-rule="evenodd"/>
<path d="m53.245 43.933c0.253 0.405 0.228 0.556-0.076 0.455-0.304-0.05-0.532-0.203-0.684-0.455-0.05-0.203 0-0.304 0.151-0.304 0.204 0 0.406 0.1 0.609 0.304z" clip-rule="evenodd" fill="#699E33" fill-rule="evenodd"/>
<path d="m47.322 49.474c0.304 0.354 0.329 0.583 0.077 0.684-0.254 0.051-0.507-0.024-0.76-0.228-0.152-0.151-0.101-0.303 0.151-0.456 0.254-0.152 0.432-0.152 0.532 0z" clip-rule="evenodd" fill="#699E33" fill-rule="evenodd"/>
</svg>
